<?xml version="1.0" encoding="UTF-8" standalone="no"?>
<!-- Created with Inkscape (http://www.inkscape.org/) -->

<svg
   xmlns:dc="http://purl.org/dc/elements/1.1/"
   xmlns:cc="http://creativecommons.org/ns#"
   xmlns:rdf="http://www.w3.org/1999/02/22-rdf-syntax-ns#"
   xmlns:svg="http://www.w3.org/2000/svg"
   xmlns="http://www.w3.org/2000/svg"
   xmlns:sodipodi="http://sodipodi.sourceforge.net/DTD/sodipodi-0.dtd"
   xmlns:inkscape="http://www.inkscape.org/namespaces/inkscape"
   width="1000"
   height="1000"
   id="svg2988"
   version="1.1"
   inkscape:version="0.91 r13725"
   sodipodi:docname="tool_renderclose.svg"
   inkscape:export-filename="/Users/chyu/Source/sif.font/resources/concepts/tool_renderclose.png"
   inkscape:export-xdpi="2.1600001"
   inkscape:export-ydpi="2.1600001">
  <defs
     id="defs2990" />
  <sodipodi:namedview
     id="base"
     pagecolor="#ffffff"
     bordercolor="#666666"
     borderopacity="1.0"
     inkscape:pageopacity="0"
     inkscape:pageshadow="2"
     inkscape:zoom="0.32000012"
     inkscape:cx="500.00002"
     inkscape:cy="499.99982"
     inkscape:document-units="px"
     inkscape:current-layer="layer1"
     showgrid="false"
     inkscape:showpageshadow="false"
     showguides="false"
     inkscape:guide-bbox="true"
     inkscape:window-width="1440"
     inkscape:window-height="826"
     inkscape:window-x="0"
     inkscape:window-y="0"
     inkscape:window-maximized="1">
    <sodipodi:guide
       orientation="1,0"
       position="50,760"
       id="guide2996" />
    <sodipodi:guide
       orientation="1,0"
       position="950,808.57143"
       id="guide3000" />
    <sodipodi:guide
       orientation="0,1"
       position="648.57143,950"
       id="guide3002" />
    <sodipodi:guide
       orientation="0,1"
       position="605.71429,50"
       id="guide3004" />
    <sodipodi:guide
       orientation="1,0"
       position="100,645.71429"
       id="guide3006" />
    <sodipodi:guide
       orientation="1,0"
       position="900,480"
       id="guide3008" />
    <sodipodi:guide
       orientation="0,1"
       position="531.42857,900"
       id="guide3010" />
    <sodipodi:guide
       orientation="0,1"
       position="648.57143,100"
       id="guide3012" />
    <inkscape:grid
       type="xygrid"
       id="grid3014"
       empspacing="50"
       visible="true"
       enabled="true"
       snapvisiblegridlinesonly="true"
       dotted="false"
       color="#0400ff"
       opacity="0.02745098"
       empcolor="#f00059"
       empopacity="0.25098039" />
  </sodipodi:namedview>
  <metadata
     id="metadata2993">
    <rdf:RDF>
      <cc:Work
         rdf:about="">
        <dc:format>image/svg+xml</dc:format>
        <dc:type
           rdf:resource="http://purl.org/dc/dcmitype/StillImage" />
        <dc:title />
      </cc:Work>
    </rdf:RDF>
  </metadata>
  <g
     inkscape:label="Layer 1"
     inkscape:groupmode="layer"
     id="layer1"
     transform="translate(0,-52.362183)"
     style="display:inline">
    <g
       style="display:inline"
       id="g5045"
       transform="matrix(41.666651,0,0,41.666651,-14268.174,-47557.198)">
      <rect
         y="1142.6299"
         x="342.43631"
         height="24"
         width="24"
         id="rect5047"
         style="fill:none;stroke:none" />
      <g
         transform="translate(297.67541,468.83435)"
         id="g5049">
        <g
           id="g5051">
          <g
             id="g5055" />
          <g
             id="g5074"
             transform="matrix(1,0,0,-1,0,1366.9322)">
            <path
               id="path5080"
               transform="matrix(1,0,-0.20517438,0.97872543,0,0)"
               style="display:inline;fill:#000000;fill-rule:evenodd;stroke:none"
               d="m 194.57363,699.69791 4.432,0 -0.4025,2.58379 -4.432,0 z m 8.53225,0 4.432,0 -0.4025,2.58379 -4.432,0 z m -12.00103,3.57512 c -0.39688,0 -0.77233,-0.26115 -0.83669,-0.57483 -0.23366,-1.13883 -0.4673,-2.27755 -0.70096,-3.41638 -0.0644,-0.31367 0.20395,-0.57473 0.60083,-0.57473 l 20.75,0 c 0.39688,0 0.77232,0.26106 0.83667,0.57473 0.23366,1.13883 0.4673,2.27755 0.70096,3.41638 0.0644,0.31368 -0.20393,0.57483 -0.60081,0.57483 z m 2.9145,-6.27666 4.432,0 -1.47283,-2.63284 -4.432,0 z m 8.53225,0 4.432,0 -1.47283,-2.63284 -4.432,0 z m -12.52937,0.93185 20.75047,0 c 0.39689,0 0.66457,-0.25256 0.60022,-0.56626 l -2.5431,-12.39482 c -0.0643,-0.3137 -0.43569,-0.56624 -0.83258,-0.56624 l -20.75047,0 c -0.39688,0 -0.66458,0.25254 -0.60021,0.56624 l 2.5431,12.39482 c 0.0643,0.3137 0.43569,0.56626 0.83257,0.56626 z" />
          </g>
        </g>
      </g>
    </g>
  </g>
</svg>
