<?xml version="1.0" encoding="UTF-8" standalone="no"?>
<!-- Created with Inkscape (http://www.inkscape.org/) -->

<svg
   xmlns:dc="http://purl.org/dc/elements/1.1/"
   xmlns:cc="http://creativecommons.org/ns#"
   xmlns:rdf="http://www.w3.org/1999/02/22-rdf-syntax-ns#"
   xmlns:svg="http://www.w3.org/2000/svg"
   xmlns="http://www.w3.org/2000/svg"
   xmlns:sodipodi="http://sodipodi.sourceforge.net/DTD/sodipodi-0.dtd"
   xmlns:inkscape="http://www.inkscape.org/namespaces/inkscape"
   width="1000"
   height="1000"
   id="svg3278"
   version="1.1"
   inkscape:version="0.91 r13725"
   sodipodi:docname="clock-1.svg"
   inkscape:export-filename="/Users/chyu/Source/sif.font/resources/concepts/panel_timetrack.png"
   inkscape:export-xdpi="2.1600001"
   inkscape:export-ydpi="2.1600001">
  <defs
     id="defs3280" />
  <sodipodi:namedview
     id="base"
     pagecolor="#ffffff"
     bordercolor="#666666"
     borderopacity="1.0"
     inkscape:pageopacity="0.0"
     inkscape:pageshadow="2"
     inkscape:zoom="0.45384773"
     inkscape:cx="10.228664"
     inkscape:cy="502.20303"
     inkscape:document-units="px"
     inkscape:current-layer="layer1"
     showgrid="true"
     inkscape:window-width="1440"
     inkscape:window-height="826"
     inkscape:window-x="-18"
     inkscape:window-y="0"
     inkscape:window-maximized="0"
     showguides="true"
     inkscape:guide-bbox="true">
    <sodipodi:guide
       position="603.81048,442.32143"
       orientation="1,0"
       id="guide10294" />
    <sodipodi:guide
       position="603.81048,442.32143"
       orientation="0,1"
       id="guide10296" />
    <inkscape:grid
       type="xygrid"
       id="grid4140" />
  </sodipodi:namedview>
  <metadata
     id="metadata3283">
    <rdf:RDF>
      <cc:Work
         rdf:about="">
        <dc:format>image/svg+xml</dc:format>
        <dc:type
           rdf:resource="http://purl.org/dc/dcmitype/StillImage" />
        <dc:title />
      </cc:Work>
    </rdf:RDF>
  </metadata>
  <g
     inkscape:label="Layer 1"
     inkscape:groupmode="layer"
     id="layer1"
     transform="translate(0,-52.362183)">
    <path
       id="path3801"
       style="fill:#000000;stroke:none"
       d="m 545.54808,552.22412 c 0.045,33.24395 -27.08372,60.22981 -60.5942,60.27521 -33.50998,0.0454 -60.71176,-26.86684 -60.75681,-60.11079 -0.0445,-33.24313 27.08372,-60.22898 60.5937,-60.27439 33.50997,-0.0454 60.71176,26.86685 60.75731,60.10997 z m 60.97601,-191.32472 -75.95353,82.99381 c -25.99054,-11.08224 -55.01572,-15.04391 -84.01197,-6.33702 -33.87409,10.17766 -59.53793,34.55822 -74.30851,63.86966 l -49.93233,2.35746 c -33.53057,1.07132 -59.58122,27.51733 -58.50026,60.78039 1.08301,33.26306 29.27157,58.64579 62.80214,57.572 l 50.39766,-0.80693 c 28.90772,46.32813 93.48231,68.64132 141.56151,52.18808 77.20054,-26.41929 102.36632,-91.97296 75.26025,-170.50686 l 77.95364,-81.92958 c 16.68585,-17.65656 15.64186,-50.05135 -3.96761,-64.10584 -19.60947,-14.0545 -45.04386,-12.78568 -61.30048,3.92401 z m 348.68421,-249.32156 -442.03085,1.17341 -0.0211,135.36518 334.21893,0.0396 C 838.06748,429.60234 799.06853,592.1664 740.76067,708.15625 682.55071,823.94981 583.94404,886.16089 513.15631,899.82245 l -0.0106,105.41715 C 828.67939,989.53443 914.97936,694.3012 937.20811,552.42719 957.62607,402.03903 956.20875,246.18575 955.2083,111.57784 Z m -499.53093,2.39212 C 223.78162,128.98321 39.684104,319.81407 40.000354,553.60506 40.297525,789.54143 140.84048,991.8657 455.67723,1005.2198 l 0.0122,-104.2189 C 286.68532,886.44464 155.01251,747.20765 155.01257,575.16789 155.03544,403.36201 287.01003,264.18555 455.68949,249.33427 l 0.0211,-135.36436 z"
       inkscape:connector-curvature="0"
       sodipodi:nodetypes="sssssccccccccscczcccccsccccccccccccc" />
  </g>
</svg>
