<?xml version="1.0" encoding="UTF-8" standalone="no"?>
<!-- Created with Inkscape (http://www.inkscape.org/) -->

<svg
   xmlns:dc="http://purl.org/dc/elements/1.1/"
   xmlns:cc="http://creativecommons.org/ns#"
   xmlns:rdf="http://www.w3.org/1999/02/22-rdf-syntax-ns#"
   xmlns:svg="http://www.w3.org/2000/svg"
   xmlns="http://www.w3.org/2000/svg"
   xmlns:sodipodi="http://sodipodi.sourceforge.net/DTD/sodipodi-0.dtd"
   xmlns:inkscape="http://www.inkscape.org/namespaces/inkscape"
   width="1000"
   height="1000"
   id="svg3888"
   version="1.1"
   inkscape:version="0.91 r13725"
   sodipodi:docname="layer_radialblur.svg"
   inkscape:export-filename="/Users/chyu/Source/sif.font/resources/concepts/layer_radialblur.png"
   inkscape:export-xdpi="2.1600001"
   inkscape:export-ydpi="2.1600001">
  <defs
     id="defs3890" />
  <sodipodi:namedview
     id="base"
     pagecolor="#ffffff"
     bordercolor="#666666"
     borderopacity="1.0"
     inkscape:pageopacity="0.0"
     inkscape:pageshadow="2"
     inkscape:zoom="0.6433427"
     inkscape:cx="499.82134"
     inkscape:cy="502.99523"
     inkscape:document-units="px"
     inkscape:current-layer="g6592"
     showgrid="false"
     inkscape:window-width="1440"
     inkscape:window-height="826"
     inkscape:window-x="0"
     inkscape:window-y="0"
     inkscape:window-maximized="1" />
  <metadata
     id="metadata3893">
    <rdf:RDF>
      <cc:Work
         rdf:about="">
        <dc:format>image/svg+xml</dc:format>
        <dc:type
           rdf:resource="http://purl.org/dc/dcmitype/StillImage" />
        <dc:title />
      </cc:Work>
    </rdf:RDF>
  </metadata>
  <g
     inkscape:label="Layer 1"
     inkscape:groupmode="layer"
     id="layer1"
     transform="translate(0,-52.362183)">
    <g
       style="display:inline"
       id="g3582"
       transform="matrix(40.887017,0,0,40.887017,2575.176,-58573.169)">
      <g
         transform="matrix(1.0190684,0,0,1.0190684,-101.98239,386.1935)"
         style="display:inline"
         id="g6592">
        <path
           id="path9017"
           style="display:inline;fill:#000000;fill-opacity:1;stroke:none"
           d="m 50.269913,1028.036 c -2.033995,7.3256 -5.264381,7.4956 -5.264381,12.6337 0,2.4191 2.461561,5.0346 5.264381,5.0346 2.802821,0 5.264381,-2.6155 5.264381,-5.0346 0,-5.1381 -3.329892,-5.3081 -5.264381,-12.6337 z m -2.833222,11.2565 c -0.08675,0.7562 -0.04571,1.6379 0.451595,2.5079 0.497311,0.87 1.346254,1.5526 2.04191,1.8616 -1.067051,0.2471 -2.531747,-0.179 -3.124492,-1.216 -0.592743,-1.0371 -0.123406,-2.3595 0.630987,-3.1535 z m -2.842941,2.4626 c -0.799917,0.7224 -1.3125,1.6482 -1.3125,2.6562 0,1.3258 0.885481,2.4646 2.15625,3.25 1.270769,0.7854 2.968732,1.25 4.84375,1.25 1.875017,0 3.572981,-0.4646 4.84375,-1.25 1.270769,-0.7854 2.125,-1.9242 2.125,-3.25 0,-1.008 -0.512583,-1.9338 -1.3125,-2.6562 -0.11319,0.3392 -0.26435,0.6835 -0.4375,1 0.475748,0.5098 0.75,1.0723 0.75,1.6562 0,0.8887 -0.578912,1.7405 -1.65625,2.4063 -1.077339,0.6659 -2.604427,1.0937 -4.3125,1.0937 -1.708074,0 -3.235162,-0.4278 -4.3125,-1.0937 -1.077338,-0.6658 -1.6875,-1.5176 -1.6875,-2.4063 0,-0.5839 0.299462,-1.1464 0.78125,-1.6562 -0.174946,-0.3167 -0.354287,-0.6605 -0.46875,-1 z m 0,-4 c -1.018908,0.3437 -1.965735,0.7772 -2.78125,1.2812 -2.174706,1.3441 -3.53125,3.2604 -3.53125,5.375 0,2.1146 1.356544,3.9998 3.53125,5.3438 2.174707,1.344 5.182315,2.1562 8.46875,2.1562 3.286434,0 6.262794,-0.8122 8.4375,-2.1562 2.174707,-1.344 3.53125,-3.2292 3.53125,-5.3438 0,-2.1146 -1.356543,-4.0309 -3.53125,-5.375 -0.830232,-0.5131 -1.778652,-0.9346 -2.8125,-1.2812 0.05262,0.1904 0.116656,0.3887 0.15625,0.5937 0.879436,0.3166 1.664423,0.6858 2.375,1.125 2.07799,1.2843 3.34375,3.0414 3.34375,4.9375 0,1.8961 -1.26576,3.622 -3.34375,4.9063 -2.077991,1.2843 -4.953288,2.0937 -8.15625,2.0937 -3.202963,0 -6.109509,-0.8094 -8.1875,-2.0937 -2.07799,-1.2843 -3.34375,-3.0102 -3.34375,-4.9063 0,-1.8961 1.26576,-3.6532 3.34375,-4.9375 0.705201,-0.4358 1.497721,-0.8098 2.375,-1.125 0.03906,-0.2023 0.07324,-0.4056 0.125,-0.5937 z" />
      </g>
    </g>
  </g>
</svg>
