<?xml version="1.0" encoding="UTF-8" standalone="no"?>
<!-- Created with Inkscape (http://www.inkscape.org/) -->

<svg
   xmlns:dc="http://purl.org/dc/elements/1.1/"
   xmlns:cc="http://creativecommons.org/ns#"
   xmlns:rdf="http://www.w3.org/1999/02/22-rdf-syntax-ns#"
   xmlns:svg="http://www.w3.org/2000/svg"
   xmlns="http://www.w3.org/2000/svg"
   xmlns:sodipodi="http://sodipodi.sourceforge.net/DTD/sodipodi-0.dtd"
   xmlns:inkscape="http://www.inkscape.org/namespaces/inkscape"
   width="1000"
   height="1000"
   id="svg3288"
   version="1.1"
   inkscape:version="0.91 r13725"
   sodipodi:docname="duck-scale.svg">
  <defs
     id="defs3290" />
  <sodipodi:namedview
     id="base"
     pagecolor="#ffffff"
     bordercolor="#666666"
     borderopacity="1.0"
     inkscape:pageopacity="0.0"
     inkscape:pageshadow="2"
     inkscape:zoom="0.36349744"
     inkscape:cx="1332.3638"
     inkscape:cy="545.11407"
     inkscape:document-units="px"
     inkscape:current-layer="g5528"
     showgrid="false"
     showguides="false"
     inkscape:window-width="1402"
     inkscape:window-height="855"
     inkscape:window-x="198"
     inkscape:window-y="63"
     inkscape:window-maximized="0" />
  <metadata
     id="metadata3293">
    <rdf:RDF>
      <cc:Work
         rdf:about="">
        <dc:format>image/svg+xml</dc:format>
        <dc:type
           rdf:resource="http://purl.org/dc/dcmitype/StillImage" />
        <dc:title />
      </cc:Work>
    </rdf:RDF>
  </metadata>
  <g
     inkscape:label="Layer 1"
     inkscape:groupmode="layer"
     id="layer1"
     transform="translate(0,-52.362183)">
    <g
       transform="matrix(41.666667,0,0,41.666667,-14546.126,-28732.146)"
       id="g5504">
      <g
         transform="translate(-50.51743,-0.51500991)"
         id="g5522">
        <g
           transform="matrix(0.76171904,0,0,0.76171904,164.5965,154.28467)"
           id="g5972">
          <g
             transform="matrix(0.99528452,0,0,0.99528452,-67.170872,3.3246971)"
             id="g6061">
            <g
               transform="matrix(1.3167058,0,0,1.3167058,-93.239227,-257.37102)"
               id="g5528">
              <g
                 id="g4190"
                 transform="translate(-12.18569,25.383799)" />
              <path
                 id="path4159"
                 transform="matrix(0.02404254,0,0,0.02404254,357.51312,730.93945)"
                 style="color:#000000;font-style:normal;font-variant:normal;font-weight:normal;font-stretch:normal;font-size:medium;line-height:normal;font-family:sans-serif;text-indent:0;text-align:start;text-decoration:none;text-decoration-line:none;text-decoration-style:solid;text-decoration-color:#000000;letter-spacing:normal;word-spacing:normal;text-transform:none;direction:ltr;block-progression:tb;writing-mode:lr-tb;baseline-shift:baseline;text-anchor:start;white-space:normal;clip-rule:nonzero;display:inline;overflow:visible;visibility:visible;opacity:1;isolation:auto;mix-blend-mode:normal;color-interpolation:sRGB;color-interpolation-filters:linearRGB;solid-color:#000000;solid-opacity:1;fill:#000000;fill-opacity:1;fill-rule:nonzero;stroke:none;stroke-width:1.15404212;stroke-linecap:round;stroke-linejoin:miter;stroke-miterlimit:4;stroke-dasharray:none;stroke-dashoffset:0.85000002;stroke-opacity:1;color-rendering:auto;image-rendering:auto;shape-rendering:auto;text-rendering:auto;enable-background:accumulate"
                 d="m 689.39258,100.00195 c -105.85149,0 -193.77143,78.75052 -208.3457,180.66993 l -391.013677,0 0,639.32812 639.328127,0 0,-402.70117 c 96.988,-18.75643 170.5957,-104.39579 170.5957,-206.73242 0,-115.99813 -94.56633,-210.56446 -210.56445,-210.56446 z m 0,48.00977 c 90.05702,0 162.55469,72.49766 162.55469,162.55469 0,90.05702 -72.49767,162.55273 -162.55469,162.55273 -90.05661,0 -162.4707,-72.49571 -162.4707,-162.55273 0,-90.05703 72.41409,-162.55469 162.4707,-162.55469 z m -551.34961,180.66992 341.65625,0 c 9.00103,104.93035 95.41077,188.25625 201.65234,192.2793 l 0,351.02929 -543.30859,0 0,-543.30859 z M 218.59005,-4.1592943e-5 33.86747,116.41237 l 184.72258,116.40991 0,-74.81822 272.46664,0 0,-83.185468 -272.46664,0 z M 925.18178,506.86321 l -83.18547,0.002 0,272.54691 -74.81863,-2.00062 L 883.59009,964.13395 1000,779.41137 l -74.81822,0 z" />
            </g>
          </g>
        </g>
      </g>
    </g>
  </g>
</svg>
