<?xml version="1.0" encoding="UTF-8" standalone="no"?>
<!-- Created with Inkscape (http://www.inkscape.org/) -->

<svg
   xmlns:dc="http://purl.org/dc/elements/1.1/"
   xmlns:cc="http://creativecommons.org/ns#"
   xmlns:rdf="http://www.w3.org/1999/02/22-rdf-syntax-ns#"
   xmlns:svg="http://www.w3.org/2000/svg"
   xmlns="http://www.w3.org/2000/svg"
   xmlns:sodipodi="http://sodipodi.sourceforge.net/DTD/sodipodi-0.dtd"
   xmlns:inkscape="http://www.inkscape.org/namespaces/inkscape"
   width="1000"
   height="1000"
   id="svg3288"
   version="1.1"
   inkscape:version="0.91 r13725"
   sodipodi:docname="duck_scale.svg">
  <defs
     id="defs3290" />
  <sodipodi:namedview
     id="base"
     pagecolor="#ffffff"
     bordercolor="#666666"
     borderopacity="1.0"
     inkscape:pageopacity="0.0"
     inkscape:pageshadow="2"
     inkscape:zoom="0.319"
     inkscape:cx="2.967125"
     inkscape:cy="474.34382"
     inkscape:document-units="px"
     inkscape:current-layer="g5528"
     showgrid="false"
     showguides="false"
     inkscape:window-width="1402"
     inkscape:window-height="855"
     inkscape:window-x="168"
     inkscape:window-y="0"
     inkscape:window-maximized="0" />
  <metadata
     id="metadata3293">
    <rdf:RDF>
      <cc:Work
         rdf:about="">
        <dc:format>image/svg+xml</dc:format>
        <dc:type
           rdf:resource="http://purl.org/dc/dcmitype/StillImage" />
        <dc:title></dc:title>
      </cc:Work>
    </rdf:RDF>
  </metadata>
  <g
     inkscape:label="Layer 1"
     inkscape:groupmode="layer"
     id="layer1"
     transform="translate(0,-52.362183)">
    <g
       transform="matrix(41.666667,0,0,41.666667,-14546.126,-28732.146)"
       id="g5504">
      <g
         transform="translate(-50.51743,-0.51500991)"
         id="g5522">
        <g
           transform="matrix(0.76171904,0,0,0.76171904,164.5965,154.28467)"
           id="g5972">
          <g
             transform="matrix(0.99528452,0,0,0.99528452,-67.170872,3.3246971)"
             id="g6061">
            <g
               transform="matrix(1.3167058,0,0,1.3167058,-93.239227,-257.37102)"
               id="g5528">
              <path
                 inkscape:connector-curvature="0"
                 style="color:#000000;font-style:normal;font-variant:normal;font-weight:normal;font-stretch:normal;font-size:medium;line-height:normal;font-family:sans-serif;text-indent:0;text-align:start;text-decoration:none;text-decoration-line:none;text-decoration-style:solid;text-decoration-color:#000000;letter-spacing:normal;word-spacing:normal;text-transform:none;direction:ltr;block-progression:tb;writing-mode:lr-tb;baseline-shift:baseline;text-anchor:start;white-space:normal;clip-rule:nonzero;display:inline;overflow:visible;visibility:visible;opacity:1;isolation:auto;mix-blend-mode:normal;color-interpolation:sRGB;color-interpolation-filters:linearRGB;solid-color:#000000;solid-opacity:1;fill:#000000;fill-opacity:1;fill-rule:evenodd;stroke:none;stroke-width:2;stroke-linecap:butt;stroke-linejoin:miter;stroke-miterlimit:4;stroke-dasharray:none;stroke-dashoffset:0;stroke-opacity:1;color-rendering:auto;image-rendering:auto;shape-rendering:auto;text-rendering:auto;enable-background:accumulate"
                 d="m 363.76758,730.93945 -4.68164,2.79883 4.68164,2.79883 0,-1.79883 6.55078,0 0,-2 -6.55078,0 0,-1.79883 z m 12.00586,1.375 c -0.59254,-0.0427 -1.2014,0.0307 -1.79688,0.23438 -2.08354,0.71251 -3.32396,2.79833 -3.05664,4.90429 l -12.0957,0 0,0.75 0,15.6543 16.4043,0 0,-12.42187 c 0.56432,0.0296 1.14132,-0.037 1.70703,-0.23047 2.38193,-0.81455 3.66417,-3.42668 2.84961,-5.8086 -0.61092,-1.78644 -2.23411,-2.95383 -4.01172,-3.08203 z m -0.0977,1.49219 c 1.19554,0.0822 2.27527,0.86306 2.68945,2.07422 0.55224,1.61488 -0.29919,3.35204 -1.91406,3.9043 -1.61488,0.55224 -3.3501,-0.2992 -3.90234,-1.91407 -0.55225,-1.61489 0.29723,-3.35204 1.91211,-3.90429 0.40372,-0.13806 0.81633,-0.18756 1.21484,-0.16016 z m -15.35156,5.14648 11.08008,0 c 0.50768,0.98926 1.33971,1.72729 2.32422,2.13282 l 0,11.27148 -13.4043,0 0,-13.4043 z m 14.12305,2.36719 c 0.0333,0.008 0.068,0.009 0.10156,0.0156 -0.0334,-0.007 -0.0684,-0.008 -0.10156,-0.0156 z m 3.29882,0.84375 0,6.55274 -1.79882,0 2.79882,4.68164 2.79883,-4.68164 -1.79883,0 0,-6.55274 -2,0 z"
                 id="path5532" />
            </g>
          </g>
        </g>
      </g>
    </g>
  </g>
</svg>
