<?xml version="1.0" encoding="UTF-8" standalone="no"?>
<!-- Created with Inkscape (http://www.inkscape.org/) -->

<svg
   xmlns:dc="http://purl.org/dc/elements/1.1/"
   xmlns:cc="http://creativecommons.org/ns#"
   xmlns:rdf="http://www.w3.org/1999/02/22-rdf-syntax-ns#"
   xmlns:svg="http://www.w3.org/2000/svg"
   xmlns="http://www.w3.org/2000/svg"
   xmlns:sodipodi="http://sodipodi.sourceforge.net/DTD/sodipodi-0.dtd"
   xmlns:inkscape="http://www.inkscape.org/namespaces/inkscape"
   width="1000"
   height="1000"
   id="svg3288"
   version="1.1"
   inkscape:version="0.91 r13725"
   sodipodi:docname="duck-angle.svg">
  <defs
     id="defs3290" />
  <sodipodi:namedview
     id="base"
     pagecolor="#ffffff"
     bordercolor="#666666"
     borderopacity="1.0"
     inkscape:pageopacity="0.0"
     inkscape:pageshadow="2"
     inkscape:zoom="0.319"
     inkscape:cx="62.528254"
     inkscape:cy="358.35636"
     inkscape:document-units="px"
     inkscape:current-layer="g5972"
     showgrid="false"
     showguides="false"
     inkscape:window-width="1402"
     inkscape:window-height="855"
     inkscape:window-x="168"
     inkscape:window-y="0"
     inkscape:window-maximized="0" />
  <metadata
     id="metadata3293">
    <rdf:RDF>
      <cc:Work
         rdf:about="">
        <dc:format>image/svg+xml</dc:format>
        <dc:type
           rdf:resource="http://purl.org/dc/dcmitype/StillImage" />
        <dc:title />
      </cc:Work>
    </rdf:RDF>
  </metadata>
  <g
     inkscape:label="Layer 1"
     inkscape:groupmode="layer"
     id="layer1"
     transform="translate(0,-52.362183)">
    <g
       transform="matrix(41.666667,0,0,41.666667,-14546.126,-28732.146)"
       id="g5504">
      <g
         transform="translate(-50.51743,-0.51500991)"
         id="g5522">
        <g
           transform="matrix(0.76171904,0,0,0.76171904,164.5965,154.28467)"
           id="g5972">
          <path
             id="path4134"
             style="color:#000000;font-style:normal;font-variant:normal;font-weight:normal;font-stretch:normal;font-size:medium;line-height:normal;font-family:sans-serif;text-indent:0;text-align:start;text-decoration:none;text-decoration-line:none;text-decoration-style:solid;text-decoration-color:#000000;letter-spacing:normal;word-spacing:normal;text-transform:none;direction:ltr;block-progression:tb;writing-mode:lr-tb;baseline-shift:baseline;text-anchor:start;white-space:normal;clip-rule:nonzero;display:inline;overflow:visible;visibility:visible;opacity:1;isolation:auto;mix-blend-mode:normal;color-interpolation:sRGB;color-interpolation-filters:linearRGB;solid-color:#000000;solid-opacity:1;fill:#000000;fill-opacity:1;fill-rule:nonzero;stroke:none;stroke-width:48.09521484;stroke-linecap:round;stroke-linejoin:miter;stroke-miterlimit:4;stroke-dasharray:none;stroke-dashoffset:0.85000002;stroke-opacity:1;color-rendering:auto;image-rendering:auto;shape-rendering:auto;text-rendering:auto;enable-background:accumulate"
             d="m 312.67056,734.70331 -4.03673,-3.436 13.94307,-16.38076 c -1.12337,-2.30477 -0.85724,-5.16035 0.90661,-7.23258 2.37405,-2.7891 6.58251,-3.12742 9.37162,-0.75338 2.7891,2.37405 3.12741,6.58253 0.75337,9.37163 -1.76388,2.07227 -4.54028,2.79119 -6.99492,2.05036 z M 332.45455,715.29 c 1.84321,-2.16547 1.58383,-5.39223 -0.58165,-7.23545 -2.16547,-1.84321 -5.39223,-1.58382 -7.23545,0.58165 -1.84321,2.16547 -1.58381,5.39222 0.58165,7.23544 2.16548,1.84322 5.39223,1.58382 7.23545,-0.58164 z m -19.95539,17.28137 12.66799,-14.88276 c -0.32335,-0.19093 -0.63494,-0.41149 -0.93034,-0.66294 -0.29542,-0.25144 -0.56303,-0.52362 -0.80305,-0.8125 l -12.66799,14.88277 z m 13.92176,-12.69624 0.29488,7.1564 2.33076,-1.5282 c 1.24205,2.14365 2.32455,5.42424 0.92051,9.55897 l 1.8641,0.63333 c 1.62416,-4.78294 0.31348,-8.71607 -1.15897,-11.25641 l 2.19231,-1.43589 -6.44359,-3.1282 z" />
        </g>
      </g>
    </g>
  </g>
</svg>
