<?xml version="1.0" encoding="UTF-8" standalone="no"?>
<!-- Created with Inkscape (http://www.inkscape.org/) -->

<svg
   xmlns:dc="http://purl.org/dc/elements/1.1/"
   xmlns:cc="http://creativecommons.org/ns#"
   xmlns:rdf="http://www.w3.org/1999/02/22-rdf-syntax-ns#"
   xmlns:svg="http://www.w3.org/2000/svg"
   xmlns="http://www.w3.org/2000/svg"
   xmlns:sodipodi="http://sodipodi.sourceforge.net/DTD/sodipodi-0.dtd"
   xmlns:inkscape="http://www.inkscape.org/namespaces/inkscape"
   width="1000"
   height="1000"
   id="svg3288"
   version="1.1"
   inkscape:version="0.91 r13725"
   sodipodi:docname="duck-radius.svg"
   inkscape:export-filename="/Users/chyu/Source/sif.font/resources/concepts/duck_radius.png"
   inkscape:export-xdpi="2.1600001"
   inkscape:export-ydpi="2.1600001">
  <defs
     id="defs3290" />
  <sodipodi:namedview
     id="base"
     pagecolor="#ffffff"
     bordercolor="#666666"
     borderopacity="1.0"
     inkscape:pageopacity="0.0"
     inkscape:pageshadow="2"
     inkscape:zoom="0.19960895"
     inkscape:cx="-2.2697538"
     inkscape:cy="274.66208"
     inkscape:document-units="px"
     inkscape:current-layer="g3435"
     showgrid="false"
     showguides="false"
     inkscape:window-width="1402"
     inkscape:window-height="855"
     inkscape:window-x="27"
     inkscape:window-y="0"
     inkscape:window-maximized="0" />
  <metadata
     id="metadata3293">
    <rdf:RDF>
      <cc:Work
         rdf:about="">
        <dc:format>image/svg+xml</dc:format>
        <dc:type
           rdf:resource="http://purl.org/dc/dcmitype/StillImage" />
        <dc:title />
      </cc:Work>
    </rdf:RDF>
  </metadata>
  <g
     inkscape:label="Layer 1"
     inkscape:groupmode="layer"
     id="layer1"
     transform="translate(0,-52.362183)">
    <g
       transform="matrix(41.666667,0,0,41.666667,-14546.126,-28732.146)"
       id="g5504">
      <g
         id="g3435"
         transform="matrix(31.738293,0,0,31.738293,-11461.57,-21179.898)">
        <path
           style="color:#000000;font-style:normal;font-variant:normal;font-weight:normal;font-stretch:normal;font-size:medium;line-height:normal;font-family:sans-serif;text-indent:0;text-align:start;text-decoration:none;text-decoration-line:none;text-decoration-style:solid;text-decoration-color:#000000;letter-spacing:normal;word-spacing:normal;text-transform:none;direction:ltr;block-progression:tb;writing-mode:lr-tb;baseline-shift:baseline;text-anchor:start;white-space:normal;clip-rule:nonzero;display:inline;overflow:visible;visibility:visible;opacity:1;isolation:auto;mix-blend-mode:normal;color-interpolation:sRGB;color-interpolation-filters:linearRGB;solid-color:#000000;solid-opacity:1;fill:#000000;fill-opacity:1;fill-rule:nonzero;stroke:none;stroke-width:0.03629685;stroke-linecap:round;stroke-linejoin:miter;stroke-miterlimit:4;stroke-dasharray:none;stroke-dashoffset:0.85000002;stroke-opacity:1;color-rendering:auto;image-rendering:auto;shape-rendering:auto;text-rendering:auto;enable-background:accumulate"
           d="m 372.46607,689.15852 c -0.17374,0 -0.31445,0.14281 -0.31445,0.31641 0,0.1736 0.14085,0.31445 0.31445,0.31445 0.11444,0 0.21464,-0.0612 0.26965,-0.15265 0.0708,-0.0198 0.12293,-0.0849 0.12293,-0.16181 0,-0.0767 -0.052,-0.14175 -0.12252,-0.16169 -0.0549,-0.0924 -0.15526,-0.15471 -0.27006,-0.15471 z m 0,0.0352 c 0.0912,0 0.1724,0.0448 0.22344,0.11326 -0.0108,7e-5 -0.0213,0.001 -0.0315,0.003 -0.0461,-0.0545 -0.11467,-0.0892 -0.19191,-0.0892 -0.14011,0 -0.2539,0.1138 -0.2539,0.25391 0,0.14011 0.11397,0.25195 0.2539,0.25195 0.0768,0 0.14519,-0.0338 0.19126,-0.0873 0.0103,0.002 0.0209,0.003 0.0317,0.003 -0.051,0.0676 -0.13202,0.11139 -0.22301,0.11139 -0.15393,0 -0.27929,-0.12535 -0.27929,-0.27929 0,-0.15394 0.1255,-0.28126 0.27929,-0.28126 z m 0,0.0625 c 0.061,0 0.11591,0.0252 0.15518,0.0658 -0.058,0.0265 -0.0985,0.0851 -0.0985,0.15287 0,0.0675 0.0403,0.12597 0.098,0.15262 -0.0392,0.0397 -0.0938,0.0642 -0.15464,0.0642 -0.12059,0 -0.21875,-0.0964 -0.21875,-0.2168 0,-0.12041 0.0983,-0.21875 0.21875,-0.21875 z m 0.22461,0.0859 c 0.0728,0 0.13086,0.06 0.13086,0.13281 0,0.0728 -0.058,0.13086 -0.13086,0.13086 -0.0728,0 -0.13086,-0.058 -0.13086,-0.13086 0,-0.0728 0.058,-0.13281 0.13086,-0.13281 z"
           id="circle4145"
           inkscape:connector-curvature="0" />
      </g>
    </g>
  </g>
</svg>
