<?xml version="1.0" encoding="UTF-8" standalone="no"?>
<!-- Created with Inkscape (http://www.inkscape.org/) -->

<svg
   xmlns:dc="http://purl.org/dc/elements/1.1/"
   xmlns:cc="http://creativecommons.org/ns#"
   xmlns:rdf="http://www.w3.org/1999/02/22-rdf-syntax-ns#"
   xmlns:svg="http://www.w3.org/2000/svg"
   xmlns="http://www.w3.org/2000/svg"
   xmlns:sodipodi="http://sodipodi.sourceforge.net/DTD/sodipodi-0.dtd"
   xmlns:inkscape="http://www.inkscape.org/namespaces/inkscape"
   width="1000"
   height="1000"
   id="svg3288"
   version="1.1"
   inkscape:version="0.91 r13725"
   sodipodi:docname="duck-width.svg">
  <defs
     id="defs3290" />
  <sodipodi:namedview
     id="base"
     pagecolor="#ffffff"
     bordercolor="#666666"
     borderopacity="1.0"
     inkscape:pageopacity="0.0"
     inkscape:pageshadow="2"
     inkscape:zoom="0.28129547"
     inkscape:cx="726.69732"
     inkscape:cy="731.28505"
     inkscape:document-units="px"
     inkscape:current-layer="g5522"
     showgrid="false"
     showguides="false"
     inkscape:window-width="1402"
     inkscape:window-height="855"
     inkscape:window-x="6"
     inkscape:window-y="0"
     inkscape:window-maximized="0" />
  <metadata
     id="metadata3293">
    <rdf:RDF>
      <cc:Work
         rdf:about="">
        <dc:format>image/svg+xml</dc:format>
        <dc:type
           rdf:resource="http://purl.org/dc/dcmitype/StillImage" />
        <dc:title />
      </cc:Work>
    </rdf:RDF>
  </metadata>
  <g
     inkscape:label="Layer 1"
     inkscape:groupmode="layer"
     id="layer1"
     transform="translate(0,-52.362183)">
    <g
       transform="matrix(41.666667,0,0,41.666667,-14546.126,-28732.146)"
       id="g5504">
      <g
         transform="translate(-50.51743,-0.51500991)"
         id="g5522">
        <path
           style="fill:#000000;fill-rule:evenodd;stroke:none;stroke-width:1px;stroke-linecap:butt;stroke-linejoin:miter;stroke-opacity:1"
           d="m 51.273438,16.818359 c -10.062345,-0.0058 -13.40086,11.455938 -13.052735,15.046875 0.4625,4.787917 42.69336,331.601566 42.693359,331.601566 27.974168,217.39917 101.490678,324.78466 192.058598,381.67382 64.03166,61.99543 150.9313,100.50391 246.41796,100.50391 35.56502,0 69.90446,-5.42466 102.37696,-15.29883 36.53708,7.1075 70.78508,16.78482 100.42383,33.36524 l 207.59765,116.14062 c 30.66167,15.13084 27.3868,-8.80151 24.37305,-15.43359 -32.33056,-117.39506 -66.91272,-229.58979 -76.71094,-332.71875 68.94325,-35.06906 116.33985,-106.7352 116.33985,-189.16797 0,-116.84833 -95.22743,-212.07617 -212.07618,-212.07617 -7.4814,0 -14.87337,0.39676 -22.1582,1.1582 -63.20144,-59.26581 -147.252,-96.25586 -240.16602,-96.25586 -50.57208,0 -98.6544,10.95302 -142.33398,30.27344 C 177.03331,176.98003 174.53487,107.10745 63.689453,21.363281 58.728411,18.097031 54.627552,16.820306 51.273438,16.818359 Z M 519.39062,187.44141 c 67.30329,0 129.11277,22.51393 179.29297,59.98047 -21.03435,8.99634 -40.32848,21.30581 -57.23828,36.25781 -35.69824,-21.28335 -77.28782,-33.73828 -122.05469,-33.73828 -133.21,0 -240.55859,107.35054 -240.55859,240.56054 0,133.21042 107.34859,240.5586 240.55859,240.5586 76.02312,0 142.75138,-35.58322 186.57032,-90.47461 20.75432,7.97594 43.06024,12.77729 66.32617,13.80273 -53.85437,83.33948 -146.53756,139.17188 -252.89649,139.17188 -166.9875,0 -303.05859,-136.07068 -303.05859,-303.0586 0,-166.9875 136.07109,-303.06054 303.05859,-303.06054 z m 262.32422,91.02734 c 90.9075,0 164.0625,73.155 164.0625,164.0625 0,90.9075 -73.155,164.14453 -164.0625,164.14453 -90.90708,0 -164.0625,-73.23703 -164.0625,-164.14453 0,-90.9075 73.15542,-164.0625 164.0625,-164.0625 z"
           transform="matrix(0.024,0,0,0.024,399.62445,691.3432)"
           id="path5526"
           inkscape:connector-curvature="0"
           sodipodi:nodetypes="scccscccccsscsccssccsssccssssssss" />
      </g>
    </g>
  </g>
</svg>
