<?xml version="1.0" encoding="UTF-8" standalone="no"?>
<!-- Created with Inkscape (http://www.inkscape.org/) -->

<svg
   xmlns:dc="http://purl.org/dc/elements/1.1/"
   xmlns:cc="http://creativecommons.org/ns#"
   xmlns:rdf="http://www.w3.org/1999/02/22-rdf-syntax-ns#"
   xmlns:svg="http://www.w3.org/2000/svg"
   xmlns="http://www.w3.org/2000/svg"
   xmlns:sodipodi="http://sodipodi.sourceforge.net/DTD/sodipodi-0.dtd"
   xmlns:inkscape="http://www.inkscape.org/namespaces/inkscape"
   width="1000"
   height="1000"
   id="svg3288"
   version="1.1"
   inkscape:version="0.91 r13725"
   sodipodi:docname="duck_skew.svg">
  <defs
     id="defs3290" />
  <sodipodi:namedview
     id="base"
     pagecolor="#ffffff"
     bordercolor="#666666"
     borderopacity="1.0"
     inkscape:pageopacity="0.0"
     inkscape:pageshadow="2"
     inkscape:zoom="0.319"
     inkscape:cx="2.967125"
     inkscape:cy="474.34382"
     inkscape:document-units="px"
     inkscape:current-layer="g6061"
     showgrid="false"
     showguides="false"
     inkscape:window-width="1402"
     inkscape:window-height="855"
     inkscape:window-x="168"
     inkscape:window-y="0"
     inkscape:window-maximized="0" />
  <metadata
     id="metadata3293">
    <rdf:RDF>
      <cc:Work
         rdf:about="">
        <dc:format>image/svg+xml</dc:format>
        <dc:type
           rdf:resource="http://purl.org/dc/dcmitype/StillImage" />
        <dc:title></dc:title>
      </cc:Work>
    </rdf:RDF>
  </metadata>
  <g
     inkscape:label="Layer 1"
     inkscape:groupmode="layer"
     id="layer1"
     transform="translate(0,-52.362183)">
    <g
       transform="matrix(41.666667,0,0,41.666667,-14546.126,-28732.146)"
       id="g5504">
      <g
         transform="translate(-50.51743,-0.51500991)"
         id="g5522">
        <g
           transform="matrix(0.76171904,0,0,0.76171904,164.5965,154.28467)"
           id="g5972">
          <g
             transform="matrix(0.99528452,0,0,0.99528452,-67.170872,3.3246971)"
             id="g6061">
            <g
               id="g5516"
               transform="matrix(1.31282,0,0,1.31282,-33.789554,-254.58659)" />
            <path
               inkscape:connector-curvature="0"
               d="m 386.16992,716.85742 -0.94922,0.31446 5.85742,17.69921 0.94922,-0.31445 -5.85742,-17.69922 z m -2.17759,-11.30848 c -0.7779,-0.0561 -1.57721,0.0378 -2.35897,0.30512 -3.12704,1.06936 -4.81038,4.4986 -3.74102,7.62564 0.87566,2.56068 3.33429,4.11758 5.91281,4.01795 l 6.37436,19.2205 3.6026,-1.40769 15.30513,0 -6.56923,-19.67691 -14.59487,0 c 1.47156,-1.57133 2.07554,-3.87071 1.33334,-6.04103 -0.80202,-2.34528 -2.93041,-3.87529 -5.26411,-4.04358 z m 12.67948,0.15127 -6.14871,3.67436 6.14871,3.67692 0,-2.3641 8.60001,0 0,-2.62564 -8.60001,0 z m -12.81025,1.80513 c 1.56954,0.10792 2.98959,1.13562 3.53334,2.72564 0.72499,2.12005 -0.39277,4.39809 -2.51282,5.12308 -2.12004,0.72499 -4.40064,-0.39279 -5.12564,-2.51283 -0.72499,-2.12003 0.39278,-4.39806 2.51282,-5.12307 0.53001,-0.18124 1.06913,-0.24879 1.5923,-0.21282 z m 4.04615,10.09744 13.19231,0 5.25384,15.73845 -13.22307,0 z"
               style="color:#000000;font-style:normal;font-variant:normal;font-weight:normal;font-stretch:normal;font-size:medium;line-height:normal;font-family:sans-serif;text-indent:0;text-align:start;text-decoration:none;text-decoration-line:none;text-decoration-style:solid;text-decoration-color:#000000;letter-spacing:normal;word-spacing:normal;text-transform:none;direction:ltr;block-progression:tb;writing-mode:lr-tb;baseline-shift:baseline;text-anchor:start;white-space:normal;clip-rule:nonzero;display:inline;overflow:visible;visibility:visible;opacity:1;isolation:auto;mix-blend-mode:normal;color-interpolation:sRGB;color-interpolation-filters:linearRGB;solid-color:#000000;solid-opacity:1;fill:#000000;fill-opacity:1;fill-rule:evenodd;stroke:none;stroke-width:1px;stroke-linecap:butt;stroke-linejoin:miter;stroke-miterlimit:4;stroke-dasharray:none;stroke-dashoffset:0;stroke-opacity:1;color-rendering:auto;image-rendering:auto;shape-rendering:auto;text-rendering:auto;enable-background:accumulate"
               id="path5566" />
          </g>
        </g>
      </g>
    </g>
  </g>
</svg>
