<?xml version="1.0" encoding="UTF-8" standalone="no"?>
<!-- Created with Inkscape (http://www.inkscape.org/) -->

<svg
   xmlns:dc="http://purl.org/dc/elements/1.1/"
   xmlns:cc="http://creativecommons.org/ns#"
   xmlns:rdf="http://www.w3.org/1999/02/22-rdf-syntax-ns#"
   xmlns:svg="http://www.w3.org/2000/svg"
   xmlns="http://www.w3.org/2000/svg"
   xmlns:sodipodi="http://sodipodi.sourceforge.net/DTD/sodipodi-0.dtd"
   xmlns:inkscape="http://www.inkscape.org/namespaces/inkscape"
   width="1000"
   height="1000"
   id="svg3288"
   version="1.1"
   inkscape:version="0.91 r13725"
   sodipodi:docname="duck_position.svg">
  <defs
     id="defs3290" />
  <sodipodi:namedview
     id="base"
     pagecolor="#ffffff"
     bordercolor="#666666"
     borderopacity="1.0"
     inkscape:pageopacity="0.0"
     inkscape:pageshadow="2"
     inkscape:zoom="0.319"
     inkscape:cx="2.967125"
     inkscape:cy="474.34382"
     inkscape:document-units="px"
     inkscape:current-layer="g5972"
     showgrid="false"
     showguides="false"
     inkscape:window-width="1402"
     inkscape:window-height="855"
     inkscape:window-x="168"
     inkscape:window-y="0"
     inkscape:window-maximized="0" />
  <metadata
     id="metadata3293">
    <rdf:RDF>
      <cc:Work
         rdf:about="">
        <dc:format>image/svg+xml</dc:format>
        <dc:type
           rdf:resource="http://purl.org/dc/dcmitype/StillImage" />
        <dc:title></dc:title>
      </cc:Work>
    </rdf:RDF>
  </metadata>
  <g
     inkscape:label="Layer 1"
     inkscape:groupmode="layer"
     id="layer1"
     transform="translate(0,-52.362183)">
    <g
       transform="matrix(41.666667,0,0,41.666667,-14546.126,-28732.146)"
       id="g5504">
      <g
         transform="translate(-50.51743,-0.51500991)"
         id="g5522">
        <g
           transform="matrix(0.76171904,0,0,0.76171904,164.5965,154.28467)"
           id="g5972">
          <path
             inkscape:connector-curvature="0"
             id="path5611"
             style="color:#000000;font-style:normal;font-variant:normal;font-weight:normal;font-stretch:normal;font-size:medium;line-height:normal;font-family:sans-serif;text-indent:0;text-align:start;text-decoration:none;text-decoration-line:none;text-decoration-style:solid;text-decoration-color:#000000;letter-spacing:normal;word-spacing:normal;text-transform:none;direction:ltr;block-progression:tb;writing-mode:lr-tb;baseline-shift:baseline;text-anchor:start;white-space:normal;clip-rule:nonzero;display:inline;overflow:visible;visibility:visible;opacity:1;isolation:auto;mix-blend-mode:normal;color-interpolation:sRGB;color-interpolation-filters:linearRGB;solid-color:#000000;solid-opacity:1;fill:#000000;fill-opacity:1;fill-rule:nonzero;stroke:none;stroke-width:2;stroke-linecap:square;stroke-linejoin:miter;stroke-miterlimit:4;stroke-dasharray:none;stroke-dashoffset:0;stroke-opacity:1;color-rendering:auto;image-rendering:auto;shape-rendering:auto;text-rendering:auto;enable-background:accumulate"
             d="m 324.30339,715.13404 c -3.12622,0 -5.68178,2.55493 -5.68178,5.68179 0,3.12622 2.55493,5.68147 5.68178,5.68147 3.12623,0 5.68148,-2.55493 5.68148,-5.68147 0,-3.12622 -2.55494,-5.68179 -5.68148,-5.68179 z m 0,1.99951 c 2.04395,0 3.68165,1.6377 3.68165,3.68164 0,2.04395 -1.6377,3.68164 -3.68165,3.68164 -2.04394,0 -3.68164,-1.63769 -3.68164,-3.68164 0,-2.04394 1.6377,-3.68164 3.68164,-3.68164 z m 0,-10.87132 c -8.0282,0 -14.55295,6.52476 -14.55295,14.55296 0,8.02789 6.52475,14.55264 14.55295,14.55264 8.02821,0 14.55265,-6.52475 14.55265,-14.55264 0,-8.0282 -6.52444,-14.55296 -14.55265,-14.55296 z m 0,1.50122 c 7.21729,0 13.05269,5.83541 13.05269,13.05301 0,7.21729 -5.8354,13.05269 -13.05269,13.05269 -7.2176,0 -13.05269,-5.8354 -13.05269,-13.05269 0,-7.2176 5.83509,-13.05301 13.05269,-13.05301 z" />
        </g>
      </g>
    </g>
  </g>
</svg>
