<?xml version="1.0" encoding="UTF-8" standalone="no"?>
<!-- Created with Inkscape (http://www.inkscape.org/) -->

<svg
   xmlns:dc="http://purl.org/dc/elements/1.1/"
   xmlns:cc="http://creativecommons.org/ns#"
   xmlns:rdf="http://www.w3.org/1999/02/22-rdf-syntax-ns#"
   xmlns:svg="http://www.w3.org/2000/svg"
   xmlns="http://www.w3.org/2000/svg"
   xmlns:sodipodi="http://sodipodi.sourceforge.net/DTD/sodipodi-0.dtd"
   xmlns:inkscape="http://www.inkscape.org/namespaces/inkscape"
   width="1000"
   height="1000"
   id="svg3288"
   version="1.1"
   inkscape:version="0.91 r13725"
   sodipodi:docname="duck_tangent.svg">
  <defs
     id="defs3290" />
  <sodipodi:namedview
     id="base"
     pagecolor="#ffffff"
     bordercolor="#666666"
     borderopacity="1.0"
     inkscape:pageopacity="0.0"
     inkscape:pageshadow="2"
     inkscape:zoom="0.319"
     inkscape:cx="2.967125"
     inkscape:cy="474.34382"
     inkscape:document-units="px"
     inkscape:current-layer="layer1"
     showgrid="false"
     showguides="false"
     inkscape:window-width="1402"
     inkscape:window-height="855"
     inkscape:window-x="172"
     inkscape:window-y="31"
     inkscape:window-maximized="0" />
  <metadata
     id="metadata3293">
    <rdf:RDF>
      <cc:Work
         rdf:about="">
        <dc:format>image/svg+xml</dc:format>
        <dc:type
           rdf:resource="http://purl.org/dc/dcmitype/StillImage" />
        <dc:title></dc:title>
      </cc:Work>
    </rdf:RDF>
  </metadata>
  <g
     inkscape:label="Layer 1"
     inkscape:groupmode="layer"
     id="layer1"
     transform="translate(0,-52.362183)">
    <path
       id="path5548"
       style="color:#000000;font-style:normal;font-variant:normal;font-weight:normal;font-stretch:normal;font-size:medium;line-height:normal;font-family:sans-serif;text-indent:0;text-align:start;text-decoration:none;text-decoration-line:none;text-decoration-style:solid;text-decoration-color:#000000;letter-spacing:normal;word-spacing:normal;text-transform:none;direction:ltr;block-progression:tb;writing-mode:lr-tb;baseline-shift:baseline;text-anchor:start;white-space:normal;clip-rule:nonzero;display:inline;overflow:visible;visibility:visible;opacity:1;isolation:auto;mix-blend-mode:normal;color-interpolation:sRGB;color-interpolation-filters:linearRGB;solid-color:#000000;solid-opacity:1;fill:#000000;fill-opacity:1;fill-rule:evenodd;stroke:none;stroke-width:1px;stroke-linecap:butt;stroke-linejoin:miter;stroke-miterlimit:4;stroke-dasharray:none;stroke-dashoffset:0;stroke-opacity:1;color-rendering:auto;image-rendering:auto;shape-rendering:auto;text-rendering:auto;enable-background:accumulate"
       d="m 408.14858,822.12014 0,31.36058 478.6777,0 0,-31.36058 -478.6777,0 z M 113.4692,255.79218 l 0,31.36059 478.61648,0 0,-31.36059 -478.61648,0 z M 796.71948,65.549468 c -90.2483,0 -166.2594,59.832232 -192.6669,141.524672 l -538.91913,0 0,123.51241 210.43705,0 c 14.87028,5.93405 32.74168,14.07526 54.51948,27.58132 53.6937,33.29805 121.737,93.07603 177.0665,201.43124 50.9832,99.84081 106.1848,167.75498 153.7472,214.45811 l -265.0368,0 C 369.47948,692.36477 293.52848,632.53254 203.2809,632.53254 91.3672,632.53254 2e-5,723.90003 2e-5,835.81342 c 0,111.9137 91.36718,203.36088 203.28088,203.36148 90.24758,-6e-4 166.19858,-59.89276 192.58598,-141.60527 l 538.9997,0 0,-123.51241 -180.9261,0 c -8.5131,-6.47251 -17.6378,-13.70019 -27.9834,-22.8371 -46.4911,-41.05853 -107.6489,-109.72567 -163.7991,-219.68466 -49.7389,-97.40692 -110.107,-159.9186 -164.6832,-200.94891 l 206.5778,0 c 26.4075,81.69245 102.4186,141.52468 192.6669,141.52468 111.913,0 203.2805,-91.3675 203.2805,-203.28088 0,-111.9137 -91.3675,-203.280882 -203.2805,-203.280882 z m 0,61.756202 c 78.5375,0 141.5243,62.98648 141.5243,141.52468 0,78.53788 -62.9868,141.52467 -141.5243,141.52467 -78.5385,0 -141.605,-62.98679 -141.605,-141.52467 0,-78.5382 63.0665,-141.52468 141.605,-141.52468 z M 203.2809,694.28874 c 78.53788,0 141.52468,62.9868 141.52468,141.52468 0,78.5382 -62.9868,141.60465 -141.52468,141.60527 -78.53819,-9.4e-4 -141.52467,-63.06707 -141.52467,-141.60527 0,-78.53788 62.98648,-141.52468 141.52467,-141.52468 z"
       inkscape:connector-curvature="0" />
  </g>
</svg>
