<?xml version="1.0" encoding="UTF-8" standalone="no"?>
<!-- Created with Inkscape (http://www.inkscape.org/) -->

<svg
   xmlns:dc="http://purl.org/dc/elements/1.1/"
   xmlns:cc="http://creativecommons.org/ns#"
   xmlns:rdf="http://www.w3.org/1999/02/22-rdf-syntax-ns#"
   xmlns:svg="http://www.w3.org/2000/svg"
   xmlns="http://www.w3.org/2000/svg"
   xmlns:sodipodi="http://sodipodi.sourceforge.net/DTD/sodipodi-0.dtd"
   xmlns:inkscape="http://www.inkscape.org/namespaces/inkscape"
   width="1000"
   height="1000"
   id="svg3288"
   version="1.1"
   inkscape:version="0.91 r13725"
   sodipodi:docname="duck_radius.svg">
  <defs
     id="defs3290" />
  <sodipodi:namedview
     id="base"
     pagecolor="#ffffff"
     bordercolor="#666666"
     borderopacity="1.0"
     inkscape:pageopacity="0.0"
     inkscape:pageshadow="2"
     inkscape:zoom="0.319"
     inkscape:cx="2.967125"
     inkscape:cy="474.34382"
     inkscape:document-units="px"
     inkscape:current-layer="g5504"
     showgrid="false"
     showguides="false"
     inkscape:window-width="1402"
     inkscape:window-height="855"
     inkscape:window-x="168"
     inkscape:window-y="0"
     inkscape:window-maximized="0" />
  <metadata
     id="metadata3293">
    <rdf:RDF>
      <cc:Work
         rdf:about="">
        <dc:format>image/svg+xml</dc:format>
        <dc:type
           rdf:resource="http://purl.org/dc/dcmitype/StillImage" />
        <dc:title></dc:title>
      </cc:Work>
    </rdf:RDF>
  </metadata>
  <g
     inkscape:label="Layer 1"
     inkscape:groupmode="layer"
     id="layer1"
     transform="translate(0,-52.362183)">
    <g
       transform="matrix(41.666667,0,0,41.666667,-14546.126,-28732.146)"
       id="g5504">
      <path
         inkscape:connector-curvature="0"
         id="path5508"
         transform="translate(-7.3760071,-0.51861572)"
         d="m 366.99805,693.91602 c -1.3093,0 -2.54166,0.27856 -3.65625,0.75 -1.13704,0.48095 -2.12917,1.19159 -2.96875,2.03125 -0.8397,0.8395 -1.51914,1.83183 -2,2.96875 -0.47924,1.13285 -0.75,2.40951 -0.75,3.71875 0,1.30956 0.27862,2.54173 0.75,3.65625 0.48088,1.13692 1.16048,2.12908 2,2.96875 0.83967,0.83966 1.832,1.51905 2.96875,2 1.11459,0.47144 2.34695,0.75 3.65625,0.75 1.3093,0 2.57289,-0.27856 3.6875,-0.75 1.11824,-0.47314 2.13419,-1.1342 3,-2 0.40266,-0.40273 0.77489,-0.84618 1.10937,-1.32032 2.6155,-0.36165 4.64649,-2.60852 4.64649,-5.32031 0,-2.70506 -2.02087,-4.95187 -4.62696,-5.32226 -0.3377,-0.48401 -0.71443,-0.93525 -1.1289,-1.34961 -0.86574,-0.8658 -1.88145,-1.55811 -3,-2.03125 -1.11461,-0.47144 -2.3782,-0.75 -3.6875,-0.75 z m 0,3 c 0.8785,0 1.71887,0.16965 2.5,0.5 0.71493,0.30233 1.37399,0.76014 1.91797,1.27343 -1.62943,0.92681 -2.73438,2.67831 -2.73438,4.67969 0,1.99326 1.0963,3.73492 2.71484,4.66406 -0.54035,0.50125 -1.19145,0.92755 -1.89843,1.22657 -0.78113,0.33052 -1.6215,0.53125 -2.5,0.53125 -0.87851,0 -1.6876,-0.20073 -2.46875,-0.53125 -0.75898,-0.32104 -1.43716,-0.78082 -2.03125,-1.375 -0.59421,-0.59418 -1.05404,-1.27258 -1.375,-2.03125 -0.33046,-0.78144 -0.53125,-1.59022 -0.53125,-2.46875 0,-0.8782 0.20867,-1.79973 0.53125,-2.5625 0.32098,-0.75867 0.78097,-1.40616 1.375,-2 0.59417,-0.59435 1.27255,-1.08538 2.03125,-1.40625 0.78115,-0.33035 1.59024,-0.5 2.46875,-0.5 z m 7.0625,2.57226 c 2.15138,0 3.88086,1.72948 3.88086,3.88086 0,2.15138 -1.72948,3.87891 -3.88086,3.87891 -2.15137,0 -3.87891,-1.72753 -3.87891,-3.87891 0,-2.15138 1.72754,-3.88086 3.87891,-3.88086 z"
         style="color:#000000;font-style:normal;font-variant:normal;font-weight:normal;font-stretch:normal;font-size:medium;line-height:normal;font-family:Sans;-inkscape-font-specification:Sans;text-indent:0;text-align:start;text-decoration:none;text-decoration-line:none;letter-spacing:normal;word-spacing:normal;text-transform:none;direction:ltr;block-progression:tb;writing-mode:lr-tb;baseline-shift:baseline;text-anchor:start;display:inline;overflow:visible;visibility:visible;fill:#2e3436;fill-opacity:1;stroke:none;stroke-width:1.76713741;marker:none;enable-background:accumulate" />
    </g>
  </g>
</svg>
