<?xml version="1.0" encoding="UTF-8" standalone="no"?>
<!-- Created with Inkscape (http://www.inkscape.org/) -->

<svg
   xmlns:dc="http://purl.org/dc/elements/1.1/"
   xmlns:cc="http://creativecommons.org/ns#"
   xmlns:rdf="http://www.w3.org/1999/02/22-rdf-syntax-ns#"
   xmlns:svg="http://www.w3.org/2000/svg"
   xmlns="http://www.w3.org/2000/svg"
   xmlns:sodipodi="http://sodipodi.sourceforge.net/DTD/sodipodi-0.dtd"
   xmlns:inkscape="http://www.inkscape.org/namespaces/inkscape"
   width="1000"
   height="1000"
   id="svg3288"
   version="1.1"
   inkscape:version="0.91 r13725"
   sodipodi:docname="duck-tangent.svg">
  <defs
     id="defs3290" />
  <sodipodi:namedview
     id="base"
     pagecolor="#ffffff"
     bordercolor="#666666"
     borderopacity="1.0"
     inkscape:pageopacity="0.0"
     inkscape:pageshadow="2"
     inkscape:zoom="0.053214152"
     inkscape:cx="428.41619"
     inkscape:cy="430.64752"
     inkscape:document-units="px"
     inkscape:current-layer="layer1"
     showgrid="false"
     showguides="false"
     inkscape:window-width="1402"
     inkscape:window-height="855"
     inkscape:window-x="47"
     inkscape:window-y="0"
     inkscape:window-maximized="0" />
  <metadata
     id="metadata3293">
    <rdf:RDF>
      <cc:Work
         rdf:about="">
        <dc:format>image/svg+xml</dc:format>
        <dc:type
           rdf:resource="http://purl.org/dc/dcmitype/StillImage" />
        <dc:title />
      </cc:Work>
    </rdf:RDF>
  </metadata>
  <g
     inkscape:label="Layer 1"
     inkscape:groupmode="layer"
     id="layer1"
     transform="translate(0,-52.362183)">
    <path
       style="color:#000000;font-style:normal;font-variant:normal;font-weight:normal;font-stretch:normal;font-size:medium;line-height:normal;font-family:sans-serif;text-indent:0;text-align:start;text-decoration:none;text-decoration-line:none;text-decoration-style:solid;text-decoration-color:#000000;letter-spacing:normal;word-spacing:normal;text-transform:none;direction:ltr;block-progression:tb;writing-mode:lr-tb;baseline-shift:baseline;text-anchor:start;white-space:normal;clip-rule:nonzero;display:inline;overflow:visible;visibility:visible;opacity:1;isolation:auto;mix-blend-mode:normal;color-interpolation:sRGB;color-interpolation-filters:linearRGB;solid-color:#000000;solid-opacity:1;fill:#000000;fill-opacity:1;fill-rule:nonzero;stroke:none;stroke-width:48.09521484;stroke-linecap:round;stroke-linejoin:miter;stroke-miterlimit:4;stroke-dasharray:none;stroke-dashoffset:0.85000002;stroke-opacity:1;color-rendering:auto;image-rendering:auto;shape-rendering:auto;text-rendering:auto;enable-background:accumulate"
       d="M 221,10 C 104.75274,10 10,104.7527 10,221 c 0,116.2472 94.75274,211 211,211 86.36885,0 160.85832,-52.31305 193.45117,-126.87695 l 207.22852,0 c -65.74085,50.56658 -120.11871,120.30017 -162.42774,178.31445 -44.9054,61.63683 -87.24829,119.79626 -141.77539,161.01367 -28.56732,21.59424 -60.3986,39.05481 -98.80664,50.42578 l -174.789061,0 0,168.2461 541.667971,0 C 618.14168,937.68698 692.63115,990 779,990 895.24727,990 990,895.24725 990,779 990,662.7527 895.24727,568 779,568 692.63024,568 618.13918,620.31185 585.54688,694.87695 l -228.66016,0 C 421.12484,646.06839 466.42623,582.27713 510.97852,521.125 555.72078,459.71208 599.6245,400.91805 657.90234,357.89844 c 29.65338,-21.88957 63.0252,-40.09651 103.00391,-52.77539 l 195.21289,0 0,-168.2461 -541.66602,0 C 381.86082,62.311853 307.36976,10 221,10 Z m 0,48.095703 c 90.25466,0 162.9043,72.649597 162.9043,162.904297 0,90.2547 -72.64964,162.9043 -162.9043,162.9043 C 130.74533,383.9043 58.095703,311.2547 58.095703,221 58.095703,130.7453 130.74533,58.095703 221,58.095703 Z m 207.88672,126.781247 479.23242,0 0,72.2461 -479.23242,0 C 430.92569,245.37965 432,233.3127 432,221 c 0,-12.3121 -1.07453,-24.38025 -3.11328,-36.12305 z M 779,616.0957 c 90.25463,0 162.9043,72.6496 162.9043,162.9043 0,90.2547 -72.64967,162.9043 -162.9043,162.9043 -90.25466,0 -162.9043,-72.6496 -162.9043,-162.9043 0,-90.2547 72.64964,-162.9043 162.9043,-162.9043 z m -687.119141,126.78125 479.232421,0 C 569.07453,754.61975 568,766.6879 568,779 c 0,12.3127 1.07431,24.37965 3.11328,36.12305 l -479.232421,0 z"
       transform="translate(0,52.362183)"
       id="path4134"
       inkscape:connector-curvature="0"
       sodipodi:nodetypes="ssscccsccccsssccssccccssssssccccscsssssccsccc" />
  </g>
</svg>
