<?xml version="1.0" encoding="UTF-8" standalone="no"?>
<!-- Created with Inkscape (http://www.inkscape.org/) -->

<svg
   xmlns:dc="http://purl.org/dc/elements/1.1/"
   xmlns:cc="http://creativecommons.org/ns#"
   xmlns:rdf="http://www.w3.org/1999/02/22-rdf-syntax-ns#"
   xmlns:svg="http://www.w3.org/2000/svg"
   xmlns="http://www.w3.org/2000/svg"
   xmlns:sodipodi="http://sodipodi.sourceforge.net/DTD/sodipodi-0.dtd"
   xmlns:inkscape="http://www.inkscape.org/namespaces/inkscape"
   width="1000"
   height="1000"
   id="svg3888"
   version="1.1"
   inkscape:version="0.91 r13725"
   sodipodi:docname="layer_spiralgradient.svg"
   inkscape:export-filename="/Users/chyu/Source/sif.font/resources/concepts/layer_spiralgradient.png"
   inkscape:export-xdpi="2.1600001"
   inkscape:export-ydpi="2.1600001">
  <defs
     id="defs3890" />
  <sodipodi:namedview
     id="base"
     pagecolor="#ffffff"
     bordercolor="#666666"
     borderopacity="1.0"
     inkscape:pageopacity="0.0"
     inkscape:pageshadow="2"
     inkscape:zoom="0.63999999"
     inkscape:cx="499.99983"
     inkscape:cy="499.99927"
     inkscape:document-units="px"
     inkscape:current-layer="g3858"
     showgrid="false"
     inkscape:window-width="1440"
     inkscape:window-height="826"
     inkscape:window-x="0"
     inkscape:window-y="0"
     inkscape:window-maximized="1" />
  <metadata
     id="metadata3893">
    <rdf:RDF>
      <cc:Work
         rdf:about="">
        <dc:format>image/svg+xml</dc:format>
        <dc:type
           rdf:resource="http://purl.org/dc/dcmitype/StillImage" />
        <dc:title />
      </cc:Work>
    </rdf:RDF>
  </metadata>
  <g
     inkscape:label="Layer 1"
     inkscape:groupmode="layer"
     id="layer1"
     transform="translate(0,-52.362183)">
    <g
       style="display:inline"
       id="g3582"
       transform="matrix(40.887017,0,0,40.887017,2575.176,-58573.169)">
      <g
         style="display:inline"
         id="g4469"
         transform="matrix(1.0190684,0,0,1.0190684,-472.71602,1019.6068)">
        <g
           transform="translate(153.55683,-1032.0904)"
           id="g3858"
           style="display:inline">
          <path
             inkscape:connector-curvature="0"
             style="color:#000000;font-style:normal;font-variant:normal;font-weight:normal;font-stretch:normal;font-size:medium;line-height:normal;font-family:Sans;-inkscape-font-specification:Sans;text-indent:0;text-align:start;text-decoration:none;text-decoration-line:none;letter-spacing:normal;word-spacing:normal;text-transform:none;direction:ltr;block-progression:tb;writing-mode:lr-tb;baseline-shift:baseline;text-anchor:start;display:inline;overflow:visible;visibility:visible;fill:#000000;fill-opacity:1;stroke:none;stroke-width:1.02597988;marker:none;enable-background:accumulate"
             d="m 249.70969,1441.6506 0,17.8485 21.6,0 0,-17.8485 -21.6,0 z m 0.96717,0.9378 4.86513,3.9859 c -3.11047,3.1565 -2.17594,7.4091 0.64477,9.2027 2.29015,1.4562 5.54867,1.0126 7.03392,-1.4654 0.21698,-0.362 0.33433,-0.767 0.43962,-1.1723 l -1.8464,-1.4947 c 0.0886,0.5469 -9.4e-4,1.1542 -0.29308,1.6412 -0.85377,1.4245 -2.95271,1.8131 -4.24966,0.7914 -1.99565,-1.5722 -2.29148,-4.0364 -0.20516,-6.2426 l 1.17232,0.9378 c -0.35828,0.2942 -0.6851,0.6717 -0.87924,1.143 -0.24708,0.5999 -0.30245,1.1924 -0.0879,1.8171 0.21448,0.6247 0.8577,1.3228 1.67055,1.4361 0.64241,0.089 0.92558,-0.1037 1.31886,-0.4396 0.19664,-0.168 0.41285,-0.4044 0.46893,-0.8499 0.0561,-0.4456 -0.1957,-0.9666 -0.46893,-1.2017 -0.22736,-0.1953 -0.5278,-0.2926 -0.82062,-0.2344 0.11869,-0.119 0.18151,-0.2718 0.381,-0.3224 0.0372,-0.01 0.077,0.021 0.11724,0.029 l -1.67056,-1.4067 c 0.33441,-0.2687 0.69051,-0.4579 1.0844,-0.5569 0.83011,-0.2089 1.72739,-0.1242 2.49118,0.2931 1.71592,0.9375 2.27028,2.9155 1.81709,4.66 l 1.26025,1.0257 c 0.89288,-2.3929 0.28914,-5.24 -1.8171,-6.7408 -1.85274,-1.3203 -4.38914,-1.115 -6.00814,0.381 l -1.49471,-1.2309 -0.0293,-0.029 c 1.01401,-1.0082 2.22125,-1.7422 3.60488,-1.9636 1.77327,-0.2839 3.59425,0.1856 5.07029,1.2309 3.08842,2.1871 3.82028,6.3237 2.25672,9.6423 l 3.83934,3.136 -4.92374,0 -4.92375,0 -4.92374,0 -4.89444,0 0,-4.0152 0,-3.9859 0,-3.9859 0,-4.0152 z m 11.13704,9.0562 c -0.0948,-0.5848 -0.41728,-1.0931 -0.93786,-1.3775 -0.2579,-0.1407 -0.60536,-0.1575 -0.90854,-0.1172 l 0.52754,0.4396 1.31886,1.0551 z"
             id="path3723" />
          <rect
             y="1438.5748"
             x="248.50969"
             height="24"
             width="24"
             id="rect3849"
             style="fill:none;stroke:none" />
        </g>
      </g>
    </g>
  </g>
</svg>
