<?xml version="1.0" encoding="UTF-8" standalone="no"?>
<!-- Created with Inkscape (http://www.inkscape.org/) -->

<svg
   xmlns:dc="http://purl.org/dc/elements/1.1/"
   xmlns:cc="http://creativecommons.org/ns#"
   xmlns:rdf="http://www.w3.org/1999/02/22-rdf-syntax-ns#"
   xmlns:svg="http://www.w3.org/2000/svg"
   xmlns="http://www.w3.org/2000/svg"
   xmlns:sodipodi="http://sodipodi.sourceforge.net/DTD/sodipodi-0.dtd"
   xmlns:inkscape="http://www.inkscape.org/namespaces/inkscape"
   width="1000"
   height="1000"
   id="svg3446"
   version="1.1"
   inkscape:version="0.91 r13725"
   sodipodi:docname="toolbox_text.svg"
   inkscape:export-filename="/Users/chyu/Source/sif.font/resources/concepts/toolbox_text.png"
   inkscape:export-xdpi="2.1600001"
   inkscape:export-ydpi="2.1600001">
  <defs
     id="defs3448" />
  <sodipodi:namedview
     id="base"
     pagecolor="#ffffff"
     bordercolor="#666666"
     borderopacity="1.0"
     inkscape:pageopacity="0.0"
     inkscape:pageshadow="2"
     inkscape:zoom="0.49620894"
     inkscape:cx="500.0002"
     inkscape:cy="499.99971"
     inkscape:document-units="px"
     inkscape:current-layer="layer1"
     showgrid="false"
     inkscape:window-width="987"
     inkscape:window-height="754"
     inkscape:window-x="58"
     inkscape:window-y="20"
     inkscape:window-maximized="0"
     showguides="true"
     inkscape:guide-bbox="true" />
  <metadata
     id="metadata3451">
    <rdf:RDF>
      <cc:Work
         rdf:about="">
        <dc:format>image/svg+xml</dc:format>
        <dc:type
           rdf:resource="http://purl.org/dc/dcmitype/StillImage" />
        <dc:title />
      </cc:Work>
    </rdf:RDF>
  </metadata>
  <g
     inkscape:label="Layer 1"
     inkscape:groupmode="layer"
     id="layer1"
     transform="translate(0,-52.362183)">
    <g
       transform="matrix(26.574086,0,0,26.574086,11646.413,-10526.226)"
       id="g10613">
      <g
         id="text10583"
         style="font-style:normal;font-weight:normal;font-size:40px;line-height:125%;font-family:Sans;letter-spacing:0px;word-spacing:0px;fill:#2e3436;fill-opacity:1;stroke:none" />
    </g>
    <path
       id="path19595"
       style="fill:#000000;fill-opacity:1;stroke:none"
       d="m 701.73644,958.44038 0,44.25222 126.24891,0 0,-44.25222 z m 0,-853.807 0,45.55373 126.24891,0 0,-45.55373 z m 170.5011,853.807 0,44.25222 126.2489,0 0,-44.25222 z m 0,-853.807 0,45.55373 126.2489,0 0,-45.55373 z m -44.25219,45.55373 0,808.25327 44.25219,0 0,-808.25327 -44.25219,0 z M 297.02459,182.71797 0.27459785,944.11596 l 162.69188215,0 62.47368,-173.10416 304.5592,0 66.37829,173.10416 167.89801,0 -305.86073,-761.39799 -161.39034,0 z m 79.39363,153.58113 104.12281,282.4331 -206.94407,0 102.82126,-282.4331 z" />
  </g>
</svg>
