<?xml version="1.0" encoding="UTF-8" standalone="no"?>
<!-- Created with Inkscape (http://www.inkscape.org/) -->

<svg
   xmlns:dc="http://purl.org/dc/elements/1.1/"
   xmlns:cc="http://creativecommons.org/ns#"
   xmlns:rdf="http://www.w3.org/1999/02/22-rdf-syntax-ns#"
   xmlns:svg="http://www.w3.org/2000/svg"
   xmlns="http://www.w3.org/2000/svg"
   xmlns:sodipodi="http://sodipodi.sourceforge.net/DTD/sodipodi-0.dtd"
   xmlns:inkscape="http://www.inkscape.org/namespaces/inkscape"
   width="1000"
   height="1000"
   id="svg3288"
   version="1.1"
   inkscape:version="0.48.2 r9819"
   sodipodi:docname="interpolation_constant.svg">
  <defs
     id="defs3290" />
  <sodipodi:namedview
     id="base"
     pagecolor="#ffffff"
     bordercolor="#666666"
     borderopacity="1.0"
     inkscape:pageopacity="0.0"
     inkscape:pageshadow="2"
     inkscape:zoom="0.319"
     inkscape:cx="-216.30094"
     inkscape:cy="500"
     inkscape:document-units="px"
     inkscape:current-layer="g7143"
     showgrid="false"
     showguides="false"
     inkscape:window-width="1402"
     inkscape:window-height="856"
     inkscape:window-x="38"
     inkscape:window-y="0"
     inkscape:window-maximized="1" />
  <metadata
     id="metadata3293">
    <rdf:RDF>
      <cc:Work
         rdf:about="">
        <dc:format>image/svg+xml</dc:format>
        <dc:type
           rdf:resource="http://purl.org/dc/dcmitype/StillImage" />
        <dc:title />
      </cc:Work>
    </rdf:RDF>
  </metadata>
  <g
     inkscape:label="Layer 1"
     inkscape:groupmode="layer"
     id="layer1"
     transform="translate(0,-52.362183)">
    <g
       style="display:inline"
       id="g7143"
       transform="matrix(41.666667,0,0,41.666667,-6546.0943,-30849.806)"
       inkscape:export-filename="/Users/chyu/Desktop/fis_interpolations.png"
       inkscape:export-xdpi="300"
       inkscape:export-ydpi="300">
      <rect
         y="741.65204"
         x="157.10626"
         height="24"
         width="24"
         id="rect7072"
         style="fill:none;stroke:none" />
      <g
         transform="matrix(0.40623805,0,0,0.40623805,-547.53405,391.57148)"
         id="g9709"
         style="fill:#555753;stroke:#2e3436;stroke-width:1.92232525;stroke-opacity:1">
        <g
           transform="matrix(0.52179507,0,0,0.52179507,1475.3996,699.11571)"
           id="g9380"
           style="stroke:#2e3436;stroke-width:3.68406153;stroke-opacity:1">
          <path
             style="fill:#000000;fill-opacity:1;stroke:none"
             d="m 301.09375,125.125 a 19.135788,19.135788 0 0 0 -19.21875,19.25 l 0,336.375 -130.21875,0 a 19.135788,19.135788 0 0 0 -19.25,19.25 l 0,355.625 a 19.135788,19.135788 0 0 0 19.25,19.25 l 348.21875,0 0.25,0 198.78125,0 a 19.135788,19.135788 0 0 0 19.25,-19.25 l 0,-336.375 130.1875,0 a 19.135788,19.135788 0 0 0 19.25,-19.25 l 0,-355.625 a 19.135788,19.135788 0 0 0 -19.25,-19.25 l -348.21875,0 -0.25,0 -198.78125,0 z m 19.25,38.46875 179.53125,0 0.125,0 0,672.8125 -0.125,0 -329,0 0,-317.15625 130.21875,0 a 19.135788,19.135788 0 0 0 19.25,-19.25 l 0,-336.40625 z"
             transform="matrix(0.12836089,0,0,0.12836089,489.08272,304.13602)"
             id="path9382"
             inkscape:connector-curvature="0" />
        </g>
      </g>
      <rect
         style="fill:none;stroke:none"
         id="rect2989"
         width="21.6"
         height="21.6"
         x="158.30626"
         y="742.85205" />
      <rect
         y="744.052"
         x="159.50626"
         height="19.200001"
         width="19.200001"
         id="rect2991"
         style="fill:none;stroke:none" />
    </g>
  </g>
</svg>
