<?xml version="1.0" encoding="UTF-8" standalone="no"?>
<!-- Created with Inkscape (http://www.inkscape.org/) -->

<svg
   xmlns:dc="http://purl.org/dc/elements/1.1/"
   xmlns:cc="http://creativecommons.org/ns#"
   xmlns:rdf="http://www.w3.org/1999/02/22-rdf-syntax-ns#"
   xmlns:svg="http://www.w3.org/2000/svg"
   xmlns="http://www.w3.org/2000/svg"
   xmlns:sodipodi="http://sodipodi.sourceforge.net/DTD/sodipodi-0.dtd"
   xmlns:inkscape="http://www.inkscape.org/namespaces/inkscape"
   width="1000"
   height="1000"
   id="svg3288"
   version="1.1"
   inkscape:version="0.48.2 r9819"
   sodipodi:docname="interpolation_nonnamed.svg">
  <defs
     id="defs3290" />
  <sodipodi:namedview
     id="base"
     pagecolor="#ffffff"
     bordercolor="#666666"
     borderopacity="1.0"
     inkscape:pageopacity="0.0"
     inkscape:pageshadow="2"
     inkscape:zoom="0.319"
     inkscape:cx="-258.48704"
     inkscape:cy="474.34382"
     inkscape:document-units="px"
     inkscape:current-layer="g7131"
     showgrid="false"
     showguides="false"
     inkscape:window-width="1402"
     inkscape:window-height="856"
     inkscape:window-x="56"
     inkscape:window-y="16"
     inkscape:window-maximized="0" />
  <metadata
     id="metadata3293">
    <rdf:RDF>
      <cc:Work
         rdf:about="">
        <dc:format>image/svg+xml</dc:format>
        <dc:type
           rdf:resource="http://purl.org/dc/dcmitype/StillImage" />
        <dc:title />
      </cc:Work>
    </rdf:RDF>
  </metadata>
  <g
     inkscape:label="Layer 1"
     inkscape:groupmode="layer"
     id="layer1"
     transform="translate(0,-52.362183)">
    <g
       style="display:inline"
       id="g7131"
       transform="matrix(41.666667,0,0,41.666667,-4546.0943,-30849.806)"
       inkscape:export-filename="/Users/chyu/Desktop/fis_interpolations.png"
       inkscape:export-xdpi="300"
       inkscape:export-ydpi="300">
      <rect
         y="741.65204"
         x="109.10626"
         height="24"
         width="24"
         id="rect7068"
         style="fill:none;stroke:none" />
      <g
         transform="matrix(0.40944606,0,0,0.40944606,-526.48327,388.70965)"
         id="g9701"
         style="fill:#555753;stroke:#2e3436;stroke-width:1.92232525;stroke-opacity:1">
        <path
           style="fill:#000000;fill-opacity:1;stroke:none"
           d="m 354,128.15625 a 19.135787,19.135787 0 0 0 -13.46875,5.3125 l -206.625,206.8125 a 19.135787,19.135787 0 0 0 -5.625,13.46875 L 127.875,645.875 a 19.135787,19.135787 0 0 0 5.625,13.5 l 206.75,206.90625 a 19.135787,19.135787 0 0 0 13.46875,5.65625 l 292.1875,0.0937 a 19.135787,19.135787 0 0 0 13.5,-5.625 l 206.875,-206.46875 a 19.135787,19.135787 0 0 0 5.625,-13.46875 L 872.0625,354 a 19.135787,19.135787 0 0 0 -5.625,-13.5 l -206.5,-206.5625 a 19.135787,19.135787 0 0 0 -12,-5.75 19.135787,19.135787 0 0 0 -1.5,0.125 L 354,128.15625 z m 8,38.375 138,0.0625 0,667 -137.875,0 -195.5,-195.625 L 166.4375,361.4375 362,166.53125 z"
           id="path9356"
           inkscape:connector-curvature="0"
           transform="matrix(0.06697808,0,0,0.06697808,1548.1366,857.81231)" />
      </g>
      <rect
         style="fill:none;stroke:none"
         id="rect3236"
         width="21.6"
         height="21.6"
         x="110.30626"
         y="742.85205" />
      <rect
         y="744.052"
         x="111.50626"
         height="19.200001"
         width="19.200001"
         id="rect3238"
         style="fill:none;stroke:none" />
    </g>
  </g>
</svg>
