<?xml version="1.0" encoding="UTF-8" standalone="no"?>
<!-- Created with Inkscape (http://www.inkscape.org/) -->

<svg
   xmlns:dc="http://purl.org/dc/elements/1.1/"
   xmlns:cc="http://creativecommons.org/ns#"
   xmlns:rdf="http://www.w3.org/1999/02/22-rdf-syntax-ns#"
   xmlns:svg="http://www.w3.org/2000/svg"
   xmlns="http://www.w3.org/2000/svg"
   xmlns:sodipodi="http://sodipodi.sourceforge.net/DTD/sodipodi-0.dtd"
   xmlns:inkscape="http://www.inkscape.org/namespaces/inkscape"
   width="1000"
   height="1000"
   id="svg3288"
   version="1.1"
   inkscape:version="0.91 r13725"
   sodipodi:docname="interpolation_constant.svg">
  <defs
     id="defs3290" />
  <sodipodi:namedview
     id="base"
     pagecolor="#ffffff"
     bordercolor="#666666"
     borderopacity="1.0"
     inkscape:pageopacity="0.0"
     inkscape:pageshadow="2"
     inkscape:zoom="0.319"
     inkscape:cx="39.184953"
     inkscape:cy="390.28213"
     inkscape:document-units="px"
     inkscape:current-layer="g7143"
     showgrid="false"
     showguides="false"
     inkscape:window-width="1440"
     inkscape:window-height="826"
     inkscape:window-x="0"
     inkscape:window-y="0"
     inkscape:window-maximized="1" />
  <metadata
     id="metadata3293">
    <rdf:RDF>
      <cc:Work
         rdf:about="">
        <dc:format>image/svg+xml</dc:format>
        <dc:type
           rdf:resource="http://purl.org/dc/dcmitype/StillImage" />
        <dc:title></dc:title>
      </cc:Work>
    </rdf:RDF>
  </metadata>
  <g
     inkscape:label="Layer 1"
     inkscape:groupmode="layer"
     id="layer1"
     transform="translate(0,-52.362183)">
    <g
       style="display:inline"
       id="g7143"
       transform="matrix(41.666667,0,0,41.666667,-6546.0943,-30849.806)"
       inkscape:export-filename="/Users/chyu/Desktop/fis_interpolations.png"
       inkscape:export-xdpi="300"
       inkscape:export-ydpi="300">
      <g
         transform="matrix(0.40623805,0,0,0.40623805,-547.53405,391.57148)"
         id="g9709"
         style="fill:#555753;stroke:#2e3436;stroke-width:1.92232525;stroke-opacity:1">
        <g
           transform="matrix(0.52179507,0,0,0.52179507,1475.3996,699.11571)"
           id="g9380"
           style="stroke:#2e3436;stroke-width:3.68406153;stroke-opacity:1">
          <path
             style="fill:#000000;fill-opacity:1;stroke:none"
             d="m 301.09375,125.125 c -10.64559,-0.0463 -19.28239,8.6045 -19.21875,19.25 l 0,336.375 -130.21875,0 c -10.6578,-0.0638 -19.3138,8.5922 -19.25,19.25 l 0,355.625 c -0.0638,10.6578 8.5922,19.3138 19.25,19.25 l 547.25,0 c 10.6578,0.0638 19.3138,-8.5922 19.25,-19.25 l 0,-336.375 130.1875,0 c 10.6578,0.0638 19.3138,-8.5922 19.25,-19.25 l 0,-355.625 c 0.0638,-10.6578 -8.5922,-19.3138 -19.25,-19.25 z m 19.25,38.46875 179.53125,0 0.125,0 0,672.8125 -329.125,0 0,-317.15625 130.21875,0 c 10.6578,0.0638 19.3138,-8.5922 19.25,-19.25 z"
             transform="matrix(0.12836089,0,0,0.12836089,489.08272,304.13602)"
             id="path9382"
             inkscape:connector-curvature="0"
             sodipodi:nodetypes="cccccccccccccccccccccccc" />
        </g>
      </g>
    </g>
  </g>
</svg>
