<?xml version="1.0" encoding="UTF-8" standalone="no"?>
<!-- Created with Inkscape (http://www.inkscape.org/) -->

<svg
   xmlns:dc="http://purl.org/dc/elements/1.1/"
   xmlns:cc="http://creativecommons.org/ns#"
   xmlns:rdf="http://www.w3.org/1999/02/22-rdf-syntax-ns#"
   xmlns:svg="http://www.w3.org/2000/svg"
   xmlns="http://www.w3.org/2000/svg"
   xmlns:sodipodi="http://sodipodi.sourceforge.net/DTD/sodipodi-0.dtd"
   xmlns:inkscape="http://www.inkscape.org/namespaces/inkscape"
   width="1000"
   height="1000"
   id="svg3288"
   version="1.1"
   inkscape:version="0.91 r13725"
   sodipodi:docname="interpolation_linear.svg">
  <defs
     id="defs3290" />
  <sodipodi:namedview
     id="base"
     pagecolor="#ffffff"
     bordercolor="#666666"
     borderopacity="1.0"
     inkscape:pageopacity="0.0"
     inkscape:pageshadow="2"
     inkscape:zoom="0.319"
     inkscape:cx="291.0642"
     inkscape:cy="511.96138"
     inkscape:document-units="px"
     inkscape:current-layer="g7108"
     showgrid="false"
     showguides="false"
     inkscape:window-width="1440"
     inkscape:window-height="826"
     inkscape:window-x="0"
     inkscape:window-y="0"
     inkscape:window-maximized="1" />
  <metadata
     id="metadata3293">
    <rdf:RDF>
      <cc:Work
         rdf:about="">
        <dc:format>image/svg+xml</dc:format>
        <dc:type
           rdf:resource="http://purl.org/dc/dcmitype/StillImage" />
        <dc:title></dc:title>
      </cc:Work>
    </rdf:RDF>
  </metadata>
  <g
     inkscape:label="Layer 1"
     inkscape:groupmode="layer"
     id="layer1"
     transform="translate(0,-52.362183)">
    <g
       style="display:inline"
       id="g7108"
       transform="matrix(41.501949,0,0,41.666667,-1655.8808,-30849.806)"
       inkscape:export-filename="/Users/chyu/Desktop/fis_interpolations.png"
       inkscape:export-xdpi="300"
       inkscape:export-ydpi="300">
      <g
         transform="matrix(0.39820741,0,0,0.40157473,-468.88086,395.7292)"
         id="g9685"
         style="fill:#555753;stroke:#2e3436;stroke-width:3.84465051;stroke-opacity:1">
        <path
           style="fill:#000000;fill-opacity:1;stroke:none"
           d="m 498.09375,116.03125 a 19.135786,19.135787 0 0 0 -1.6875,0.0937 19.135786,19.135787 0 0 0 -13.15625,9.5625 l -430.5,729.5 A 19.135786,19.135787 0 0 0 69.5,883.875 l 441.25,0 a 19.135786,19.135787 0 0 0 16.75,-9.5625 l 419.75,-729.5 A 19.135786,19.135787 0 0 0 930.5,116.125 l -430.5,0 a 19.135786,19.135787 0 0 0 -1.90625,-0.0937 z M 500,172.625 l 0,672.96875 -397.03125,0 L 500,172.625 z"
           transform="matrix(0.06724391,0,0,0.06697808,1274.3079,857.81226)"
           id="path12446"
           inkscape:connector-curvature="0" />
      </g>
    </g>
  </g>
</svg>
