<?xml version="1.0" encoding="UTF-8" standalone="no"?>
<!-- Created with Inkscape (http://www.inkscape.org/) -->

<svg
   xmlns:dc="http://purl.org/dc/elements/1.1/"
   xmlns:cc="http://creativecommons.org/ns#"
   xmlns:rdf="http://www.w3.org/1999/02/22-rdf-syntax-ns#"
   xmlns:svg="http://www.w3.org/2000/svg"
   xmlns="http://www.w3.org/2000/svg"
   xmlns:sodipodi="http://sodipodi.sourceforge.net/DTD/sodipodi-0.dtd"
   xmlns:inkscape="http://www.inkscape.org/namespaces/inkscape"
   width="1000"
   height="1000"
   id="svg3888"
   version="1.1"
   inkscape:version="0.48.2 r9819"
   sodipodi:docname="layer_duplicate.svg">
  <defs
     id="defs3890" />
  <sodipodi:namedview
     id="base"
     pagecolor="#ffffff"
     bordercolor="#666666"
     borderopacity="1.0"
     inkscape:pageopacity="0.0"
     inkscape:pageshadow="2"
     inkscape:zoom="0.13157153"
     inkscape:cx="322.33508"
     inkscape:cy="690.30548"
     inkscape:document-units="px"
     inkscape:current-layer="g3582"
     showgrid="false"
     inkscape:window-width="1402"
     inkscape:window-height="856"
     inkscape:window-x="38"
     inkscape:window-y="0"
     inkscape:window-maximized="1" />
  <metadata
     id="metadata3893">
    <rdf:RDF>
      <cc:Work
         rdf:about="">
        <dc:format>image/svg+xml</dc:format>
        <dc:type
           rdf:resource="http://purl.org/dc/dcmitype/StillImage" />
        <dc:title></dc:title>
      </cc:Work>
    </rdf:RDF>
  </metadata>
  <g
     inkscape:label="Layer 1"
     inkscape:groupmode="layer"
     id="layer1"
     transform="translate(0,-52.362183)">
    <g
       style="display:inline"
       id="g3582"
       transform="matrix(40.887017,0,0,40.887017,2575.176,-58573.169)">
      <g
         transform="matrix(1.0190684,0,0,1.0190684,-64.050051,147.02653)"
         style="display:inline"
         id="g6828">
        <rect
           y="1262.7373"
           x="1.0473487"
           height="24"
           width="24"
           id="rect12758"
           style="fill:none;stroke:none" />
        <path
           sodipodi:nodetypes="cccccccccccccccccccccccccccccccccc"
           inkscape:connector-curvature="0"
           id="path12733"
           d="m 8.1132935,1262.7723 c -2.2699917,-0.068 -4.9838495,0.5502 -6.0722897,2.7724 -1.63164651,3 -0.8643325,6.7824 1.0747496,9.4499 1.3756353,1.968 3.3524015,3.4027 4.84826,5.2711 1.0767539,1.1553 2.2401956,2.2691 3.6441676,3.0187 1.019278,-0.3963 2.697151,-0.77 2.491136,0.9233 0.268601,1.316 1.992906,2.0901 3.062485,1.1802 1.157536,-0.6654 2.11241,0.4652 2.650718,1.2509 1.385842,0.271 2.132409,-1.6998 3.579024,-1.3091 1.796137,-0.5505 1.157054,-2.6326 1.138945,-3.9805 0.479775,-1.1351 0.248629,-2.3946 -0.974162,-2.8534 -0.233801,-0.9313 1.029243,-2.3724 -0.555463,-2.7377 -1.396104,-0.3863 -1.342368,-1.7319 -1.154638,-2.8606 -0.05257,-1.5239 -1.960018,-1.5858 -2.49574,-2.5536 0.391859,-0.9326 0.930475,-2.4029 -0.595333,-2.5688 -0.928628,0.1548 -1.867016,-0.1533 -1.601879,-1.2585 -0.535564,-1.4121 -2.975689,-0.1795 -3.213465,-1.7793 -0.657274,-1.5297 -2.474971,-1.7212 -3.917708,-1.8959 -0.6327661,-0.076 -1.2721432,-0.1058 -1.9088075,-0.069 z m 4.3124995,1.6875 c 0.70425,0.9074 1.268206,2.4561 2.667448,2.2744 1.763508,-0.6857 0.484498,2.3004 1.958216,2.1696 0.974952,-0.5135 2.158821,0.3632 1.162658,1.2661 -0.324814,1.3372 1.355915,1.5432 2.152208,2.1302 1.057177,0.9954 -0.425314,3.2004 1.287642,3.9237 1.421389,0.058 1.013276,1.357 0.629748,2.2438 0.39142,0.889 2.11826,1.4188 1.259224,2.7355 -1.003913,0.8327 1.028838,2.0727 -0.171813,2.9417 -1.042922,0.4676 -2.364604,0.3812 -3.080138,1.3763 -0.634865,-0.6781 -1.180785,-1.7559 -2.402623,-1.3214 -1.108095,0.5316 -2.914511,0.8448 -2.950994,-0.9014 -0.254764,-1.2912 -1.563671,-1.4634 -2.492167,-1.8078 l -0.01943,-17.0307 z"
           style="font-size:medium;font-style:normal;font-variant:normal;font-weight:normal;font-stretch:normal;text-indent:0;text-align:start;text-decoration:none;line-height:normal;letter-spacing:normal;word-spacing:normal;text-transform:none;direction:ltr;block-progression:tb;writing-mode:lr-tb;text-anchor:start;baseline-shift:baseline;color:#000000;fill:#000000;fill-opacity:1;stroke:none;stroke-width:0.99993056;marker:none;visibility:visible;display:inline;overflow:visible;enable-background:accumulate;font-family:Sans;-inkscape-font-specification:Sans" />
      </g>
    </g>
  </g>
</svg>
