<?xml version="1.0" encoding="UTF-8" standalone="no"?>
<!-- Created with Inkscape (http://www.inkscape.org/) -->

<svg
   xmlns:dc="http://purl.org/dc/elements/1.1/"
   xmlns:cc="http://creativecommons.org/ns#"
   xmlns:rdf="http://www.w3.org/1999/02/22-rdf-syntax-ns#"
   xmlns:svg="http://www.w3.org/2000/svg"
   xmlns="http://www.w3.org/2000/svg"
   xmlns:sodipodi="http://sodipodi.sourceforge.net/DTD/sodipodi-0.dtd"
   xmlns:inkscape="http://www.inkscape.org/namespaces/inkscape"
   width="1000"
   height="1000"
   id="svg3888"
   version="1.1"
   inkscape:version="0.91 r13725"
   sodipodi:docname="layer_blur.svg"
   inkscape:export-filename="/Users/chyu/Source/sif.font/resources/concepts/layer_blur.png"
   inkscape:export-xdpi="2.1600001"
   inkscape:export-ydpi="2.1600001">
  <defs
     id="defs3890" />
  <sodipodi:namedview
     id="base"
     pagecolor="#ffffff"
     bordercolor="#666666"
     borderopacity="1.0"
     inkscape:pageopacity="0.0"
     inkscape:pageshadow="2"
     inkscape:zoom="0.66064516"
     inkscape:cx="500.00009"
     inkscape:cy="499.99928"
     inkscape:document-units="px"
     inkscape:current-layer="g6588"
     showgrid="false"
     inkscape:window-width="1440"
     inkscape:window-height="826"
     inkscape:window-x="0"
     inkscape:window-y="0"
     inkscape:window-maximized="1" />
  <metadata
     id="metadata3893">
    <rdf:RDF>
      <cc:Work
         rdf:about="">
        <dc:format>image/svg+xml</dc:format>
        <dc:type
           rdf:resource="http://purl.org/dc/dcmitype/StillImage" />
        <dc:title />
      </cc:Work>
    </rdf:RDF>
  </metadata>
  <g
     inkscape:label="Layer 1"
     inkscape:groupmode="layer"
     id="layer1"
     transform="translate(0,-52.362183)">
    <g
       style="display:inline"
       id="g3582"
       transform="matrix(40.887017,0,0,40.887017,2575.176,-58573.169)">
      <g
         transform="matrix(1.0190684,0,0,1.0190684,-62.727962,386.06189)"
         style="display:inline"
         id="g6588">
        <path
           style="fill:#000000;fill-opacity:1;stroke:none"
           d="m 11.75,1028.5497 c -2.6765734,9.64 -6.9275,9.8636 -6.9275,16.625 0,3.1833 3.2392153,6.625 6.9275,6.625 3.688285,0 6.9275,-3.4417 6.9275,-6.625 0,-6.7614 -4.381869,-6.985 -6.9275,-16.625 z m -3.7282904,14.8125 c -0.1141518,0.9952 -0.060157,2.1553 0.5942623,3.3002 0.6544197,1.1449 1.7715611,2.0431 2.6869881,2.4498 -1.4041532,0.3251 -3.3315751,-0.2356 -4.1115782,-1.6002 -0.780003,-1.3647 -0.1623937,-3.1049 0.8303278,-4.1498 z"
           id="path9017"
           inkscape:connector-curvature="0"
           sodipodi:nodetypes="csssccsccc" />
      </g>
    </g>
  </g>
</svg>
