<?xml version="1.0" encoding="UTF-8" standalone="no"?>
<!-- Created with Inkscape (http://www.inkscape.org/) -->

<svg
   xmlns:dc="http://purl.org/dc/elements/1.1/"
   xmlns:cc="http://creativecommons.org/ns#"
   xmlns:rdf="http://www.w3.org/1999/02/22-rdf-syntax-ns#"
   xmlns:svg="http://www.w3.org/2000/svg"
   xmlns="http://www.w3.org/2000/svg"
   xmlns:sodipodi="http://sodipodi.sourceforge.net/DTD/sodipodi-0.dtd"
   xmlns:inkscape="http://www.inkscape.org/namespaces/inkscape"
   width="1000"
   height="1000"
   id="svg3888"
   version="1.1"
   inkscape:version="0.91 r13725"
   sodipodi:docname="layer_noisegradient.svg"
   inkscape:export-filename="/Users/chyu/Source/sif.font/resources/concepts/layer_noisegradient.png"
   inkscape:export-xdpi="2.1600001"
   inkscape:export-ydpi="2.1600001">
  <defs
     id="defs3890" />
  <sodipodi:namedview
     id="base"
     pagecolor="#ffffff"
     bordercolor="#666666"
     borderopacity="1.0"
     inkscape:pageopacity="0.0"
     inkscape:pageshadow="2"
     inkscape:zoom="0.86057288"
     inkscape:cx="500"
     inkscape:cy="500.00002"
     inkscape:document-units="px"
     inkscape:current-layer="g3867"
     showgrid="false"
     inkscape:window-width="1440"
     inkscape:window-height="826"
     inkscape:window-x="0"
     inkscape:window-y="0"
     inkscape:window-maximized="1" />
  <metadata
     id="metadata3893">
    <rdf:RDF>
      <cc:Work
         rdf:about="">
        <dc:format>image/svg+xml</dc:format>
        <dc:type
           rdf:resource="http://purl.org/dc/dcmitype/StillImage" />
        <dc:title />
      </cc:Work>
    </rdf:RDF>
  </metadata>
  <g
     inkscape:label="Layer 1"
     inkscape:groupmode="layer"
     id="layer1"
     transform="translate(0,-52.362183)">
    <g
       style="display:inline"
       id="g3582"
       transform="matrix(40.887017,0,0,40.887017,2575.176,-58573.169)">
      <g
         style="display:inline"
         id="g4475"
         transform="matrix(1.0190684,0,0,1.0190684,-517.41291,1019.6068)">
        <g
           transform="translate(164.64044,-1032.0904)"
           id="g3867"
           style="display:inline">
          <g
             id="g3824"
             transform="matrix(0.93785617,0,0,0.93785617,6.0942669,93.945158)">
            <path
               id="path3777"
               transform="translate(-151.6997,1028.0377)"
               d="m 446.40625,408.96875 0,19.03125 23.03125,0 0,-19.03125 -23.03125,0 z m 1.03125,1 2,1.625 3.09375,0.5625 0.3125,2.1875 -0.15625,-0.125 -3.25,-2.625 -0.34375,-0.0625 -1.65625,3.125 2.4375,2.5625 3.15625,-1.5625 -0.1875,-1.28125 7.625,6.1875 1.125,-0.9375 2.6875,1.75 -0.46875,1.90625 4.59375,3.75 -20.96875,0 0,-12.375 0,-4.6875 z m 16.375,13.3125 -0.65625,-0.53125 -2.6875,-2.1875 -1.375,1.15625 1.1875,3.03125 3.21875,-0.25 0.3125,-1.21875 z m -3.53125,-12.0625 3.09375,0.28125 0.6875,3.09375 -2.6875,1.65625 -2.34375,-2.09375 1.25,-2.9375 z M 465,417 l 2.09375,0.4375 0.25,2.125 -1.90625,0.90625 -1.46875,-1.5625 L 465,417 z m -9.40625,0.78125 -1.40625,1.875 1.28125,2 2.25,-0.6875 0.0937,-2.375 -2.21875,-0.8125 z m -6.21875,4.40625 -1.25,1.875 1.40625,1.75 2.09375,-0.78125 -0.0937,-2.25 -2.15625,-0.59375 z"
               style="font-size:medium;font-style:normal;font-variant:normal;font-weight:normal;font-stretch:normal;text-indent:0;text-align:start;text-decoration:none;line-height:normal;letter-spacing:normal;word-spacing:normal;text-transform:none;direction:ltr;block-progression:tb;writing-mode:lr-tb;text-anchor:start;baseline-shift:baseline;color:#000000;fill:#000000;fill-opacity:1;stroke:none;stroke-width:1.02597988;marker:none;visibility:visible;display:inline;overflow:visible;enable-background:accumulate;font-family:Sans;-inkscape-font-specification:Sans"
               inkscape:connector-curvature="0" />
          </g>
        </g>
      </g>
    </g>
  </g>
</svg>
