<?xml version="1.0" encoding="UTF-8" standalone="no"?>
<!-- Created with Inkscape (http://www.inkscape.org/) -->

<svg
   xmlns:dc="http://purl.org/dc/elements/1.1/"
   xmlns:cc="http://creativecommons.org/ns#"
   xmlns:rdf="http://www.w3.org/1999/02/22-rdf-syntax-ns#"
   xmlns:svg="http://www.w3.org/2000/svg"
   xmlns="http://www.w3.org/2000/svg"
   xmlns:sodipodi="http://sodipodi.sourceforge.net/DTD/sodipodi-0.dtd"
   xmlns:inkscape="http://www.inkscape.org/namespaces/inkscape"
   width="1000"
   height="1000"
   id="svg3888"
   version="1.1"
   inkscape:version="0.91 r13725"
   sodipodi:docname="layer_stretch.svg"
   inkscape:export-filename="/Users/chyu/Source/sif.font/resources/concepts/layer_stretch.png"
   inkscape:export-xdpi="2.1600001"
   inkscape:export-ydpi="2.1600001">
  <defs
     id="defs3890" />
  <sodipodi:namedview
     id="base"
     pagecolor="#ffffff"
     bordercolor="#666666"
     borderopacity="1.0"
     inkscape:pageopacity="0.0"
     inkscape:pageshadow="2"
     inkscape:zoom="0.65818067"
     inkscape:cx="499.77712"
     inkscape:cy="499.967"
     inkscape:document-units="px"
     inkscape:current-layer="g3582"
     showgrid="false"
     inkscape:window-width="1440"
     inkscape:window-height="826"
     inkscape:window-x="0"
     inkscape:window-y="0"
     inkscape:window-maximized="1" />
  <metadata
     id="metadata3893">
    <rdf:RDF>
      <cc:Work
         rdf:about="">
        <dc:format>image/svg+xml</dc:format>
        <dc:type
           rdf:resource="http://purl.org/dc/dcmitype/StillImage" />
        <dc:title />
      </cc:Work>
    </rdf:RDF>
  </metadata>
  <g
     inkscape:label="Layer 1"
     inkscape:groupmode="layer"
     id="layer1"
     transform="translate(0,-52.362183)">
    <g
       style="display:inline"
       id="g3582"
       transform="matrix(40.887017,0,0,40.887017,2575.176,-58573.169)">
      <path
         style="color:#000000;font-style:normal;font-variant:normal;font-weight:normal;font-stretch:normal;font-size:medium;line-height:normal;font-family:Sans;-inkscape-font-specification:Sans;text-indent:0;text-align:start;text-decoration:none;text-decoration-line:none;letter-spacing:normal;word-spacing:normal;text-transform:none;direction:ltr;block-progression:tb;writing-mode:lr-tb;baseline-shift:baseline;text-anchor:start;display:inline;overflow:visible;visibility:visible;fill:#000000;fill-opacity:1;stroke:none;stroke-width:4.26771879;marker:none;enable-background:accumulate"
         d="m -56.74998,1434.1839 c -1.26764,0.039 -2.439541,0.436 -3.431963,1.3347 -1.88514,1.7071 -2.729728,3.586 -2.796415,5.434 -0.06671,1.8479 0.636566,3.6333 1.652427,5.275 2.031712,3.2834 5.423834,6.0241 7.372366,7.5312 1.943254,1.5031 4.162143,3.1712 6.609708,3.8769 2.134447,0.6155 4.443604,0.4365 6.736817,-1.1757 0.532712,0.4545 1.02302,0.5857 1.398207,0.1588 0.431604,-0.4911 0.631085,-1.8961 0.667327,-3.7179 0.121608,-6.1134 -1.779903,-17.3289 -4.575952,-17.7636 -2.495175,-0.388 -3.055302,1.9086 -3.050634,4.703 -2.078794,-2.0388 -4.370868,-3.7674 -6.609708,-4.7666 -1.346763,-0.6011 -2.70454,-0.9285 -3.97218,-0.8898 z m 0.09528,0.9852 c 1.062607,-0.024 2.215004,0.2688 3.463741,0.8262 2.344107,1.0462 4.871954,3.0541 7.086369,5.3703 0.04301,0.7999 0.100162,1.612 0.158887,2.3834 0.222361,2.9182 2.607367,9.3231 4.639506,11.9483 -2.012594,1.3967 -3.902107,1.4958 -5.783494,0.9533 -2.193874,-0.6327 -4.330446,-2.1937 -6.260156,-3.6861 -1.924451,-1.4886 -5.221435,-4.2119 -7.118146,-7.2771 -0.948351,-1.5327 -1.550282,-3.1308 -1.49354,-4.7031 0.05674,-1.5723 0.751737,-3.1393 2.47864,-4.7031 0.813605,-0.7367 1.765586,-1.0876 2.828193,-1.1121 z"
         id="path4972"
         inkscape:connector-curvature="0" />
    </g>
  </g>
</svg>
