<?xml version="1.0" encoding="UTF-8" standalone="no"?>
<!-- Created with Inkscape (http://www.inkscape.org/) -->

<svg
   xmlns:dc="http://purl.org/dc/elements/1.1/"
   xmlns:cc="http://creativecommons.org/ns#"
   xmlns:rdf="http://www.w3.org/1999/02/22-rdf-syntax-ns#"
   xmlns:svg="http://www.w3.org/2000/svg"
   xmlns="http://www.w3.org/2000/svg"
   xmlns:sodipodi="http://sodipodi.sourceforge.net/DTD/sodipodi-0.dtd"
   xmlns:inkscape="http://www.inkscape.org/namespaces/inkscape"
   width="1000"
   height="1000"
   id="svg3888"
   version="1.1"
   inkscape:version="0.91 r13725"
   sodipodi:docname="layer_sperize.svg"
   inkscape:export-filename="/Users/chyu/Source/sif.font/resources/concepts/layer_sperize.png"
   inkscape:export-xdpi="2.1600001"
   inkscape:export-ydpi="2.1600001">
  <defs
     id="defs3890" />
  <sodipodi:namedview
     id="base"
     pagecolor="#ffffff"
     bordercolor="#666666"
     borderopacity="1.0"
     inkscape:pageopacity="0.0"
     inkscape:pageshadow="2"
     inkscape:zoom="0.64322028"
     inkscape:cx="511.94425"
     inkscape:cy="501.47055"
     inkscape:document-units="px"
     inkscape:current-layer="g3582"
     showgrid="false"
     inkscape:window-width="1440"
     inkscape:window-height="826"
     inkscape:window-x="0"
     inkscape:window-y="0"
     inkscape:window-maximized="1" />
  <metadata
     id="metadata3893">
    <rdf:RDF>
      <cc:Work
         rdf:about="">
        <dc:format>image/svg+xml</dc:format>
        <dc:type
           rdf:resource="http://purl.org/dc/dcmitype/StillImage" />
        <dc:title />
      </cc:Work>
    </rdf:RDF>
  </metadata>
  <g
     inkscape:label="Layer 1"
     inkscape:groupmode="layer"
     id="layer1"
     transform="translate(0,-52.362183)">
    <g
       style="display:inline"
       id="g3582"
       transform="matrix(40.887017,0,0,40.887017,2575.176,-58573.169)">
      <path
         id="path3079"
         style="color:#000000;font-style:normal;font-variant:normal;font-weight:normal;font-stretch:normal;font-size:medium;line-height:normal;font-family:sans-serif;text-indent:0;text-align:start;text-decoration:none;text-decoration-line:none;text-decoration-style:solid;text-decoration-color:#000000;letter-spacing:normal;word-spacing:normal;text-transform:none;direction:ltr;block-progression:tb;writing-mode:lr-tb;baseline-shift:baseline;text-anchor:start;white-space:normal;clip-rule:nonzero;display:inline;overflow:visible;visibility:visible;opacity:1;isolation:auto;mix-blend-mode:normal;color-interpolation:sRGB;color-interpolation-filters:linearRGB;solid-color:#000000;solid-opacity:1;fill:#000000;fill-opacity:1;fill-rule:nonzero;stroke:none;stroke-width:1.5286026;stroke-linecap:round;stroke-linejoin:round;stroke-miterlimit:4;stroke-dasharray:1.54579603, 3.09159205;stroke-dashoffset:12.9931221;stroke-opacity:1;color-rendering:auto;image-rendering:auto;shape-rendering:auto;text-rendering:auto;enable-background:accumulate"
         d="m -50.979351,1435.0994 c 0.333139,0.3034 0.916036,0.2418 1.354165,0.4197 0.394791,0.1603 0.862786,0.1991 1.16229,-0.071 0.27756,-0.2504 0.30718,-0.6368 0.0159,-1.0047 -0.311295,-0.3932 -0.820621,-0.3865 -1.245782,-0.4952 -0.412576,-0.1055 -0.84232,-0.1391 -1.218858,0.097 -0.282938,0.1774 -0.287233,0.8542 -0.06771,1.0542 z m -4.399328,-0.4822 c -0.352479,0.2319 -0.458478,0.5454 -0.300129,0.9513 0.109034,0.2795 0.588265,0.5043 0.879976,0.4069 0.483951,-0.1616 1.010016,-0.2408 1.457847,-0.4614 0.355387,-0.175 0.535469,-0.4519 0.43894,-0.8989 -0.07207,-0.3337 -0.507334,-0.5956 -0.802031,-0.5521 -0.556755,0.082 -1.280783,0.2951 -1.674603,0.5542 z m 8.495867,1.2776 c -0.102134,0.37 0.09258,0.8139 0.51331,0.9685 0.507897,0.2586 0.846938,0.7663 1.453458,0.8441 0.311558,0.04 0.707128,-0.3154 0.70579,-0.606 -0.0018,-0.3968 -0.178952,-0.687 -0.486502,-0.9379 -0.434861,-0.3548 -0.899644,-0.6957 -1.502085,-0.7609 -0.348918,-0.038 -0.60977,0.2234 -0.683971,0.4922 z m -12.521485,1.567 c -0.208407,0.3668 -0.16089,0.6935 0.163932,0.9832 0.224391,0.2001 0.75651,0.1827 0.970838,-0.038 0.355171,-0.3658 0.790851,-0.6705 1.089226,-1.0696 0.237029,-0.317 0.271479,-0.6455 -0.01656,-0.9997 -0.21478,-0.2641 -0.725973,-0.3046 -0.964606,-0.1275 -0.478187,0.3549 -0.997435,0.8197 -1.24283,1.2516 z m 15.933292,2.4864 c 0.265887,0.3633 0.350603,0.849 0.634966,1.1832 0.271172,0.323 0.588684,0.4277 0.972091,0.222 0.806547,-0.6262 -0.04586,-1.9267 -0.488289,-2.4239 -0.299255,-0.2968 -0.62491,-0.3702 -0.987476,-0.1315 -0.383615,0.184 -0.264221,0.9948 -0.131292,1.1502 z m -17.614933,0.027 c -0.429726,0.4551 -0.594894,1.1549 -0.64756,1.7719 -0.03366,0.3944 0.116015,0.6907 0.548506,0.8366 0.322496,0.1088 0.776095,-0.1298 0.882689,-0.4072 0.187693,-0.4884 0.419198,-0.9814 0.510135,-1.4866 0.07017,-0.3899 -0.0638,-0.6723 -0.46878,-0.8846 -0.309063,-0.162 -0.634297,-0.032 -0.82499,0.1699 z m 18.824219,3.582 c -0.184305,0.5344 -0.08109,1.1314 -0.02148,1.6973 0.03917,0.3719 0.243456,0.6563 0.708242,0.7152 0.382158,0.048 0.738597,-0.2553 0.79923,-0.5467 0.122006,-0.5863 0.122413,-1.2458 -0.04226,-1.8199 -0.137906,-0.3985 -0.394241,-0.5774 -0.828585,-0.5551 -0.359872,0.018 -0.525663,0.2497 -0.615147,0.5092 z m -19.826172,1.2422 c -0.19003,0.598 -0.0089,1.296 0.209339,1.8747 0.139781,0.3706 0.404613,0.5701 0.858007,0.5087 0.338984,-0.046 0.640625,-0.4591 0.616577,-0.7567 -0.04208,-0.5208 -0.06869,-1.0641 -0.20723,-1.558 -0.106962,-0.3813 -0.353366,-0.575 -0.810114,-0.5873 -0.349148,-0.01 -0.582375,0.2536 -0.666579,0.5186 z m 19.271485,2.9844 c -0.397447,0.4012 -0.580009,0.9738 -0.78125,1.5059 -0.132131,0.3494 -0.07737,0.6944 0.312092,0.9548 0.320636,0.2144 0.777066,0.104 0.960794,-0.1307 0.369423,-0.4719 0.675502,-1.0564 0.782176,-1.6455 0.05304,-0.4184 -0.110763,-0.6638 -0.496289,-0.8656 -0.254791,-0.1334 -0.60437,0.01 -0.777523,0.1811 z m -17.792035,2.1969 c 0.279038,0.4015 0.503507,0.8917 0.880258,1.1942 0.328721,0.264 0.655747,0.2799 0.998328,0.012 0.23624,-0.1848 0.309192,-0.71 0.132198,-0.961 -0.293448,-0.4162 -0.527495,-0.8907 -0.865447,-1.257 -0.268536,-0.291 -0.576038,-0.3611 -0.987257,-0.162 -0.473528,0.2292 -0.265884,1.0187 -0.15808,1.1738 z m 3.44942,3.5534 c 0.459575,0.2097 0.885665,0.573 1.383273,0.6655 0.438728,0.082 0.731238,-0.1061 0.867394,-0.4916 0.09461,-0.2678 -0.0909,-0.7623 -0.407174,-0.8972 -0.450744,-0.1922 -0.835447,-0.5451 -1.287614,-0.7026 -0.373828,-0.1302 -0.744351,-0.1 -0.951178,0.3073 -0.304129,0.3485 0.129009,0.9885 0.395299,1.1186 z m 10.121912,-0.9654 c -0.482392,0.2167 -0.94394,0.3541 -1.35147,0.6151 -0.333535,0.2136 -0.47905,0.5114 -0.33312,0.9443 0.109131,0.3237 0.572273,0.531 0.860175,0.4555 0.56954,-0.1493 1.140634,-0.4164 1.617706,-0.7478 0.239892,-0.3146 0.371826,-0.5916 0.147061,-0.9883 -0.354177,-0.5765 -0.686038,-0.393 -0.940352,-0.2788 z m -6.086771,2.284 c 0.301096,0.3796 0.828044,0.3167 1.252401,0.3383 0.409389,0.021 0.796444,0.041 1.183265,-0.2083 0.306108,-0.197 0.360303,-0.7057 0.192987,-0.9187 -0.23955,-0.305 -0.496709,-0.4381 -0.970921,-0.3878 -0.524651,0.056 -1.034351,-0.1274 -1.552406,0.1 -0.488086,0.2142 -0.212171,0.9418 -0.105326,1.0765 z m 2.929812,-16.6452 c -2.830789,0.021 -5.879322,1.3444 -8.088856,4.968 -2.50009,4.9523 2.83727,9.2819 6.846866,9.3627 4.466027,0 8.625291,-3.6614 8.05701,-8.0252 -0.568281,-4.3638 -3.838079,-6.2417 -6.81502,-6.3055 z m 9.52192,10.6048 c -1.16452,2.8856 -3.43694,5.2355 -6.305486,6.4328 2.533731,1.6078 5.558978,4.2747 7.069787,2.1974 2.242817,-3.121 0.783195,-5.772 -0.764301,-8.6302 z" />
    </g>
  </g>
</svg>
