<?xml version="1.0" encoding="UTF-8" standalone="no"?>
<!-- Created with Inkscape (http://www.inkscape.org/) -->

<svg
   xmlns:dc="http://purl.org/dc/elements/1.1/"
   xmlns:cc="http://creativecommons.org/ns#"
   xmlns:rdf="http://www.w3.org/1999/02/22-rdf-syntax-ns#"
   xmlns:svg="http://www.w3.org/2000/svg"
   xmlns="http://www.w3.org/2000/svg"
   xmlns:sodipodi="http://sodipodi.sourceforge.net/DTD/sodipodi-0.dtd"
   xmlns:inkscape="http://www.inkscape.org/namespaces/inkscape"
   width="1000"
   height="1000"
   id="svg3888"
   version="1.1"
   inkscape:version="0.91 r13725"
   sodipodi:docname="layer_sound.svg"
   inkscape:export-filename="/Users/chyu/Source/sif.font/resources/concepts/layer_sound.png"
   inkscape:export-xdpi="2.1600001"
   inkscape:export-ydpi="2.1600001">
  <defs
     id="defs3890" />
  <sodipodi:namedview
     id="base"
     pagecolor="#ffffff"
     bordercolor="#666666"
     borderopacity="1.0"
     inkscape:pageopacity="0.0"
     inkscape:pageshadow="2"
     inkscape:zoom="0.63999999"
     inkscape:cx="500.00017"
     inkscape:cy="500.00228"
     inkscape:document-units="px"
     inkscape:current-layer="g3582"
     showgrid="false"
     inkscape:window-width="1440"
     inkscape:window-height="826"
     inkscape:window-x="0"
     inkscape:window-y="0"
     inkscape:window-maximized="1" />
  <metadata
     id="metadata3893">
    <rdf:RDF>
      <cc:Work
         rdf:about="">
        <dc:format>image/svg+xml</dc:format>
        <dc:type
           rdf:resource="http://purl.org/dc/dcmitype/StillImage" />
        <dc:title />
      </cc:Work>
    </rdf:RDF>
  </metadata>
  <g
     inkscape:label="Layer 1"
     inkscape:groupmode="layer"
     id="layer1"
     transform="translate(0,-52.362183)">
    <g
       style="display:inline"
       id="g3582"
       transform="matrix(40.887017,0,0,40.887017,2575.176,-58573.169)">
      <rect
         style="display:inline;fill:none;stroke:none"
         id="rect8114"
         width="24.457642"
         height="24.457642"
         x="-62.982727"
         y="1433.8422" />
      <path
         id="path4054"
         style="color:#000000;font-style:normal;font-variant:normal;font-weight:normal;font-stretch:normal;font-size:medium;line-height:normal;font-family:Sans;-inkscape-font-specification:Sans;text-indent:0;text-align:start;text-decoration:none;text-decoration-line:none;letter-spacing:normal;word-spacing:normal;text-transform:none;direction:ltr;block-progression:tb;writing-mode:lr-tb;baseline-shift:baseline;text-anchor:start;display:inline;overflow:visible;visibility:visible;fill:#000000;fill-opacity:1;stroke:none;stroke-width:2.17038488;marker:none;enable-background:accumulate"
         d="m -41.648466,1433.8919 a 1.105996,1.105996 0 0 0 -0.891685,1.4649 c 1.072213,3.1312 1.719678,6.7566 1.719678,10.7002 0,3.9436 -0.648168,7.6029 -1.719678,10.732 a 1.107775,1.107775 0 1 0 2.101828,0.7007 c 1.152506,-3.3657 1.847062,-7.2435 1.847062,-11.4327 0,-4.1893 -0.69526,-8.0372 -1.847062,-11.4008 a 1.105996,1.105996 0 0 0 -1.210143,-0.7643 z m -3.503048,3.6622 a 1.105996,1.105996 0 0 0 -0.891685,1.4649 c 0.696401,2.0316 1.114606,4.4414 1.114606,7.038 0,2.6029 -0.416727,5.0388 -1.114606,7.0698 a 1.1077609,1.1077609 0 1 0 2.101829,0.7006 c 0.789839,-2.2986 1.210144,-4.9465 1.210144,-7.7704 0,-2.8194 -0.42429,-5.4462 -1.210144,-7.7386 a 1.105996,1.105996 0 0 0 -1.210144,-0.7643 z m -3.40751,3.6942 a 1.105996,1.105996 0 0 0 -0.987222,1.4968 c 0.328221,0.9525 0.509534,2.0653 0.509534,3.3119 0,1.2307 -0.186367,2.3643 -0.509534,3.312 a 1.1128987,1.1128987 0 1 0 2.101828,0.7324 c 0.410216,-1.203 0.636918,-2.5852 0.636918,-4.0444 0,-1.4668 -0.219854,-2.834 -0.636918,-4.0444 a 1.105996,1.105996 0 0 0 -1.114606,-0.7643 z m -3.061771,-5.444 0.310042,0 0,20.535 -0.372052,0 -5.022601,-4.6016 c -0.337505,-0.3229 -0.817384,-0.5137 -1.302165,-0.5177 l -4.526559,0 0,-10.2963 4.526559,0 c 0.476261,0.011 0.954551,-0.1579 1.302165,-0.4601 z" />
    </g>
  </g>
</svg>
