<?xml version="1.0" encoding="UTF-8" standalone="no"?>
<!-- Created with Inkscape (http://www.inkscape.org/) -->

<svg
   xmlns:dc="http://purl.org/dc/elements/1.1/"
   xmlns:cc="http://creativecommons.org/ns#"
   xmlns:rdf="http://www.w3.org/1999/02/22-rdf-syntax-ns#"
   xmlns:svg="http://www.w3.org/2000/svg"
   xmlns="http://www.w3.org/2000/svg"
   xmlns:sodipodi="http://sodipodi.sourceforge.net/DTD/sodipodi-0.dtd"
   xmlns:inkscape="http://www.inkscape.org/namespaces/inkscape"
   width="1000"
   height="1000"
   id="svg3888"
   version="1.1"
   inkscape:version="0.91 r13725"
   sodipodi:docname="layer_insideout.svg"
   inkscape:export-filename="/Users/chyu/Source/sif.font/resources/concepts/layer_insideout.png"
   inkscape:export-xdpi="2.1600001"
   inkscape:export-ydpi="2.1600001">
  <defs
     id="defs3890" />
  <sodipodi:namedview
     id="base"
     pagecolor="#ffffff"
     bordercolor="#666666"
     borderopacity="1.0"
     inkscape:pageopacity="0.0"
     inkscape:pageshadow="2"
     inkscape:zoom="0.76514784"
     inkscape:cx="499.86662"
     inkscape:cy="500.00311"
     inkscape:document-units="px"
     inkscape:current-layer="g6628"
     showgrid="false"
     inkscape:window-width="1440"
     inkscape:window-height="826"
     inkscape:window-x="0"
     inkscape:window-y="0"
     inkscape:window-maximized="1" />
  <metadata
     id="metadata3893">
    <rdf:RDF>
      <cc:Work
         rdf:about="">
        <dc:format>image/svg+xml</dc:format>
        <dc:type
           rdf:resource="http://purl.org/dc/dcmitype/StillImage" />
        <dc:title />
      </cc:Work>
    </rdf:RDF>
  </metadata>
  <g
     inkscape:label="Layer 1"
     inkscape:groupmode="layer"
     id="layer1"
     transform="translate(0,-52.362183)">
    <g
       style="display:inline"
       id="g3582"
       transform="matrix(40.887017,0,0,40.887017,2575.176,-58573.169)">
      <g
         transform="matrix(1.028744,0,0,1.028744,-103.13279,335.42548)"
         style="display:inline"
         id="g6628">
        <path
           style="color:#000000;font-style:normal;font-variant:normal;font-weight:normal;font-stretch:normal;font-size:medium;line-height:normal;font-family:sans-serif;text-indent:0;text-align:start;text-decoration:none;text-decoration-line:none;text-decoration-style:solid;text-decoration-color:#000000;letter-spacing:normal;word-spacing:normal;text-transform:none;direction:ltr;block-progression:tb;writing-mode:lr-tb;baseline-shift:baseline;text-anchor:start;white-space:normal;clip-rule:nonzero;display:inline;overflow:visible;visibility:visible;opacity:1;isolation:auto;mix-blend-mode:normal;color-interpolation:sRGB;color-interpolation-filters:linearRGB;solid-color:#000000;solid-opacity:1;fill:#000000;fill-opacity:1;fill-rule:nonzero;stroke:none;stroke-width:0.99481994;stroke-linecap:butt;stroke-linejoin:miter;stroke-miterlimit:4;stroke-dasharray:none;stroke-dashoffset:0;stroke-opacity:1;color-rendering:auto;image-rendering:auto;shape-rendering:auto;text-rendering:auto;enable-background:accumulate"
           d="M 385.04492,81.78125 C 316.81837,81.494539 248.42314,100.17743 189.71484,147.31836 6.4303381,294.49425 -43.556582,481.29278 45.308594,645.44922 134.17385,809.60565 234.14687,951.11906 467.41797,911.49219 590.62868,890.56402 647.20049,782.78544 673.16602,685.73633 c 20.24501,19.35199 41.55339,36.89305 63.625,50.86914 41.0582,25.99869 86.93393,40.47258 130.87109,24.80859 78.53342,-27.99244 121.78338,-93.34371 128.56836,-167.0957 6.78493,-73.7562 -20.02664,-156.128 -75.00586,-227.64648 C 867.28559,296.50359 802.13908,240.22562 735.47656,214.76953 718.63924,208.34208 701.46358,204.12542 684.40039,202.375 618.03263,138.32093 501.80075,82.271898 385.04492,81.78125 Z m 342.06641,174.7168 c 53.87756,22.6425 112.38535,72.49887 160.92383,135.63867 49.4577,64.33845 72.12555,137.63707 66.54296,198.32031 -5.58254,60.68324 -36.58449,108.57426 -100.96484,131.52344 -27.5197,9.81313 -59.26834,1.59829 -94.47656,-20.70313 -25.088,-15.8851 -50.79408,-38.58924 -75.15039,-63.9375 11.94167,-65.35781 11.15039,-116.42382 11.15039,-116.42382 0,0 -18.5037,34.7494 -46.77734,76.51562 C 587.54344,524.51776 543.48633,448.16797 543.48633,448.16797 l -0.16406,-0.41992 -0.24805,-0.42188 c 0,0 -9.42311,-14.45938 -10.59766,-42.88086 8.55615,-56.45541 22.514,-91.62716 52.04492,-124.84375 16.4478,2.53888 33.04428,7.33646 49.51954,14.89258 111.0815,50.94583 61.0957,169.81836 61.0957,169.81836 0,0 95.88375,-92.32344 31.97461,-207.81445 z m -194.65821,22.2207 c -34.19474,49.3448 -43.0967,94.13087 -41.70898,127.71484 1.56934,37.98224 16.67598,62.95495 16.75977,63.09375 0.23107,0.42013 48.5059,84.33467 115.76367,163.04102 -50.31524,66.43091 -118.01396,131.73136 -172.51172,97.78711 -99.97332,-62.26478 -122.18904,-300.00813 -83.31055,-356.61133 26.92752,-39.20665 91.15942,-86.54501 165.00781,-95.02539 z"
           transform="matrix(0.02377427,0,0,0.02377427,39.028231,1067.726)"
           id="path5294"
           inkscape:connector-curvature="0"
           sodipodi:nodetypes="scsccscscccsccsccccccccccscccsccccc" />
      </g>
    </g>
  </g>
</svg>
