<?xml version="1.0" encoding="UTF-8" standalone="no"?>
<!-- Created with Inkscape (http://www.inkscape.org/) -->

<svg
   xmlns:dc="http://purl.org/dc/elements/1.1/"
   xmlns:cc="http://creativecommons.org/ns#"
   xmlns:rdf="http://www.w3.org/1999/02/22-rdf-syntax-ns#"
   xmlns:svg="http://www.w3.org/2000/svg"
   xmlns="http://www.w3.org/2000/svg"
   xmlns:sodipodi="http://sodipodi.sourceforge.net/DTD/sodipodi-0.dtd"
   xmlns:inkscape="http://www.inkscape.org/namespaces/inkscape"
   width="1000"
   height="1000"
   id="svg3888"
   version="1.1"
   inkscape:version="0.91 r13725"
   sodipodi:docname="layer_twirl.svg"
   inkscape:export-filename="/Users/chyu/Source/sif.font/resources/concepts/layer_twirl.png"
   inkscape:export-xdpi="2.1600001"
   inkscape:export-ydpi="2.1600001">
  <defs
     id="defs3890" />
  <sodipodi:namedview
     id="base"
     pagecolor="#ffffff"
     bordercolor="#666666"
     borderopacity="1.0"
     inkscape:pageopacity="0.0"
     inkscape:pageshadow="2"
     inkscape:zoom="0.76118365"
     inkscape:cx="508.42541"
     inkscape:cy="491.21125"
     inkscape:document-units="px"
     inkscape:current-layer="g3582"
     showgrid="false"
     inkscape:window-width="1440"
     inkscape:window-height="826"
     inkscape:window-x="0"
     inkscape:window-y="0"
     inkscape:window-maximized="1" />
  <metadata
     id="metadata3893">
    <rdf:RDF>
      <cc:Work
         rdf:about="">
        <dc:format>image/svg+xml</dc:format>
        <dc:type
           rdf:resource="http://purl.org/dc/dcmitype/StillImage" />
        <dc:title />
      </cc:Work>
    </rdf:RDF>
  </metadata>
  <g
     inkscape:label="Layer 1"
     inkscape:groupmode="layer"
     id="layer1"
     transform="translate(0,-52.362183)">
    <g
       style="display:inline"
       id="g3582"
       transform="matrix(40.887017,0,0,40.887017,2575.176,-58573.169)">
      <path
         style="color:#000000;font-style:normal;font-variant:normal;font-weight:normal;font-stretch:normal;font-size:medium;line-height:normal;font-family:Sans;-inkscape-font-specification:Sans;text-indent:0;text-align:start;text-decoration:none;text-decoration-line:none;letter-spacing:normal;word-spacing:normal;text-transform:none;direction:ltr;block-progression:tb;writing-mode:lr-tb;baseline-shift:baseline;text-anchor:start;display:inline;overflow:visible;visibility:visible;fill:#000000;fill-opacity:1;stroke:none;stroke-width:0.88647288;marker:none;enable-background:accumulate"
         d="m -59.485017,1436.6165 c -1.527759,0.7451 -2.639454,1.6686 -2.920336,2.8575 -1.045211,4.424 3.111419,8.891 5.620862,11.6186 2.85706,3.0785 9.329008,7.3116 13.377021,4.616 1.032793,-0.7358 0.862456,-2.4103 0.722292,-3.4228 4.185478,-2.1972 6.92872,-12.5025 -0.408219,-12.4035 -0.535191,0.01 -1.903883,1.7439 0,3.0459 1.096378,0.7498 0.282111,2.7818 -1.130452,3.988 -0.612153,-1.6042 -1.282486,-3.0492 -1.821335,-3.8624 -0.788564,-1.1902 -2.402941,-3.7767 -4.961431,-5.1812 -2.545205,-1.3972 -5.557491,-2.6604 -8.478402,-1.2561 z m 7.002526,1.5077 c 0.309,0.1832 0.615458,0.3545 0.910642,0.5652 2.214983,1.581 3.946797,3.8253 4.678817,4.93 0.470741,0.7104 1.188714,2.2074 1.821285,3.8624 -1.415146,0.7076 -3.813094,0.705 -5.777869,-1.8212 -1.864695,-2.3976 -2.511111,-4.934 -1.632875,-7.5364 z"
         id="path4844"
         inkscape:connector-curvature="0"
         sodipodi:nodetypes="cscccccccsccsccsc" />
    </g>
  </g>
</svg>
