<?xml version="1.0" encoding="UTF-8" standalone="no"?>
<!-- Created with Inkscape (http://www.inkscape.org/) -->

<svg
   xmlns:dc="http://purl.org/dc/elements/1.1/"
   xmlns:cc="http://creativecommons.org/ns#"
   xmlns:rdf="http://www.w3.org/1999/02/22-rdf-syntax-ns#"
   xmlns:svg="http://www.w3.org/2000/svg"
   xmlns="http://www.w3.org/2000/svg"
   xmlns:sodipodi="http://sodipodi.sourceforge.net/DTD/sodipodi-0.dtd"
   xmlns:inkscape="http://www.inkscape.org/namespaces/inkscape"
   width="1000"
   height="1000"
   id="svg3888"
   version="1.1"
   inkscape:version="0.48.2 r9819"
   sodipodi:docname="layer_insideout.svg">
  <defs
     id="defs3890" />
  <sodipodi:namedview
     id="base"
     pagecolor="#ffffff"
     bordercolor="#666666"
     borderopacity="1.0"
     inkscape:pageopacity="0.0"
     inkscape:pageshadow="2"
     inkscape:zoom="0.065785766"
     inkscape:cx="291.93337"
     inkscape:cy="1205.8015"
     inkscape:document-units="px"
     inkscape:current-layer="g3582"
     showgrid="false"
     inkscape:window-width="1402"
     inkscape:window-height="856"
     inkscape:window-x="38"
     inkscape:window-y="0"
     inkscape:window-maximized="1" />
  <metadata
     id="metadata3893">
    <rdf:RDF>
      <cc:Work
         rdf:about="">
        <dc:format>image/svg+xml</dc:format>
        <dc:type
           rdf:resource="http://purl.org/dc/dcmitype/StillImage" />
        <dc:title></dc:title>
      </cc:Work>
    </rdf:RDF>
  </metadata>
  <g
     inkscape:label="Layer 1"
     inkscape:groupmode="layer"
     id="layer1"
     transform="translate(0,-52.362183)">
    <g
       style="display:inline"
       id="g3582"
       transform="matrix(40.887017,0,0,40.887017,2575.176,-58573.169)">
      <g
         transform="matrix(1.0168781,0,0,1.0168781,-261.36492,388.14716)"
         style="display:inline"
         id="g6615">
        <rect
           y="1028.3645"
           x="195.14114"
           height="24"
           width="24"
           id="rect4978"
           style="fill:none;stroke:none" />
        <path
           inkscape:connector-curvature="0"
           id="path4972"
           d="m 201.21875,1028.6747 c -1.2466,0.038 -2.39905,0.4287 -3.375,1.3125 -1.85385,1.6788 -2.68442,3.5265 -2.75,5.3438 -0.0656,1.8172 0.626,3.573 1.625,5.1875 1.99799,3.2289 5.33381,5.9241 7.25,7.4062 1.911,1.4781 4.09306,3.1185 6.5,3.8125 2.09902,0.6053 4.36985,0.4293 6.625,-1.1562 0.52387,0.447 1.00604,0.576 1.375,0.1562 0.42444,-0.483 0.62061,-1.8646 0.65625,-3.6562 0.11959,-6.0119 -1.75036,-17.0413 -4.5,-17.4688 -2.45376,-0.3815 -3.00459,1.877 -3,4.625 -2.04429,-2.005 -4.29832,-3.7049 -6.5,-4.6875 -1.32441,-0.5911 -2.65965,-0.9131 -3.90625,-0.875 z m 0.0937,0.9688 c 1.04497,-0.024 2.17824,0.2644 3.40625,0.8125 2.3052,1.0288 4.79109,3.0034 6.96875,5.2812 0.0423,0.7866 0.0985,1.5852 0.15625,2.3438 0.21867,2.8698 2.56409,9.1684 4.5625,11.75 -1.97919,1.3735 -3.83734,1.471 -5.6875,0.9375 -2.15746,-0.6222 -4.25857,-2.1573 -6.15625,-3.625 -1.89251,-1.4638 -5.13477,-4.1419 -7,-7.1563 -0.93261,-1.5072 -1.52455,-3.0788 -1.46875,-4.625 0.0558,-1.5462 0.73926,-3.0872 2.4375,-4.625 0.8001,-0.7245 1.73628,-1.0696 2.78125,-1.0937 z"
           style="font-size:medium;font-style:normal;font-variant:normal;font-weight:normal;font-stretch:normal;text-indent:0;text-align:start;text-decoration:none;line-height:normal;letter-spacing:normal;word-spacing:normal;text-transform:none;direction:ltr;block-progression:tb;writing-mode:lr-tb;text-anchor:start;baseline-shift:baseline;color:#000000;fill:#000000;fill-opacity:1;stroke:none;stroke-width:4.26771879;marker:none;visibility:visible;display:inline;overflow:visible;enable-background:accumulate;font-family:Sans;-inkscape-font-specification:Sans" />
      </g>
    </g>
  </g>
</svg>
