<?xml version="1.0" encoding="UTF-8" standalone="no"?>
<!-- Created with Inkscape (http://www.inkscape.org/) -->

<svg
   xmlns:dc="http://purl.org/dc/elements/1.1/"
   xmlns:cc="http://creativecommons.org/ns#"
   xmlns:rdf="http://www.w3.org/1999/02/22-rdf-syntax-ns#"
   xmlns:svg="http://www.w3.org/2000/svg"
   xmlns="http://www.w3.org/2000/svg"
   xmlns:sodipodi="http://sodipodi.sourceforge.net/DTD/sodipodi-0.dtd"
   xmlns:inkscape="http://www.inkscape.org/namespaces/inkscape"
   width="1000"
   height="1000"
   id="svg3888"
   version="1.1"
   inkscape:version="0.48.2 r9819"
   sodipodi:docname="layer_sound.svg">
  <defs
     id="defs3890" />
  <sodipodi:namedview
     id="base"
     pagecolor="#ffffff"
     bordercolor="#666666"
     borderopacity="1.0"
     inkscape:pageopacity="0.0"
     inkscape:pageshadow="2"
     inkscape:zoom="0.13157153"
     inkscape:cx="322.33508"
     inkscape:cy="690.30548"
     inkscape:document-units="px"
     inkscape:current-layer="g3582"
     showgrid="false"
     inkscape:window-width="1402"
     inkscape:window-height="856"
     inkscape:window-x="38"
     inkscape:window-y="0"
     inkscape:window-maximized="1" />
  <metadata
     id="metadata3893">
    <rdf:RDF>
      <cc:Work
         rdf:about="">
        <dc:format>image/svg+xml</dc:format>
        <dc:type
           rdf:resource="http://purl.org/dc/dcmitype/StillImage" />
        <dc:title></dc:title>
      </cc:Work>
    </rdf:RDF>
  </metadata>
  <g
     inkscape:label="Layer 1"
     inkscape:groupmode="layer"
     id="layer1"
     transform="translate(0,-52.362183)">
    <g
       style="display:inline"
       id="g3582"
       transform="matrix(40.887017,0,0,40.887017,2575.176,-58573.169)">
      <g
         transform="matrix(1.0190684,0,0,1.0190684,-261.84492,185.88337)"
         style="display:inline"
         id="g6811">
        <rect
           style="fill:none;stroke:none"
           id="rect12993"
           width="24"
           height="24"
           x="195.14116"
           y="1224.6075" />
        <path
           transform="translate(0,1028.3622)"
           sodipodi:nodetypes="ccccsccccccccccccccccccccccccccccccccccccccccccccccccccccccc"
           inkscape:connector-curvature="0"
           id="path13025"
           d="m 202.5625,196.25 c -1.30303,0.027 -2.59042,0.1566 -3.75,0.65625 -1.54611,0.6657 -2.7601,2.0907 -3.15625,4.625 -0.51564,3.3002 1.12649,6.213 3.0625,8.5 1.93601,2.2871 4.21798,4.01955 4.96875,4.84375 0.53152,0.5835 1.37026,1.2661 2.40625,1.9375 0.13269,0.0764 0.75892,0.4252 0.78125,0.4375 1.47129,0.91242 2.99302,1.59208 4.5,2.09375 l 0,0.0312 0.34375,0.0937 0.65625,0.1875 c 0.84235,0.26824 1.70108,0.54141 2.59375,0.5625 1.04416,0.021 1.85001,-0.5973 2.375,-1.375 0.52499,-0.7778 0.83752,-1.7419 1.03125,-2.625 0.0311,-0.1418 0.22922,-0.40215 0.28125,-0.84375 0.24411,-2.07279 -0.12748,-3.79589 -0.71875,-5.375 -0.11897,-0.38914 -0.27774,-0.77204 -0.375,-0.9999 -0.58849,-1.33183 -1.30757,-2.5963 -2.0625,-3.8125 -1.24781,-1.76395 -2.73519,-3.49989 -4.125,-4.9062 -1.49617,-1.40117 -3.02744,-2.52686 -4.5,-3.375 -0.49995,-0.22627 -0.65064,-0.27439 -1,-0.375 -0.65677,-0.17267 -1.31912,-0.27765 -2,-0.28125 -0.45614,-0.006 -0.91942,-5.5e-4 -1.3125,-5e-5 z m 4.31245,1.84375 c 1.47861,0.9055 3.01127,2.09795 4.5,3.59375 l 0,0.46875 -4.5,0 z m 0,5.0625 4.5,0 0,5.84375 -4.5,0 z m 5.5,0 0.1875,0 c 0.73644,0.8206 1.48662,1.5843 2.09375,2.5625 0.65931,1.0621 1.22514,2.16095 1.75,3.28125 l -4.03125,0 z m -5.5,6.84375 4.5,0 0,5.625 -4.5,0 z m 5.5,0 4.5,0 c 0.63132,1.5701 1.02152,3.2098 0.78125,5.25 -0.004,0.03 -0.0717,0.2434 -0.125,0.375 l -5.15625,0 z m -4.28125,6.625 3.28125,0 0,1.5625 c -1.10456,-0.3859 -2.20229,-0.9538 -3.28125,-1.5625 z m 4.28125,0 4.78125,0 c -0.17452,0.5892 -0.3285,1.21705 -0.625,1.65625 -0.40924,0.6063 -0.86908,0.951 -1.53125,0.9375 -0.79222,-0.019 -1.70009,-0.30195 -2.625,-0.59375 z"
           style="font-size:medium;font-style:normal;font-variant:normal;font-weight:normal;font-stretch:normal;text-indent:0;text-align:start;text-decoration:none;line-height:normal;letter-spacing:normal;word-spacing:normal;text-transform:none;direction:ltr;block-progression:tb;writing-mode:lr-tb;text-anchor:start;baseline-shift:baseline;color:#000000;fill:#000000;fill-opacity:1;stroke:none;stroke-width:1;marker:none;visibility:visible;display:inline;overflow:visible;enable-background:accumulate;font-family:Sans;-inkscape-font-specification:Sans" />
      </g>
    </g>
  </g>
</svg>
