<?xml version="1.0" encoding="UTF-8" standalone="no"?>
<!-- Created with Inkscape (http://www.inkscape.org/) -->

<svg
   xmlns:dc="http://purl.org/dc/elements/1.1/"
   xmlns:cc="http://creativecommons.org/ns#"
   xmlns:rdf="http://www.w3.org/1999/02/22-rdf-syntax-ns#"
   xmlns:svg="http://www.w3.org/2000/svg"
   xmlns="http://www.w3.org/2000/svg"
   xmlns:sodipodi="http://sodipodi.sourceforge.net/DTD/sodipodi-0.dtd"
   xmlns:inkscape="http://www.inkscape.org/namespaces/inkscape"
   width="1000"
   height="1000"
   id="svg3888"
   version="1.1"
   inkscape:version="0.91 r13725"
   sodipodi:docname="layer_duplicate.svg"
   inkscape:export-filename="/Users/chyu/Source/sif.font/resources/concepts/layer_duplicate.png"
   inkscape:export-xdpi="2.1600001"
   inkscape:export-ydpi="2.1600001">
  <defs
     id="defs3890" />
  <sodipodi:namedview
     id="base"
     pagecolor="#ffffff"
     bordercolor="#666666"
     borderopacity="1.0"
     inkscape:pageopacity="0.0"
     inkscape:pageshadow="2"
     inkscape:zoom="0.64653306"
     inkscape:cx="500"
     inkscape:cy="500"
     inkscape:document-units="px"
     inkscape:current-layer="g6803"
     showgrid="false"
     inkscape:window-width="1440"
     inkscape:window-height="826"
     inkscape:window-x="0"
     inkscape:window-y="0"
     inkscape:window-maximized="1"
     showguides="true"
     inkscape:guide-bbox="true">
    <sodipodi:guide
       position="449.18532,499.34815"
       orientation="0,1"
       id="guide4255" />
    <sodipodi:guide
       position="499.34815,674.91805"
       orientation="1,0"
       id="guide4257" />
  </sodipodi:namedview>
  <metadata
     id="metadata3893">
    <rdf:RDF>
      <cc:Work
         rdf:about="">
        <dc:format>image/svg+xml</dc:format>
        <dc:type
           rdf:resource="http://purl.org/dc/dcmitype/StillImage" />
        <dc:title />
      </cc:Work>
    </rdf:RDF>
  </metadata>
  <g
     inkscape:label="Layer 1"
     inkscape:groupmode="layer"
     id="layer1"
     transform="translate(0,-52.362183)">
    <g
       style="display:inline"
       id="g3582"
       transform="matrix(40.887017,0,0,40.887017,2575.176,-58573.169)">
      <g
         transform="matrix(1.0190684,0,0,1.0190684,-222.07249,185.88247)"
         style="display:inline"
         id="g6803">
        <g
           id="g5091"
           transform="translate(-0.06606458,-0.01972166)">
          <path
             id="path5089"
             style="color:#000000;font-style:normal;font-variant:normal;font-weight:normal;font-stretch:normal;font-size:medium;line-height:normal;font-family:sans-serif;text-indent:0;text-align:start;text-decoration:none;text-decoration-line:none;text-decoration-style:solid;text-decoration-color:#000000;letter-spacing:normal;word-spacing:normal;text-transform:none;direction:ltr;block-progression:tb;writing-mode:lr-tb;baseline-shift:baseline;text-anchor:start;white-space:normal;clip-rule:nonzero;display:inline;overflow:visible;visibility:visible;opacity:1;isolation:auto;mix-blend-mode:normal;color-interpolation:sRGB;color-interpolation-filters:linearRGB;solid-color:#000000;solid-opacity:1;fill:#000000;fill-opacity:1;fill-rule:nonzero;stroke:none;stroke-width:1.99679995;stroke-linecap:butt;stroke-linejoin:miter;stroke-miterlimit:4;stroke-dasharray:none;stroke-dashoffset:0;stroke-opacity:1;color-rendering:auto;image-rendering:auto;shape-rendering:auto;text-rendering:auto;enable-background:accumulate"
             d="m 178.35088,1238.4486 c -2.03107,0.619 -6.50821,-1.0193 -7.24515,-2.3003 2.08051,-1.3661 6.69046,-1.0344 7.58427,0.055 0.62913,0.7611 0.48394,1.8337 -0.33912,2.2456 z m -3.33561,0.9248 c 3.65262,0.8404 4.66162,-0.4312 5.02191,-1.5092 0.36011,-1.078 -0.45968,-3.7909 -4.44546,-3.6686 -3.98572,0.1222 -5.52957,1.1136 -5.65881,1.721 -0.18404,1.0378 3.36187,3.0324 5.08236,3.4568 z m -6.34418,7.6799 c -1.16713,-1.7738 -0.85928,-6.5312 0.16162,-7.5998 1.89785,1.6103 2.88077,6.1264 2.08833,7.2913 -0.55253,0.8184 -1.62255,0.9818 -2.24995,0.3085 z m -1.8288,-2.9389 c 0.22479,3.7413 1.7296,4.3503 2.86538,4.3917 1.13576,0.041 3.50696,-1.5111 2.26453,-5.3002 -1.24221,-3.7891 -2.62905,-4.9904 -3.24821,-4.9429 -1.04762,0.1164 -1.96017,4.0811 -1.8817,5.8514 z m -9.36242,-4.4911 c 1.46112,-1.5406 6.16357,-2.3251 7.43667,-1.5745 -1.13538,2.2148 -5.30874,4.2011 -6.62347,3.695 -0.92282,-0.3515 -1.32584,-1.3562 -0.8132,-2.1205 z m 2.44483,-2.4504 c -3.59163,1.0715 -3.84169,2.6755 -3.6232,3.7908 0.21844,1.1154 2.27051,3.0703 5.67685,0.9971 3.40637,-2.0731 4.25998,-3.6971 4.07263,-4.2892 -0.35206,-0.9935 -4.42049,-0.9786 -6.12628,-0.4987 z m 0.96598,-9.2374 c 1.96825,0.7965 4.41806,4.8863 4.18513,6.3457 -2.47668,-0.2468 -5.85156,-3.4047 -5.8613,-4.8134 -0.0103,-0.9874 0.7773,-1.73 1.67617,-1.5323 z m 3.17483,1.3793 c -2.31079,-2.951 -3.8951,-2.5971 -4.85334,-1.9859 -0.95813,0.6112 -2.02727,3.2361 1.14803,5.6482 3.17525,2.4123 4.99902,2.6129 5.48155,2.222 0.79591,-0.691 -0.70588,-4.4722 -1.77624,-5.8843 z m 8.38946,1.011 c 1.87381,-3.2459 0.95372,-4.5833 0.0286,-5.2438 -0.92497,-0.6605 -3.75919,-0.6714 -4.81029,3.1752 -1.05108,3.8467 -0.55579,5.6133 -0.0128,5.9148 0.93836,0.48 3.88443,-2.3257 4.79444,-3.8462 z" />
        </g>
      </g>
    </g>
  </g>
</svg>
