<?xml version="1.0" encoding="UTF-8" standalone="no"?>
<!-- Created with Inkscape (http://www.inkscape.org/) -->

<svg
   xmlns:dc="http://purl.org/dc/elements/1.1/"
   xmlns:cc="http://creativecommons.org/ns#"
   xmlns:rdf="http://www.w3.org/1999/02/22-rdf-syntax-ns#"
   xmlns:svg="http://www.w3.org/2000/svg"
   xmlns="http://www.w3.org/2000/svg"
   xmlns:sodipodi="http://sodipodi.sourceforge.net/DTD/sodipodi-0.dtd"
   xmlns:inkscape="http://www.inkscape.org/namespaces/inkscape"
   width="1000"
   height="1000"
   id="svg3888"
   version="1.1"
   inkscape:version="0.91 r13725"
   sodipodi:docname="layer_bone.svg"
   inkscape:export-filename="/Users/chyu/Source/sif.font/resources/concepts/layer_bone.png"
   inkscape:export-xdpi="2.1600001"
   inkscape:export-ydpi="2.1600001">
  <defs
     id="defs3890" />
  <sodipodi:namedview
     id="base"
     pagecolor="#ffffff"
     bordercolor="#666666"
     borderopacity="1.0"
     inkscape:pageopacity="0.0"
     inkscape:pageshadow="2"
     inkscape:zoom="0.71620925"
     inkscape:cx="499.99999"
     inkscape:cy="500.00203"
     inkscape:document-units="px"
     inkscape:current-layer="g6799"
     showgrid="false"
     inkscape:window-width="1440"
     inkscape:window-height="826"
     inkscape:window-x="0"
     inkscape:window-y="0"
     inkscape:window-maximized="1" />
  <metadata
     id="metadata3893">
    <rdf:RDF>
      <cc:Work
         rdf:about="">
        <dc:format>image/svg+xml</dc:format>
        <dc:type
           rdf:resource="http://purl.org/dc/dcmitype/StillImage" />
        <dc:title />
      </cc:Work>
    </rdf:RDF>
  </metadata>
  <g
     inkscape:label="Layer 1"
     inkscape:groupmode="layer"
     id="layer1"
     transform="translate(0,-52.362183)">
    <g
       style="display:inline"
       id="g3582"
       transform="matrix(40.887017,0,0,40.887017,2575.176,-58573.169)">
      <g
         transform="matrix(1.0190684,0,0,1.0190684,-182.30004,185.88337)"
         style="display:inline"
         id="g6799">
        <path
           sodipodi:nodetypes="cczscssccszcscc"
           inkscape:connector-curvature="0"
           id="path4942"
           d="m 123.5313,1235.6858 7.68711,-4.7359 c 0,0 -1.2908,-3.1337 1.08327,-4.3893 2.37407,-1.2556 3.9342,-0.5838 4.865,0.5612 0.93081,1.145 0.67641,3.767 0.67641,3.767 0,0 2.27347,0.8045 2.8168,2.7754 0.54336,1.9708 -0.14941,3.3794 -1.5806,4.1955 -1.43121,0.816 -4.11376,-1.1282 -4.11376,-1.1282 l -7.81646,4.6378 c 0,0 1.17598,3.5786 -1.35075,5.1255 -2.52671,1.547 -3.87423,0.7479 -4.93439,-0.7833 -1.06016,-1.5311 -0.49658,-3.2578 -0.45442,-3.8364 0,0 -2.59976,-0.3732 -3.02081,-3.1331 -0.42108,-2.76 1.32481,-3.8126 2.6191,-4.2236 1.22931,-0.2267 2.53202,0.4862 3.5235,1.1674 z"
           style="fill:#000000;stroke:none" />
      </g>
    </g>
  </g>
</svg>
