<?xml version="1.0" encoding="UTF-8" standalone="no"?>
<!-- Created with Inkscape (http://www.inkscape.org/) -->

<svg
   xmlns:dc="http://purl.org/dc/elements/1.1/"
   xmlns:cc="http://creativecommons.org/ns#"
   xmlns:rdf="http://www.w3.org/1999/02/22-rdf-syntax-ns#"
   xmlns:svg="http://www.w3.org/2000/svg"
   xmlns="http://www.w3.org/2000/svg"
   xmlns:sodipodi="http://sodipodi.sourceforge.net/DTD/sodipodi-0.dtd"
   xmlns:inkscape="http://www.inkscape.org/namespaces/inkscape"
   width="1000"
   height="1000"
   id="svg3888"
   version="1.1"
   inkscape:version="0.91 r13725"
   sodipodi:docname="layer_mandelbort.svg"
   inkscape:export-filename="/Users/chyu/Source/sif.font/resources/concepts/layer_mandelbort.png"
   inkscape:export-xdpi="2.1600001"
   inkscape:export-ydpi="2.1600001">
  <defs
     id="defs3890" />
  <sodipodi:namedview
     id="base"
     pagecolor="#ffffff"
     bordercolor="#666666"
     borderopacity="1.0"
     inkscape:pageopacity="0.0"
     inkscape:pageshadow="2"
     inkscape:zoom="0.72127717"
     inkscape:cx="500.00009"
     inkscape:cy="500.13718"
     inkscape:document-units="px"
     inkscape:current-layer="g6679"
     showgrid="false"
     inkscape:window-width="1440"
     inkscape:window-height="826"
     inkscape:window-x="0"
     inkscape:window-y="0"
     inkscape:window-maximized="1" />
  <metadata
     id="metadata3893">
    <rdf:RDF>
      <cc:Work
         rdf:about="">
        <dc:format>image/svg+xml</dc:format>
        <dc:type
           rdf:resource="http://purl.org/dc/dcmitype/StillImage" />
        <dc:title />
      </cc:Work>
    </rdf:RDF>
  </metadata>
  <g
     inkscape:label="Layer 1"
     inkscape:groupmode="layer"
     id="layer1"
     transform="translate(0,-52.362183)">
    <g
       style="display:inline"
       id="g3582"
       transform="matrix(40.887017,0,0,40.887017,2575.176,-58573.169)">
      <g
         transform="matrix(1.0190684,0,0,1.0190684,-102.75517,305.87444)"
         style="display:inline"
         id="g6679">
        <path
           inkscape:connector-curvature="0"
           id="path6916"
           d="m 56.11967,1108.2174 c -0.36981,0.07 -0.52927,1.1188 -0.20015,1.3222 0.30376,0.1877 0.0659,0.5767 -0.35784,0.5822 -0.48286,0.01 -1.30875,0.6813 -1.03712,0.8492 0.12127,0.075 0.22441,0.352 0.22441,0.6125 0,0.3895 -0.0991,0.4731 -0.54586,0.4731 -0.29889,0 -0.65371,0.1092 -0.78846,0.2426 -0.1962,0.1943 -0.28146,0.1794 -0.43062,-0.085 -0.13746,-0.2436 -0.37565,-0.311 -0.90976,-0.2547 -0.39796,0.042 -0.78225,0.079 -0.85517,0.085 -0.18981,0.016 -0.13005,1.1702 0.0667,1.2918 0.32119,0.1985 0.15669,0.4175 -0.39423,0.5277 -0.44235,0.089 -0.59042,0.2452 -0.69142,0.7521 -0.29283,1.4695 -0.35471,1.7103 -0.45488,1.7103 -0.0579,0 -0.3906,-0.2187 -0.73994,-0.4852 -0.34933,-0.2665 -0.75492,-0.4392 -0.90369,-0.3821 -0.16307,0.063 -0.36199,-0.091 -0.49734,-0.3882 -0.27799,-0.6101 -0.76583,-0.6409 -0.8491,-0.055 -0.0341,0.2402 -0.12616,0.4149 -0.20622,0.3882 -0.0801,-0.027 -0.3721,-0.049 -0.64896,-0.049 -0.33202,0 -0.53658,-0.1258 -0.60044,-0.37 -0.095,-0.3632 -0.70874,-0.6619 -0.92189,-0.4488 -0.0596,0.06 -0.10917,0.262 -0.10917,0.4488 0,0.1868 -0.10917,0.3866 -0.2426,0.4488 -0.16853,0.079 -0.17974,0.1461 -0.0303,0.2184 0.1183,0.057 0.38031,0.2318 0.58225,0.3881 0.34662,0.2684 0.35096,0.2991 0.0303,0.4913 -0.1868,0.112 -0.33964,0.3246 -0.33964,0.4731 0,0.3825 -0.38679,0.5715 -0.6429,0.3154 -0.36973,-0.3698 -0.71567,-0.241 -0.71567,0.2668 0,0.3559 -0.10351,0.4852 -0.38817,0.4852 -0.21349,0 -0.38816,0.087 -0.38816,0.1941 0,0.2664 -0.65242,0.2452 -0.92796,-0.03 -0.17017,-0.1702 -0.30111,-0.1617 -0.53979,0.036 -0.25439,0.2112 -0.38454,0.2136 -0.69748,0.018 -0.4525,-0.2826 -0.94008,0 -0.94008,0.5459 0,0.01 -1.8e-4,0.016 0,0.024 -1.8e-4,0.01 0,0.015 0,0.024 0,0.5434 0.48758,0.8284 0.94008,0.5458 0.31294,-0.1954 0.44309,-0.1929 0.69748,0.018 0.23868,0.1981 0.36962,0.2066 0.53979,0.036 0.27554,-0.2755 0.92796,-0.2967 0.92796,-0.03 0,0.1068 0.17467,0.1941 0.38816,0.1941 0.28466,0 0.38817,0.1294 0.38817,0.4852 0,0.5079 0.34594,0.6366 0.71567,0.2669 0.25611,-0.2561 0.6429,-0.067 0.6429,0.3154 0,0.1485 0.15284,0.3611 0.33964,0.473 0.32064,0.1922 0.3163,0.2229 -0.0303,0.4913 -0.20194,0.1564 -0.46395,0.3309 -0.58225,0.3882 -0.14941,0.072 -0.1382,0.1397 0.0303,0.2183 0.13343,0.062 0.2426,0.262 0.2426,0.4488 0,0.1868 0.0496,0.3893 0.10917,0.4488 0.21315,0.2132 0.82689,-0.086 0.92189,-0.4488 0.0639,-0.2442 0.26842,-0.3699 0.60044,-0.3699 0.27686,0 0.5689,-0.022 0.64896,-0.049 0.0801,-0.027 0.17211,0.1479 0.20622,0.3881 0.0833,0.5863 0.57111,0.5556 0.8491,-0.055 0.13535,-0.297 0.33427,-0.4507 0.49734,-0.3881 0.14877,0.057 0.55436,-0.1157 0.90369,-0.3821 0.34934,-0.2665 0.68207,-0.4852 0.73994,-0.4852 0.10017,0 0.16205,0.2408 0.45488,1.7103 0.101,0.5069 0.24907,0.6636 0.69142,0.7521 0.55092,0.1102 0.71542,0.3291 0.39423,0.5276 -0.19677,0.1216 -0.25653,1.2759 -0.0667,1.2919 0.0729,0.01 0.45721,0.043 0.85517,0.085 0.53411,0.056 0.7723,-0.011 0.90976,-0.2547 0.14916,-0.2643 0.23442,-0.2792 0.43062,-0.085 0.13475,0.1334 0.48957,0.2426 0.78846,0.2426 0.44677,0 0.54586,0.084 0.54586,0.473 0,0.2606 -0.10314,0.5377 -0.22441,0.6126 -0.27163,0.1679 0.55426,0.8428 1.03712,0.8491 0.42372,0.01 0.6616,0.3945 0.35784,0.5823 -0.32912,0.2034 -0.16966,1.2522 0.20015,1.3222 0.16665,0.031 0.42302,-0.1679 0.57012,-0.4428 0.21805,-0.4074 0.36483,-0.4765 0.79452,-0.3821 0.64425,0.1415 0.84035,-0.1133 0.46701,-0.6065 -0.38395,-0.5072 -0.3598,-0.6257 0.14556,-0.6975 0.37748,-0.054 0.43668,-0.1759 0.43668,-0.9158 0,-0.8174 0.30483,-1.2457 0.57619,-0.8067 0.16495,0.2669 0.87943,-0.098 0.87943,-0.4488 0,-0.4067 1.19109,-0.1406 1.30399,0.2912 0.12385,0.4735 0.33444,0.4592 0.81878,-0.061 0.46665,-0.5009 0.51783,-1.235 0.10917,-1.6437 -0.42095,-0.4209 -0.37991,-0.8938 0.0667,-0.752 0.58866,0.1868 0.85058,-0.334 0.69748,-1.3889 -0.16071,-1.1073 -0.35146,-1.5285 -1.01893,-2.2441 -0.2674,-0.2867 -0.38066,-0.4307 -0.36997,-0.5459 -0.0107,-0.1151 0.10257,-0.2591 0.36997,-0.5458 0.66747,-0.7157 0.85822,-1.1368 1.01893,-2.2441 0.1531,-1.0549 -0.10882,-1.5757 -0.69748,-1.3889 -0.44663,0.1418 -0.48767,-0.3311 -0.0667,-0.7521 0.40866,-0.4086 0.35748,-1.1427 -0.10917,-1.6436 -0.48434,-0.5199 -0.69493,-0.5342 -0.81878,-0.061 -0.1129,0.4317 -1.30399,0.6978 -1.30399,0.2911 0,-0.351 -0.71448,-0.7157 -0.87943,-0.4488 -0.27136,0.4391 -0.57619,0.011 -0.57619,-0.8066 0,-0.74 -0.0592,-0.8623 -0.43668,-0.9159 -0.50536,-0.072 -0.52951,-0.1902 -0.14556,-0.6974 0.37334,-0.4933 0.17724,-0.7481 -0.46701,-0.6066 -0.42969,0.094 -0.57647,0.025 -0.79452,-0.382 -0.1471,-0.2749 -0.40347,-0.4743 -0.57012,-0.4428 z"
           style="fill:#000000" />
      </g>
    </g>
  </g>
</svg>
