<?xml version="1.0" encoding="UTF-8" standalone="no"?>
<!-- Created with Inkscape (http://www.inkscape.org/) -->

<svg
   xmlns:dc="http://purl.org/dc/elements/1.1/"
   xmlns:cc="http://creativecommons.org/ns#"
   xmlns:rdf="http://www.w3.org/1999/02/22-rdf-syntax-ns#"
   xmlns:svg="http://www.w3.org/2000/svg"
   xmlns="http://www.w3.org/2000/svg"
   xmlns:sodipodi="http://sodipodi.sourceforge.net/DTD/sodipodi-0.dtd"
   xmlns:inkscape="http://www.inkscape.org/namespaces/inkscape"
   width="1000"
   height="1000"
   id="svg3888"
   version="1.1"
   inkscape:version="0.48.2 r9819"
   sodipodi:docname="layer_radialblur.svg">
  <defs
     id="defs3890" />
  <sodipodi:namedview
     id="base"
     pagecolor="#ffffff"
     bordercolor="#666666"
     borderopacity="1.0"
     inkscape:pageopacity="0.0"
     inkscape:pageshadow="2"
     inkscape:zoom="0.065785766"
     inkscape:cx="291.93337"
     inkscape:cy="2147.4733"
     inkscape:document-units="px"
     inkscape:current-layer="g3582"
     showgrid="false"
     inkscape:window-width="1402"
     inkscape:window-height="856"
     inkscape:window-x="38"
     inkscape:window-y="0"
     inkscape:window-maximized="1" />
  <metadata
     id="metadata3893">
    <rdf:RDF>
      <cc:Work
         rdf:about="">
        <dc:format>image/svg+xml</dc:format>
        <dc:type
           rdf:resource="http://purl.org/dc/dcmitype/StillImage" />
        <dc:title></dc:title>
      </cc:Work>
    </rdf:RDF>
  </metadata>
  <g
     inkscape:label="Layer 1"
     inkscape:groupmode="layer"
     id="layer1"
     transform="translate(0,-52.362183)">
    <g
       style="display:inline"
       id="g3582"
       transform="matrix(40.887017,0,0,40.887017,2575.176,-58573.169)">
      <g
         transform="matrix(1.0190684,0,0,1.0190684,-141.23682,386.06189)"
         style="display:inline"
         id="g6598">
        <rect
           transform="scale(-1,1)"
           y="1028.1747"
           x="-100.78983"
           height="24"
           width="24"
           id="rect9045"
           style="fill:none;stroke:none" />
        <path
           style="fill:#000000;fill-opacity:1;stroke:none"
           d="m 93.59375,1029.331 c -1.545821,9.3929 -6.15625,9.095 -6.15625,15.3437 0,2.9417 2.747692,6.125 6.15625,6.125 3.408558,0 6.15625,-3.1833 6.15625,-6.125 0,-6.2487 -4.61043,-5.9508 -6.15625,-15.3437 z m -3.07522,13.625 c -0.105576,0.9204 0.144736,2.0662 0.75,3.125 0.605262,1.059 1.465837,1.8426 2.3125,2.2187 -1.298678,0.3007 -2.747337,-0.3004 -3.46875,-1.5625 -0.721412,-1.2622 -0.511901,-2.8149 0.40625,-3.7812 z"
           id="path9047"
           inkscape:connector-curvature="0"
           sodipodi:nodetypes="cssscccccc" />
        <path
           sodipodi:nodetypes="csc"
           style="fill:none;stroke:#000000"
           d="m 90.093592,1029.7331 c -1.545819,9.3929 -6.785955,8.7021 -6.785955,14.9508 0,2.9417 2.13727,5.7091 5.029108,6.1225"
           id="path9112"
           inkscape:connector-curvature="0" />
        <path
           sodipodi:nodetypes="csc"
           inkscape:connector-curvature="0"
           id="path9114"
           d="m 85.664232,1030.5598 c -2.269228,8.6696 -6.889301,7.8754 -6.889301,14.1241 0,2.9417 1.620551,5.6058 4.305702,6.0192"
           style="fill:none;stroke:#000000;stroke-width:0.5" />
      </g>
    </g>
  </g>
</svg>
