<?xml version="1.0" encoding="UTF-8" standalone="no"?>
<!-- Created with Inkscape (http://www.inkscape.org/) -->

<svg
   xmlns:dc="http://purl.org/dc/elements/1.1/"
   xmlns:cc="http://creativecommons.org/ns#"
   xmlns:rdf="http://www.w3.org/1999/02/22-rdf-syntax-ns#"
   xmlns:svg="http://www.w3.org/2000/svg"
   xmlns="http://www.w3.org/2000/svg"
   xmlns:sodipodi="http://sodipodi.sourceforge.net/DTD/sodipodi-0.dtd"
   xmlns:inkscape="http://www.inkscape.org/namespaces/inkscape"
   width="1000"
   height="1000"
   id="svg3888"
   version="1.1"
   inkscape:version="0.48.2 r9819"
   sodipodi:docname="layer_blur.svg">
  <defs
     id="defs3890" />
  <sodipodi:namedview
     id="base"
     pagecolor="#ffffff"
     bordercolor="#666666"
     borderopacity="1.0"
     inkscape:pageopacity="0.0"
     inkscape:pageshadow="2"
     inkscape:zoom="0.065785766"
     inkscape:cx="291.93337"
     inkscape:cy="2147.4733"
     inkscape:document-units="px"
     inkscape:current-layer="g3582"
     showgrid="false"
     inkscape:window-width="1402"
     inkscape:window-height="856"
     inkscape:window-x="38"
     inkscape:window-y="0"
     inkscape:window-maximized="1" />
  <metadata
     id="metadata3893">
    <rdf:RDF>
      <cc:Work
         rdf:about="">
        <dc:format>image/svg+xml</dc:format>
        <dc:type
           rdf:resource="http://purl.org/dc/dcmitype/StillImage" />
        <dc:title></dc:title>
      </cc:Work>
    </rdf:RDF>
  </metadata>
  <g
     inkscape:label="Layer 1"
     inkscape:groupmode="layer"
     id="layer1"
     transform="translate(0,-52.362183)">
    <g
       style="display:inline"
       id="g3582"
       transform="matrix(40.887017,0,0,40.887017,2575.176,-58573.169)">
      <g
         transform="matrix(1.0190684,0,0,1.0190684,-101.98239,386.1935)"
         style="display:inline"
         id="g6592">
        <path
           style="fill:#000000;fill-opacity:1;stroke:none"
           d="m 50.25,1028.0497 c -1.24326,7.5545 -4.96875,7.3182 -4.96875,12.3438 0,2.366 2.227343,4.9375 4.96875,4.9375 2.741407,0 4.96875,-2.5715 4.96875,-4.9375 0,-5.0256 -3.72549,-4.7893 -4.96875,-12.3438 z m -2.54079,11 c -0.08485,0.7398 0.107336,1.6178 0.59375,2.4688 0.486413,0.8509 1.163338,1.4789 1.84375,1.7812 -1.04367,0.2417 -2.201494,-0.2357 -2.78125,-1.25 -0.579756,-1.0144 -0.394115,-2.2232 0.34375,-3 z"
           id="path10125"
           inkscape:connector-curvature="0"
           sodipodi:nodetypes="cssscccccc" />
        <rect
           transform="scale(-1,1)"
           style="fill:none;stroke:none"
           id="rect9035"
           width="24"
           height="24"
           x="-62.269917"
           y="1028.0455" />
        <path
           sodipodi:nodetypes="ccssssscccssssssscc"
           inkscape:connector-curvature="0"
           id="path9065"
           d="m 44.59375,1037.7551 c -1.018908,0.3437 -1.965735,0.7772 -2.78125,1.2812 -2.174706,1.3441 -3.53125,3.2604 -3.53125,5.375 0,2.1146 1.356544,3.9998 3.53125,5.3438 2.174707,1.344 5.182315,2.1562 8.46875,2.1562 3.286434,0 6.262794,-0.8122 8.4375,-2.1562 2.174707,-1.344 3.53125,-3.2292 3.53125,-5.3438 0,-2.1146 -1.356543,-4.0309 -3.53125,-5.375 -0.830232,-0.5131 -1.778652,-0.9346 -2.8125,-1.2812 0.05262,0.1904 0.116656,0.3887 0.15625,0.5937 0.879436,0.3166 1.664423,0.6858 2.375,1.125 2.07799,1.2843 3.34375,3.0414 3.34375,4.9375 0,1.8961 -1.26576,3.622 -3.34375,4.9063 -2.077991,1.2843 -4.953288,2.0937 -8.15625,2.0937 -3.202963,0 -6.109509,-0.8094 -8.1875,-2.0937 -2.07799,-1.2843 -3.34375,-3.0102 -3.34375,-4.9063 0,-1.8961 1.26576,-3.6532 3.34375,-4.9375 0.705201,-0.4358 1.497721,-0.8098 2.375,-1.125 0.03906,-0.2023 0.07324,-0.4056 0.125,-0.5937 z"
           style="font-size:medium;font-style:normal;font-variant:normal;font-weight:normal;font-stretch:normal;text-indent:0;text-align:start;text-decoration:none;line-height:normal;letter-spacing:normal;word-spacing:normal;text-transform:none;direction:ltr;block-progression:tb;writing-mode:lr-tb;text-anchor:start;baseline-shift:baseline;color:#000000;fill:#000000;fill-opacity:1;stroke:none;stroke-width:0.42281997;marker:none;visibility:visible;display:inline;overflow:visible;enable-background:accumulate;font-family:Sans;-inkscape-font-specification:Sans" />
        <path
           sodipodi:nodetypes="csssssccscscscc"
           inkscape:connector-curvature="0"
           id="path9067"
           d="m 44.59375,1041.7551 c -0.799917,0.7224 -1.3125,1.6482 -1.3125,2.6562 0,1.3258 0.885481,2.4646 2.15625,3.25 1.270769,0.7854 2.968732,1.25 4.84375,1.25 1.875017,0 3.572981,-0.4646 4.84375,-1.25 1.270769,-0.7854 2.125,-1.9242 2.125,-3.25 0,-1.008 -0.512583,-1.9338 -1.3125,-2.6562 -0.11319,0.3392 -0.26435,0.6835 -0.4375,1 0.475748,0.5098 0.75,1.0723 0.75,1.6562 0,0.8887 -0.578912,1.7405 -1.65625,2.4063 -1.077339,0.6659 -2.604427,1.0937 -4.3125,1.0937 -1.708074,0 -3.235162,-0.4278 -4.3125,-1.0937 -1.077338,-0.6658 -1.6875,-1.5176 -1.6875,-2.4063 0,-0.5839 0.299462,-1.1464 0.78125,-1.6562 -0.174946,-0.3167 -0.354287,-0.6605 -0.46875,-1 z"
           style="font-size:medium;font-style:normal;font-variant:normal;font-weight:normal;font-stretch:normal;text-indent:0;text-align:start;text-decoration:none;line-height:normal;letter-spacing:normal;word-spacing:normal;text-transform:none;direction:ltr;block-progression:tb;writing-mode:lr-tb;text-anchor:start;baseline-shift:baseline;color:#000000;fill:#000000;fill-opacity:1;stroke:none;stroke-width:1.53155267;marker:none;visibility:visible;display:inline;overflow:visible;enable-background:accumulate;font-family:Sans;-inkscape-font-specification:Sans" />
      </g>
    </g>
  </g>
</svg>
