<?xml version="1.0" encoding="UTF-8" standalone="no"?>
<!-- Created with Inkscape (http://www.inkscape.org/) -->

<svg
   xmlns:dc="http://purl.org/dc/elements/1.1/"
   xmlns:cc="http://creativecommons.org/ns#"
   xmlns:rdf="http://www.w3.org/1999/02/22-rdf-syntax-ns#"
   xmlns:svg="http://www.w3.org/2000/svg"
   xmlns="http://www.w3.org/2000/svg"
   xmlns:sodipodi="http://sodipodi.sourceforge.net/DTD/sodipodi-0.dtd"
   xmlns:inkscape="http://www.inkscape.org/namespaces/inkscape"
   width="1000"
   height="1000"
   id="svg3888"
   version="1.1"
   inkscape:version="0.48.2 r9819"
   sodipodi:docname="New document 2">
  <defs
     id="defs3890" />
  <sodipodi:namedview
     id="base"
     pagecolor="#ffffff"
     bordercolor="#666666"
     borderopacity="1.0"
     inkscape:pageopacity="0.0"
     inkscape:pageshadow="2"
     inkscape:zoom="0.18607024"
     inkscape:cx="322.33508"
     inkscape:cy="690.30548"
     inkscape:document-units="px"
     inkscape:current-layer="g3582"
     showgrid="false"
     inkscape:window-width="1402"
     inkscape:window-height="856"
     inkscape:window-x="38"
     inkscape:window-y="0"
     inkscape:window-maximized="1" />
  <metadata
     id="metadata3893">
    <rdf:RDF>
      <cc:Work
         rdf:about="">
        <dc:format>image/svg+xml</dc:format>
        <dc:type
           rdf:resource="http://purl.org/dc/dcmitype/StillImage" />
        <dc:title></dc:title>
      </cc:Work>
    </rdf:RDF>
  </metadata>
  <g
     inkscape:label="Layer 1"
     inkscape:groupmode="layer"
     id="layer1"
     transform="translate(0,-52.362183)">
    <g
       style="display:inline"
       id="g3582"
       transform="matrix(40.887017,0,0,40.887017,2575.176,-58573.169)">
      <g
         id="g5099"
         transform="matrix(1.0094442,0,0,1.0094442,0.5948208,-13.656989)">
        <rect
           y="1434.071"
           x="-62.982731"
           height="24"
           width="24"
           id="rect3562"
           style="fill:none;stroke:none" />
        <g
           transform="translate(0.21483953,0.02131469)"
           id="g5090">
          <path
             style="font-size:medium;font-style:normal;font-variant:normal;font-weight:normal;font-stretch:normal;text-indent:0;text-align:start;text-decoration:none;line-height:normal;letter-spacing:normal;word-spacing:normal;text-transform:none;direction:ltr;block-progression:tb;writing-mode:lr-tb;text-anchor:start;baseline-shift:baseline;color:#000000;fill:#000000;fill-opacity:1;stroke:none;stroke-width:1;marker:none;visibility:visible;display:inline;overflow:visible;enable-background:accumulate;font-family:Sans;-inkscape-font-specification:Sans"
             mask="none"
             clip-path="none"
             d="m 9.4375,75.65625 c 0.095017,282.89593 1.28125,565.79157 1.28125,848.6875 251.08333,0 502.16667,0 753.25,0 0,-78.67708 0,-157.35417 0,-236.03125 78.25,0 156.5,0 234.75,0 C 998.80194,484.09356 1000,279.87519 1000,75.65625 c -330.1875,0 -660.375,0 -990.5625,0 z m 41.28125,41.28125 908,0 -1.28125,530.09375 c -78.25,0 -156.5,0 -234.75,0 0,78.67708 0,157.35417 0,236.03125 l -670.6875,0 z m 454,32.78125 c -39.99047,0 -72.21875,33.74569 -72.21875,73.5 0,39.75018 32.74889,70.9375 72.21875,70.9375 39.46986,0 72.21875,-31.18732 72.21875,-70.9375 0,-39.75431 -32.22828,-73.5 -72.21875,-73.5 z m -384.34375,14.1875 0,117.34375 181.84375,0 0,-117.34375 z m 585.5625,0 0,117.34375 183.15625,0 0,-117.34375 z m -201.21875,6.4375 c 28.28772,0 51.59375,24.30159 51.59375,52.875 0,28.56928 -22.78541,50.3125 -51.59375,50.3125 -28.80834,0 -51.59375,-21.74322 -51.59375,-50.3125 0,-28.57341 23.30603,-52.875 51.59375,-52.875 z M 141,184.53125 l 140.59375,0 0,76.09375 -140.59375,0 z m 585.5625,0 141.875,0 0,76.09375 -141.875,0 z M 471.75,385.96875 c -69.50485,-1.19427 -96.6696,37.16026 -111.8125,75.71875 -74.3716,147.42852 137.10574,204.0145 60.125,249.34375 -80.45187,50.36357 -161.43569,55.96232 -269.375,11.125 -23.38509,47.24531 -6.54135,98.9063 16.6875,140.28125 l 447.5,0 c 11.76304,-69.53697 -23.33938,-141.27438 -75.71875,-188.125 -19.53473,-33.98875 44.02004,-36.22358 74.375,-61.15625 54.15808,5.21301 91.62341,-7.5753 123.28125,-69.78125 6.81989,-11.88766 -4.43149,-16.71556 -10.59375,-15.40625 -28.6068,1.96631 -55.88544,-1.91136 -85.125,-10.03125 l 0.5,-2.8125 C 547.92281,415.14563 541.25485,387.16302 471.75,385.96875 z m 76.375,81.15625 c 6.86088,0 12.4375,12.10658 12.4375,27.03125 0,14.9248 -5.57662,27.03125 -12.4375,27.03125 -6.86082,0 -12.40625,-12.10645 -12.40625,-27.03125 0,-14.92467 5.54543,-27.03125 12.40625,-27.03125 z m 243.3125,247.5 0,209.71875 L 1000,714.625 z"
             transform="matrix(0.02422882,0,0,0.02422882,-63.19757,1433.9353)"
             id="path3564"
             inkscape:connector-curvature="0"
             sodipodi:nodetypes="ccccccccccccccsssssccccccccccssssscccccccccczccccccccccczcsssccccc" />
          <g
             id="g3568"
             transform="matrix(1.0939,0,0,1.0939,-33.321258,-134.49967)" />
        </g>
      </g>
    </g>
  </g>
</svg>
