<?xml version="1.0" encoding="UTF-8" standalone="no"?>
<!-- Created with Inkscape (http://www.inkscape.org/) -->

<svg
   xmlns:dc="http://purl.org/dc/elements/1.1/"
   xmlns:cc="http://creativecommons.org/ns#"
   xmlns:rdf="http://www.w3.org/1999/02/22-rdf-syntax-ns#"
   xmlns:svg="http://www.w3.org/2000/svg"
   xmlns="http://www.w3.org/2000/svg"
   xmlns:sodipodi="http://sodipodi.sourceforge.net/DTD/sodipodi-0.dtd"
   xmlns:inkscape="http://www.inkscape.org/namespaces/inkscape"
   width="1000"
   height="1000"
   id="svg3888"
   version="1.1"
   inkscape:version="0.91 r13725"
   sodipodi:docname="layer_montionblur.svg"
   inkscape:export-filename="/Users/chyu/Source/sif.font/resources/concepts/layer_montionblur.png"
   inkscape:export-xdpi="2.1600001"
   inkscape:export-ydpi="2.1600001">
  <defs
     id="defs3890" />
  <sodipodi:namedview
     id="base"
     pagecolor="#ffffff"
     bordercolor="#666666"
     borderopacity="1.0"
     inkscape:pageopacity="0.0"
     inkscape:pageshadow="2"
     inkscape:zoom="0.64603776"
     inkscape:cx="506.04464"
     inkscape:cy="495.28053"
     inkscape:document-units="px"
     inkscape:current-layer="g6598"
     showgrid="false"
     inkscape:window-width="1440"
     inkscape:window-height="826"
     inkscape:window-x="0"
     inkscape:window-y="0"
     inkscape:window-maximized="1" />
  <metadata
     id="metadata3893">
    <rdf:RDF>
      <cc:Work
         rdf:about="">
        <dc:format>image/svg+xml</dc:format>
        <dc:type
           rdf:resource="http://purl.org/dc/dcmitype/StillImage" />
        <dc:title />
      </cc:Work>
    </rdf:RDF>
  </metadata>
  <g
     inkscape:label="Layer 1"
     inkscape:groupmode="layer"
     id="layer1"
     transform="translate(0,-52.362183)">
    <g
       style="display:inline"
       id="g3582"
       transform="matrix(40.887017,0,0,40.887017,2575.176,-58573.169)">
      <g
         transform="matrix(1.0190684,0,0,1.0190684,-141.23682,386.06189)"
         style="display:inline"
         id="g6598">
        <path
           id="path9017"
           style="display:inline;fill:#000000;fill-opacity:1;stroke:none"
           d="m 93.628256,1028.4001 c -2.674149,9.6312 -6.921229,9.8546 -6.921229,16.6098 0,3.1805 3.236284,6.6192 6.921229,6.6192 3.684951,0 6.921234,-3.4387 6.921234,-6.6192 0,-6.7552 -4.377904,-6.9786 -6.921234,-16.6098 z m -3.724915,14.7992 c -0.114053,0.9941 -0.0601,2.1533 0.593725,3.2973 0.653827,1.1437 1.769958,2.0411 2.684557,2.4473 -1.402883,0.325 -3.328559,-0.2353 -4.10786,-1.5988 -0.779294,-1.3633 -0.162246,-3.1019 0.829578,-4.1458 z m -5.118185,-13.5411 c -1.216057,4.646 -3.033857,6.7132 -4.591797,8.5176 -1.55794,1.8044 -2.873046,3.3897 -2.873047,6.8379 0,3.283 1.826018,6.3096 4.888672,6.7812 l 0.08203,-0.5351 c -2.749468,-0.4234 -4.429688,-3.1618 -4.429688,-6.2461 0,-3.3148 1.184108,-4.6821 2.740234,-6.4844 1.556127,-1.8023 3.467171,-3.9975 4.707032,-8.7344 l -0.523438,-0.1367 z m 4.521485,-0.9141 c -0.820243,4.9841 -2.56329,7.1888 -4.179688,9.1055 -1.616398,1.9167 -3.171875,3.6314 -3.171875,7.1641 0,3.4458 2.478578,6.672 5.90625,7.1621 l 0.154297,-1.0723 c -2.831834,-0.4049 -4.978516,-3.1682 -4.978516,-6.0898 0,-3.2302 1.280494,-4.5252 2.917969,-6.4668 1.637475,-1.9417 3.567169,-4.4454 4.419922,-9.627 l -1.068359,-0.1758 z" />
      </g>
    </g>
  </g>
</svg>
