<?xml version="1.0" encoding="UTF-8" standalone="no"?>
<!-- Created with Inkscape (http://www.inkscape.org/) -->

<svg
   xmlns:dc="http://purl.org/dc/elements/1.1/"
   xmlns:cc="http://creativecommons.org/ns#"
   xmlns:rdf="http://www.w3.org/1999/02/22-rdf-syntax-ns#"
   xmlns:svg="http://www.w3.org/2000/svg"
   xmlns="http://www.w3.org/2000/svg"
   xmlns:sodipodi="http://sodipodi.sourceforge.net/DTD/sodipodi-0.dtd"
   xmlns:inkscape="http://www.inkscape.org/namespaces/inkscape"
   width="1000"
   height="1000"
   id="svg3888"
   version="1.1"
   inkscape:version="0.91 r13725"
   sodipodi:docname="layer_plant.svg"
   inkscape:export-filename="/Users/chyu/Source/sif.font/resources/concepts/layer_plant.png"
   inkscape:export-xdpi="2.1600001"
   inkscape:export-ydpi="2.1600001">
  <defs
     id="defs3890" />
  <sodipodi:namedview
     id="base"
     pagecolor="#ffffff"
     bordercolor="#666666"
     borderopacity="1.0"
     inkscape:pageopacity="0.0"
     inkscape:pageshadow="2"
     inkscape:zoom="0.64424183"
     inkscape:cx="500.00016"
     inkscape:cy="499.99803"
     inkscape:document-units="px"
     inkscape:current-layer="g3582"
     showgrid="false"
     inkscape:window-width="1440"
     inkscape:window-height="826"
     inkscape:window-x="0"
     inkscape:window-y="0"
     inkscape:window-maximized="1" />
  <metadata
     id="metadata3893">
    <rdf:RDF>
      <cc:Work
         rdf:about="">
        <dc:format>image/svg+xml</dc:format>
        <dc:type
           rdf:resource="http://purl.org/dc/dcmitype/StillImage" />
        <dc:title />
      </cc:Work>
    </rdf:RDF>
  </metadata>
  <g
     inkscape:label="Layer 1"
     inkscape:groupmode="layer"
     id="layer1"
     transform="translate(0,-52.362183)">
    <g
       style="display:inline"
       id="g3582"
       transform="matrix(40.887017,0,0,40.887017,2575.176,-58573.169)">
      <g
         transform="matrix(1.0190684,0,0,1.0190684,-62.982733,185.88337)"
         style="display:inline"
         id="g6779">
        <path
           id="path6510"
           style="fill:#000000;stroke:none"
           d="m 4.16728,1229.7234 c -0.6208,-0.01 -1.29414,0.1322 -2.03125,0.5625 -2.47354,1.4437 -2.86661,11.23 0,12.6875 5.31066,-0.058 8.55763,-7.8621 8.3125,-10.5313 -0.24513,-2.6691 -3.1875,-1.2187 -3.1875,-1.2187 0,0 -1.23134,-1.4793 -3.09375,-1.5 z m 12.34375,-5.0313 c -1.85775,0.09 -3.66833,1.2798 -4.15625,2.1875 -0.78067,1.4525 1.0625,2.25 1.0625,2.25 0,0 0.0916,2.4654 2,3.1563 1.60099,0.5796 5.05972,-4.0566 4.25,-6.2813 -0.90798,-1.0324 -2.0416,-1.3663 -3.15625,-1.3125 z m 4.3125,7.2188 c -1.01215,-0.159 -1.375,1.375 -1.375,1.375 0,0 -2.12996,0.1816 -2.46875,2.25 -0.28421,1.7352 4.25937,5.3013 6.09375,4.375 2.07254,-2.6716 -0.40114,-7.0102 -1.78125,-7.8125 -0.17251,-0.1003 -0.32416,-0.1648 -0.46875,-0.1875 z m -7.8125,-2.1875 c -0.42339,0.6413 -0.77455,1.4669 -0.8125,2.5 -0.12256,3.3364 0,4.5312 0,4.5312 0,0 -0.46879,-1.8249 -1.3125,-2.9687 -0.12957,0.8073 -0.41488,1.7352 -0.8125,2.6875 0.19124,0.4772 0.31572,1.0244 0.28125,1.625 -0.12256,2.1353 -1.34375,9.7187 -1.34375,9.7187 0,0 4.18305,1.4909 5.53125,0.1563 1.3482,-1.3346 -0.51662,-9.7618 0.21875,-10.5625 0.49473,-0.5387 1.00012,-1.4242 1.71875,-1.875 0.003,-0.031 -0.005,-0.062 0,-0.094 0.13592,-0.8298 0.54015,-1.4103 1,-1.8125 -1.2716,0.1168 -2.63353,0.3994 -3.0625,1 -0.4922,0.6891 -0.74068,-1.1513 -0.65625,-3 -0.53134,-0.7203 -0.69802,-1.4703 -0.75,-1.9063 z" />
      </g>
    </g>
  </g>
</svg>
