<?xml version="1.0" encoding="UTF-8" standalone="no"?>
<!-- Created with Inkscape (http://www.inkscape.org/) -->

<svg
   xmlns:dc="http://purl.org/dc/elements/1.1/"
   xmlns:cc="http://creativecommons.org/ns#"
   xmlns:rdf="http://www.w3.org/1999/02/22-rdf-syntax-ns#"
   xmlns:svg="http://www.w3.org/2000/svg"
   xmlns="http://www.w3.org/2000/svg"
   xmlns:sodipodi="http://sodipodi.sourceforge.net/DTD/sodipodi-0.dtd"
   xmlns:inkscape="http://www.inkscape.org/namespaces/inkscape"
   width="1000"
   height="1000"
   id="svg3888"
   version="1.1"
   inkscape:version="0.48.2 r9819"
   sodipodi:docname="layer_noisedistort.svg">
  <defs
     id="defs3890" />
  <sodipodi:namedview
     id="base"
     pagecolor="#ffffff"
     bordercolor="#666666"
     borderopacity="1.0"
     inkscape:pageopacity="0.0"
     inkscape:pageshadow="2"
     inkscape:zoom="0.065785766"
     inkscape:cx="291.93337"
     inkscape:cy="2147.4733"
     inkscape:document-units="px"
     inkscape:current-layer="g3582"
     showgrid="false"
     inkscape:window-width="1402"
     inkscape:window-height="856"
     inkscape:window-x="38"
     inkscape:window-y="0"
     inkscape:window-maximized="1" />
  <metadata
     id="metadata3893">
    <rdf:RDF>
      <cc:Work
         rdf:about="">
        <dc:format>image/svg+xml</dc:format>
        <dc:type
           rdf:resource="http://purl.org/dc/dcmitype/StillImage" />
        <dc:title></dc:title>
      </cc:Work>
    </rdf:RDF>
  </metadata>
  <g
     inkscape:label="Layer 1"
     inkscape:groupmode="layer"
     id="layer1"
     transform="translate(0,-52.362183)">
    <g
       style="display:inline"
       id="g3582"
       transform="matrix(40.887017,0,0,40.887017,2575.176,-58573.169)">
      <g
         transform="matrix(1.0048467,0,0,1.0048467,-62.812074,361.22532)"
         style="display:inline"
         id="g6624">
        <rect
           y="1067.6132"
           x="3.2714843e-06"
           height="24"
           width="24"
           id="rect5192"
           style="fill:none;stroke:none" />
        <path
           style="fill:#000000"
           d="m 20.93611,1090.9215 c -1.05289,-1.0316 -2.5468,0.8576 -3.18312,-0.9115 -1.21542,-1.1624 -2.95828,-1.3382 -4.30532,-2.2261 -1.26355,-1.0286 -1.58787,-2.6872 -3.34598,-3.0271 -1.39055,-0.4702 -2.05369,-3.82 -3.55491,-2.0748 -1.64731,0.8848 -1.92808,-1.9011 -2.43145,-2.9227 -0.74337,-1.4094 -0.36218,-3.4029 -1.8978,-4.383 -1.61697,-0.2426 -2.99639,-2.1925 -1.65611,-3.5937 1.19331,-0.499 1.98509,-1.4601 1.679,-2.7111 0.45578,-1.5496 2.08915,-0.2326 1.9876,0.8035 1.7939,0.4658 4.01524,0.4309 5.22473,-1.2075 1.48284,-1.5617 3.12934,-0.1737 4.55456,0.6081 1.1401,0.2523 3.01577,1.4127 2.31406,2.6832 -1.0529,1.2228 -0.49022,3.0891 1.13842,3.2467 1.15335,0.5422 1.04414,2.0124 2.46516,1.8236 1.31389,1.0763 0.70406,3.5381 2.17559,4.3201 1.74527,0.8183 -0.74703,2.7678 -0.46935,4.1272 0.16099,1.2144 1.46167,1.5153 1.6789,2.8287 1.73488,1.0832 -0.64297,3.2044 -1.8789,2.907 -0.15219,-0.037 -0.28169,-0.099 -0.49508,-0.2906 z"
           id="path5190"
           inkscape:connector-curvature="0"
           sodipodi:nodetypes="ccccccccccccccccccsc" />
      </g>
    </g>
  </g>
</svg>
