<?xml version="1.0" encoding="UTF-8" standalone="no"?>
<!-- Created with Inkscape (http://www.inkscape.org/) -->

<svg
   xmlns:dc="http://purl.org/dc/elements/1.1/"
   xmlns:cc="http://creativecommons.org/ns#"
   xmlns:rdf="http://www.w3.org/1999/02/22-rdf-syntax-ns#"
   xmlns:svg="http://www.w3.org/2000/svg"
   xmlns="http://www.w3.org/2000/svg"
   xmlns:sodipodi="http://sodipodi.sourceforge.net/DTD/sodipodi-0.dtd"
   xmlns:inkscape="http://www.inkscape.org/namespaces/inkscape"
   width="1000"
   height="1000"
   id="svg3888"
   version="1.1"
   inkscape:version="0.91 r13725"
   sodipodi:docname="layer_supersample.svg"
   inkscape:export-filename="/Users/chyu/Source/sif.font/resources/concepts/layer_supersample.png"
   inkscape:export-xdpi="2.1600001"
   inkscape:export-ydpi="2.1600001">
  <defs
     id="defs3890" />
  <sodipodi:namedview
     id="base"
     pagecolor="#ffffff"
     bordercolor="#666666"
     borderopacity="1.0"
     inkscape:pageopacity="0.0"
     inkscape:pageshadow="2"
     inkscape:zoom="0.6441537"
     inkscape:cx="496.51155"
     inkscape:cy="499.80913"
     inkscape:document-units="px"
     inkscape:current-layer="g3582"
     showgrid="false"
     inkscape:window-width="1440"
     inkscape:window-height="826"
     inkscape:window-x="0"
     inkscape:window-y="0"
     inkscape:window-maximized="1" />
  <metadata
     id="metadata3893">
    <rdf:RDF>
      <cc:Work
         rdf:about="">
        <dc:format>image/svg+xml</dc:format>
        <dc:type
           rdf:resource="http://purl.org/dc/dcmitype/StillImage" />
        <dc:title />
      </cc:Work>
    </rdf:RDF>
  </metadata>
  <g
     inkscape:label="Layer 1"
     inkscape:groupmode="layer"
     id="layer1"
     transform="translate(0,-52.362183)">
    <g
       style="display:inline"
       id="g3582"
       transform="matrix(40.887017,0,0,40.887017,2575.176,-58573.169)">
      <path
         style="color:#000000;font-style:normal;font-variant:normal;font-weight:normal;font-stretch:normal;font-size:medium;line-height:normal;font-family:Sans;-inkscape-font-specification:Sans;text-indent:0;text-align:start;text-decoration:none;text-decoration-line:none;letter-spacing:normal;word-spacing:normal;text-transform:none;direction:ltr;block-progression:tb;writing-mode:lr-tb;baseline-shift:baseline;text-anchor:start;display:inline;overflow:visible;visibility:visible;fill:#000000;fill-opacity:1;stroke:none;stroke-width:0.99993056;marker:none;enable-background:accumulate"
         d="m -61.970129,1436.7031 c -1.650007,3.0641 -0.859514,6.8964 1.095244,9.6301 1.423307,1.9904 3.416326,3.4676 4.940708,5.3716 1.097286,1.1774 2.282913,2.3124 3.713656,3.0763 1.038714,-0.4038 2.748582,-0.7847 2.538638,0.9409 0.273723,1.3411 2.030908,2.13 3.120882,1.2027 1.179608,-0.6781 2.15269,0.4741 2.701263,1.2748 1.412268,0.2761 2.173071,-1.7322 3.64727,-1.3341 1.830387,-0.561 1.179117,-2.6828 1.160663,-4.0564 0.488924,-1.1567 0.25337,-2.4403 -0.992738,-2.9078 -0.238259,-0.9491 1.048869,-2.4176 -0.566054,-2.7899 -1.422726,-0.3937 -1.367965,-1.7649 -1.176655,-2.9152 -0.05357,-1.5529 -1.997393,-1.616 -2.54333,-2.6022 0.399331,-0.9504 0.948217,-2.4488 -0.606685,-2.6178 -0.946336,0.1577 -1.902617,-0.1563 -1.632425,-1.2825 -0.545776,-1.4391 -3.03243,-0.1829 -3.27474,-1.8133 -0.669807,-1.5588 -2.513289,-1.8578 -3.992413,-1.932 -3.354751,-0.1683 -6.968106,0.591 -8.133284,2.7548 z m 10.582811,-1.1055 c 0.717679,0.9247 1.292389,2.5029 2.718312,2.3177 1.797135,-0.6988 0.493737,2.3443 1.995556,2.211 0.993543,-0.5233 2.199986,0.3701 1.184828,1.2902 -0.331008,1.3627 1.38177,1.5727 2.193247,2.1709 1.077336,1.0143 -0.433424,3.2614 1.312195,3.9985 1.448493,0.059 1.032598,1.3829 0.641757,2.2866 0.398884,0.9059 2.158652,1.4458 1.283235,2.7876 -1.023056,0.8486 1.048456,2.1122 -0.175089,2.9978 -1.062809,0.4765 -2.409693,0.3885 -3.138871,1.4026 -0.646971,-0.6911 -1.203301,-1.7894 -2.448438,-1.3466 -1.129224,0.5417 -2.970086,0.8609 -3.007264,-0.9186 -0.259622,-1.3158 -1.593488,-1.4913 -2.539689,-1.8423 l -0.0198,-17.3554 z"
         id="path12733"
         inkscape:connector-curvature="0"
         sodipodi:nodetypes="ssccccccccccccccssccccccccccccccc" />
    </g>
  </g>
</svg>
