<?xml version="1.0" encoding="UTF-8" standalone="no"?>
<!-- Created with Inkscape (http://www.inkscape.org/) -->

<svg
   xmlns:dc="http://purl.org/dc/elements/1.1/"
   xmlns:cc="http://creativecommons.org/ns#"
   xmlns:rdf="http://www.w3.org/1999/02/22-rdf-syntax-ns#"
   xmlns:svg="http://www.w3.org/2000/svg"
   xmlns="http://www.w3.org/2000/svg"
   xmlns:sodipodi="http://sodipodi.sourceforge.net/DTD/sodipodi-0.dtd"
   xmlns:inkscape="http://www.inkscape.org/namespaces/inkscape"
   width="1000"
   height="1000"
   id="svg3888"
   version="1.1"
   inkscape:version="0.48.2 r9819"
   sodipodi:docname="layer_spiralgradient.svg">
  <defs
     id="defs3890" />
  <sodipodi:namedview
     id="base"
     pagecolor="#ffffff"
     bordercolor="#666666"
     borderopacity="1.0"
     inkscape:pageopacity="0.0"
     inkscape:pageshadow="2"
     inkscape:zoom="0.13157153"
     inkscape:cx="-661.9204"
     inkscape:cy="1205.8015"
     inkscape:document-units="px"
     inkscape:current-layer="g3858"
     showgrid="false"
     inkscape:window-width="1402"
     inkscape:window-height="856"
     inkscape:window-x="38"
     inkscape:window-y="0"
     inkscape:window-maximized="1" />
  <metadata
     id="metadata3893">
    <rdf:RDF>
      <cc:Work
         rdf:about="">
        <dc:format>image/svg+xml</dc:format>
        <dc:type
           rdf:resource="http://purl.org/dc/dcmitype/StillImage" />
        <dc:title />
      </cc:Work>
    </rdf:RDF>
  </metadata>
  <g
     inkscape:label="Layer 1"
     inkscape:groupmode="layer"
     id="layer1"
     transform="translate(0,-52.362183)">
    <g
       style="display:inline"
       id="g3582"
       transform="matrix(40.887017,0,0,40.887017,2575.176,-58573.169)">
      <g
         style="display:inline"
         id="g4469"
         transform="matrix(1.0190684,0,0,1.0190684,-472.71602,1019.6068)">
        <g
           transform="translate(153.55683,-1032.0904)"
           id="g3858"
           style="display:inline">
          <g
             id="g3744"
             transform="matrix(0.93785617,0,0,0.93785617,35.534706,93.945158)">
            <path
               id="path3723"
               transform="translate(-174.19594,1028.0377)"
               d="m 402.5625,408.96875 0,19.03125 23.03125,0 0,-19.03125 -23.03125,0 z m 1.03125,1 5.1875,4.25 c -3.31657,3.36564 -2.32012,7.89998 0.6875,9.8125 2.4419,1.5527 5.91633,1.0797 7.5,-1.5625 0.23135,-0.386 0.35648,-0.8179 0.46875,-1.25 l -1.96875,-1.59375 c 0.0945,0.5831 -10e-4,1.2307 -0.3125,1.75 -0.91034,1.5188 -3.14836,1.93315 -4.53125,0.84375 -2.12788,-1.67633 -2.44332,-4.3038 -0.21875,-6.65625 l 1.25,1 c -0.38202,0.31372 -0.7305,0.71621 -0.9375,1.21875 -0.26346,0.6396 -0.3225,1.2714 -0.0937,1.9375 0.22869,0.6661 0.91454,1.41045 1.78125,1.53125 0.68497,0.095 0.98691,-0.11055 1.40625,-0.46875 0.20967,-0.1791 0.4402,-0.43115 0.5,-0.90625 0.0598,-0.4751 -0.20867,-1.03065 -0.5,-1.28125 -0.24243,-0.2083 -0.56278,-0.312 -0.875,-0.25 0.12656,-0.1268 0.19354,-0.28975 0.40625,-0.34375 0.0397,-0.01 0.0821,0.0227 0.125,0.0312 l -1.78125,-1.5 c 0.35657,-0.2865 0.73627,-0.48815 1.15625,-0.59375 0.88512,-0.2227 1.84185,-0.1324 2.65625,0.3125 1.82962,0.9996 2.42072,3.10875 1.9375,4.96875 l 1.34375,1.09375 c 0.95205,-2.5515 0.3083,-5.5872 -1.9375,-7.1875 -1.97551,-1.4078 -4.67997,-1.18885 -6.40625,0.40625 l -1.59375,-1.3125 -0.0312,-0.0312 c 1.0812,-1.075 2.36843,-1.85765 3.84375,-2.09375 1.89077,-0.3027 3.83241,0.1979 5.40625,1.3125 3.29306,2.332 4.07342,6.74275 2.40625,10.28125 l 4.09375,3.34375 -5.25,0 -5.25,0 -5.25,0 -5.21875,0 0,-4.28125 0,-4.25 0,-4.25 0,-4.28125 z m 11.875,9.65625 c -0.10107,-0.6235 -0.44493,-1.16555 -1,-1.46875 -0.27499,-0.15 -0.64548,-0.168 -0.96875,-0.125 l 0.5625,0.46875 1.40625,1.125 z"
               style="font-size:medium;font-style:normal;font-variant:normal;font-weight:normal;font-stretch:normal;text-indent:0;text-align:start;text-decoration:none;line-height:normal;letter-spacing:normal;word-spacing:normal;text-transform:none;direction:ltr;block-progression:tb;writing-mode:lr-tb;text-anchor:start;baseline-shift:baseline;color:#000000;fill:#000000;fill-opacity:1;stroke:none;stroke-width:1.02597988;marker:none;visibility:visible;display:inline;overflow:visible;enable-background:accumulate;font-family:Sans;-inkscape-font-specification:Sans"
               inkscape:connector-curvature="0" />
          </g>
          <rect
             y="1438.5748"
             x="248.50969"
             height="24"
             width="24"
             id="rect3849"
             style="fill:none;stroke:none" />
        </g>
      </g>
    </g>
  </g>
</svg>
