<?xml version="1.0" encoding="UTF-8" standalone="no"?>
<!-- Created with Inkscape (http://www.inkscape.org/) -->

<svg
   xmlns:dc="http://purl.org/dc/elements/1.1/"
   xmlns:cc="http://creativecommons.org/ns#"
   xmlns:rdf="http://www.w3.org/1999/02/22-rdf-syntax-ns#"
   xmlns:svg="http://www.w3.org/2000/svg"
   xmlns="http://www.w3.org/2000/svg"
   xmlns:sodipodi="http://sodipodi.sourceforge.net/DTD/sodipodi-0.dtd"
   xmlns:inkscape="http://www.inkscape.org/namespaces/inkscape"
   width="1000"
   height="1000"
   id="svg3888"
   version="1.1"
   inkscape:version="0.48.2 r9819"
   sodipodi:docname="layer_curvegradient.svg">
  <defs
     id="defs3890" />
  <sodipodi:namedview
     id="base"
     pagecolor="#ffffff"
     bordercolor="#666666"
     borderopacity="1.0"
     inkscape:pageopacity="0.0"
     inkscape:pageshadow="2"
     inkscape:zoom="0.046517561"
     inkscape:cx="291.93337"
     inkscape:cy="1205.8015"
     inkscape:document-units="px"
     inkscape:current-layer="g3582"
     showgrid="false"
     inkscape:window-width="1402"
     inkscape:window-height="856"
     inkscape:window-x="38"
     inkscape:window-y="0"
     inkscape:window-maximized="1" />
  <metadata
     id="metadata3893">
    <rdf:RDF>
      <cc:Work
         rdf:about="">
        <dc:format>image/svg+xml</dc:format>
        <dc:type
           rdf:resource="http://purl.org/dc/dcmitype/StillImage" />
        <dc:title></dc:title>
      </cc:Work>
    </rdf:RDF>
  </metadata>
  <g
     inkscape:label="Layer 1"
     inkscape:groupmode="layer"
     id="layer1"
     transform="translate(0,-52.362183)">
    <g
       style="display:inline"
       id="g3582"
       transform="matrix(40.887017,0,0,40.887017,2575.176,-58573.169)">
      <g
         style="display:inline"
         id="g3761"
         transform="matrix(1.0190684,0,0,1.0190684,-227.15627,-28.047974)">
        <rect
           y="1434.5359"
           x="161.10159"
           height="24"
           width="24"
           id="rect3605"
           style="fill:none;stroke:none" />
        <rect
           style="fill:none;stroke:none"
           id="rect3618"
           width="24"
           height="24"
           x="161.10159"
           y="1434.5359" />
        <g
           transform="matrix(1,0,0,0.94999726,-73.788174,347.49357)"
           id="g3620" />
        <path
           id="path3614"
           style="fill:#000000;fill-opacity:1;stroke:none"
           d="m 168.53533,414.54162 c 1.87142,-2.31858 5.26808,-2.68108 7.58666,-0.80966 2.31858,1.87142 2.66662,5.28252 0.79521,7.6011 l -4.18375,-3.40291 z m -4.31393,-3.65381 0,14.08452 17.04481,0 0,-14.08452 z m 0.7632,0.74008 3.5616,2.91403 c -1.87157,2.3062 -1.5382,5.67761 0.7632,7.56262 2.3014,1.88501 5.72087,1.54187 7.60888,-0.7632 l 3.58473,2.91404 -15.51841,0 z"
           transform="matrix(1.3512183,0,0,1.3512183,-60.299054,881.82101)"
           inkscape:connector-curvature="0"
           sodipodi:nodetypes="cscccccccccczcccc" />
      </g>
    </g>
  </g>
</svg>
