<?xml version="1.0" encoding="UTF-8" standalone="no"?>
<!-- Created with Inkscape (http://www.inkscape.org/) -->

<svg
   xmlns:dc="http://purl.org/dc/elements/1.1/"
   xmlns:cc="http://creativecommons.org/ns#"
   xmlns:rdf="http://www.w3.org/1999/02/22-rdf-syntax-ns#"
   xmlns:svg="http://www.w3.org/2000/svg"
   xmlns="http://www.w3.org/2000/svg"
   xmlns:sodipodi="http://sodipodi.sourceforge.net/DTD/sodipodi-0.dtd"
   xmlns:inkscape="http://www.inkscape.org/namespaces/inkscape"
   width="1000"
   height="1000"
   id="svg3278"
   version="1.1"
   inkscape:version="0.91 r13725"
   sodipodi:docname="panel_parameter.svg"
   inkscape:export-filename="/Users/chyu/Source/sif.font/resources/concepts/panel_parameter.png"
   inkscape:export-xdpi="2.1600001"
   inkscape:export-ydpi="2.1600001">
  <defs
     id="defs3280" />
  <sodipodi:namedview
     id="base"
     pagecolor="#ffffff"
     bordercolor="#666666"
     borderopacity="1.0"
     inkscape:pageopacity="0.0"
     inkscape:pageshadow="2"
     inkscape:zoom="0.71501939"
     inkscape:cx="500.00536"
     inkscape:cy="499.9946"
     inkscape:document-units="px"
     inkscape:current-layer="g4614"
     showgrid="false"
     inkscape:window-width="1440"
     inkscape:window-height="826"
     inkscape:window-x="0"
     inkscape:window-y="0"
     inkscape:window-maximized="1" />
  <metadata
     id="metadata3283">
    <rdf:RDF>
      <cc:Work
         rdf:about="">
        <dc:format>image/svg+xml</dc:format>
        <dc:type
           rdf:resource="http://purl.org/dc/dcmitype/StillImage" />
        <dc:title />
      </cc:Work>
    </rdf:RDF>
  </metadata>
  <g
     inkscape:label="Layer 1"
     inkscape:groupmode="layer"
     id="layer1"
     transform="translate(0,-52.362183)">
    <g
       style="display:inline"
       id="g4614"
       transform="matrix(41.547373,0,0,41.547373,-6665.6171,-33605.14)"
       inkscape:export-filename="/Users/chyu/Desktop/panels.png"
       inkscape:export-xdpi="300"
       inkscape:export-ydpi="300">
      <g
         transform="matrix(0.20968218,0,0,0.20968218,77.631972,647.66306)"
         id="g4592">
        <g
           id="g4582"
           transform="translate(1.2952101e-5,0.05661858)">
          <g
             transform="translate(0,8.6657781)"
             id="g4568" />
          <g
             transform="translate(0,5.99878)"
             id="g4564" />
          <g
             id="g4847"
             transform="translate(0,46.003751)">
            <path
               id="path15321"
               transform="matrix(4.7691225,0,0,4.7691225,-163.91524,728.77739)"
               style="fill:#000000;fill-rule:evenodd;stroke:none"
               d="m 121.21875,14.625 0,2.6875 2.34375,0 c -0.14767,-0.397779 -0.21875,-0.801897 -0.21875,-1.25 0,-0.507089 0.0945,-0.997182 0.28125,-1.4375 z m 5.79812,-1.263504 c 1.48791,0 2.68,1.198637 2.68,2.686553 0,1.487917 -1.19209,2.68 -2.68,2.68 -1.48792,0 -2.68656,-1.192083 -2.68656,-2.68 0,-1.487916 1.19864,-2.686553 2.68656,-2.686553 z m 3.38938,1.263504 c 0.18677,0.440318 0.28125,0.930411 0.28125,1.4375 0,0.448103 -0.0711,0.852221 -0.21875,1.25 l 6.71875,0 0,-2.6875 z m -9.1875,-7.8437506 0,2.6875 6.90625,0 c -0.14116,-0.3899443 -0.21875,-0.8123621 -0.21875,-1.25 0,-0.5070886 0.0945,-0.9971825 0.28125,-1.4375 z m 10.36526,-1.2488612 c 1.48791,0 2.68,1.1986377 2.68,2.6865529 0,1.4879174 -1.19209,2.6799999 -2.68,2.6799999 -1.48792,0 -2.68656,-1.1920825 -2.68656,-2.6799999 0,-1.4879152 1.19864,-2.6865529 2.68656,-2.6865529 z m 3.38474,1.2488612 c 0.18677,0.4403175 0.3125,0.9304114 0.3125,1.4375 0,0.4376379 -0.10884,0.8600557 -0.25,1.25 l 2.15625,0 0,-2.6875 z M 121.20064,1.2294527 c -1.81576,0 -3.22059,1.5883739 -3.22059,3.4224891 l 0,14.6982282 c 0,1.834115 1.40483,3.422898 3.22059,3.422898 l 16.01243,0 c 1.81575,0 3.22059,-1.588785 3.22059,-3.422898 l 0,-14.6982282 c 0,-1.8341131 -1.40484,-3.4224891 -3.22059,-3.4224891 l -16.01243,0 z m 0,1.999762 16.01243,0 c 0.64457,0 1.22041,0.5724051 1.22041,1.4227271 l 0,14.6982282 c 0,0.850322 -0.57584,1.422727 -1.22041,1.422727 l -16.01243,0 c -0.64458,0 -1.22083,-0.572405 -1.22083,-1.422727 l 0,-14.6982282 c 0,-0.850322 0.57625,-1.4227271 1.22083,-1.4227271 z" />
          </g>
        </g>
      </g>
    </g>
  </g>
</svg>
