<?xml version="1.0" encoding="UTF-8" standalone="no"?>
<!-- Created with Inkscape (http://www.inkscape.org/) -->

<svg
   xmlns:dc="http://purl.org/dc/elements/1.1/"
   xmlns:cc="http://creativecommons.org/ns#"
   xmlns:rdf="http://www.w3.org/1999/02/22-rdf-syntax-ns#"
   xmlns:svg="http://www.w3.org/2000/svg"
   xmlns="http://www.w3.org/2000/svg"
   xmlns:sodipodi="http://sodipodi.sourceforge.net/DTD/sodipodi-0.dtd"
   xmlns:inkscape="http://www.inkscape.org/namespaces/inkscape"
   width="1000"
   height="1000"
   id="svg3446"
   version="1.1"
   inkscape:version="0.91 r13725"
   sodipodi:docname="toolbox_smoothmove.svg"
   inkscape:export-filename="/Users/chyu/Source/sif.font/resources/concepts/toolbox_smoothmove.png"
   inkscape:export-xdpi="2.1600001"
   inkscape:export-ydpi="2.1600001">
  <defs
     id="defs3448" />
  <sodipodi:namedview
     id="base"
     pagecolor="#ffffff"
     bordercolor="#666666"
     borderopacity="1.0"
     inkscape:pageopacity="0.0"
     inkscape:pageshadow="2"
     inkscape:zoom="0.49620888"
     inkscape:cx="499.99998"
     inkscape:cy="500.00042"
     inkscape:document-units="px"
     inkscape:current-layer="layer1"
     showgrid="false"
     inkscape:window-width="987"
     inkscape:window-height="754"
     inkscape:window-x="58"
     inkscape:window-y="20"
     inkscape:window-maximized="0"
     showguides="true"
     inkscape:guide-bbox="true" />
  <metadata
     id="metadata3451">
    <rdf:RDF>
      <cc:Work
         rdf:about="">
        <dc:format>image/svg+xml</dc:format>
        <dc:type
           rdf:resource="http://purl.org/dc/dcmitype/StillImage" />
        <dc:title />
      </cc:Work>
    </rdf:RDF>
  </metadata>
  <g
     inkscape:label="Layer 1"
     inkscape:groupmode="layer"
     id="layer1"
     transform="translate(0,-52.362183)">
    <path
       id="path15450"
       style="fill:#000000;fill-rule:evenodd;stroke:none"
       d="M 205.85312,341.51276 0.21058277,552.36144 205.85312,761.90859 l 0,-101.51974 80.69518,0 c -16.70422,-32.5946 -26.0307,-69.06382 -26.0307,-108.02741 0,-34.95152 8.50475,-68.93721 22.12609,-98.91666 l -76.79057,0 z M 498.69851,52.57198 289.15137,258.21452 l 101.51973,0 0,80.69517 c 32.56129,-16.70421 70.36536,-26.0307 109.32895,-26.0307 34.95152,0 67.63567,8.50517 97.61513,22.1261 l 0,-76.79057 111.93201,0 z m 294.14693,288.94078 0,102.82127 -80.69518,0 c 16.36019,32.29473 26.0307,69.49448 26.0307,108.02741 0,34.95153 -8.50516,67.60777 -22.12609,97.61513 l 76.79057,0 0,111.93202 206.94407,-209.54715 z m -184.81798,422.9989 c -32.59002,16.77543 -69.01676,26.0307 -108.02741,26.0307 -34.90447,0 -68.96887,-7.2103 -98.91667,-20.82456 l 0,75.48903 -111.93201,0 210.84868,206.94407 209.54714,-206.94407 -101.51973,0 z M 500.00005,396.17724 c -86.38736,0 -156.18421,69.79726 -156.18421,156.1842 0,86.38695 69.79685,154.88268 156.18421,154.88268 86.38694,0 154.88267,-68.49573 154.88267,-154.88268 0,-86.38694 -68.49573,-156.1842 -154.88267,-156.1842 z" />
  </g>
</svg>
