<?xml version="1.0" encoding="UTF-8" standalone="no"?>
<!-- Created with Inkscape (http://www.inkscape.org/) -->

<svg
   xmlns:dc="http://purl.org/dc/elements/1.1/"
   xmlns:cc="http://creativecommons.org/ns#"
   xmlns:rdf="http://www.w3.org/1999/02/22-rdf-syntax-ns#"
   xmlns:svg="http://www.w3.org/2000/svg"
   xmlns="http://www.w3.org/2000/svg"
   xmlns:sodipodi="http://sodipodi.sourceforge.net/DTD/sodipodi-0.dtd"
   xmlns:inkscape="http://www.inkscape.org/namespaces/inkscape"
   width="1000"
   height="1000"
   id="svg2988"
   version="1.1"
   inkscape:version="0.91 r13725"
   sodipodi:docname="tool_onnion.svg"
   inkscape:export-filename="/Users/chyu/Source/sif.font/resources/concepts/tool_onnion.png"
   inkscape:export-xdpi="2.1600001"
   inkscape:export-ydpi="2.1600001">
  <defs
     id="defs2990" />
  <sodipodi:namedview
     id="base"
     pagecolor="#ffffff"
     bordercolor="#666666"
     borderopacity="1.0"
     inkscape:pageopacity="0"
     inkscape:pageshadow="2"
     inkscape:zoom="0.45851627"
     inkscape:cx="128.09588"
     inkscape:cy="384.40363"
     inkscape:document-units="px"
     inkscape:current-layer="layer1"
     showgrid="true"
     inkscape:showpageshadow="false"
     showguides="true"
     inkscape:guide-bbox="true"
     inkscape:window-width="1440"
     inkscape:window-height="826"
     inkscape:window-x="50"
     inkscape:window-y="0"
     inkscape:window-maximized="0">
    <sodipodi:guide
       orientation="1,0"
       position="50,760"
       id="guide2996" />
    <sodipodi:guide
       orientation="1,0"
       position="950,808.57143"
       id="guide3000" />
    <sodipodi:guide
       orientation="0,1"
       position="648.57143,950"
       id="guide3002" />
    <sodipodi:guide
       orientation="0,1"
       position="605.71429,50"
       id="guide3004" />
    <sodipodi:guide
       orientation="1,0"
       position="100,645.71429"
       id="guide3006" />
    <sodipodi:guide
       orientation="1,0"
       position="900,480"
       id="guide3008" />
    <sodipodi:guide
       orientation="0,1"
       position="531.42857,900"
       id="guide3010" />
    <sodipodi:guide
       orientation="0,1"
       position="648.57143,100"
       id="guide3012" />
    <inkscape:grid
       type="xygrid"
       id="grid3014"
       empspacing="50"
       visible="true"
       enabled="true"
       snapvisiblegridlinesonly="true"
       dotted="false"
       color="#0400ff"
       opacity="0.02745098"
       empcolor="#f00059"
       empopacity="0.25098039" />
  </sodipodi:namedview>
  <metadata
     id="metadata2993">
    <rdf:RDF>
      <cc:Work
         rdf:about="">
        <dc:format>image/svg+xml</dc:format>
        <dc:type
           rdf:resource="http://purl.org/dc/dcmitype/StillImage" />
        <dc:title />
      </cc:Work>
    </rdf:RDF>
  </metadata>
  <g
     inkscape:label="Layer 1"
     inkscape:groupmode="layer"
     id="layer1"
     transform="translate(0,-52.362183)"
     style="display:inline">
    <g
       id="g8084"
       transform="matrix(39.364118,0,0,39.364118,-12536.973,-9172.3865)">
      <path
         sodipodi:nodetypes="ccccccccccccccccccscccccccccc"
         inkscape:connector-curvature="0"
         id="path6858"
         transform="translate(-131.40972,-809.34612)"
         d="m 464.65625,1044.5312 c -0.85946,0.829 -1.02855,1.0048 -1.34375,1.3438 -1.09094,1.1001 -1.32397,0.5286 -1.75,2.2188 -0.41769,1.1408 -0.81905,-1.7466 -0.71875,-2.2188 0.25867,-0.8188 -0.44482,-1.4199 -0.65625,-1.3125 -0.91145,0.8232 -1.62346,1.856 -1.90625,2.8125 -0.24746,1.059 -0.58601,1.7342 -0.6875,2.8125 -1.5276,-1.7752 -2.29656,-1.6899 -4.53125,-1.1563 -1.38067,0.3074 -1.16804,0.113 -2.375,0.7813 1.88525,0.645 1.27983,0.8393 3.25,1.1875 1.12069,0.135 2.09658,1.9508 1.25,3.1875 -1.17508,2.5774 -1.93443,5.7125 -0.5,8.3437 1.96736,3.5531 6.54334,5.0785 10.5625,4.5626 0.3599,0.4336 0.89921,1.1316 1.46875,1.125 0.26459,-0.2354 -0.35727,-1.4292 0.1875,-1.5 0.40077,0.2202 0.69722,0.8008 0.90625,1.125 0.20903,0.3241 0.80668,0.784 0.78125,0.062 -0.0254,-0.7215 -0.52463,-1.8172 0.125,-1.625 0.68343,0.325 0.79666,0.8179 1.15625,1.2188 0.35959,0.4009 0.83694,0.8704 0.78125,0.031 -0.0557,-0.8392 -0.28125,-1.6344 -0.28125,-2.4374 0.53605,-0.2358 0.98123,1.8052 2.46875,1.8124 0.19582,0.067 0.4738,-0.1115 0.25,-0.625 -0.26553,-0.5278 -0.7622,-1.1231 -0.9375,-1.5624 -0.25121,-0.4932 -0.20833,-0.7247 -0.125,-1.0313 0.42309,-0.2726 0.71692,-1.0899 1.09903,-1.8533 1.13873,-2.7129 -0.20188,-5.7724 -2.03653,-7.928 -1.74481,-2.153 -4.32988,-3.7783 -7.1875,-4.1562 0.71317,-1.5531 2.27508,-5.0854 0.75,-5.2182 z"
         style="color:#000000;font-style:normal;font-variant:normal;font-weight:normal;font-stretch:normal;font-size:medium;line-height:normal;font-family:Sans;-inkscape-font-specification:Sans;text-indent:0;text-align:start;text-decoration:none;text-decoration-line:none;letter-spacing:normal;word-spacing:normal;text-transform:none;direction:ltr;block-progression:tb;writing-mode:lr-tb;baseline-shift:baseline;text-anchor:start;display:inline;overflow:visible;visibility:visible;fill:#000000;fill-opacity:1;fill-rule:nonzero;stroke:none;stroke-width:0.73516798;marker:none;enable-background:accumulate" />
    </g>
  </g>
</svg>
