<?xml version="1.0" encoding="UTF-8" standalone="no"?>
<!-- Created with Inkscape (http://www.inkscape.org/) -->

<svg
   xmlns:dc="http://purl.org/dc/elements/1.1/"
   xmlns:cc="http://creativecommons.org/ns#"
   xmlns:rdf="http://www.w3.org/1999/02/22-rdf-syntax-ns#"
   xmlns:svg="http://www.w3.org/2000/svg"
   xmlns="http://www.w3.org/2000/svg"
   xmlns:sodipodi="http://sodipodi.sourceforge.net/DTD/sodipodi-0.dtd"
   xmlns:inkscape="http://www.inkscape.org/namespaces/inkscape"
   width="1000"
   height="1000"
   id="svg3278"
   version="1.1"
   inkscape:version="0.91 r13725"
   sodipodi:docname="panel_nevigator.svg">
  <defs
     id="defs3280" />
  <sodipodi:namedview
     id="base"
     pagecolor="#ffffff"
     bordercolor="#666666"
     borderopacity="1.0"
     inkscape:pageopacity="0.0"
     inkscape:pageshadow="2"
     inkscape:zoom="0.64183761"
     inkscape:cx="500.00003"
     inkscape:cy="499.99972"
     inkscape:document-units="px"
     inkscape:current-layer="g5145"
     showgrid="false"
     inkscape:window-width="1440"
     inkscape:window-height="826"
     inkscape:window-x="0"
     inkscape:window-y="0"
     inkscape:window-maximized="1" />
  <metadata
     id="metadata3283">
    <rdf:RDF>
      <cc:Work
         rdf:about="">
        <dc:format>image/svg+xml</dc:format>
        <dc:type
           rdf:resource="http://purl.org/dc/dcmitype/StillImage" />
        <dc:title />
      </cc:Work>
    </rdf:RDF>
  </metadata>
  <g
     inkscape:label="Layer 1"
     inkscape:groupmode="layer"
     id="layer1"
     transform="translate(0,-52.362183)">
    <g
       style="display:inline"
       id="g5145"
       transform="matrix(41.547373,0,0,41.547373,7549.777,-24688.435)"
       inkscape:export-filename="/Users/chyu/Desktop/panels.png"
       inkscape:export-xdpi="300"
       inkscape:export-ydpi="300">
      <g
         transform="matrix(0.20220365,0,0,0.20220365,-136.30099,495.28573)"
         id="g5138">
        <g
           id="g5127"
           transform="matrix(0.80713802,-0.39274806,0.39274806,0.80713802,-249.83622,42.214496)">
          <path
             id="path4307"
             transform="matrix(11.770224,0,0,11.770224,1764.1063,-5974.6464)"
             style="fill:#000000;stroke:none"
             d="m -163.31553,554.76477 c 0,0.32503 -0.26349,0.58852 -0.58852,0.58852 -0.32504,0 -0.58853,-0.26349 -0.58853,-0.58852 0,-0.32503 0.26349,-0.58852 0.58853,-0.58852 0.32503,0 0.58852,0.26349 0.58852,0.58852 z m 3.21603,0 -3.80455,-1.59229 -3.80456,1.59227 3.80455,1.59228 3.80456,-1.59226 z m -1.35634,-5.02476 c -2.77327,-1.34945 -6.13312,-0.20026 -7.4827,2.57327 -1.34958,2.77352 -0.18071,6.12636 2.59282,7.47594 2.77352,1.34958 6.12009,0.1936 7.46954,-2.57966 1.34946,-2.77327 0.19361,-6.12009 -2.57966,-7.46955 z m -0.71684,1.47318 c 1.95708,0.95231 2.76247,3.31604 1.81016,5.27312 -0.9523,1.95708 -3.3091,2.78212 -5.26636,1.82973 -1.95726,-0.95239 -2.77572,-3.32226 -1.82332,-5.27952 0.95239,-1.95727 3.32243,-2.77563 5.27952,-1.82333 z" />
        </g>
      </g>
    </g>
  </g>
</svg>
