<?xml version="1.0" encoding="UTF-8" standalone="no"?>
<!-- Created with Inkscape (http://www.inkscape.org/) -->

<svg
   xmlns:dc="http://purl.org/dc/elements/1.1/"
   xmlns:cc="http://creativecommons.org/ns#"
   xmlns:rdf="http://www.w3.org/1999/02/22-rdf-syntax-ns#"
   xmlns:svg="http://www.w3.org/2000/svg"
   xmlns="http://www.w3.org/2000/svg"
   xmlns:sodipodi="http://sodipodi.sourceforge.net/DTD/sodipodi-0.dtd"
   xmlns:inkscape="http://www.inkscape.org/namespaces/inkscape"
   width="1000"
   height="1000"
   id="svg3278"
   version="1.1"
   inkscape:version="0.91 r13725"
   sodipodi:docname="panel_library.svg"
   inkscape:export-filename="/Users/chyu/Source/sif.font/resources/concepts/panel_library.png"
   inkscape:export-xdpi="2.1600001"
   inkscape:export-ydpi="2.1600001">
  <defs
     id="defs3280" />
  <sodipodi:namedview
     id="base"
     pagecolor="#ffffff"
     bordercolor="#666666"
     borderopacity="1.0"
     inkscape:pageopacity="0.0"
     inkscape:pageshadow="2"
     inkscape:zoom="0.72919621"
     inkscape:cx="499.99991"
     inkscape:cy="500.00052"
     inkscape:document-units="px"
     inkscape:current-layer="g13820"
     showgrid="false"
     inkscape:window-width="1440"
     inkscape:window-height="826"
     inkscape:window-x="0"
     inkscape:window-y="0"
     inkscape:window-maximized="1" />
  <metadata
     id="metadata3283">
    <rdf:RDF>
      <cc:Work
         rdf:about="">
        <dc:format>image/svg+xml</dc:format>
        <dc:type
           rdf:resource="http://purl.org/dc/dcmitype/StillImage" />
        <dc:title />
      </cc:Work>
    </rdf:RDF>
  </metadata>
  <g
     inkscape:label="Layer 1"
     inkscape:groupmode="layer"
     id="layer1"
     transform="translate(0,-52.362183)">
    <g
       style="display:inline"
       id="g13820"
       transform="matrix(41.547373,0,0,41.547373,6438.6777,-16514.525)"
       inkscape:export-filename="/Users/chyu/Desktop/panels.png"
       inkscape:export-xdpi="300"
       inkscape:export-ydpi="300">
      <g
         transform="matrix(0.20088935,0,0,0.20088935,-123.81221,336.70028)"
         id="g13809">
        <path
           id="path13751"
           style="font-size:medium;font-style:normal;font-variant:normal;font-weight:normal;font-stretch:normal;text-indent:0;text-align:start;text-decoration:none;line-height:normal;letter-spacing:normal;word-spacing:normal;text-transform:none;direction:ltr;block-progression:tb;writing-mode:lr-tb;text-anchor:start;baseline-shift:baseline;color:#000000;fill:#000000;fill-opacity:1;stroke:none;stroke-width:6;marker:none;visibility:visible;display:inline;overflow:visible;enable-background:accumulate;font-family:Sans;-inkscape-font-specification:Sans"
           d="m -95.75,316.1875 c -15.37398,0 -27.90625,12.53228 -27.90625,27.90625 0,3.55358 0.65555,6.96606 1.875,10.09375 l 6.5625,0 c -1.55919,-3.01101 -2.4375,-6.45435 -2.4375,-10.09375 0,-12.13133 9.77492,-21.90625 21.90625,-21.90625 12.131331,0 21.90625,9.77492 21.90625,21.90625 0,3.6415 -0.907881,7.08148 -2.46875,10.09375 l 6.5625,0 c 1.219447,-3.12769 1.90625,-6.54017 1.90625,-10.09375 0,-15.37397 -12.532277,-27.90625 -27.90625,-27.90625 z m 0.07626,11.03851 c -9.457349,0 -16.955849,7.34293 -16.955849,16.80029 0,2.83852 0.66907,5.62073 1.8667,7.93348 l 1.0889,2.17781 27.844935,0 1.088908,-2.17781 c 1.211413,-2.33784 1.866699,-5.11934 1.866699,-7.93348 0,-9.45736 -7.342947,-16.80029 -16.800293,-16.80029 z M -130.3125,319.375 c -12.65856,0 -23,10.31019 -23,22.96875 0,4.32676 1.21976,8.38206 3.3125,11.84375 l 7.46875,0 c -2.96235,-3.05694 -4.78125,-7.23237 -4.78125,-11.84375 0,-9.41591 7.58409,-16.96875 17,-16.96875 3.08563,0 5.95469,0.82152 8.4375,2.25 1.08098,-1.70546 2.33554,-3.29025 3.71875,-4.75 -3.52975,-2.21493 -7.69153,-3.5 -12.15625,-3.5 z m -0.3125,7.84375 a 2.0002,2.0002 0 0 0 -1.75,2.03125 l 0,10.96875 -6.0625,0 a 2.0002,2.0002 0 1 0 0,4 l 8.0625,0 a 2.0002,2.0002 0 0 0 2,-2 l 0,-12.96875 a 2.0002,2.0002 0 0 0 -2.25,-2.03125 z m 80.125,23.45929 -16.5,8.46875 -87.9375,0 0,62.19696 87.9375,0 16.5,-8.4375 z M -60.75,321.4375 c -3.23341,0.15597 -8.065587,1.90441 -10.9375,3.34375 0.528826,0.65708 1.056491,1.33202 1.53125,2.03125 0.9671,-0.0533 1.940389,-0.11353 2.625,0.0312 1.934722,0.40913 5.71875,3.84375 5.71875,3.84375 0,0 -2.058498,1.70327 -2.625,2.125 -0.691692,0.51492 -1.368359,0.98359 -2.03125,1.4375 0.576876,1.7028 1.040508,3.46241 1.3125,5.28125 3.148125,-3.15957 6.342771,-6.4143 6.5,-6.5625 l 5.8125,4.53125 c 0,0 -7.770832,7.00391 -12.59375,12.59375 -0.0025,0.0124 -0.02874,0.0189 -0.03125,0.0312 -0.231176,1.14152 -0.524279,2.25277 -0.875,3.34375 l 14.46875,-7.40625 0.25,-0.125 c 2.200798,-2.46722 3.9375,-4.3125 3.9375,-4.3125 l 6.8125,5.28125 5.40625,-6.96875 c -6.849484,-5.22277 -23.06459,-18.3467 -23.75,-18.4375 -0.440897,-0.0785 -0.973566,-0.0894 -1.53125,-0.0625 z" />
      </g>
    </g>
  </g>
</svg>
