<?xml version="1.0" encoding="UTF-8" standalone="no"?>
<!-- Created with Inkscape (http://www.inkscape.org/) -->

<svg
   xmlns:dc="http://purl.org/dc/elements/1.1/"
   xmlns:cc="http://creativecommons.org/ns#"
   xmlns:rdf="http://www.w3.org/1999/02/22-rdf-syntax-ns#"
   xmlns:svg="http://www.w3.org/2000/svg"
   xmlns="http://www.w3.org/2000/svg"
   xmlns:sodipodi="http://sodipodi.sourceforge.net/DTD/sodipodi-0.dtd"
   xmlns:inkscape="http://www.inkscape.org/namespaces/inkscape"
   width="1000"
   height="1000"
   id="svg3278"
   version="1.1"
   inkscape:version="0.91 r13725"
   sodipodi:docname="panel_graph.svg">
  <defs
     id="defs3280" />
  <sodipodi:namedview
     id="base"
     pagecolor="#ffffff"
     bordercolor="#666666"
     borderopacity="1.0"
     inkscape:pageopacity="0.0"
     inkscape:pageshadow="2"
     inkscape:zoom="0.28337563"
     inkscape:cx="576.72446"
     inkscape:cy="646.69951"
     inkscape:document-units="px"
     inkscape:current-layer="layer1"
     showgrid="false"
     inkscape:window-width="1440"
     inkscape:window-height="826"
     inkscape:window-x="0"
     inkscape:window-y="0"
     inkscape:window-maximized="1" />
  <metadata
     id="metadata3283">
    <rdf:RDF>
      <cc:Work
         rdf:about="">
        <dc:format>image/svg+xml</dc:format>
        <dc:type
           rdf:resource="http://purl.org/dc/dcmitype/StillImage" />
        <dc:title />
      </cc:Work>
    </rdf:RDF>
  </metadata>
  <g
     inkscape:label="Layer 1"
     inkscape:groupmode="layer"
     id="layer1"
     transform="translate(0,-52.362183)">
    <g
       style="display:inline"
       id="g8486"
       transform="matrix(41.547373,0,0,41.547373,-23288.093,-11333.436)"
       inkscape:export-filename="/Users/chyu/Desktop/panels.png"
       inkscape:export-xdpi="300"
       inkscape:export-ydpi="300">
      <g
         id="g8493"
         transform="translate(-5.8244629,-0.3774305)">
        <g
           transform="matrix(1.0420658,0,0,1.0420658,25.0571,-682.52639)"
           id="g3835"
           style="fill:#555753;display:inline" />
        <g
           id="g6493"
           transform="translate(-3.1577835,-0.62744515)">
          <g
             transform="matrix(1.0420658,0,0,1.0420658,25.193263,-682.54943)"
             id="g6486"
             style="fill:#555753;display:inline">
            <path
               style="font-size:medium;font-style:normal;font-variant:normal;font-weight:normal;font-stretch:normal;text-indent:0;text-align:start;text-decoration:none;line-height:normal;letter-spacing:normal;word-spacing:normal;text-transform:none;direction:ltr;block-progression:tb;writing-mode:lr-tb;text-anchor:start;baseline-shift:baseline;color:#000000;fill:#000000;fill-opacity:1;stroke:none;stroke-width:1.85651338;marker:none;visibility:visible;display:inline;overflow:visible;enable-background:accumulate;font-family:Sans;-inkscape-font-specification:Sans"
               d="M 967.01172 34.302734 C 873.75884 33.094801 796.669 119.5092 770.21094 182.45508 C 743.75287 245.40095 732.54412 313.2424 720.09375 377.2832 C 707.64381 441.32401 694.21629 501.38518 677.34766 535.58008 C 660.47902 569.77498 658.10466 571.41081 639.02148 572.11133 C 562.6879 574.91252 527.73924 541.26511 472.45703 486.87305 C 444.81571 459.67723 416.32492 428.43324 376.64453 400.2832 C 336.96458 372.13316 280.77415 347.23962 217.45117 350.22266 C 197.07455 351.18256 178.51148 353.62552 161.50195 357.25781 L 161.50195 176.31055 L 209.54102 176.31055 L 122.55078 38.685547 L 35.560547 176.31055 L 82.302734 176.31055 L 82.302734 387.43359 C 52.981602 404.44977 30.043187 425.39028 9.9941406 446.29102 L 10.339844 637.12109 L 72.271484 639.76172 C 72.271484 639.76172 75.598548 631.25548 82.302734 618.46289 L 82.302734 822.16602 L 161.50195 822.16602 L 161.50195 529.79492 C 180.97681 518.90787 202.65948 512.11362 224.83984 511.22852 C 240.65338 510.59641 249.3314 513.46754 269.06055 527.46484 C 288.79012 541.46128 313.84317 566.56331 344.23633 596.4668 C 405.02221 656.27334 501.92815 737.06819 646.41211 731.76367 C 737.73749 728.41263 805.74592 664.34854 836.5625 601.87891 C 867.37952 539.40928 879.91387 470.81915 892.57422 405.69727 C 905.235 340.57538 917.62152 279.23841 933.84766 240.63477 C 950.07379 202.03113 956.90804 198.83266 967.75 197.33984 L 967.01172 34.302734 z M 866.26953 813.54297 L 866.26953 860.28516 L 79.466797 860.28516 L 79.466797 940.7832 L 866.26953 940.7832 L 866.26953 982.33008 L 1000 897.9375 L 866.26953 813.54297 z "
               transform="matrix(0.0230973,0,0,0.0230973,522.33555,918.94203)"
               id="path3484" />
          </g>
        </g>
      </g>
    </g>
  </g>
</svg>
