<?xml version="1.0" encoding="UTF-8" standalone="no"?>
<!-- Created with Inkscape (http://www.inkscape.org/) -->

<svg
   xmlns:dc="http://purl.org/dc/elements/1.1/"
   xmlns:cc="http://creativecommons.org/ns#"
   xmlns:rdf="http://www.w3.org/1999/02/22-rdf-syntax-ns#"
   xmlns:svg="http://www.w3.org/2000/svg"
   xmlns="http://www.w3.org/2000/svg"
   xmlns:sodipodi="http://sodipodi.sourceforge.net/DTD/sodipodi-0.dtd"
   xmlns:inkscape="http://www.inkscape.org/namespaces/inkscape"
   width="1000"
   height="1000"
   id="svg3278"
   version="1.1"
   inkscape:version="0.48.2 r9819"
   sodipodi:docname="New document 2">
  <defs
     id="defs3280" />
  <sodipodi:namedview
     id="base"
     pagecolor="#ffffff"
     bordercolor="#666666"
     borderopacity="1.0"
     inkscape:pageopacity="0.0"
     inkscape:pageshadow="2"
     inkscape:zoom="0.28337563"
     inkscape:cx="487.14286"
     inkscape:cy="491.42857"
     inkscape:document-units="px"
     inkscape:current-layer="layer1"
     showgrid="false"
     inkscape:window-width="1402"
     inkscape:window-height="856"
     inkscape:window-x="38"
     inkscape:window-y="0"
     inkscape:window-maximized="1" />
  <metadata
     id="metadata3283">
    <rdf:RDF>
      <cc:Work
         rdf:about="">
        <dc:format>image/svg+xml</dc:format>
        <dc:type
           rdf:resource="http://purl.org/dc/dcmitype/StillImage" />
        <dc:title></dc:title>
      </cc:Work>
    </rdf:RDF>
  </metadata>
  <g
     inkscape:label="Layer 1"
     inkscape:groupmode="layer"
     id="layer1"
     transform="translate(0,-52.362183)">
    <g
       style="display:inline"
       id="g10834"
       transform="matrix(41.547373,0,0,41.547373,-11395.714,-30283.848)">
      <rect
         y="730.19397"
         x="274.32452"
         height="24"
         width="23.984699"
         id="rect10750"
         style="fill:none;stroke:none" />
      <g
         style="display:inline"
         id="g10752"
         transform="matrix(0.84482806,0,0,0.84536699,-209.73005,437.97617)">
        <path
           sodipodi:nodetypes="cccccccsssssscccccccccc"
           inkscape:connector-curvature="0"
           id="path10754"
           transform="matrix(1.1836728,0,0,1.1829182,640.95948,314.87501)"
           d="m -53.90625,31.28125 0,16.53125 13.40625,0 c 0,-2.572917 0,-5.145833 0,-7.71875 2.291667,0 4.583333,0 6.875,0 l 0,-8.8125 z m 9.875,0.90625 c 0.08247,-0.01763 0.162594,0 0.25,0 0.699249,0 1.25,0.581557 1.25,1.28125 0,0.699693 -0.550751,1.25 -1.25,1.25 -0.699249,0 -1.25,-0.550307 -1.25,-1.25 0,-0.612232 0.422686,-1.15784 1,-1.28125 z m -7.40625,0.28125 3.3125,0 0,1.96875 -3.3125,0 z m 12,0 3.3125,0 0,1.96875 -3.3125,0 z"
           clip-path="none"
           mask="none"
           style="fill:#000000;stroke:none" />
        <g
           mask="none"
           clip-path="none"
           transform="matrix(1,0,0,0.92587745,27.917889,31.377246)"
           id="g10756" />
        <path
           sodipodi:nodetypes="cccc"
           inkscape:connector-curvature="0"
           id="path10758"
           d="m 594.22289,363.49318 6.94008,0 -6.94008,7.94449 z"
           style="fill:#000000;fill-rule:evenodd;stroke:none" />
        <path
           sodipodi:nodetypes="ccccccccscccccccc"
           inkscape:connector-curvature="0"
           id="path10825"
           transform="matrix(1.1836728,0,0,1.1829182,640.95948,314.87501)"
           d="m -57.375,28.25 0,16.53125 2.46875,0 0,-15.34375 3.3125,0 0,0.84375 3.125,0 c 0.06662,-0.544355 0.442832,-1.012572 0.96875,-1.125 0.08246,-0.01758 0.162594,0 0.25,0 0.644114,0 1.141052,0.500288 1.21875,1.125 l 3.125,0 0,-0.84375 3.3125,0 0,0.84375 2.5,0 0,-2.03125 z"
           clip-path="none"
           mask="none"
           style="fill:#000000;stroke:none" />
      </g>
    </g>
  </g>
</svg>
