<?xml version="1.0" encoding="UTF-8" standalone="no"?>
<!-- Created with Inkscape (http://www.inkscape.org/) -->

<svg
   xmlns:dc="http://purl.org/dc/elements/1.1/"
   xmlns:cc="http://creativecommons.org/ns#"
   xmlns:rdf="http://www.w3.org/1999/02/22-rdf-syntax-ns#"
   xmlns:svg="http://www.w3.org/2000/svg"
   xmlns="http://www.w3.org/2000/svg"
   xmlns:sodipodi="http://sodipodi.sourceforge.net/DTD/sodipodi-0.dtd"
   xmlns:inkscape="http://www.inkscape.org/namespaces/inkscape"
   width="1000"
   height="1000"
   id="svg3278"
   version="1.1"
   inkscape:version="0.91 r13725"
   sodipodi:docname="panel_palette.svg">
  <defs
     id="defs3280" />
  <sodipodi:namedview
     id="base"
     pagecolor="#ffffff"
     bordercolor="#666666"
     borderopacity="1.0"
     inkscape:pageopacity="0.0"
     inkscape:pageshadow="2"
     inkscape:zoom="0.2581887"
     inkscape:cx="484.68009"
     inkscape:cy="492.73278"
     inkscape:document-units="px"
     inkscape:current-layer="g3357"
     showgrid="false"
     inkscape:window-width="1440"
     inkscape:window-height="826"
     inkscape:window-x="0"
     inkscape:window-y="0"
     inkscape:window-maximized="1" />
  <metadata
     id="metadata3283">
    <rdf:RDF>
      <cc:Work
         rdf:about="">
        <dc:format>image/svg+xml</dc:format>
        <dc:type
           rdf:resource="http://purl.org/dc/dcmitype/StillImage" />
        <dc:title />
      </cc:Work>
    </rdf:RDF>
  </metadata>
  <g
     inkscape:label="Layer 1"
     inkscape:groupmode="layer"
     id="layer1"
     transform="translate(0,-52.362183)">
    <g
       style="display:inline"
       id="g3378"
       transform="matrix(8.1752791,0,0,8.1348772,2069.2865,-4176.5379)">
      <g
         transform="translate(-218.56045,-21.916435)"
         id="g3357">
        <g
           transform="matrix(1.0441355,-0.00202442,0.0028173,1.0049224,226.85525,17.320249)"
           id="g3150"
           inkscape:transform-center-x="-8.7471"
           inkscape:transform-center-y="-0.076984698">
          <path
             style="color:#000000;font-style:normal;font-variant:normal;font-weight:normal;font-stretch:normal;font-size:medium;line-height:normal;font-family:Sans;-inkscape-font-specification:Sans;text-indent:0;text-align:start;text-decoration:none;text-decoration-line:none;letter-spacing:normal;word-spacing:normal;text-transform:none;direction:ltr;block-progression:tb;writing-mode:lr-tb;baseline-shift:baseline;text-anchor:start;display:inline;overflow:visible;visibility:visible;fill:#000000;fill-opacity:1;fill-rule:evenodd;stroke:none;stroke-width:3.73020053;marker:none;enable-background:accumulate"
             d="m -176.26368,603.75614 -39.49434,37.08465 c -0.80987,0.76082 -1.66682,1.24716 -2.59045,1.74174 l 76.50712,-0.005 c 3.0908,1.2e-4 5.50879,-5.41825 5.50879,-12.21809 l 0.039,-14.45271 c -10e-6,-6.79984 -2.50393,-12.24046 -5.59473,-12.24046 -11.49299,-0.0688 -22.98385,0.0601 -34.37539,0.0896 z m 34.36853,2.45147 c 0.17766,-1e-5 1.01586,0.31358 1.81962,2.06839 0.80377,1.75482 1.3484,4.55184 1.34838,7.62607 l -0.039,14.45271 c 0.001,3.08543 -0.60448,5.87383 -1.38951,7.62055 -0.78504,1.74672 -1.49539,2.06135 -1.67884,2.06134 l -6.84478,0.002 0.0912,-33.81251 z m -27.6722,0.0761 0.0405,33.76068 -11.71382,0.003 -0.049,-28.05393 6.08403,-5.69427 z m -32.74406,25.3844 0.0652,8.38515 -8.94662,0.003 z"
             id="path3154"
             inkscape:connector-curvature="0"
             sodipodi:nodetypes="cccccccccsccscccccccccccccc" />
        </g>
        <g
           inkscape:transform-center-y="-6.1317542"
           transform="matrix(0.774596,-0.70363736,0.67119493,0.74490838,-252.15106,16.437216)"
           id="g3236"
           inkscape:transform-center-x="-6.7887245">
          <path
             style="color:#000000;font-style:normal;font-variant:normal;font-weight:normal;font-stretch:normal;font-size:medium;line-height:normal;font-family:Sans;-inkscape-font-specification:Sans;text-indent:0;text-align:start;text-decoration:none;text-decoration-line:none;letter-spacing:normal;word-spacing:normal;text-transform:none;direction:ltr;block-progression:tb;writing-mode:lr-tb;baseline-shift:baseline;text-anchor:start;display:inline;overflow:visible;visibility:visible;fill:#000000;fill-opacity:1;fill-rule:evenodd;stroke:none;stroke-width:3.73020053;marker:none;enable-background:accumulate"
             d="m -141.82647,603.77663 -34.45954,0.017 -39.48538,37.05027 c -0.7762,0.7292 -1.62204,1.2222 -2.50364,1.70619 l 76.46011,0.0183 c 3.09079,0 5.51708,-5.52411 5.553,-12.32387 l 0.0755,-14.28417 c 0.0184,-3.47602 -1.45978,-12.12486 -5.64001,-12.18374 z m 0.45536,2.78687 c 2.06847,0.67628 2.68433,6.47336 2.70858,9.41505 l -0.0755,14.28417 c -0.3047,1.90341 -0.95243,8.61679 -3.09214,9.72025 l -6.84897,0.006 0.0907,-33.63229 z m -28.1964,-0.22493 0.0407,33.66714 -11.7087,0.009 -0.0949,-28.10816 5.91877,-5.5734 z m -32.69035,25.27527 0.0277,8.41849 -8.94886,0.007 c 2.9362,-2.85167 5.94356,-5.62163 8.92119,-8.42579 z"
             id="path3240"
             inkscape:connector-curvature="0"
             sodipodi:nodetypes="cccccsscccccccccccccccccc" />
        </g>
        <path
           id="path3196"
           style="display:inline;fill:#000000;fill-opacity:1;stroke:none"
           d="m -13.24575,650.32119 c -3.281553,0.30592 -6.18978,-2.1328 -6.495699,-5.44704 -0.305919,-3.31423 2.106315,-6.24895 5.387869,-6.55486 3.281562,-0.30592 6.1897896,2.1328 6.4957082,5.44703 0.3059186,3.31423 -2.1063142,6.24896 -5.3878782,6.55487 z M -23.388317,547.64072 c -3.356743,31.26714 -6.379869,64.68412 -9.641857,93.38003 -0.693082,6.7525 7.536479,13.16913 18.250524,14.27016 6.023612,0.61901 11.7303136,-0.50751 15.30194225,-2.9373 2.79237965,-1.89966 4.88689415,-4.64601 5.21866975,-7.31939 3.5393532,-34.13786 5.951531,-57.78917 9.646551,-93.44241 0.330965,-3.22612 -4.90502,-6.29835 -11.6679413,-7.00663 l -14.2061607,-1.48781 c -5.167422,-0.54119 -12.472843,0.54841 -12.901728,4.54335 z m 12.641163,-1.95599 14.1179227,1.4504 c 3.0591176,0.31437 5.7689517,1.15166 7.4383453,2.16636 1.669393,1.01469 2.058331,1.91441 2.039303,2.09985 l -0.737264,7.1137 -33.619599,-3.55097 0.727708,-7.0083 c 0.0175,-0.18546 0.404078,-1.07421 2.244764,-1.72819 2.597995,-0.73237 5.178044,-0.80523 7.78882,-0.54285 z m -13.034484,31.1746 33.637756,3.41388 -1.2669195,12.22384 -33.6399065,-3.41412 z m -3.543456,34.1299 33.6439664,3.4146 -1.7394746,16.78345 -33.6418178,-3.45734 c 0.0021,-0.0227 0.0041,-0.0455 0.0062,-0.0682 z"
           inkscape:connector-curvature="0"
           sodipodi:nodetypes="sssssscssccsssccsccccccccccccccccc" />
      </g>
    </g>
  </g>
</svg>
