<?xml version="1.0" encoding="UTF-8" standalone="no"?>
<!-- Created with Inkscape (http://www.inkscape.org/) -->

<svg
   xmlns:dc="http://purl.org/dc/elements/1.1/"
   xmlns:cc="http://creativecommons.org/ns#"
   xmlns:rdf="http://www.w3.org/1999/02/22-rdf-syntax-ns#"
   xmlns:svg="http://www.w3.org/2000/svg"
   xmlns="http://www.w3.org/2000/svg"
   xmlns:sodipodi="http://sodipodi.sourceforge.net/DTD/sodipodi-0.dtd"
   xmlns:inkscape="http://www.inkscape.org/namespaces/inkscape"
   width="1000"
   height="1000"
   id="svg3278"
   version="1.1"
   inkscape:version="0.91 r13725"
   sodipodi:docname="panel_info.svg"
   inkscape:export-filename="/Users/chyu/Source/sif.font/resources/concepts/panel_info.png"
   inkscape:export-xdpi="2.1600001"
   inkscape:export-ydpi="2.1600001">
  <defs
     id="defs3280" />
  <sodipodi:namedview
     id="base"
     pagecolor="#ffffff"
     bordercolor="#666666"
     borderopacity="1.0"
     inkscape:pageopacity="0.0"
     inkscape:pageshadow="2"
     inkscape:zoom="0.64183761"
     inkscape:cx="500.11616"
     inkscape:cy="500.0236"
     inkscape:document-units="px"
     inkscape:current-layer="g5584"
     showgrid="false"
     inkscape:window-width="1440"
     inkscape:window-height="826"
     inkscape:window-x="0"
     inkscape:window-y="0"
     inkscape:window-maximized="1" />
  <metadata
     id="metadata3283">
    <rdf:RDF>
      <cc:Work
         rdf:about="">
        <dc:format>image/svg+xml</dc:format>
        <dc:type
           rdf:resource="http://purl.org/dc/dcmitype/StillImage" />
        <dc:title />
      </cc:Work>
    </rdf:RDF>
  </metadata>
  <g
     inkscape:label="Layer 1"
     inkscape:groupmode="layer"
     id="layer1"
     transform="translate(0,-52.362183)">
    <g
       style="display:inline"
       id="g5584"
       transform="matrix(41.547373,0,0,41.547373,11396.98,-10787.451)"
       inkscape:export-filename="/Users/chyu/Desktop/panels.png"
       inkscape:export-xdpi="300"
       inkscape:export-ydpi="300">
      <path
         style="fill:#000000;fill-opacity:1;stroke:none"
         d="m 168.28125,39 c -6.62815,0 -12,5.37185 -12,12 0,6.62815 5.37185,12 12,12 6.62815,0 12,-5.37185 12,-12 0,-6.62815 -5.37185,-12 -12,-12 z M 169,41.21875 c 1.37348,0 2.5,1.12652 2.5,2.5 0,1.37348 -1.12652,2.46875 -2.5,2.46875 -1.37349,0 -2.46875,-1.09527 -2.46875,-2.46875 0,-1.37348 1.09526,-2.5 2.46875,-2.5 z m 0.4375,6.1875 c 2.13139,-0.03563 2.2489,1.79212 1.28125,4.15625 -1.1059,2.70187 -3.12644,3.84939 -2.59375,5.5 0.36153,0.95059 1.1633,0.71143 2.25,0.15625 0.80025,-0.40884 1.59178,-0.40956 1.8125,0.15625 0.47471,1.21695 -1.06232,2.92689 -3.34375,3.25 -2.24626,0.31812 -4.40498,-0.49391 -4.375,-3.15625 0.0221,-1.9629 0.70127,-3.83689 2,-5.375 2.09268,-2.4784 -2.45256,-0.477804 -2.5625,-1.40625 -0.26591,-2.245564 3.47727,-3.246917 5.53125,-3.28125 z"
         transform="translate(-430.55689,221.93638)"
         id="path5539"
         inkscape:connector-curvature="0"
         sodipodi:nodetypes="sssssssssssscscsssss" />
    </g>
  </g>
</svg>
