<?xml version="1.0" encoding="UTF-8" standalone="no"?>
<!-- Created with Inkscape (http://www.inkscape.org/) -->

<svg
   xmlns:dc="http://purl.org/dc/elements/1.1/"
   xmlns:cc="http://creativecommons.org/ns#"
   xmlns:rdf="http://www.w3.org/1999/02/22-rdf-syntax-ns#"
   xmlns:svg="http://www.w3.org/2000/svg"
   xmlns="http://www.w3.org/2000/svg"
   xmlns:sodipodi="http://sodipodi.sourceforge.net/DTD/sodipodi-0.dtd"
   xmlns:inkscape="http://www.inkscape.org/namespaces/inkscape"
   width="1000"
   height="1000"
   id="svg3278"
   version="1.1"
   inkscape:version="0.91 r13725"
   sodipodi:docname="panel_timetrack.svg">
  <defs
     id="defs3280" />
  <sodipodi:namedview
     id="base"
     pagecolor="#ffffff"
     bordercolor="#666666"
     borderopacity="1.0"
     inkscape:pageopacity="0.0"
     inkscape:pageshadow="2"
     inkscape:zoom="0.64183761"
     inkscape:cx="500.0003"
     inkscape:cy="499.99965"
     inkscape:document-units="px"
     inkscape:current-layer="layer1"
     showgrid="false"
     inkscape:window-width="1440"
     inkscape:window-height="826"
     inkscape:window-x="0"
     inkscape:window-y="0"
     inkscape:window-maximized="1"
     showguides="true"
     inkscape:guide-bbox="true">
    <sodipodi:guide
       position="603.81048,442.32143"
       orientation="1,0"
       id="guide10294" />
    <sodipodi:guide
       position="603.81048,442.32143"
       orientation="0,1"
       id="guide10296" />
  </sodipodi:namedview>
  <metadata
     id="metadata3283">
    <rdf:RDF>
      <cc:Work
         rdf:about="">
        <dc:format>image/svg+xml</dc:format>
        <dc:type
           rdf:resource="http://purl.org/dc/dcmitype/StillImage" />
        <dc:title />
      </cc:Work>
    </rdf:RDF>
  </metadata>
  <g
     inkscape:label="Layer 1"
     inkscape:groupmode="layer"
     id="layer1"
     transform="translate(0,-52.362183)">
    <g
       style="display:inline"
       transform="matrix(41.547373,0,0,41.547373,-22671.893,-14755.481)"
       id="g3791"
       inkscape:export-filename="/Users/chyu/Desktop/panels.png"
       inkscape:export-xdpi="300"
       inkscape:export-ydpi="300">
      <rect
         style="fill:none;stroke:none;display:inline"
         id="rect3793"
         width="24"
         height="24"
         x="545.72223"
         y="356.44312"
         ry="0" />
      <g
         id="g3816"
         transform="translate(-12.653207,0.21010476)">
        <path
           style="font-size:medium;font-style:normal;font-variant:normal;font-weight:normal;font-stretch:normal;text-indent:0;text-align:start;text-decoration:none;line-height:normal;letter-spacing:normal;word-spacing:normal;text-transform:none;direction:ltr;block-progression:tb;writing-mode:lr-tb;text-anchor:start;baseline-shift:baseline;color:#000000;fill:none;stroke:none;stroke-width:1;marker:none;visibility:visible;display:inline;overflow:visible;enable-background:accumulate;font-family:Sans;-inkscape-font-specification:Sans"
           d="m 569.89936,360.29072 0.0886,0 9.45767,0 c -0.2428,4.73338 -1.2667,8.98782 -2.78778,12.01363 -1.73545,3.45224 -4.83415,5.06763 -6.66989,5.06763 -4.76889,0 -8.60508,-3.80099 -8.60508,-8.54463 0,-4.71344 3.78987,-8.48867 8.51646,-8.53663 z"
           id="path3795"
           inkscape:connector-curvature="0"
           sodipodi:nodetypes="cccssscc"
           inkscape:transform-center-x="-0.917042"
           inkscape:transform-center-y="0.60471455" />
        <path
           id="path3801"
           transform="matrix(1.3338219,-0.00180719,0.00290082,2.1410007,-220.65229,-396.66468)"
           style="fill:#000000;stroke:none"
           d="m 593.16625,357.76077 c 0,0.40506 -0.5313,0.73342 -1.1867,0.73342 -0.65539,0 -1.18669,-0.32836 -1.18669,-0.73342 10e-6,-0.40505 0.5313,-0.73341 1.18669,-0.73341 0.65539,0 1.18669,0.32836 1.1867,0.73341 z m 1.19764,-2.33018 -1.4877,1.00998 c -0.50803,-0.13546 -1.0756,-0.18421 -1.64294,-0.0786 -0.66278,0.12345 -1.16536,0.42009 -1.45502,0.77699 l -0.97664,0.0279 c -0.65582,0.0125 -1.16602,0.3343 -1.14576,0.73961 0.0203,0.40531 0.57094,0.71505 1.22676,0.70252 l 0.9857,-0.009 c 0.56415,0.56496 1.82651,0.8379 2.76728,0.63822 1.51059,-0.32063 2.00452,-1.11895 1.47646,-2.07629 l 1.52679,-0.99698 c 0.32681,-0.21486 0.30725,-0.60959 -0.0759,-0.78116 -0.38315,-0.17157 -0.88063,-0.15653 -1.19902,0.0468 z m 6.82618,-3.03209 -8.64528,0.007 -0.004,1.64935 6.53666,0.006 c -0.18685,2.21067 -0.9539,4.19078 -2.09736,5.60309 -1.14154,1.40992 -3.07174,2.1663 -4.45657,2.33159 l -0.003,1.28445 c 6.17163,-0.18615 7.86731,-3.78198 8.30582,-5.51027 0.40332,-1.83206 0.37973,-3.73107 0.36373,-5.37121 z m -9.7699,0.0209 c -4.53582,0.1791 -8.14146,2.50123 -8.14147,5.34985 -4.4e-4,2.87476 1.96062,5.34163 8.11785,5.50954 l 0.003,-1.26985 c -3.305,-0.18015 -5.87657,-1.87885 -5.87201,-3.97506 0.005,-2.09336 2.58985,-3.78697 5.88928,-3.96514 l 0.004,-1.64934 z"
           inkscape:connector-curvature="0"
           sodipodi:nodetypes="sssssccccccccscczcccccsccccccccccccc" />
      </g>
    </g>
  </g>
</svg>
