<?xml version="1.0" encoding="UTF-8" standalone="no"?>
<!-- Created with Inkscape (http://www.inkscape.org/) -->

<svg
   xmlns:dc="http://purl.org/dc/elements/1.1/"
   xmlns:cc="http://creativecommons.org/ns#"
   xmlns:rdf="http://www.w3.org/1999/02/22-rdf-syntax-ns#"
   xmlns:svg="http://www.w3.org/2000/svg"
   xmlns="http://www.w3.org/2000/svg"
   xmlns:sodipodi="http://sodipodi.sourceforge.net/DTD/sodipodi-0.dtd"
   xmlns:inkscape="http://www.inkscape.org/namespaces/inkscape"
   width="1000"
   height="1000"
   id="svg3278"
   version="1.1"
   inkscape:version="0.91 r13725"
   sodipodi:docname="panel_keyframe.svg">
  <defs
     id="defs3280" />
  <sodipodi:namedview
     id="base"
     pagecolor="#ffffff"
     bordercolor="#666666"
     borderopacity="1.0"
     inkscape:pageopacity="0.0"
     inkscape:pageshadow="2"
     inkscape:zoom="0.64183761"
     inkscape:cx="531.16044"
     inkscape:cy="531.16017"
     inkscape:document-units="px"
     inkscape:current-layer="g5789"
     showgrid="false"
     inkscape:window-width="1440"
     inkscape:window-height="826"
     inkscape:window-x="0"
     inkscape:window-y="0"
     inkscape:window-maximized="1" />
  <metadata
     id="metadata3283">
    <rdf:RDF>
      <cc:Work
         rdf:about="">
        <dc:format>image/svg+xml</dc:format>
        <dc:type
           rdf:resource="http://purl.org/dc/dcmitype/StillImage" />
        <dc:title />
      </cc:Work>
    </rdf:RDF>
  </metadata>
  <g
     inkscape:label="Layer 1"
     inkscape:groupmode="layer"
     id="layer1"
     transform="translate(0,-52.362183)">
    <g
       style="display:inline"
       id="g5789"
       transform="matrix(41.541634,0,0,41.547373,10187.905,-11456.048)"
       inkscape:export-filename="/Users/chyu/Desktop/panels.png"
       inkscape:export-xdpi="300"
       inkscape:export-ydpi="300">
      <path
         id="path12315"
         transform="matrix(1.0001382,0,0,1,-245.20954,238.02823)"
         style="fill:#000000;stroke:none"
         d="m 16.21875,39.0625 c -1.66355,0.0408 -3.356691,0.69902 -4.59375,2 -1.6265554,1.71046 -2.11004,4.09634 -1.53125,6.21875 l -8.375,8.8125 1.03125,2.4375 7.4375,-7.8125 c -0.4115331,-2.27072 0.0672,-4.69753 1.78125,-6.5 1.434982,-1.50912 3.370784,-2.2656 5.28125,-2.3125 1.914016,-0.04695 3.849067,0.64075 5.34375,2.0625 -0.283596,-3.017198 -3.846652,-4.93194 -6.375,-4.90625 z m 1.0625,3.84375 c -1.66355,0.0408 -3.356691,0.69902 -4.59375,2 -1.626555,1.71046 -2.11004,4.09634 -1.53125,6.21875 l -8.375,8.8125 1.1875,2.8125 c 0,0 3.4958524,0.54859 3.875,-0.1875 0.4258612,-0.82676 -0.6246051,-2.23634 0.0625,-2.78125 0.6871651,-0.54492 1.4731032,1.06015 2.4375,0.5 0.964397,-0.56017 0.248144,-4.00691 1.21875,-4.03125 1.055914,0.19406 1.854164,0.96457 2.75,1.5 L 16.25,55.78125 c 2.085092,0.38116 4.336437,-0.2242 5.90625,-1.875 2.474148,-2.60179 2.351411,-6.74427 -0.25,-9.21875 -1.30072,-1.23725 -2.96145,-1.82206 -4.625,-1.78125 z m 0.9375,3.25 c 1.262236,0 2.28125,1.01883 2.28125,2.28125 0,1.26242 -1.019014,2.28125 -2.28125,2.28125 -1.262256,0 -2.28125,-1.01883 -2.28125,-2.28125 0,-1.26242 1.018994,-2.28125 2.28125,-2.28125 z"
         inkscape:connector-curvature="0"
         sodipodi:nodetypes="ccccccccccsccccscccccssssssss" />
    </g>
  </g>
</svg>
