<?xml version="1.0" encoding="UTF-8" standalone="no"?>
<!-- Created with Inkscape (http://www.inkscape.org/) -->

<svg
   xmlns:dc="http://purl.org/dc/elements/1.1/"
   xmlns:cc="http://creativecommons.org/ns#"
   xmlns:rdf="http://www.w3.org/1999/02/22-rdf-syntax-ns#"
   xmlns:svg="http://www.w3.org/2000/svg"
   xmlns="http://www.w3.org/2000/svg"
   xmlns:sodipodi="http://sodipodi.sourceforge.net/DTD/sodipodi-0.dtd"
   xmlns:inkscape="http://www.inkscape.org/namespaces/inkscape"
   width="1000"
   height="1000"
   id="svg3278"
   version="1.1"
   inkscape:version="0.91 r13725"
   sodipodi:docname="panel_metadata.svg"
   inkscape:export-filename="/Users/chyu/Source/sif.font/resources/concepts/panel_metadata.png"
   inkscape:export-xdpi="2.1600001"
   inkscape:export-ydpi="2.1600001">
  <defs
     id="defs3280" />
  <sodipodi:namedview
     id="base"
     pagecolor="#ffffff"
     bordercolor="#666666"
     borderopacity="1.0"
     inkscape:pageopacity="0.0"
     inkscape:pageshadow="2"
     inkscape:zoom="0.65925834"
     inkscape:cx="500.35673"
     inkscape:cy="509.53865"
     inkscape:document-units="px"
     inkscape:current-layer="g5933"
     showgrid="false"
     inkscape:window-width="1440"
     inkscape:window-height="826"
     inkscape:window-x="0"
     inkscape:window-y="0"
     inkscape:window-maximized="1" />
  <metadata
     id="metadata3283">
    <rdf:RDF>
      <cc:Work
         rdf:about="">
        <dc:format>image/svg+xml</dc:format>
        <dc:type
           rdf:resource="http://purl.org/dc/dcmitype/StillImage" />
        <dc:title />
      </cc:Work>
    </rdf:RDF>
  </metadata>
  <g
     inkscape:label="Layer 1"
     inkscape:groupmode="layer"
     id="layer1"
     transform="translate(0,-52.362183)">
    <g
       style="display:inline"
       id="g5933"
       transform="matrix(41.547373,0,0,41.547373,16502.149,-6482.8799)"
       inkscape:export-filename="/Users/chyu/Desktop/panels.png"
       inkscape:export-xdpi="300"
       inkscape:export-ydpi="300">
      <path
         id="path12288"
         transform="translate(-436.22321,118.32949)"
         style="color:#000000;font-style:normal;font-variant:normal;font-weight:normal;font-stretch:normal;font-size:medium;line-height:normal;font-family:Sans;-inkscape-font-specification:Sans;text-indent:0;text-align:start;text-decoration:none;text-decoration-line:none;letter-spacing:normal;word-spacing:normal;text-transform:none;direction:ltr;block-progression:tb;writing-mode:lr-tb;baseline-shift:baseline;text-anchor:start;display:inline;overflow:visible;visibility:visible;fill:#000000;fill-opacity:1;stroke:none;stroke-width:8;marker:none;enable-background:accumulate"
         d="M 47.84375,42.15625 39.125,50.9375 40.0625,51.875 c 2.566033,-2.569384 5.119791,-5.151041 7.6875,-7.71875 0,0 1.1009,-0.76571 2.53125,-1.5625 1.43035,-0.79679 3.177669,-1.715341 4.875,-1.75 1.955978,0.19214 3.358367,1.624658 4.5,2.9375 0.0031,-0.08422 0.0098,-0.17008 0,-0.25 -0.0867,-0.55591 -1.02354,-1.81217 -2.09375,-2.84375 -0.83239,-0.80234 -1.767919,-1.520527 -2.34375,-1.59375 -2.629412,-0.110194 -5.268712,1.580355 -7.375,3.0625 z m 7.4956,4.88592 c 0.04,0.40779 0.44739,0.74243 0.85518,0.70243 1.14439,0.0575 1.83014,0.28763 2.74863,0.91621 0.78621,0.53804 1.15648,1.48395 1.19108,1.89351 0.0324,0.38249 -0.17693,1.27242 -0.36648,2.22945 -0.18956,0.95703 -0.36383,2.04961 0.1527,3.08458 0.56061,1.12333 1.23284,1.70954 2.25111,1.78106 0.40779,0.04 0.81521,-0.29463 0.85519,-0.70242 0.04,-0.40778 -0.29469,-0.81519 -0.70248,-0.85514 -0.61837,-0.0648 -0.74235,-0.3812 -0.99896,-0.89539 -0.23584,-0.47255 -0.2018,-1.24265 -0.0305,-2.10729 0.17126,-0.86464 0.47435,-1.74144 0.39702,-2.65701 -0.0825,-0.97658 -0.63205,-2.21166 -1.86296,-3.05405 -1.09861,-0.75184 -2.21669,-1.0897 -3.57323,-1.19107 -0.49738,-0.0372 -0.93926,0.49645 -0.9163,0.85513 z M 55.19674,41.8702 c -2.68944,0.10668 -6.84106,3.11512 -6.84106,3.11512 l -8.73456,8.7651 8.70402,8.70402 8.7651,-8.7651 c 0,0 1.22452,-1.74017 2.13783,-3.69539 -0.57381,-1.05553 -1.82174,-1.4705 -2.71809,-1.55756 -0.80123,0.7503 -2.05826,0.75142 -2.84026,-0.0305 -0.79819,-0.79819 -0.79819,-2.10315 0,-2.90134 0.79818,-0.79819 2.10315,-0.79819 2.90134,0 1.32471,0.10686 2.51167,0.51798 3.60377,1.25215 9.7e-4,-0.13921 0.016,-0.26715 0,-0.39702 -0.0867,-0.55591 -1.03708,-1.80868 -2.10729,-2.84026 -0.83239,-0.80234 -1.74306,-1.46362 -2.35161,-1.61864 -0.16475,-0.0203 -0.3399,-0.0376 -0.51919,-0.0305 z" />
    </g>
  </g>
</svg>
