<?xml version="1.0" encoding="UTF-8" standalone="no"?>
<!-- Created with Inkscape (http://www.inkscape.org/) -->

<svg
   xmlns:dc="http://purl.org/dc/elements/1.1/"
   xmlns:cc="http://creativecommons.org/ns#"
   xmlns:rdf="http://www.w3.org/1999/02/22-rdf-syntax-ns#"
   xmlns:svg="http://www.w3.org/2000/svg"
   xmlns="http://www.w3.org/2000/svg"
   xmlns:sodipodi="http://sodipodi.sourceforge.net/DTD/sodipodi-0.dtd"
   xmlns:inkscape="http://www.inkscape.org/namespaces/inkscape"
   width="1000"
   height="1000"
   id="svg3278"
   version="1.1"
   inkscape:version="0.48.2 r9819"
   sodipodi:docname="panel_history.svg">
  <defs
     id="defs3280" />
  <sodipodi:namedview
     id="base"
     pagecolor="#ffffff"
     bordercolor="#666666"
     borderopacity="1.0"
     inkscape:pageopacity="0.0"
     inkscape:pageshadow="2"
     inkscape:zoom="0.28337563"
     inkscape:cx="90.632509"
     inkscape:cy="491.42857"
     inkscape:document-units="px"
     inkscape:current-layer="layer1"
     showgrid="false"
     inkscape:window-width="1402"
     inkscape:window-height="856"
     inkscape:window-x="38"
     inkscape:window-y="0"
     inkscape:window-maximized="1" />
  <metadata
     id="metadata3283">
    <rdf:RDF>
      <cc:Work
         rdf:about="">
        <dc:format>image/svg+xml</dc:format>
        <dc:type
           rdf:resource="http://purl.org/dc/dcmitype/StillImage" />
        <dc:title></dc:title>
      </cc:Work>
    </rdf:RDF>
  </metadata>
  <g
     inkscape:label="Layer 1"
     inkscape:groupmode="layer"
     id="layer1"
     transform="translate(0,-52.362183)">
    <g
       style="display:inline"
       id="g5933"
       transform="matrix(41.547373,0,0,41.547373,16502.149,-6482.8799)"
       inkscape:export-filename="/Users/chyu/Desktop/panels.png"
       inkscape:export-xdpi="300"
       inkscape:export-ydpi="300">
      <rect
         y="157.33061"
         x="-397.1543"
         height="24"
         width="24"
         id="rect5931"
         style="fill:none;stroke:none" />
      <path
         inkscape:connector-curvature="0"
         style="font-size:medium;font-style:normal;font-variant:normal;font-weight:normal;font-stretch:normal;text-indent:0;text-align:start;text-decoration:none;line-height:normal;letter-spacing:normal;word-spacing:normal;text-transform:none;direction:ltr;block-progression:tb;writing-mode:lr-tb;text-anchor:start;baseline-shift:baseline;color:#000000;fill:#000000;fill-opacity:1;stroke:none;stroke-width:8;marker:none;visibility:visible;display:inline;overflow:visible;enable-background:accumulate;font-family:Sans;-inkscape-font-specification:Sans"
         d="m -381.02647,160.19969 c -2.68944,0.10668 -6.84106,3.11512 -6.84106,3.11512 l -8.73456,8.7651 8.70402,8.70402 8.7651,-8.7651 c 0,0 1.22452,-1.74017 2.13783,-3.69539 -0.15339,-0.28042 -0.37607,-0.59161 -0.67188,-0.79405 -0.73981,-0.5063 -1.22637,-0.68948 -2.04621,-0.76351 -0.80123,0.7503 -2.05826,0.75142 -2.84026,-0.0305 -0.79819,-0.79819 -0.79819,-2.10315 0,-2.90134 0.79818,-0.79819 2.10315,-0.79819 2.90134,0 1.32471,0.10686 2.51167,0.51798 3.60377,1.25215 9.7e-4,-0.13921 0.016,-0.26715 0,-0.39702 -0.0867,-0.55591 -1.03708,-1.80868 -2.10729,-2.84026 -0.83239,-0.80234 -1.74306,-1.46362 -2.35161,-1.61864 -0.16475,-0.0203 -0.3399,-0.0376 -0.51919,-0.0305 z"
         id="path10030" />
      <path
         style="font-size:medium;font-style:normal;font-variant:normal;font-weight:normal;font-stretch:normal;text-indent:0;text-align:start;text-decoration:none;line-height:normal;letter-spacing:normal;word-spacing:normal;text-transform:none;direction:ltr;block-progression:tb;writing-mode:lr-tb;text-anchor:start;baseline-shift:baseline;color:#000000;fill:#000000;fill-opacity:1;stroke:none;stroke-width:1.60000002;marker:none;visibility:visible;display:inline;overflow:visible;enable-background:accumulate;font-family:Sans;-inkscape-font-specification:Sans"
         d="m -380.18139,164.51653 c -0.40778,0.04 -0.74246,0.44735 -0.70247,0.85513 0.04,0.40779 0.44739,0.74243 0.85518,0.70243 1.14439,0.0575 1.83014,0.28763 2.74863,0.91621 0.78621,0.53804 1.15648,1.48395 1.19108,1.89351 0.0324,0.38249 -0.17693,1.27242 -0.36648,2.22945 -0.18956,0.95703 -0.36383,2.04961 0.1527,3.08458 0.56061,1.12333 1.23284,1.70954 2.25111,1.78106 0.40779,0.04 0.81521,-0.29463 0.85519,-0.70242 0.04,-0.40778 -0.29469,-0.81519 -0.70248,-0.85514 -0.61837,-0.0648 -0.74235,-0.3812 -0.99896,-0.89539 -0.23584,-0.47255 -0.2018,-1.24265 -0.0305,-2.10729 0.17126,-0.86464 0.47435,-1.74144 0.39702,-2.65701 -0.0825,-0.97658 -0.63205,-2.21166 -1.86296,-3.05405 -1.09861,-0.75184 -2.21462,-1.12286 -3.57323,-1.19107 -0.0709,-0.01 -0.14297,-0.01 -0.21379,0 z"
         id="path10038"
         inkscape:connector-curvature="0"
         sodipodi:nodetypes="cscscsscscscssccc" />
      <path
         style="font-size:medium;font-style:normal;font-variant:normal;font-weight:normal;font-stretch:normal;text-indent:0;text-align:start;text-decoration:none;line-height:normal;letter-spacing:normal;word-spacing:normal;text-transform:none;direction:ltr;block-progression:tb;writing-mode:lr-tb;text-anchor:start;baseline-shift:baseline;color:#000000;fill:#000000;fill-opacity:1;stroke:none;stroke-width:8;marker:none;visibility:visible;display:inline;overflow:visible;enable-background:accumulate;font-family:Sans;-inkscape-font-specification:Sans"
         d="m 54.6875,39.0625 c -2.68944,0.10668 -6.84375,3.09375 -6.84375,3.09375 L 39.125,50.9375 40.0625,51.875 47.65625,44.25 47.6875,44.21875 47.75,44.15625 c 0,0 1.1009,-0.76571 2.53125,-1.5625 1.43035,-0.79679 3.17865,-1.6827 4.875,-1.75 0.395741,-0.0025 0.983863,0.171956 1.03125,0.1875 0.933088,0.30608 1.7356,0.95295 2.5625,1.75 0.327518,0.3157 0.617898,0.669042 0.90625,1 0.0031,-0.08422 0.0098,-0.17008 0,-0.25 C 59.56955,42.97534 58.63271,41.71908 57.5625,40.6875 56.73011,39.88516 55.8273,39.24877 55.21875,39.09375 55.054,39.07345 54.86679,39.0554 54.6875,39.0625 z"
         transform="translate(-436.22321,118.32949)"
         id="path12288"
         inkscape:connector-curvature="0"
         sodipodi:nodetypes="cccccccscssccscc" />
    </g>
  </g>
</svg>
