<?xml version="1.0" encoding="UTF-8" standalone="no"?>
<!-- Created with Inkscape (http://www.inkscape.org/) -->

<svg
   xmlns:dc="http://purl.org/dc/elements/1.1/"
   xmlns:cc="http://creativecommons.org/ns#"
   xmlns:rdf="http://www.w3.org/1999/02/22-rdf-syntax-ns#"
   xmlns:svg="http://www.w3.org/2000/svg"
   xmlns="http://www.w3.org/2000/svg"
   xmlns:sodipodi="http://sodipodi.sourceforge.net/DTD/sodipodi-0.dtd"
   xmlns:inkscape="http://www.inkscape.org/namespaces/inkscape"
   width="1000"
   height="1000"
   id="svg3446"
   version="1.1"
   inkscape:version="0.91 r13725"
   sodipodi:docname="pencil-2.svg"
   inkscape:export-filename="/Users/chyu/Source/sif.font/resources/concepts/toolbox_sketch.png"
   inkscape:export-xdpi="2.1600001"
   inkscape:export-ydpi="2.1600001">
  <defs
     id="defs3448" />
  <sodipodi:namedview
     id="base"
     pagecolor="#ffffff"
     bordercolor="#666666"
     borderopacity="1.0"
     inkscape:pageopacity="0.0"
     inkscape:pageshadow="2"
     inkscape:zoom="0.38834388"
     inkscape:cx="526.32512"
     inkscape:cy="516.35868"
     inkscape:document-units="px"
     inkscape:current-layer="g24823"
     showgrid="false"
     inkscape:window-width="987"
     inkscape:window-height="754"
     inkscape:window-x="58"
     inkscape:window-y="20"
     inkscape:window-maximized="0"
     showguides="true"
     inkscape:guide-bbox="true" />
  <metadata
     id="metadata3451">
    <rdf:RDF>
      <cc:Work
         rdf:about="">
        <dc:format>image/svg+xml</dc:format>
        <dc:type
           rdf:resource="http://purl.org/dc/dcmitype/StillImage" />
        <dc:title />
      </cc:Work>
    </rdf:RDF>
  </metadata>
  <g
     inkscape:label="Layer 1"
     inkscape:groupmode="layer"
     id="layer1"
     transform="translate(0,-52.362183)">
    <g
       transform="matrix(-0.41421771,-7.1044675,7.367082,0.42952914,-4098.5045,-1560.1037)"
       id="g24821">
      <g
         transform="matrix(0.70710678,-0.68190054,0.73324476,0.70710678,-522.82722,-0.06897377)"
         id="g24823">
        <path
           style="color:#000000;font-style:normal;font-variant:normal;font-weight:normal;font-stretch:normal;font-size:medium;line-height:normal;font-family:Sans;-inkscape-font-specification:Sans;text-indent:0;text-align:start;text-decoration:none;text-decoration-line:none;letter-spacing:normal;word-spacing:normal;text-transform:none;direction:ltr;block-progression:tb;writing-mode:lr-tb;baseline-shift:baseline;text-anchor:start;display:inline;overflow:visible;visibility:visible;fill:#000000;fill-opacity:1;stroke:none;stroke-width:2;marker:none;enable-background:accumulate"
           d="M 724.97656 13.742188 C 700.78082 13.994486 689.87695 24.822266 689.87695 24.822266 L 569.02344 145.67773 L 854.32422 430.97656 L 975.17773 310.12305 C 975.17773 310.12305 1031.7499 253.15807 889.29688 110.70508 C 809.16786 30.576073 756.08537 13.417803 724.97656 13.742188 z M 729.64648 70.744141 C 730.59079 70.728609 732.0039 70.811312 734.21875 71.064453 C 747.19283 72.547778 785.41552 84.241694 850.58789 149.41406 C 915.76101 214.58718 927.45239 252.80959 928.93555 265.7832 C 929.61079 271.68938 929.07336 271.90331 928.69531 272.68945 L 851.07812 350.30664 L 649.69531 148.92383 L 727.3125 71.304688 C 727.80406 71.068319 728.07265 70.770027 729.64648 70.744141 z M 539.57227 175.12695 L 87.693359 627.00586 L 22.351562 841.44141 L 158.55859 977.65039 L 372.99414 912.30664 L 824.87305 460.42773 L 539.57227 175.12695 z M 224.82227 602.1582 L 211.01758 790.82422 L 397.84375 775.17773 L 387.71875 827.63672 L 337.10156 876.41406 L 166.8418 928.87305 C 135.25822 894.368 103.43737 865.46862 71.126953 833.1582 L 123.58594 662.89844 L 172.36328 612.28125 L 224.82227 602.1582 z M 17.976562 859.74609 C 13.877353 882.8008 8.6345201 913.41315 6.3613281 923.86133 C -2.2586274 963.47932 -3.4883359 969.20112 13.65625 986.3457 C 30.800836 1003.4903 36.522632 1002.2606 76.140625 993.64062 C 86.588807 991.36743 117.2012 986.12455 140.25586 982.02539 L 17.976562 859.74609 z "
           transform="matrix(-0.0940466,0.10192453,-0.0940466,-0.10192453,-167.45325,609.95324)"
           id="path4139" />
      </g>
      <g
         id="g24829"
         transform="matrix(-0.70710678,0.68190054,0.73324476,0.70710678,-892.64392,356.56487)" />
    </g>
  </g>
</svg>
