<?xml version="1.0" encoding="UTF-8" standalone="no"?>
<!-- Created with Inkscape (http://www.inkscape.org/) -->

<svg
   xmlns:dc="http://purl.org/dc/elements/1.1/"
   xmlns:cc="http://creativecommons.org/ns#"
   xmlns:rdf="http://www.w3.org/1999/02/22-rdf-syntax-ns#"
   xmlns:svg="http://www.w3.org/2000/svg"
   xmlns="http://www.w3.org/2000/svg"
   xmlns:sodipodi="http://sodipodi.sourceforge.net/DTD/sodipodi-0.dtd"
   xmlns:inkscape="http://www.inkscape.org/namespaces/inkscape"
   width="1000"
   height="1000"
   id="svg3446"
   version="1.1"
   inkscape:version="0.91 r13725"
   sodipodi:docname="toolbox_draw.svg"
   inkscape:export-filename="/Users/chyu/Source/sif.font/resources/concepts/toolbox_draw.png"
   inkscape:export-xdpi="2.1600001"
   inkscape:export-ydpi="2.1600001">
  <defs
     id="defs3448" />
  <sodipodi:namedview
     id="base"
     pagecolor="#ffffff"
     bordercolor="#666666"
     borderopacity="1.0"
     inkscape:pageopacity="0.0"
     inkscape:pageshadow="2"
     inkscape:zoom="0.38942979"
     inkscape:cx="458.73628"
     inkscape:cy="460.75156"
     inkscape:document-units="px"
     inkscape:current-layer="layer1"
     showgrid="false"
     inkscape:window-width="987"
     inkscape:window-height="754"
     inkscape:window-x="58"
     inkscape:window-y="20"
     inkscape:window-maximized="0"
     showguides="true"
     inkscape:guide-bbox="true" />
  <metadata
     id="metadata3451">
    <rdf:RDF>
      <cc:Work
         rdf:about="">
        <dc:format>image/svg+xml</dc:format>
        <dc:type
           rdf:resource="http://purl.org/dc/dcmitype/StillImage" />
        <dc:title />
      </cc:Work>
    </rdf:RDF>
  </metadata>
  <g
     inkscape:label="Layer 1"
     inkscape:groupmode="layer"
     id="layer1"
     transform="translate(0,-52.362183)">
    <g
       id="g24798"
       transform="matrix(33.077968,33.07791,-29.43332,29.433269,27883.627,-7711.6301)">
      <g
         style="fill:#2e3436"
         transform="matrix(-0.11358513,-0.11358513,0.11778377,-0.11778377,-390.39135,647.77322)"
         id="g4008">
        <g
           style="fill:#2e3436"
           transform="matrix(0.70710678,-0.68190054,0.73324476,0.70710678,-522.82722,-0.06897377)"
           id="g24779">
          <path
             sodipodi:nodetypes="cccccczccccccccccc"
             inkscape:connector-curvature="0"
             id="path24747"
             transform="matrix(-6.1149205,0,-1.2626709e-8,-5.8969419,288.84301,1139.3014)"
             d="m 85.625,77.40625 0,21.6875 2.28125,4.84375 4.1875,0 2.28125,-4.84375 0,-21.6875 c -1.0901,-0.792073 -2.685259,-1.101263 -4.581529,-1.09535 -1.89627,0.0059 -3.180259,0.191553 -4.168471,1.09535 z m 1.71875,18.875 2.6875,3.5 2.625,-3.5 0.65625,1.09375 -0.03125,1.71875 -1.8125,3.84375 c -1.016433,-0.0505 -1.943641,0 -2.9375,0 L 86.71875,99.09375 86.6875,97.375 Z"
             style="color:#000000;font-style:normal;font-variant:normal;font-weight:normal;font-stretch:normal;font-size:medium;line-height:normal;font-family:Sans;-inkscape-font-specification:Sans;text-indent:0;text-align:start;text-decoration:none;text-decoration-line:none;letter-spacing:normal;word-spacing:normal;text-transform:none;direction:ltr;block-progression:tb;writing-mode:lr-tb;baseline-shift:baseline;text-anchor:start;display:inline;overflow:visible;visibility:visible;fill:#000000;fill-opacity:1;stroke:none;stroke-width:2;marker:none;enable-background:accumulate" />
          <path
             id="path4017"
             d="m -273,524.15625 23,0 c -1.7827,-2.76767 -4.16867,-6.42211 -4.9375,-7.71875 -2.91526,-4.9166 -3.33772,-5.625 -6.5625,-5.625 -3.22478,0 -3.64724,0.7084 -6.5625,5.625 -0.76883,1.29664 -3.1548,4.95108 -4.9375,7.71875 z"
             style="fill:#000000;fill-rule:evenodd;stroke:none"
             inkscape:connector-curvature="0"
             sodipodi:nodetypes="ccsssc" />
        </g>
        <g
           style="fill:#2e3436"
           id="g24783"
           transform="matrix(-0.70710678,0.68190054,0.73324476,0.70710678,-892.64392,356.56487)" />
      </g>
    </g>
  </g>
</svg>
