<?xml version="1.0" encoding="UTF-8" standalone="no"?>
<!-- Created with Inkscape (http://www.inkscape.org/) -->

<svg
   xmlns:dc="http://purl.org/dc/elements/1.1/"
   xmlns:cc="http://creativecommons.org/ns#"
   xmlns:rdf="http://www.w3.org/1999/02/22-rdf-syntax-ns#"
   xmlns:svg="http://www.w3.org/2000/svg"
   xmlns="http://www.w3.org/2000/svg"
   xmlns:sodipodi="http://sodipodi.sourceforge.net/DTD/sodipodi-0.dtd"
   xmlns:inkscape="http://www.inkscape.org/namespaces/inkscape"
   width="1000"
   height="1000"
   id="svg3446"
   version="1.1"
   inkscape:version="0.48.2 r9819"
   sodipodi:docname="toolbox_retangle.svg">
  <defs
     id="defs3448" />
  <sodipodi:namedview
     id="base"
     pagecolor="#ffffff"
     bordercolor="#666666"
     borderopacity="1.0"
     inkscape:pageopacity="0.0"
     inkscape:pageshadow="2"
     inkscape:zoom="0.12374369"
     inkscape:cx="335.2343"
     inkscape:cy="586.94702"
     inkscape:document-units="px"
     inkscape:current-layer="layer1"
     showgrid="false"
     inkscape:window-width="987"
     inkscape:window-height="754"
     inkscape:window-x="58"
     inkscape:window-y="20"
     inkscape:window-maximized="0"
     showguides="true"
     inkscape:guide-bbox="true" />
  <metadata
     id="metadata3451">
    <rdf:RDF>
      <cc:Work
         rdf:about="">
        <dc:format>image/svg+xml</dc:format>
        <dc:type
           rdf:resource="http://purl.org/dc/dcmitype/StillImage" />
        <dc:title></dc:title>
      </cc:Work>
    </rdf:RDF>
  </metadata>
  <g
     inkscape:label="Layer 1"
     inkscape:groupmode="layer"
     id="layer1"
     transform="translate(0,-52.362183)">
    <g
       style="display:inline"
       id="g4770"
       transform="matrix(-41.649122,0,0,41.649122,-11093.478,-16100.187)"
       inkscape:export-filename="/Users/chyu/Desktop/tools-0.png"
       inkscape:export-xdpi="74.745888"
       inkscape:export-ydpi="74.745888">
      <rect
         y="387.82953"
         x="-290.36069"
         height="24"
         width="24"
         id="rect4750"
         style="fill:none;stroke:none" />
      <path
         style="fill:#000000;fill-opacity:1;stroke:none"
         d="m -4.375,27 c -6.35127,0 -11.5,5.14873 -11.5,11.5 0,6.35127 5.14873,11.5 11.5,11.5 6.35127,0 11.5,-5.14873 11.5,-11.5 0,-6.35127 -5.14873,-11.5 -11.5,-11.5 z m 0,3 c 4.72996,0 8.5,3.77005 8.5,8.5 0,4.72996 -3.77004,8.5 -8.5,8.5 -4.72995,0 -8.5,-3.77004 -8.5,-8.5 0,-4.72995 3.77005,-8.5 8.5,-8.5 z"
         transform="matrix(-1,0,0,1,-282.72744,361.32947)"
         id="path4889"
         inkscape:connector-curvature="0" />
    </g>
  </g>
</svg>
