<?xml version="1.0" encoding="UTF-8" standalone="no"?>
<!-- Created with Inkscape (http://www.inkscape.org/) -->

<svg
   xmlns:dc="http://purl.org/dc/elements/1.1/"
   xmlns:cc="http://creativecommons.org/ns#"
   xmlns:rdf="http://www.w3.org/1999/02/22-rdf-syntax-ns#"
   xmlns:svg="http://www.w3.org/2000/svg"
   xmlns="http://www.w3.org/2000/svg"
   xmlns:sodipodi="http://sodipodi.sourceforge.net/DTD/sodipodi-0.dtd"
   xmlns:inkscape="http://www.inkscape.org/namespaces/inkscape"
   width="1000"
   height="1000"
   id="svg3446"
   version="1.1"
   inkscape:version="0.91 r13725"
   sodipodi:docname="toolbox_eyedrop.svg"
   inkscape:export-filename="/Users/chyu/Source/sif.font/resources/concepts/toolbox_eyedrop.png"
   inkscape:export-xdpi="2.1600001"
   inkscape:export-ydpi="2.1600001">
  <defs
     id="defs3448" />
  <sodipodi:namedview
     id="base"
     pagecolor="#ffffff"
     bordercolor="#666666"
     borderopacity="1.0"
     inkscape:pageopacity="0.0"
     inkscape:pageshadow="2"
     inkscape:zoom="0.36889017"
     inkscape:cx="582.39558"
     inkscape:cy="483.05255"
     inkscape:document-units="px"
     inkscape:current-layer="layer1"
     showgrid="false"
     inkscape:window-width="987"
     inkscape:window-height="754"
     inkscape:window-x="58"
     inkscape:window-y="20"
     inkscape:window-maximized="0"
     showguides="true"
     inkscape:guide-bbox="true" />
  <metadata
     id="metadata3451">
    <rdf:RDF>
      <cc:Work
         rdf:about="">
        <dc:format>image/svg+xml</dc:format>
        <dc:type
           rdf:resource="http://purl.org/dc/dcmitype/StillImage" />
        <dc:title />
      </cc:Work>
    </rdf:RDF>
  </metadata>
  <g
     inkscape:label="Layer 1"
     inkscape:groupmode="layer"
     id="layer1"
     transform="translate(0,-52.362183)">
    <g
       id="g7080"
       transform="matrix(29.450377,29.450377,-29.450377,29.450377,1676.1794,-33269.181)">
      <path
         id="rect7022"
         transform="matrix(0.70710678,-0.70710678,0.70710678,0.70710678,392.85544,642.43212)"
         style="fill:#000000;fill-opacity:1;stroke:none"
         d="m 153.4375,69.3125 -4.75,4.75 5.4375,5.4375 4.78125,-4.75 c 1.55257,-1.552573 1.65622,-3.985484 0.0625,-5.5 -1.59372,-1.514516 -4.10611,-1.321413 -5.53125,0.0625 z m -8.02724,3.121183 c -0.14508,0.0026 -0.29114,0.06074 -0.40428,0.173886 l -1.2611,1.261046 c -0.22628,0.226281 -0.2326,0.584308 -0.0142,0.802698 0.20191,0.182088 2.80295,2.818889 2.80295,2.818889 l -8.70624,8.706244 c -0.85879,0.870101 -2.03468,3.803242 -1.06067,5.259104 1.45586,0.974012 4.38901,-0.201877 5.25911,-1.060665 l 8.70629,-8.706243 c 0,0 2.32057,2.304679 2.79928,2.78339 0.21839,0.21839 0.57637,0.212025 0.80266,-0.01426 l 1.26109,-1.261046 c 0.22628,-0.226282 0.23264,-0.584261 0.0143,-0.802651 l -9.80076,-9.800766 c -0.1092,-0.109195 -0.25329,-0.162206 -0.39837,-0.15963 z m 3.9076,7.840754 -5.63474,5.634731 -1.36998,-1.370029 5.63473,-5.634732 z" />
    </g>
  </g>
</svg>
