<?xml version="1.0" encoding="UTF-8" standalone="no"?>
<!-- Created with Inkscape (http://www.inkscape.org/) -->

<svg
   xmlns:dc="http://purl.org/dc/elements/1.1/"
   xmlns:cc="http://creativecommons.org/ns#"
   xmlns:rdf="http://www.w3.org/1999/02/22-rdf-syntax-ns#"
   xmlns:svg="http://www.w3.org/2000/svg"
   xmlns="http://www.w3.org/2000/svg"
   xmlns:sodipodi="http://sodipodi.sourceforge.net/DTD/sodipodi-0.dtd"
   xmlns:inkscape="http://www.inkscape.org/namespaces/inkscape"
   width="1000"
   height="1000"
   id="svg3446"
   version="1.1"
   inkscape:version="0.48.2 r9819"
   sodipodi:docname="toolbox_fill.svg">
  <defs
     id="defs3448" />
  <sodipodi:namedview
     id="base"
     pagecolor="#ffffff"
     bordercolor="#666666"
     borderopacity="1.0"
     inkscape:pageopacity="0.0"
     inkscape:pageshadow="2"
     inkscape:zoom="0.175"
     inkscape:cx="391.67828"
     inkscape:cy="358.37559"
     inkscape:document-units="px"
     inkscape:current-layer="layer1"
     showgrid="false"
     inkscape:window-width="987"
     inkscape:window-height="754"
     inkscape:window-x="58"
     inkscape:window-y="20"
     inkscape:window-maximized="0"
     showguides="true"
     inkscape:guide-bbox="true" />
  <metadata
     id="metadata3451">
    <rdf:RDF>
      <cc:Work
         rdf:about="">
        <dc:format>image/svg+xml</dc:format>
        <dc:type
           rdf:resource="http://purl.org/dc/dcmitype/StillImage" />
        <dc:title></dc:title>
      </cc:Work>
    </rdf:RDF>
  </metadata>
  <g
     inkscape:label="Layer 1"
     inkscape:groupmode="layer"
     id="layer1"
     transform="translate(0,-52.362183)">
    <g
       style="display:inline"
       id="g6403"
       transform="matrix(41.649122,0,0,41.649122,5881.9136,-25922.905)"
       inkscape:export-filename="/Users/chyu/Desktop/tools-0.png"
       inkscape:export-xdpi="74.745888"
       inkscape:export-ydpi="74.745888">
      <rect
         y="623.67407"
         x="-141.22034"
         height="24"
         width="24"
         id="rect6401"
         style="fill:none;stroke:none" />
      <g
         id="g6397">
        <path
           inkscape:connector-curvature="0"
           style="fill:#000000;stroke:none"
           d="m 365.375,332.53125 c 1.23198,1.71228 2.04347,4.32612 0.625,8.1875 -1.05419,2.86977 3.95882,6.88008 8.53125,8.78125 -0.18538,-0.17279 -0.38784,-0.34167 -0.5625,-0.53125 -2.03068,-2.20404 -3.12259,-5.29273 -3.96875,-10.03125 -0.65299,-3.65676 -2.55711,-5.39728 -4.625,-6.40625 z"
           transform="translate(-500.72883,295.09957)"
           id="path6393"
           sodipodi:nodetypes="csccsc" />
        <path
           style="font-size:medium;font-style:normal;font-variant:normal;font-weight:normal;font-stretch:normal;text-indent:0;text-align:start;text-decoration:none;line-height:normal;letter-spacing:normal;word-spacing:normal;text-transform:none;direction:ltr;block-progression:tb;writing-mode:lr-tb;text-anchor:start;baseline-shift:baseline;color:#000000;fill:#000000;fill-opacity:1;stroke:none;stroke-width:2;marker:none;visibility:visible;display:inline;overflow:visible;enable-background:accumulate;font-family:Sans;-inkscape-font-specification:Sans"
           d="m -140.65625,623.90625 c -0.3927,0.0491 -0.44366,0.45105 -0.39458,0.84375 0.0491,0.3927 0.18938,0.70534 0.58208,0.65625 0,0 2.29759,-0.0696 4.8125,0.96875 2.51491,1.03832 5.15476,3.08538 5.9375,7.46875 0.83307,4.66522 1.88409,7.53997 3.71875,9.53125 1.83466,1.99128 4.35924,2.95271 7.84375,4.03125 0.38812,0.20857 0.62636,-0.12185 0.75726,-0.54257 0.13089,-0.42072 0.11818,-0.81525 -0.31976,-0.86368 -3.42891,-1.06133 -5.6165,-1.98506 -7.15625,-3.65625 -1.53975,-1.67119 -2.56202,-4.22858 -3.375,-8.78125 -0.87371,-4.89274 -3.98034,-7.3932 -6.8125,-8.5625 -2.83216,-1.1693 -5.4375,-1.09375 -5.4375,-1.09375 -0.0519,-0.005 -0.10436,-0.005 -0.15625,0 z"
           id="path6395"
           inkscape:connector-curvature="0"
           sodipodi:nodetypes="cscssscscssscc" />
        <path
           id="path19570"
           transform="translate(-500.72883,295.09957)"
           d="m 366.8125,328.9375 c -0.28725,-0.0115 -0.52596,0.0181 -0.78125,0.0312 L 366.0625,329 c 3.04909,1.27011 6.47456,4.06382 7.40625,9.28125 0.79887,4.47366 1.78028,6.82173 3.125,8.28125 0.51746,0.56164 1.12955,1.03836 1.875,1.46875 -1.30297,-1.89573 -2.07398,-4.27805 -1.28125,-6.65625 1.56591,-4.69774 -1.80349,-10.36231 -6.90625,-11.84375 -1.30474,-0.3788 -2.46796,-0.55359 -3.46875,-0.59375 z"
           style="fill:#000000;stroke:none"
           inkscape:connector-curvature="0"
           sodipodi:nodetypes="cccsscssc" />
      </g>
    </g>
  </g>
</svg>
