<?xml version="1.0" encoding="UTF-8" standalone="no"?>
<!-- Created with Inkscape (http://www.inkscape.org/) -->

<svg
   xmlns:dc="http://purl.org/dc/elements/1.1/"
   xmlns:cc="http://creativecommons.org/ns#"
   xmlns:rdf="http://www.w3.org/1999/02/22-rdf-syntax-ns#"
   xmlns:svg="http://www.w3.org/2000/svg"
   xmlns="http://www.w3.org/2000/svg"
   xmlns:sodipodi="http://sodipodi.sourceforge.net/DTD/sodipodi-0.dtd"
   xmlns:inkscape="http://www.inkscape.org/namespaces/inkscape"
   width="1000"
   height="1000"
   id="svg3446"
   version="1.1"
   inkscape:version="0.91 r13725"
   sodipodi:docname="toolbox_spline.svg"
   inkscape:export-filename="/Users/chyu/Source/sif.font/resources/concepts/toolbox_spline.png"
   inkscape:export-xdpi="2.1600001"
   inkscape:export-ydpi="2.1600001">
  <defs
     id="defs3448" />
  <sodipodi:namedview
     id="base"
     pagecolor="#ffffff"
     bordercolor="#666666"
     borderopacity="1.0"
     inkscape:pageopacity="0.0"
     inkscape:pageshadow="2"
     inkscape:zoom="0.26201494"
     inkscape:cx="354.34597"
     inkscape:cy="343.36351"
     inkscape:document-units="px"
     inkscape:current-layer="layer1"
     showgrid="false"
     inkscape:window-width="987"
     inkscape:window-height="754"
     inkscape:window-x="58"
     inkscape:window-y="20"
     inkscape:window-maximized="0"
     showguides="true"
     inkscape:guide-bbox="true" />
  <metadata
     id="metadata3451">
    <rdf:RDF>
      <cc:Work
         rdf:about="">
        <dc:format>image/svg+xml</dc:format>
        <dc:type
           rdf:resource="http://purl.org/dc/dcmitype/StillImage" />
        <dc:title />
      </cc:Work>
    </rdf:RDF>
  </metadata>
  <g
     inkscape:label="Layer 1"
     inkscape:groupmode="layer"
     id="layer1"
     transform="translate(0,-52.362183)">
    <g
       id="g7217"
       transform="matrix(-29.450377,-29.450377,29.450377,-29.450377,-10896.931,24330.127)">
      <path
         id="rect7180"
         transform="translate(360.04724,514.18109)"
         style="fill:#000000;fill-opacity:1;stroke:none"
         d="m -153.21875,91.90625 c -0.10767,1.418741 -0.4375,2.834647 -0.4375,4.25 l 7.5,0 c 0,-1.415353 -0.32983,-2.831259 -0.4375,-4.25 z m 6.70858,-0.99518 c 0.60232,-4.87984 1.74939,-8.54555 3.21875,-12.03125 -2.66877,-2.2914 -4.81969,-7.70555 -5.375,-11.125 -0.0593,-0.365265 -0.48893,-0.714854 -0.875,-0.875 l 0,9.625 c 0.51642,0.141538 0.9689,0.597433 0.90625,1.15625 -0.0838,0.747799 -0.52502,1.220882 -1.18439,1.21875 -0.65936,-0.0021 -1.25311,-0.543968 -1.25311,-1.21875 0,-0.562318 0.38983,-1.014712 0.90625,-1.15625 l 0,-9.625 c -0.37756,0.160137 -0.78443,0.509731 -0.84375,0.875 -0.55531,3.419455 -2.73748,8.833597 -5.40625,11.125 1.46936,3.4857 2.61643,7.15141 3.21875,12.03125 z" />
    </g>
  </g>
</svg>
