<?xml version="1.0" encoding="UTF-8" standalone="no"?>
<!-- Created with Inkscape (http://www.inkscape.org/) -->

<svg
   xmlns:dc="http://purl.org/dc/elements/1.1/"
   xmlns:cc="http://creativecommons.org/ns#"
   xmlns:rdf="http://www.w3.org/1999/02/22-rdf-syntax-ns#"
   xmlns:svg="http://www.w3.org/2000/svg"
   xmlns="http://www.w3.org/2000/svg"
   xmlns:sodipodi="http://sodipodi.sourceforge.net/DTD/sodipodi-0.dtd"
   xmlns:inkscape="http://www.inkscape.org/namespaces/inkscape"
   width="1000"
   height="1000"
   id="svg3446"
   version="1.1"
   inkscape:version="0.91 r13725"
   sodipodi:docname="toolbox_zoom.svg"
   inkscape:export-filename="/Users/chyu/Source/sif.font/resources/concepts/toolbox_zoom.png"
   inkscape:export-xdpi="2.1600001"
   inkscape:export-ydpi="2.1600001">
  <defs
     id="defs3448" />
  <sodipodi:namedview
     id="base"
     pagecolor="#ffffff"
     bordercolor="#666666"
     borderopacity="1.0"
     inkscape:pageopacity="0.0"
     inkscape:pageshadow="2"
     inkscape:zoom="0.5245736"
     inkscape:cx="500.21525"
     inkscape:cy="501.20996"
     inkscape:document-units="px"
     inkscape:current-layer="layer1"
     showgrid="false"
     inkscape:window-width="987"
     inkscape:window-height="754"
     inkscape:window-x="58"
     inkscape:window-y="20"
     inkscape:window-maximized="0"
     showguides="true"
     inkscape:guide-bbox="true">
    <sodipodi:guide
       position="809.36249,581.83087"
       orientation="1,0"
       id="guide4147" />
    <sodipodi:guide
       position="809.36249,815.86339"
       orientation="0,1"
       id="guide4149" />
  </sodipodi:namedview>
  <metadata
     id="metadata3451">
    <rdf:RDF>
      <cc:Work
         rdf:about="">
        <dc:format>image/svg+xml</dc:format>
        <dc:type
           rdf:resource="http://purl.org/dc/dcmitype/StillImage" />
        <dc:title />
      </cc:Work>
    </rdf:RDF>
  </metadata>
  <g
     inkscape:label="Layer 1"
     inkscape:groupmode="layer"
     id="layer1"
     transform="translate(0,-52.362183)">
    <path
       id="path5569"
       style="fill:#000000;fill-rule:evenodd;stroke:none"
       d="M 626.47789,846.97809 818.82567,1039.3259 986.32469,871.82685 794.89723,680.3994 c -19.06764,33.77693 -43.09179,65.17957 -71.78529,93.87307 -29.41621,29.41622 -61.85168,53.40119 -96.63405,72.70562 z" />
    <path
       id="path5571"
       style="fill:#000000;fill-rule:evenodd;stroke:none"
       d="m 412.37636,65.225703 c 219.02613,4.31e-4 395.74016,178.580547 395.74016,397.607107 0,219.02654 -176.71403,395.74056 -395.74057,395.74056 -219.02656,0 -395.739733,-176.71402 -395.740164,-395.74014 0,-219.02655 176.713604,-397.607096 395.740574,-397.607527 z m -6e-5,120.097537 c 152.71346,3e-4 275.9253,124.51325 275.9253,277.22701 0,152.71375 -123.21184,275.92558 -275.92559,275.92558 -152.71376,0 -275.925,-123.21183 -275.9253,-275.92529 0,-152.71375 123.21154,-277.227 275.92559,-277.2273 z" />
  </g>
</svg>
