<?xml version="1.0" encoding="UTF-8" standalone="no"?>
<!-- Created with Inkscape (http://www.inkscape.org/) -->

<svg
   xmlns:dc="http://purl.org/dc/elements/1.1/"
   xmlns:cc="http://creativecommons.org/ns#"
   xmlns:rdf="http://www.w3.org/1999/02/22-rdf-syntax-ns#"
   xmlns:svg="http://www.w3.org/2000/svg"
   xmlns="http://www.w3.org/2000/svg"
   xmlns:sodipodi="http://sodipodi.sourceforge.net/DTD/sodipodi-0.dtd"
   xmlns:inkscape="http://www.inkscape.org/namespaces/inkscape"
   width="1000"
   height="1000"
   id="svg3446"
   version="1.1"
   inkscape:version="0.48.2 r9819"
   sodipodi:docname="toolbox_zoom.svg">
  <defs
     id="defs3448" />
  <sodipodi:namedview
     id="base"
     pagecolor="#ffffff"
     bordercolor="#666666"
     borderopacity="1.0"
     inkscape:pageopacity="0.0"
     inkscape:pageshadow="2"
     inkscape:zoom="0.24748737"
     inkscape:cx="16.428571"
     inkscape:cy="520"
     inkscape:document-units="px"
     inkscape:current-layer="layer1"
     showgrid="false"
     inkscape:window-width="987"
     inkscape:window-height="754"
     inkscape:window-x="58"
     inkscape:window-y="20"
     inkscape:window-maximized="0"
     showguides="true"
     inkscape:guide-bbox="true" />
  <metadata
     id="metadata3451">
    <rdf:RDF>
      <cc:Work
         rdf:about="">
        <dc:format>image/svg+xml</dc:format>
        <dc:type
           rdf:resource="http://purl.org/dc/dcmitype/StillImage" />
        <dc:title></dc:title>
      </cc:Work>
    </rdf:RDF>
  </metadata>
  <g
     inkscape:label="Layer 1"
     inkscape:groupmode="layer"
     id="layer1"
     transform="translate(0,-52.362183)">
    <g
       style="display:inline"
       transform="matrix(33.097137,33.097137,-29.450377,29.450377,27890.471,-7707.408)"
       id="g24806"
       inkscape:export-filename="/Users/chyu/Desktop/tools-0.png"
       inkscape:export-xdpi="74.745888"
       inkscape:export-ydpi="74.745888">
      <g
         transform="translate(5.2868997e-6,-0.30645888)"
         id="g24798">
        <rect
           transform="matrix(0.62919524,-0.70710678,0.62919524,0.70710678,-488.13899,-27.248489)"
           y="593.70966"
           x="-301.2251"
           height="24"
           width="24"
           id="rect4004"
           style="fill:none;stroke:none;display:inline" />
        <g
           id="g4008"
           transform="matrix(-0.11358513,-0.11358513,0.11778377,-0.11778377,-390.39135,647.77322)"
           style="fill:#2e3436">
          <g
             id="g24779"
             transform="matrix(0.70710678,-0.68190054,0.73324476,0.70710678,-522.82722,-0.06897377)"
             style="fill:#2e3436">
            <path
               style="font-size:medium;font-style:normal;font-variant:normal;font-weight:normal;font-stretch:normal;text-indent:0;text-align:start;text-decoration:none;line-height:normal;letter-spacing:normal;word-spacing:normal;text-transform:none;direction:ltr;block-progression:tb;writing-mode:lr-tb;text-anchor:start;baseline-shift:baseline;color:#000000;fill:#000000;fill-opacity:1;stroke:none;stroke-width:2;marker:none;visibility:visible;display:inline;overflow:visible;enable-background:accumulate;font-family:Sans;-inkscape-font-specification:Sans"
               d="M 89.59375,76.3125 C 86.618841,76.40338 85.625,77.40625 85.625,77.40625 l 0,21.6875 2.28125,4.84375 c 1.395833,0 2.791667,0 4.1875,0 l 2.28125,-4.84375 0,-21.6875 c 0,0 -1.058309,-1.09375 -4.375,-1.09375 -0.149595,2e-6 -0.265733,-0.0043 -0.40625,0 z m -2.25,19.96875 2.6875,3.5 2.625,-3.5 0.65625,1.09375 -0.03125,1.71875 -1.8125,3.84375 c -1.016433,-0.0505 -1.943641,0 -2.9375,0 L 86.71875,99.09375 86.6875,97.375 z"
               transform="matrix(-6.1149205,0,-1.2626709e-8,-5.8969419,288.84301,1139.3014)"
               id="path24747"
               inkscape:connector-curvature="0"
               sodipodi:nodetypes="ccccccccccccccccccc" />
            <path
               inkscape:connector-curvature="0"
               style="fill:#000000;fill-rule:evenodd;stroke:none"
               d="m -273,524.15625 23,0 c -1.7827,-2.76767 -4.16867,-6.42211 -4.9375,-7.71875 -2.91526,-4.9166 -3.33772,-5.625 -6.5625,-5.625 -3.22478,0 -3.64724,0.7084 -6.5625,5.625 -0.76883,1.29664 -3.1548,4.95108 -4.9375,7.71875 z"
               id="path4017" />
          </g>
          <g
             transform="matrix(-0.70710678,0.68190054,0.73324476,0.70710678,-892.64392,356.56487)"
             id="g24783"
             style="fill:#2e3436" />
        </g>
      </g>
    </g>
  </g>
</svg>
