<?xml version="1.0" encoding="UTF-8" standalone="no"?>
<!-- Created with Inkscape (http://www.inkscape.org/) -->

<svg
   xmlns:dc="http://purl.org/dc/elements/1.1/"
   xmlns:cc="http://creativecommons.org/ns#"
   xmlns:rdf="http://www.w3.org/1999/02/22-rdf-syntax-ns#"
   xmlns:svg="http://www.w3.org/2000/svg"
   xmlns="http://www.w3.org/2000/svg"
   xmlns:sodipodi="http://sodipodi.sourceforge.net/DTD/sodipodi-0.dtd"
   xmlns:inkscape="http://www.inkscape.org/namespaces/inkscape"
   width="1000"
   height="1000"
   id="svg2988"
   version="1.1"
   inkscape:version="0.91 r13725"
   sodipodi:docname="tool_keyproperties.svg"
   inkscape:export-filename="/Users/chyu/Source/sif.font/resources/concepts/tool_keyproperties.png"
   inkscape:export-xdpi="2.1600001"
   inkscape:export-ydpi="2.1600001">
  <defs
     id="defs2990" />
  <sodipodi:namedview
     id="base"
     pagecolor="#ffffff"
     bordercolor="#666666"
     borderopacity="1.0"
     inkscape:pageopacity="0"
     inkscape:pageshadow="2"
     inkscape:zoom="0.49158378"
     inkscape:cx="98.547692"
     inkscape:cy="472.11349"
     inkscape:document-units="px"
     inkscape:current-layer="layer1"
     showgrid="true"
     inkscape:showpageshadow="false"
     showguides="true"
     inkscape:guide-bbox="true"
     inkscape:window-width="1440"
     inkscape:window-height="826"
     inkscape:window-x="0"
     inkscape:window-y="0"
     inkscape:window-maximized="1">
    <sodipodi:guide
       orientation="1,0"
       position="50,760"
       id="guide2996" />
    <sodipodi:guide
       orientation="1,0"
       position="950,808.57143"
       id="guide3000" />
    <sodipodi:guide
       orientation="0,1"
       position="648.57143,950"
       id="guide3002" />
    <sodipodi:guide
       orientation="0,1"
       position="605.71429,50"
       id="guide3004" />
    <sodipodi:guide
       orientation="1,0"
       position="100,645.71429"
       id="guide3006" />
    <sodipodi:guide
       orientation="1,0"
       position="900,480"
       id="guide3008" />
    <sodipodi:guide
       orientation="0,1"
       position="531.42857,900"
       id="guide3010" />
    <sodipodi:guide
       orientation="0,1"
       position="648.57143,100"
       id="guide3012" />
    <inkscape:grid
       type="xygrid"
       id="grid3014"
       empspacing="50"
       visible="true"
       enabled="true"
       snapvisiblegridlinesonly="true"
       dotted="false"
       color="#0400ff"
       opacity="0.02745098"
       empcolor="#f00059"
       empopacity="0.25098039" />
  </sodipodi:namedview>
  <metadata
     id="metadata2993">
    <rdf:RDF>
      <cc:Work
         rdf:about="">
        <dc:format>image/svg+xml</dc:format>
        <dc:type
           rdf:resource="http://purl.org/dc/dcmitype/StillImage" />
        <dc:title />
      </cc:Work>
    </rdf:RDF>
  </metadata>
  <g
     inkscape:label="Layer 1"
     inkscape:groupmode="layer"
     id="layer1"
     transform="translate(0,-52.362183)"
     style="display:inline">
    <path
       style="display:inline;fill:#000000;fill-opacity:1;stroke:none"
       clip-path="none"
       d="M 265.625 10.125 L 157.55273 71.324219 L 441.40625 560.90625 C 424.83 577.66983 412.08352 597.08136 401.04102 616.89648 L 341.14648 599.96875 L 334.63477 616.89648 C 325.87394 638.94793 319.18019 661.47152 315.10352 684.60547 L 312.5 704.13672 L 371.09375 718.45898 C 370.01875 741.46243 372.29375 763.81968 378.90625 786.16797 L 321.61523 818.71875 L 328.125 835.64648 C 331.1625 843.11773 334.33167 852.13991 339.84375 861.6875 C 347.76125 875.40066 357.55125 887.45032 367.1875 898.14648 L 378.90625 909.86523 L 434.89648 877.3125 C 450.87397 892.37675 468.59334 904.24227 488.28125 913.77148 L 472.65625 969.76172 L 490.88477 976.27148 C 512.26185 983.61708 535.49458 989.98142 558.59375 993.19922 L 576.82227 995.80273 L 592.44531 937.20898 C 611.68573 937.08815 631.75865 935.44338 651.03906 930.69922 L 682.28906 986.6875 L 699.2168 981.48047 C 716.2693 976.06147 732.60073 969.93878 748.69531 960.64648 C 754.24656 957.44188 759.33531 953.64267 764.32031 950.23047 L 779.94531 939.8125 L 747.39453 882.52148 C 765.27494 867.95973 781.06412 851.01855 794.26953 833.04297 L 854.16602 849.96875 L 861.97852 834.34375 C 872.73768 813.17909 881.50995 791.06254 888.01953 767.9375 L 894.53125 748.40625 L 838.54102 734.08398 C 843.58727 705.71136 842.325 676.4336 835.9375 648.14648 L 894.53125 612.99023 L 889.32227 597.36523 C 884.68019 582.54977 878.87125 567.86806 871.09375 554.39648 C 866.14917 545.83186 861.3425 538.39932 855.46875 530.95898 L 843.75 516.63672 L 783.85352 551.79297 C 762.68311 529.67552 737.9381 512.23718 709.63477 501.01172 L 723.95703 445.02148 L 704.42578 439.8125 C 683.15536 434.06767 660.21894 427.19939 635.41602 425.49023 L 618.48828 424.1875 L 602.86719 485.38672 C 583.74011 486.84505 564.48838 489.84686 545.57422 495.80273 L 436.19922 305.69922 L 553.38672 237.99023 L 451.82422 60.90625 L 333.33398 128.61523 L 265.625 10.125 z M 607.82422 601.81836 C 645.45285 601.50209 684.05893 618.80381 700.69141 648.7207 C 725.44007 693.26163 703.44475 769.28582 657.01367 797.14648 C 610.58082 825.0024 537.82414 805.81434 513.06445 761.2793 C 488.31996 716.74558 509.63605 643.33094 556.06641 615.4707 C 571.30242 606.33034 589.44745 601.97281 607.82422 601.81836 z "
       transform="translate(0,52.362183)"
       id="path4460" />
  </g>
</svg>
