<?xml version="1.0" encoding="UTF-8" standalone="no"?>
<!-- Created with Inkscape (http://www.inkscape.org/) -->

<svg
   xmlns:dc="http://purl.org/dc/elements/1.1/"
   xmlns:cc="http://creativecommons.org/ns#"
   xmlns:rdf="http://www.w3.org/1999/02/22-rdf-syntax-ns#"
   xmlns:svg="http://www.w3.org/2000/svg"
   xmlns="http://www.w3.org/2000/svg"
   xmlns:sodipodi="http://sodipodi.sourceforge.net/DTD/sodipodi-0.dtd"
   xmlns:inkscape="http://www.inkscape.org/namespaces/inkscape"
   width="1000"
   height="1000"
   id="svg3446"
   version="1.1"
   inkscape:version="0.91 r13725"
   sodipodi:docname="toolbox_sketch.svg"
   inkscape:export-filename="/Users/chyu/Source/sif.font/resources/concepts/toolbox_sketch.png"
   inkscape:export-xdpi="2.1600001"
   inkscape:export-ydpi="2.1600001">
  <defs
     id="defs3448" />
  <sodipodi:namedview
     id="base"
     pagecolor="#ffffff"
     bordercolor="#666666"
     borderopacity="1.0"
     inkscape:pageopacity="0.0"
     inkscape:pageshadow="2"
     inkscape:zoom="0.49620892"
     inkscape:cx="500.00015"
     inkscape:cy="499.99999"
     inkscape:document-units="px"
     inkscape:current-layer="layer1"
     showgrid="false"
     inkscape:window-width="987"
     inkscape:window-height="754"
     inkscape:window-x="58"
     inkscape:window-y="20"
     inkscape:window-maximized="0"
     showguides="true"
     inkscape:guide-bbox="true" />
  <metadata
     id="metadata3451">
    <rdf:RDF>
      <cc:Work
         rdf:about="">
        <dc:format>image/svg+xml</dc:format>
        <dc:type
           rdf:resource="http://purl.org/dc/dcmitype/StillImage" />
        <dc:title />
      </cc:Work>
    </rdf:RDF>
  </metadata>
  <g
     inkscape:label="Layer 1"
     inkscape:groupmode="layer"
     id="layer1"
     transform="translate(0,-52.362183)">
    <g
       transform="matrix(-0.41421771,-7.1044675,7.367082,0.42952914,-4098.5045,-1560.1037)"
       id="g24821">
      <g
         transform="matrix(0.70710678,-0.68190054,0.73324476,0.70710678,-522.82722,-0.06897377)"
         id="g24823">
        <path
           id="path24867"
           transform="matrix(3.567451e-8,6.0034314,-5.5394155,-2.7803407e-8,-195.02693,-866.89116)"
           style="color:#000000;font-style:normal;font-variant:normal;font-weight:normal;font-stretch:normal;font-size:medium;line-height:normal;font-family:Sans;-inkscape-font-specification:Sans;text-indent:0;text-align:start;text-decoration:none;text-decoration-line:none;letter-spacing:normal;word-spacing:normal;text-transform:none;direction:ltr;block-progression:tb;writing-mode:lr-tb;baseline-shift:baseline;text-anchor:start;display:inline;overflow:visible;visibility:visible;fill:#000000;fill-opacity:1;stroke:none;stroke-width:2;marker:none;enable-background:accumulate"
           d="m 236.84375,7.15625 -4.75,2.53125 0,4.625 4.75,2.53125 15.34375,0 0,-9.6875 z m 1.6875,1.1875 1.0625,0.71875 -3.4375,2.96875 3.4375,2.90625 -1.0625,0.71875 -1.6875,-0.03125 -3.78125,-2 c 0.0496,-1.122033 0,-2.152886 0,-3.25 l 3.78125,-2 z m -6.82253,5.732298 0,-4.1520627 c -0.46101,0.3218207 -1.06974,0.7525467 -1.28572,0.8913397 -0.81897,0.526276 -0.93697,0.60254 -0.93697,1.184692 0,0.582151 0.118,0.658416 0.93697,1.184691 0.21598,0.138793 0.82471,0.569519 1.28572,0.89134 z m 21.47878,-6.919798 0,9.6875 4.10366,0 c 0,0 1.92759,-0.0067 1.92759,-4.84375 0,-4.837003 -1.92759,-4.84375 -1.92759,-4.84375 z"
           inkscape:export-xdpi="74.745888"
           inkscape:export-ydpi="74.745888" />
      </g>
      <g
         id="g24829"
         transform="matrix(-0.70710678,0.68190054,0.73324476,0.70710678,-892.64392,356.56487)" />
    </g>
  </g>
</svg>
