<?xml version="1.0" encoding="UTF-8" standalone="no"?>
<!-- Created with Inkscape (http://www.inkscape.org/) -->

<svg
   xmlns:dc="http://purl.org/dc/elements/1.1/"
   xmlns:cc="http://creativecommons.org/ns#"
   xmlns:rdf="http://www.w3.org/1999/02/22-rdf-syntax-ns#"
   xmlns:svg="http://www.w3.org/2000/svg"
   xmlns="http://www.w3.org/2000/svg"
   xmlns:sodipodi="http://sodipodi.sourceforge.net/DTD/sodipodi-0.dtd"
   xmlns:inkscape="http://www.inkscape.org/namespaces/inkscape"
   width="1000"
   height="1000"
   id="svg3446"
   version="1.1"
   inkscape:version="0.91 r13725"
   sodipodi:docname="toolbox_scale.svg"
   inkscape:export-filename="/Users/chyu/Source/sif.font/resources/concepts/toolbox_scale.png"
   inkscape:export-xdpi="2.1600001"
   inkscape:export-ydpi="2.1600001">
  <defs
     id="defs3448" />
  <sodipodi:namedview
     id="base"
     pagecolor="#ffffff"
     bordercolor="#666666"
     borderopacity="1.0"
     inkscape:pageopacity="0.0"
     inkscape:pageshadow="2"
     inkscape:zoom="0.49620894"
     inkscape:cx="499.99998"
     inkscape:cy="499.99966"
     inkscape:document-units="px"
     inkscape:current-layer="layer1"
     showgrid="false"
     inkscape:window-width="987"
     inkscape:window-height="754"
     inkscape:window-x="58"
     inkscape:window-y="20"
     inkscape:window-maximized="0"
     showguides="true"
     inkscape:guide-bbox="true" />
  <metadata
     id="metadata3451">
    <rdf:RDF>
      <cc:Work
         rdf:about="">
        <dc:format>image/svg+xml</dc:format>
        <dc:type
           rdf:resource="http://purl.org/dc/dcmitype/StillImage" />
        <dc:title />
      </cc:Work>
    </rdf:RDF>
  </metadata>
  <g
     inkscape:label="Layer 1"
     inkscape:groupmode="layer"
     id="layer1"
     transform="translate(0,-52.362183)">
    <g
       id="g16723"
       transform="matrix(8.5557628,0,0,8.5603819,1305.5035,-3773.6131)">
      <path
         id="path19615"
         transform="matrix(4.861124,0,0,4.861124,-1316.6503,-2194.3939)"
         style="fill:#000000;fill-rule:evenodd;stroke:none"
         d="m 241.625,557.125 -2.15625,1.15625 3.40625,6.40625 -2.21875,1.1875 5.03125,1.46875 1.59375,-5 -2.21875,1.1875 z m 13,-13.75 -1.21875,2.125 6.28125,3.625 -1.25,2.21875 5.03125,-1.4375 -1.28125,-5.09375 -1.25,2.1875 z m -6.1517,9.16557 15.02921,0 0,14.84392 -15.02921,0 z m -9.00455,-9.16557 0,12.125 7.84375,0 0,-4.125 4.875,0 0,-8 z" />
    </g>
  </g>
</svg>
