<?xml version="1.0" encoding="UTF-8" standalone="no"?>
<!-- Created with Inkscape (http://www.inkscape.org/) -->

<svg
   xmlns:dc="http://purl.org/dc/elements/1.1/"
   xmlns:cc="http://creativecommons.org/ns#"
   xmlns:rdf="http://www.w3.org/1999/02/22-rdf-syntax-ns#"
   xmlns:svg="http://www.w3.org/2000/svg"
   xmlns="http://www.w3.org/2000/svg"
   xmlns:sodipodi="http://sodipodi.sourceforge.net/DTD/sodipodi-0.dtd"
   xmlns:inkscape="http://www.inkscape.org/namespaces/inkscape"
   width="1000"
   height="1000"
   id="svg3446"
   version="1.1"
   inkscape:version="0.48.2 r9819"
   sodipodi:docname="toolbox_smoothmove.svg">
  <defs
     id="defs3448" />
  <sodipodi:namedview
     id="base"
     pagecolor="#ffffff"
     bordercolor="#666666"
     borderopacity="1.0"
     inkscape:pageopacity="0.0"
     inkscape:pageshadow="2"
     inkscape:zoom="0.0875"
     inkscape:cx="335.2343"
     inkscape:cy="839.91562"
     inkscape:document-units="px"
     inkscape:current-layer="layer1"
     showgrid="false"
     inkscape:window-width="987"
     inkscape:window-height="754"
     inkscape:window-x="58"
     inkscape:window-y="20"
     inkscape:window-maximized="0"
     showguides="true"
     inkscape:guide-bbox="true" />
  <metadata
     id="metadata3451">
    <rdf:RDF>
      <cc:Work
         rdf:about="">
        <dc:format>image/svg+xml</dc:format>
        <dc:type
           rdf:resource="http://purl.org/dc/dcmitype/StillImage" />
        <dc:title></dc:title>
      </cc:Work>
    </rdf:RDF>
  </metadata>
  <g
     inkscape:label="Layer 1"
     inkscape:groupmode="layer"
     id="layer1"
     transform="translate(0,-52.362183)">
    <g
       style="display:inline"
       id="g16463"
       transform="matrix(41.649122,0,0,41.649122,6533.9165,-23098.136)"
       inkscape:export-filename="/Users/chyu/Desktop/tools-0.png"
       inkscape:export-xdpi="74.745888"
       inkscape:export-ydpi="74.745888">
      <rect
         ry="0"
         y="555.85107"
         x="-156.875"
         height="24"
         width="24"
         id="rect16461"
         style="fill:none;stroke:none" />
      <g
         transform="matrix(0.19541985,0,0,0.19541985,-126.21851,465.4999)"
         id="g16457">
        <path
           inkscape:connector-curvature="0"
           style="fill:#000000;fill-rule:evenodd;stroke:none"
           d="m -71.875,476.15625 0,9 8.5625,0 c 4.44136,-0.36653 4.5625,1.8222 4.5625,5 l 0,5 -14.46875,0 19.59375,19.0625 19.5625,-19.0625 -14.46875,0 0,-10 c 0,-3.33895 -1.44089,-9 -10.21875,-9 z"
           id="rect16435"
           sodipodi:nodetypes="cccscccccssc" />
        <path
           inkscape:connector-curvature="0"
           style="opacity:0.95;fill:#000000;fill-rule:evenodd;stroke:none"
           d="m -151.75,468.9375 0,56.28125 74.96875,0 0,-56.28125 z"
           id="rect16443"
           sodipodi:nodetypes="ccccc" />
        <path
           id="path19617"
           d="M -137.28125,532.4375 -156.875,551.5 l 14.46875,0 0,10 c 0,3.33895 1.44089,9 10.21875,9 l 13.125,0 0,-9 -8.5625,0 c -4.44136,0.36653 -4.5625,-1.8222 -4.5625,-5 l 0,-5 14.46875,0 z"
           style="fill:#000000;fill-rule:evenodd;stroke:none"
           inkscape:connector-curvature="0"
           sodipodi:nodetypes="cccsscccsccc" />
        <path
           sodipodi:nodetypes="cccccc"
           id="path19619"
           d="m -71.78125,508.5625 0,21.65625 -58.34375,0 49.5,48.34375 39.3125,-40.25 z"
           style="opacity:0.95;fill:#000000;fill-rule:evenodd;stroke:none"
           inkscape:connector-curvature="0" />
      </g>
    </g>
    <g
       inkscape:export-ydpi="74.745888"
       inkscape:export-xdpi="74.745888"
       inkscape:export-filename="/Users/chyu/Desktop/tools-0.png"
       transform="matrix(41.649122,0,0,41.649122,1764.2131,-25455.119)"
       id="g9846"
       style="display:inline">
      <path
         style="fill:none;stroke:none"
         d="m -96.06794,581.84167 24,0"
         id="rect9848"
         inkscape:connector-curvature="0"
         sodipodi:nodetypes="cc" />
    </g>
  </g>
</svg>
