<?xml version="1.0" encoding="UTF-8" standalone="no"?>
<!-- Created with Inkscape (http://www.inkscape.org/) -->

<svg
   xmlns:dc="http://purl.org/dc/elements/1.1/"
   xmlns:cc="http://creativecommons.org/ns#"
   xmlns:rdf="http://www.w3.org/1999/02/22-rdf-syntax-ns#"
   xmlns:svg="http://www.w3.org/2000/svg"
   xmlns="http://www.w3.org/2000/svg"
   xmlns:sodipodi="http://sodipodi.sourceforge.net/DTD/sodipodi-0.dtd"
   xmlns:inkscape="http://www.inkscape.org/namespaces/inkscape"
   width="1000"
   height="1000"
   id="svg3288"
   version="1.1"
   inkscape:version="0.48.2 r9819"
   sodipodi:docname="valuetype_angle.svg"
   inkscape:export-filename="/Users/chyu/Source/sif.font/resources/concepts/valuetype_angle.png"
   inkscape:export-xdpi="2.1600001"
   inkscape:export-ydpi="2.1600001">
  <defs
     id="defs3290" />
  <sodipodi:namedview
     id="base"
     pagecolor="#ffffff"
     bordercolor="#666666"
     borderopacity="1.0"
     inkscape:pageopacity="0.0"
     inkscape:pageshadow="2"
     inkscape:zoom="0.537"
     inkscape:cx="500"
     inkscape:cy="500"
     inkscape:document-units="px"
     inkscape:current-layer="layer1"
     showgrid="false"
     showguides="false"
     inkscape:window-width="1218"
     inkscape:window-height="755"
     inkscape:window-x="58"
     inkscape:window-y="20"
     inkscape:window-maximized="0" />
  <metadata
     id="metadata3293">
    <rdf:RDF>
      <cc:Work
         rdf:about="">
        <dc:format>image/svg+xml</dc:format>
        <dc:type
           rdf:resource="http://purl.org/dc/dcmitype/StillImage" />
        <dc:title></dc:title>
      </cc:Work>
    </rdf:RDF>
  </metadata>
  <g
     inkscape:label="Layer 1"
     inkscape:groupmode="layer"
     id="layer1"
     transform="translate(0,-52.362183)">
    <path
       style="font-size:medium;font-style:normal;font-variant:normal;font-weight:normal;font-stretch:normal;text-indent:0;text-align:start;text-decoration:none;line-height:normal;letter-spacing:normal;word-spacing:normal;text-transform:none;direction:ltr;block-progression:tb;writing-mode:lr-tb;text-anchor:start;baseline-shift:baseline;color:#000000;fill:#000000;fill-opacity:1;stroke:none;stroke-width:1.5;marker:none;visibility:visible;display:inline;overflow:visible;enable-background:accumulate;font-family:Sans;-inkscape-font-specification:Sans"
       d="m 500.09804,120.69793 a 69.223804,69.329366 0 0 0 -8.50564,0.51549 69.223804,69.329366 0 0 0 -53.1334,35.90097 L 34.269924,880.02962 a 69.223804,69.329366 0 0 0 59.319468,103.98383 l 810.845068,0 a 69.223804,69.329366 0 1 0 0,-138.63268 l -692.16955,0 347.29988,-620.18359 A 69.223804,69.329366 0 0 0 500.09804,120.69793 z m 317.62184,102.51089 c -80.73888,0 -147.28577,66.42335 -147.28577,147.28568 0,80.86251 66.54689,147.3226 147.28577,147.3226 80.7394,0 147.32263,-66.46009 147.32263,-147.3226 0,-80.86233 -66.58323,-147.28568 -147.32263,-147.28568 z m 0,79.20294 c 37.98779,0 68.08295,30.03714 68.08295,68.08274 0,38.04582 -30.09516,68.11963 -68.08295,68.11963 -37.98737,0 -68.08275,-30.07381 -68.08275,-68.11963 0,-38.0456 30.09538,-68.08274 68.08275,-68.08274 z M 466.25919,446.56763 436.54428,498.5596 c 107.48066,73.20452 177.69766,190.83237 189.37276,320.64112 l 59.42982,0 C 673.80168,667.56685 592.43637,530.62129 466.25919,446.56763 z"
       id="path3180"
       inkscape:connector-curvature="0" />
  </g>
</svg>
