<?xml version="1.0" encoding="UTF-8" standalone="no"?>
<!-- Created with Inkscape (http://www.inkscape.org/) -->

<svg
   xmlns:dc="http://purl.org/dc/elements/1.1/"
   xmlns:cc="http://creativecommons.org/ns#"
   xmlns:rdf="http://www.w3.org/1999/02/22-rdf-syntax-ns#"
   xmlns:svg="http://www.w3.org/2000/svg"
   xmlns="http://www.w3.org/2000/svg"
   xmlns:sodipodi="http://sodipodi.sourceforge.net/DTD/sodipodi-0.dtd"
   xmlns:inkscape="http://www.inkscape.org/namespaces/inkscape"
   width="1000"
   height="1000"
   id="svg3288"
   version="1.1"
   inkscape:version="0.48.2 r9819">
  <defs
     id="defs3290" />
  <sodipodi:namedview
     id="base"
     pagecolor="#ffffff"
     bordercolor="#666666"
     borderopacity="1.0"
     inkscape:pageopacity="0.0"
     inkscape:pageshadow="2"
     inkscape:zoom="0.2215084"
     inkscape:cx="42.22341"
     inkscape:cy="535.91251"
     inkscape:document-units="px"
     inkscape:current-layer="layer1"
     showgrid="false"
     showguides="false"
     inkscape:window-width="1218"
     inkscape:window-height="755"
     inkscape:window-x="58"
     inkscape:window-y="20"
     inkscape:window-maximized="0" />
  <metadata
     id="metadata3293">
    <rdf:RDF>
      <cc:Work
         rdf:about="">
        <dc:format>image/svg+xml</dc:format>
        <dc:type
           rdf:resource="http://purl.org/dc/dcmitype/StillImage" />
        <dc:title></dc:title>
      </cc:Work>
    </rdf:RDF>
  </metadata>
  <g
     inkscape:label="Layer 1"
     inkscape:groupmode="layer"
     id="layer1"
     transform="translate(0,-52.362183)">
    <g
       id="g7130"
       transform="matrix(39.942842,0,0,39.942842,9241.6839,-14320.247)"
       style="fill:#2e3436">
      <g
         transform="translate(-7.01542,0)"
         id="g7053"
         style="fill:#2e3436">
        <g
           id="g6978"
           style="fill:#2e3436">
          <path
             sodipodi:nodetypes="ccccccc"
             inkscape:connector-curvature="0"
             id="rect6972"
             transform="matrix(0.9076087,0,0,0.9076087,-412.00697,-19.200771)"
             d="m 216.3125,429.5625 -1.125,1.84375 1.125,1.8125 8.5,0 1.125,-1.8125 -1.125,-1.84375 z"
             style="fill:#000000;stroke:none" />
        </g>
        <g
           id="g6984"
           transform="translate(0,-8.7848827)"
           style="fill:#2e3436">
          <path
             sodipodi:nodetypes="ccccccccc"
             inkscape:connector-curvature="0"
             id="path6986"
             transform="matrix(0.9076087,0,0,0.9076087,-412.00697,-10.415888)"
             d="m 215.84375,419.90625 -0.59375,1.0625 0,1.125 1.03125,1.5 8.53125,0 1.03125,-1.5 0,-1.125 -0.625,-1.0625 z"
             style="fill:#000000;stroke:none" />
        </g>
        <g
           transform="matrix(0,-0.85320208,1,0,-590.12442,186.53622)"
           id="g6994"
           style="fill:#2e3436">
          <path
             style="fill:#000000;stroke:none"
             d="m -208.70303,371.04734 -0.5934,-0.62584 c -2.29668,0 -4.59336,0 -6.89003,0 l -0.5934,0.96875 0,0.90266 2.09942,1.47234 3.8674,0 2.11001,-1.55807 z"
             id="path6996"
             inkscape:connector-curvature="0"
             sodipodi:nodetypes="ccccccccc" />
        </g>
      </g>
      <g
         transform="matrix(-1,0,0,1,-430.69357,0)"
         id="g7063"
         style="fill:#2e3436" />
      <g
         id="g7067"
         transform="matrix(-1,0,0,1,-430.69357,-8.7848827)"
         style="fill:#2e3436" />
      <g
         transform="matrix(0,-0.85320208,-1,0,159.43085,186.53622)"
         id="g7071"
         style="fill:#2e3436">
        <path
           style="fill:#000000;stroke:none"
           d="m -208.70303,371.04734 -0.5934,-0.62584 c -2.29668,0 -4.59336,0 -6.89003,0 l -0.5934,0.96875 0,0.90266 2.09942,1.47234 3.8674,0 2.11001,-1.55807 z"
           id="path7073"
           inkscape:connector-curvature="0"
           sodipodi:nodetypes="ccccccccc" />
      </g>
      <g
         id="g7100"
         transform="matrix(1,0,0,-1,-7.01609,744.6875)"
         style="fill:#2e3436">
        <g
           id="g7102"
           style="fill:#2e3436" />
        <g
           transform="translate(0,-8.7848827)"
           id="g7106"
           style="fill:#2e3436">
          <path
             sodipodi:nodetypes="ccccccccc"
             inkscape:connector-curvature="0"
             id="path7108"
             transform="matrix(0.9076087,0,0,-0.9076087,-412.0063,772.67315)"
             d="m 216.28125,439.21875 -1.03125,1.46875 0,1.15625 0.59375,1.0625 9.375,0 0.625,-1.0625 0,-1.15625 -1.03125,-1.46875 z"
             style="fill:#000000;stroke:none" />
        </g>
        <g
           id="g7110"
           transform="matrix(0,-0.85320208,1,0,-590.12442,186.53622)"
           style="fill:#2e3436">
          <path
             sodipodi:nodetypes="ccccccccc"
             inkscape:connector-curvature="0"
             id="path7112"
             d="m -208.70303,371.04734 -0.5934,-0.62584 c -2.29668,0 -4.59336,0 -6.89003,0 l -0.5934,0.96875 0,0.90266 2.09942,1.47234 3.8674,0 2.11001,-1.55807 z"
             style="fill:#000000;stroke:none" />
        </g>
      </g>
      <g
         id="g7114"
         transform="matrix(-1,0,0,-1,-430.69424,744.6875)"
         style="fill:#2e3436">
        <g
           id="g7116"
           style="fill:#2e3436" />
        <g
           id="g7120"
           transform="translate(0,-8.7848827)"
           style="fill:#2e3436" />
        <g
           transform="matrix(0,-0.85320208,1,0,-590.12442,186.53622)"
           id="g7124"
           style="fill:#2e3436">
          <path
             style="fill:#000000;stroke:none"
             d="m -208.70303,371.04734 -0.5934,-0.62584 c -2.29668,0 -4.59336,0 -6.89003,0 l -0.5934,0.96875 0,0.90266 2.09942,1.47234 3.8674,0 2.11001,-1.55807 z"
             id="path7126"
             inkscape:connector-curvature="0"
             sodipodi:nodetypes="ccccccccc" />
        </g>
      </g>
    </g>
  </g>
</svg>
