<?xml version="1.0" encoding="UTF-8" standalone="no"?>
<!-- Created with Inkscape (http://www.inkscape.org/) -->

<svg
   xmlns:dc="http://purl.org/dc/elements/1.1/"
   xmlns:cc="http://creativecommons.org/ns#"
   xmlns:rdf="http://www.w3.org/1999/02/22-rdf-syntax-ns#"
   xmlns:svg="http://www.w3.org/2000/svg"
   xmlns="http://www.w3.org/2000/svg"
   xmlns:sodipodi="http://sodipodi.sourceforge.net/DTD/sodipodi-0.dtd"
   xmlns:inkscape="http://www.inkscape.org/namespaces/inkscape"
   width="1000"
   height="1000"
   id="svg3288"
   version="1.1"
   inkscape:version="0.48.2 r9819">
  <defs
     id="defs3290" />
  <sodipodi:namedview
     id="base"
     pagecolor="#ffffff"
     bordercolor="#666666"
     borderopacity="1.0"
     inkscape:pageopacity="0.0"
     inkscape:pageshadow="2"
     inkscape:zoom="0.2215084"
     inkscape:cx="42.22341"
     inkscape:cy="535.91251"
     inkscape:document-units="px"
     inkscape:current-layer="layer1"
     showgrid="false"
     showguides="false"
     inkscape:window-width="1218"
     inkscape:window-height="755"
     inkscape:window-x="58"
     inkscape:window-y="20"
     inkscape:window-maximized="0" />
  <metadata
     id="metadata3293">
    <rdf:RDF>
      <cc:Work
         rdf:about="">
        <dc:format>image/svg+xml</dc:format>
        <dc:type
           rdf:resource="http://purl.org/dc/dcmitype/StillImage" />
        <dc:title></dc:title>
      </cc:Work>
    </rdf:RDF>
  </metadata>
  <g
     inkscape:label="Layer 1"
     inkscape:groupmode="layer"
     id="layer1"
     transform="translate(0,-52.362183)">
    <g
       id="g8004"
       transform="matrix(9.8870371,0,0,9.8870371,-5290.8625,-5690.9927)">
      <g
         transform="matrix(0.94596677,0,0,0.94596677,33.381761,32.386019)"
         id="g8023">
        <path
           style="fill:#000000;stroke:none"
           d="m 542.54791,670.00776 c 1.32411,4.82051 2.17209,5.46099 4.88156,5.46099 l 28.88702,0 c 2.70947,0 4.88156,-2.42991 4.88156,-5.46099 l 0,-24.51442 c 0,-3.03108 -2.17209,-5.46099 -4.88156,-5.46099 l -16.65631,0 c -3.76933,-29.81272 7.57535,-40.47149 14.50663,-46.83202 0.54199,-0.63621 0.0285,-2.32175 -1.04572,-2.03166 -36.00933,8.3701 -31.89729,74.01859 -30.57318,78.83909 z"
           id="rect7993"
           inkscape:connector-curvature="0"
           sodipodi:nodetypes="zssssscccz" />
        <path
           sodipodi:nodetypes="zssssscccz"
           inkscape:connector-curvature="0"
           id="path8002"
           d="m 587.38562,670.00776 c 1.32411,4.82051 2.17209,5.46099 4.88155,5.46099 l 28.88704,0 c 2.70946,0 4.88155,-2.42991 4.88155,-5.46099 l 0,-24.51442 c 0,-3.03108 -2.17209,-5.46099 -4.88155,-5.46099 l -16.65632,0 c -3.76933,-29.81272 7.57534,-40.47149 14.50662,-46.83202 0.542,-0.63621 0.0285,-2.32175 -1.0457,-2.03166 -36.00933,8.3701 -31.8973,74.01859 -30.57319,78.83909 z"
           style="fill:#000000;stroke:none" />
      </g>
    </g>
  </g>
</svg>
