<?xml version="1.0" encoding="UTF-8" standalone="no"?>
<!-- Created with Inkscape (http://www.inkscape.org/) -->

<svg
   xmlns:dc="http://purl.org/dc/elements/1.1/"
   xmlns:cc="http://creativecommons.org/ns#"
   xmlns:rdf="http://www.w3.org/1999/02/22-rdf-syntax-ns#"
   xmlns:svg="http://www.w3.org/2000/svg"
   xmlns="http://www.w3.org/2000/svg"
   xmlns:sodipodi="http://sodipodi.sourceforge.net/DTD/sodipodi-0.dtd"
   xmlns:inkscape="http://www.inkscape.org/namespaces/inkscape"
   width="1000"
   height="1000"
   id="svg3288"
   version="1.1"
   inkscape:version="0.48.2 r9819"
   sodipodi:docname="valuetype_real.svg"
   inkscape:export-filename="/Users/chyu/Source/sif.font/resources/concepts/valuetype_real.png"
   inkscape:export-xdpi="2.1600001"
   inkscape:export-ydpi="2.1600001">
  <defs
     id="defs3290" />
  <sodipodi:namedview
     id="base"
     pagecolor="#ffffff"
     bordercolor="#666666"
     borderopacity="1.0"
     inkscape:pageopacity="0.0"
     inkscape:pageshadow="2"
     inkscape:zoom="0.2215084"
     inkscape:cx="-524.34653"
     inkscape:cy="535.91251"
     inkscape:document-units="px"
     inkscape:current-layer="layer1"
     showgrid="false"
     showguides="false"
     inkscape:window-width="1218"
     inkscape:window-height="755"
     inkscape:window-x="58"
     inkscape:window-y="20"
     inkscape:window-maximized="0" />
  <metadata
     id="metadata3293">
    <rdf:RDF>
      <cc:Work
         rdf:about="">
        <dc:format>image/svg+xml</dc:format>
        <dc:type
           rdf:resource="http://purl.org/dc/dcmitype/StillImage" />
        <dc:title></dc:title>
      </cc:Work>
    </rdf:RDF>
  </metadata>
  <g
     inkscape:label="Layer 1"
     inkscape:groupmode="layer"
     id="layer1"
     transform="translate(0,-52.362183)">
    <path
       style="font-size:medium;font-style:normal;font-variant:normal;font-weight:normal;font-stretch:normal;text-indent:0;text-align:start;text-decoration:none;line-height:normal;letter-spacing:normal;word-spacing:normal;text-transform:none;direction:ltr;block-progression:tb;writing-mode:lr-tb;text-anchor:start;baseline-shift:baseline;color:#000000;fill:#000000;fill-opacity:1;fill-rule:nonzero;stroke:none;stroke-width:0.5;marker:none;visibility:visible;display:inline;overflow:visible;enable-background:accumulate;font-family:Sans;-inkscape-font-specification:Sans"
       d="m 322.26874,99.50139 c 54.61388,-0.283315 128.63396,0.61118 208.72231,1.26294 156.60726,1.2792 334.54034,3.23436 444.00894,2.52998 l 0,202.39728 -207.45713,0 -8.85485,0 -1.26299,8.85485 c 0,0 -10.02315,114.8863 -16.44471,237.81675 -3.21011,61.46516 -6.0983,125.17334 -5.05997,177.09763 -0.7814,39.11611 1.49768,78.58026 16.44471,111.31847 15.95016,34.93826 56.65865,46.22182 88.54881,30.35953 30.2348,-15.0389 39.8495,-29.83339 59.45417,-73.01436 l 59.45406,-2.52999 c -3.6794,65.9358 -24.34061,123.06477 -58.97325,159.73151 -23.86294,25.26449 -65.794,39.49989 -111.7994,43.57603 -94.88977,8.40799 -154.48195,-8.15373 -189.74737,-46.80434 -35.26518,-38.65061 -47.82926,-103.23465 -43.00935,-194.80732 9.70124,-184.32761 55.6593,-442.74391 55.6593,-442.74391 l 2.52987,-11.38484 -12.64983,0 -184.68737,0 -8.85496,0 -1.26499,7.58997 c -0.46272,2.95094 -1.97984,11.41845 -3.79498,26.56454 -1.81503,15.14621 -4.57381,36.94769 -7.58985,61.98415 -6.03232,50.07304 -14.11827,115.7308 -22.76967,183.42245 -8.65152,67.69176 -16.9551,136.31053 -25.29966,192.27744 -8.34457,55.96693 -17.26038,100.08785 -21.50469,112.58337 -7.87574,23.18639 -36.20628,67.38581 -75.89912,93.60879 -39.69275,26.22299 -88.68663,37.51039 -142.94292,0 -21.73246,-15.02483 -29.82557,-33.94727 -31.62463,-54.39419 -1.79884,-20.44704 4.048,-42.9743 13.91483,-65.77914 19.73408,-45.60981 54.41239,-87.89751 67.04413,-104.99363 21.885,-29.61922 97.38649,-155.50943 153.06285,-355.46009 5.11816,-18.38133 18.97485,-83.48884 18.97485,-83.48884 l 2.53,-11.38483 -11.385,0 c 0,0 -32.63436,-2.87401 -70.83911,-2.52999 -38.20454,0.36435 -81.19269,2.43285 -107.52341,15.17982 -26.2893,12.728 -55.27162,42.75231 -79.69396,61.98416 -12.211123,9.61592 -23.355445,15.4449 -29.094648,16.44481 -2.869546,0.50191 -4.028351,0.75694 -5.059754,0 -0.604861,-0.44128 -1.581215,-3.25053 -2.529988,-5.05997 12.726876,-35.48628 45.28922,-97.14339 84.75383,-155.59292 40.09425,-59.38215 87.71449,-115.07336 123.9682,-134.08817 1.0103,-0.16196 1.58929,0.2024 3.79501,0 4.41124,-0.36435 10.96176,-0.99179 18.97468,-1.26294 16.02599,-0.55052 38.47229,-1.12533 65.77913,-1.262958 z"
       id="path13343"
       inkscape:connector-curvature="0"
       sodipodi:nodetypes="cccccccccssccssssccccccssssssssssscccccscccsccccc" />
  </g>
</svg>
