<?xml version="1.0" encoding="UTF-8" standalone="no"?>
<!-- Created with Inkscape (http://www.inkscape.org/) -->

<svg
   xmlns:dc="http://purl.org/dc/elements/1.1/"
   xmlns:cc="http://creativecommons.org/ns#"
   xmlns:rdf="http://www.w3.org/1999/02/22-rdf-syntax-ns#"
   xmlns:svg="http://www.w3.org/2000/svg"
   xmlns="http://www.w3.org/2000/svg"
   xmlns:sodipodi="http://sodipodi.sourceforge.net/DTD/sodipodi-0.dtd"
   xmlns:inkscape="http://www.inkscape.org/namespaces/inkscape"
   width="1000"
   height="1000"
   id="svg3288"
   version="1.1"
   inkscape:version="0.91 r13725"
   sodipodi:docname="valuetype_canvas.svg"
   inkscape:export-filename="/Users/chyu/Source/sif.font/resources/concepts/valuetype_canvas.png"
   inkscape:export-xdpi="2.1600001"
   inkscape:export-ydpi="2.1600001">
  <defs
     id="defs3290" />
  <sodipodi:namedview
     id="base"
     pagecolor="#ffffff"
     bordercolor="#666666"
     borderopacity="1.0"
     inkscape:pageopacity="0.0"
     inkscape:pageshadow="2"
     inkscape:zoom="0.2215084"
     inkscape:cx="286.00649"
     inkscape:cy="237.95541"
     inkscape:document-units="px"
     inkscape:current-layer="g6495"
     showgrid="false"
     showguides="false"
     inkscape:window-width="1218"
     inkscape:window-height="755"
     inkscape:window-x="58"
     inkscape:window-y="20"
     inkscape:window-maximized="0" />
  <metadata
     id="metadata3293">
    <rdf:RDF>
      <cc:Work
         rdf:about="">
        <dc:format>image/svg+xml</dc:format>
        <dc:type
           rdf:resource="http://purl.org/dc/dcmitype/StillImage" />
        <dc:title></dc:title>
      </cc:Work>
    </rdf:RDF>
  </metadata>
  <g
     inkscape:label="Layer 1"
     inkscape:groupmode="layer"
     id="layer1"
     transform="translate(0,-52.362183)">
    <g
       transform="matrix(37.476093,0,0,37.499998,-21579.239,-13009.536)"
       id="g6495"
       style="display:inline">
      <path
         style="fill:#000000;stroke:none"
         mask="none"
         clip-path="none"
         d="M 50 132.98633 L 50 866.58008 L 657.81641 866.58008 L 657.81641 532.5957 L 949.42578 532.5957 L 949.42578 132.98633 L 50 132.98633 z M 499.87695 173.51953 C 530.89524 173.51953 555.23828 199.37606 555.23828 230.41406 C 555.23828 261.45206 530.89524 285.81055 499.87695 285.81055 C 468.85867 285.81055 443.01758 261.45206 443.01758 230.41406 C 443.01758 199.37606 468.85867 173.51953 499.87695 173.51953 z M 160.08594 185.7207 L 306.47656 185.7207 L 306.47656 273.61133 L 160.08594 273.61133 L 160.08594 185.7207 z M 691.7793 185.7207 L 839.33984 185.7207 L 839.33984 273.61133 L 691.7793 273.61133 L 691.7793 185.7207 z M 689.91406 569.0957 L 689.91406 867.01367 L 950 569.0957 L 689.91406 569.0957 z "
         transform="matrix(0.02668368,0,0,0.02666667,575.81347,348.3173)"
         id="path6497" />
      <g
         id="g6500"
         transform="matrix(1,0,0,0.92587745,27.917889,31.377246)"
         clip-path="none"
         mask="none" />
    </g>
  </g>
</svg>
