<?xml version="1.0" encoding="UTF-8" standalone="no"?>
<!-- Created with Inkscape (http://www.inkscape.org/) -->

<svg
   xmlns:dc="http://purl.org/dc/elements/1.1/"
   xmlns:cc="http://creativecommons.org/ns#"
   xmlns:rdf="http://www.w3.org/1999/02/22-rdf-syntax-ns#"
   xmlns:svg="http://www.w3.org/2000/svg"
   xmlns="http://www.w3.org/2000/svg"
   xmlns:sodipodi="http://sodipodi.sourceforge.net/DTD/sodipodi-0.dtd"
   xmlns:inkscape="http://www.inkscape.org/namespaces/inkscape"
   width="1000"
   height="1000"
   id="svg3288"
   version="1.1"
   inkscape:version="0.48.2 r9819"
   sodipodi:docname="valuetype_color.svg"
   inkscape:export-filename="/Users/chyu/Source/sif.font/resources/concepts/valuetype_color.png"
   inkscape:export-xdpi="2.1600001"
   inkscape:export-ydpi="2.1600001">
  <defs
     id="defs3290" />
  <sodipodi:namedview
     id="base"
     pagecolor="#ffffff"
     bordercolor="#666666"
     borderopacity="1.0"
     inkscape:pageopacity="0.0"
     inkscape:pageshadow="2"
     inkscape:zoom="0.2215084"
     inkscape:cx="-524.34653"
     inkscape:cy="535.91251"
     inkscape:document-units="px"
     inkscape:current-layer="layer1"
     showgrid="false"
     showguides="false"
     inkscape:window-width="1218"
     inkscape:window-height="755"
     inkscape:window-x="58"
     inkscape:window-y="20"
     inkscape:window-maximized="0" />
  <metadata
     id="metadata3293">
    <rdf:RDF>
      <cc:Work
         rdf:about="">
        <dc:format>image/svg+xml</dc:format>
        <dc:type
           rdf:resource="http://purl.org/dc/dcmitype/StillImage" />
        <dc:title></dc:title>
      </cc:Work>
    </rdf:RDF>
  </metadata>
  <g
     inkscape:label="Layer 1"
     inkscape:groupmode="layer"
     id="layer1"
     transform="translate(0,-52.362183)">
    <path
       style="fill:#000000;fill-opacity:1;stroke:none;display:inline"
       d="M 370.39725,197.50019 C 116.01248,293.9781 -29.956284,531.00536 44.393074,727.04287 118.74391,923.08453 385.18243,1003.7023 639.56731,907.22436 722.99481,875.58385 794.79316,828.65865 850.94904,773.17331 872.14944,709.3273 690.13474,648.97138 720.54529,555.6198 731.84697,520.92592 754.79759,471.18102 822.33928,445.17005 915.82607,414.2187 1004.5866,494.35708 965.56989,377.67716 891.22058,181.63963 624.78213,101.02222 370.39725,197.50019 z m 123.35744,401.02803 c 50.30086,-19.07721 106.53303,6.23016 125.60988,56.53007 19.07685,50.3003 -6.23081,106.53234 -56.53167,125.60954 -50.30098,19.07679 -106.53326,-6.23018 -125.61011,-56.53048 -19.07674,-50.29988 6.23081,-106.53193 56.5319,-125.60913 z"
       id="path9991-8"
       inkscape:connector-curvature="0" />
  </g>
</svg>
