<?xml version="1.0" encoding="UTF-8" standalone="no"?>
<!-- Created with Inkscape (http://www.inkscape.org/) -->

<svg
   xmlns:dc="http://purl.org/dc/elements/1.1/"
   xmlns:cc="http://creativecommons.org/ns#"
   xmlns:rdf="http://www.w3.org/1999/02/22-rdf-syntax-ns#"
   xmlns:svg="http://www.w3.org/2000/svg"
   xmlns="http://www.w3.org/2000/svg"
   xmlns:sodipodi="http://sodipodi.sourceforge.net/DTD/sodipodi-0.dtd"
   xmlns:inkscape="http://www.inkscape.org/namespaces/inkscape"
   width="1000"
   height="1000"
   id="svg3288"
   version="1.1"
   inkscape:version="0.48.2 r9819"
   sodipodi:docname="valuetype_splinepoint.svg"
   inkscape:export-filename="/Users/chyu/Source/sif.font/resources/concepts/valuetype_splinepoint.png"
   inkscape:export-xdpi="2.1600001"
   inkscape:export-ydpi="2.1600001">
  <defs
     id="defs3290" />
  <sodipodi:namedview
     id="base"
     pagecolor="#ffffff"
     bordercolor="#666666"
     borderopacity="1.0"
     inkscape:pageopacity="0.0"
     inkscape:pageshadow="2"
     inkscape:zoom="0.2215084"
     inkscape:cx="-524.34653"
     inkscape:cy="535.91251"
     inkscape:document-units="px"
     inkscape:current-layer="layer1"
     showgrid="false"
     showguides="false"
     inkscape:window-width="1218"
     inkscape:window-height="755"
     inkscape:window-x="58"
     inkscape:window-y="20"
     inkscape:window-maximized="0" />
  <metadata
     id="metadata3293">
    <rdf:RDF>
      <cc:Work
         rdf:about="">
        <dc:format>image/svg+xml</dc:format>
        <dc:type
           rdf:resource="http://purl.org/dc/dcmitype/StillImage" />
        <dc:title></dc:title>
      </cc:Work>
    </rdf:RDF>
  </metadata>
  <g
     inkscape:label="Layer 1"
     inkscape:groupmode="layer"
     id="layer1"
     transform="translate(0,-52.362183)">
    <g
       id="g7796"
       transform="matrix(42.49668,0,0,42.49668,3416.5312,-25291.954)">
      <path
         inkscape:connector-curvature="0"
         id="path7794"
         transform="translate(-158.64525,557.19593)"
         d="m 82.28125,39.1875 -4,0.09375 c 0.05109,2.384056 1.138989,6.463204 4.3125,9.75 -0.318835,0.859517 -0.5,1.783154 -0.5,2.75 0,4.387 3.581755,7.96875 7.96875,7.96875 2.104623,0 4.008152,-0.843427 5.4375,-2.1875 1.371367,1.728637 2.226625,3.630033 2.25,5.15625 l 4,-0.0625 c -0.0484,-3.158419 -1.63555,-6.268416 -4,-8.75 0.191838,-0.682815 0.28125,-1.383079 0.28125,-2.125 0,-4.38699 -3.581756,-8 -7.96875,-8 -1.976041,0 -3.790136,0.736035 -5.1875,1.9375 -2.103383,-2.457739 -2.566217,-5.246493 -2.59375,-6.53125 z m 7.78125,7.9375 c 2.580048,0 4.625,2.07621 4.625,4.65625 0,2.58006 -2.044952,4.625 -4.625,4.625 -2.580062,0 -4.65625,-2.04493 -4.65625,-4.625 0,-2.58004 2.076194,-4.65625 4.65625,-4.65625 z"
         style="font-size:medium;font-style:normal;font-variant:normal;font-weight:normal;font-stretch:normal;text-indent:0;text-align:start;text-decoration:none;line-height:normal;letter-spacing:normal;word-spacing:normal;text-transform:none;direction:ltr;block-progression:tb;writing-mode:lr-tb;text-anchor:start;baseline-shift:baseline;color:#000000;fill:#000000;fill-opacity:1;stroke:none;stroke-width:4;marker:none;visibility:visible;display:inline;overflow:visible;enable-background:accumulate;font-family:Sans;-inkscape-font-specification:Sans" />
    </g>
  </g>
</svg>
