<?xml version="1.0" encoding="UTF-8" standalone="no"?>
<!-- Created with Inkscape (http://www.inkscape.org/) -->

<svg
   xmlns:dc="http://purl.org/dc/elements/1.1/"
   xmlns:cc="http://creativecommons.org/ns#"
   xmlns:rdf="http://www.w3.org/1999/02/22-rdf-syntax-ns#"
   xmlns:svg="http://www.w3.org/2000/svg"
   xmlns="http://www.w3.org/2000/svg"
   xmlns:sodipodi="http://sodipodi.sourceforge.net/DTD/sodipodi-0.dtd"
   xmlns:inkscape="http://www.inkscape.org/namespaces/inkscape"
   width="1000"
   height="1000"
   id="svg3888"
   version="1.1"
   inkscape:version="0.91 r13725"
   sodipodi:docname="layer_warp.svg"
   inkscape:export-filename="/Users/chyu/Source/sif.font/resources/concepts/layer_warp.png"
   inkscape:export-xdpi="2.1600015"
   inkscape:export-ydpi="2.1600015">
  <defs
     id="defs3890" />
  <sodipodi:namedview
     id="base"
     pagecolor="#ffffff"
     bordercolor="#666666"
     borderopacity="1.0"
     inkscape:pageopacity="0.0"
     inkscape:pageshadow="2"
     inkscape:zoom="0.64000043"
     inkscape:cx="499.99979"
     inkscape:cy="499.99998"
     inkscape:document-units="px"
     inkscape:current-layer="g3582"
     showgrid="false"
     inkscape:window-width="1440"
     inkscape:window-height="826"
     inkscape:window-x="0"
     inkscape:window-y="0"
     inkscape:window-maximized="1" />
  <metadata
     id="metadata3893">
    <rdf:RDF>
      <cc:Work
         rdf:about="">
        <dc:format>image/svg+xml</dc:format>
        <dc:type
           rdf:resource="http://purl.org/dc/dcmitype/StillImage" />
        <dc:title />
      </cc:Work>
    </rdf:RDF>
  </metadata>
  <g
     inkscape:label="Layer 1"
     inkscape:groupmode="layer"
     id="layer1"
     transform="translate(0,-52.362183)">
    <g
       style="display:inline"
       id="g3582"
       transform="matrix(40.887017,0,0,40.887017,2575.176,-58573.169)">
      <g
         transform="matrix(1.0190677,0,0,1.0190677,-182.29995,385.86918)"
         style="display:inline"
         id="g6604">
        <rect
           y="1028.3645"
           x="117.08469"
           height="24"
           width="24"
           id="rect8755"
           style="fill:none;stroke:none" />
        <path
           id="path8747"
           transform="matrix(0.57009855,0,0.13871058,-0.25738258,102.47558,1249.6604)"
           style="fill:#000000;fill-opacity:1;stroke:none"
           d="m -131.14265,806.61224 a 10.263338,31.930384 0 0 1 -10.26334,31.93039 10.263338,31.930384 0 0 1 -10.26334,-31.93039 10.263338,31.930384 0 0 1 10.26334,-31.93038 10.263338,31.930384 0 0 1 10.26334,31.93038 z m -33.67746,-21.33959 c -0.36376,-1.00318 -0.0244,-2.70143 0.88527,-4.16617 0.72337,-1.16481 1.78535,-1.36179 2.65405,-2.16682 0.83169,-0.77083 1.68702,-1.06922 2.05789,-0.22534 0.407,0.92624 0.0385,2.7531 -0.88537,4.16656 -0.95652,1.46319 -1.78817,1.40374 -2.65832,2.2146 -0.89535,0.69041 -1.75604,0.99735 -2.0539,0.17872 z m 8.81376,-5.58507 c -0.34523,-1.05252 -0.0255,-2.86034 0.9274,-4.26797 0.79251,-1.3952 1.75985,-1.34236 2.61629,-2.1132 0.81035,-0.72926 1.82897,-1.06728 2.07894,-0.0661 0.30524,1.22231 -0.14576,2.85645 -1.03436,4.26564 -1.06129,1.27476 -2.21306,1.65979 -3.29825,2.43101 -0.5858,0.33802 -1.09596,0.34579 -1.29021,-0.24866 z m 8.84334,-5.70668 c -0.38637,-0.96355 -0.007,-2.64665 0.88527,-4.16618 0.82936,-1.41268 1.79146,-1.54206 2.65833,-2.2146 0.7098,-0.55054 1.65632,-0.73431 2.05691,0.0505 0.21945,1.35557 -0.0393,2.84518 -0.94355,4.17355 -0.68967,1.01328 -2.26034,1.77246 -2.86245,2.09883 -0.74143,0.40212 -1.52244,0.73664 -1.79461,0.0583 z m -30.7188,84.80061 c -0.28176,-1.14188 0.20176,-3.17621 1.17809,-4.27962 0.56971,-0.64379 1.57326,-0.82368 2.34307,-1.33226 0.90021,-0.59445 1.88124,-0.92858 2.16325,0.27197 0.27174,1.15703 -0.21694,3.03478 -1.17809,4.27962 -0.75056,1.19472 -1.57399,0.83222 -2.34307,1.33226 -0.92813,0.60338 -1.86017,0.95616 -2.16325,-0.27197 z m 8.52659,-3.27839 c -0.21906,-1.36179 0.31925,-3.10316 1.28676,-4.3243 0.79606,-1.00473 2.01292,-1.07661 2.99478,-1.56421 0.66602,-0.33025 1.40806,0.19815 1.34525,1.64813 -0.0721,1.66017 -0.90064,3.29937 -1.6343,3.86584 -1.08059,0.83455 -2.2155,1.22114 -3.13946,1.14227 -0.35571,-0.0389 -0.75641,-0.16318 -0.85303,-0.76773 z m 8.55173,-3.15639 c -0.15035,-1.32216 0.2169,-3.03478 1.17826,-4.27962 0.52865,-0.63097 1.6014,-1.15043 2.343,-1.33226 0.78642,-0.19426 1.88126,-0.92858 2.16325,0.27197 0.27174,1.15703 -0.19757,3.49635 -1.17818,4.27923 -1.27043,1.01406 -4.27911,2.55184 -4.50633,1.06068 z m 8.52659,-3.27839 c -0.21728,-1.24173 0.23481,-2.90385 1.19616,-4.23494 0.86679,-1.20016 1.68486,-1.23318 2.48441,-1.42822 0.56735,-0.13987 1.80019,-0.76191 2.05887,0.32247 0.27615,1.15742 -0.23356,2.91162 -1.19616,4.23494 -0.83782,1.15198 -1.796,1.08438 -2.50691,1.42551 -0.61887,0.29528 -1.93501,0.26031 -2.03666,-0.31859 z m 8.58032,-3.21584 c -0.35455,-1.02493 0.21802,-3.09733 1.17919,-4.34178 0.69396,-0.78754 1.6048,-1.07544 2.34291,-1.33187 0.80952,-0.27974 1.8813,-0.92858 2.16324,0.27197 0.27169,1.15742 -0.23407,2.93415 -1.17827,4.27962 -0.77317,1.10186 -1.73017,1.1446 -2.343,1.33226 -0.93598,0.28751 -2.00618,0.24865 -2.16423,-0.20981 z m -30.48218,2.0829 c -1.13477,0 -1.81837,-1.16597 -2.17649,-2.81255 -0.35813,-1.64657 -0.4414,-3.86623 -0.31131,-6.55328 0.26006,-5.37371 1.39919,-12.62945 3.34949,-20.64514 1.95039,-8.01608 4.34242,-15.27337 6.69731,-20.64709 1.17749,-2.68705 2.34088,-4.9067 3.50027,-6.55327 1.15938,-1.64658 2.41036,-2.81255 3.54513,-2.81255 1.13476,0 1.81834,1.16597 2.17648,2.81255 0.35813,1.64657 0.4414,3.86622 0.31132,6.55327 -0.26008,5.37372 -1.39959,12.63101 -3.34999,20.64709 -1.95029,8.01569 -4.34194,15.27143 -6.69682,20.64514 -1.17748,2.68705 -2.34088,4.90671 -3.50027,6.55328 -1.15939,1.64658 -2.41036,2.81255 -3.54512,2.81255 z m 0.69831,-2.87005 c 0.4033,0 1.00716,-0.43437 1.8842,-1.67999 0.87704,-1.24562 1.93133,-3.2104 3.02009,-5.69502 2.17748,-4.96887 4.50948,-11.99926 6.39918,-19.76591 1.8897,-7.76665 2.9793,-14.79898 3.21977,-19.76785 0.12031,-2.48463 0.0221,-4.44941 -0.24878,-5.69502 -0.2709,-1.24562 -0.66339,-1.67999 -1.06669,-1.67999 -0.40331,0 -1.00716,0.43437 -1.88422,1.67999 -0.87704,1.24561 -1.93131,3.21039 -3.02009,5.69502 -2.17747,4.96887 -4.50995,12.0012 -6.39965,19.76785 -1.8897,7.76665 -2.97883,14.79704 -3.2193,19.76591 -0.12029,2.48462 -0.0221,4.4494 0.24878,5.69502 0.27092,1.24562 0.66339,1.67999 1.06671,1.67999 z" />
      </g>
    </g>
  </g>
</svg>
