<?xml version="1.0" encoding="UTF-8" standalone="no"?>
<svg
   xmlns:dc="http://purl.org/dc/elements/1.1/"
   xmlns:cc="http://creativecommons.org/ns#"
   xmlns:rdf="http://www.w3.org/1999/02/22-rdf-syntax-ns#"
   xmlns:svg="http://www.w3.org/2000/svg"
   xmlns="http://www.w3.org/2000/svg"
   version="1.1"
   id="svg3288"
   height="1000"
   width="1000">
  <defs
     id="defs3290" />
  <metadata
     id="metadata3293">
    <rdf:RDF>
      <cc:Work
         rdf:about="">
        <dc:format>image/svg+xml</dc:format>
        <dc:type
           rdf:resource="http://purl.org/dc/dcmitype/StillImage" />
        <dc:title></dc:title>
      </cc:Work>
    </rdf:RDF>
  </metadata>
  <g
     transform="translate(0,-52.362183)"
     id="layer1">
    <path
       d="m 500.09766,68.335938 a 69.223804,69.329366 0 0 0 -8.50586,0.515624 69.223804,69.329366 0 0 0 -53.13282,35.900388 L 34.269531,827.66797 a 69.223804,69.329366 0 0 0 59.320313,103.98242 l 810.843746,0 a 69.223804,69.329366 0 1 0 0,-138.63086 l -692.16797,0 347.29883,-620.18359 A 69.223804,69.329366 0 0 0 500.09766,68.335938 Z M 817.7207,170.8457 c -80.73888,0 -147.28711,66.42478 -147.28711,147.28711 0,80.86251 66.54823,147.32227 147.28711,147.32227 80.7394,0 147.32227,-66.45976 147.32227,-147.32227 0,-80.86233 -66.58287,-147.28711 -147.32227,-147.28711 z m 0,79.20313 c 37.98779,0 68.08203,30.03838 68.08203,68.08398 0,38.04582 -30.09424,68.11914 -68.08203,68.11914 -37.98737,0 -68.08398,-30.07332 -68.08398,-68.11914 0,-38.0456 30.09661,-68.08398 68.08398,-68.08398 z m -351.46093,144.15625 -29.71485,51.99219 c 107.48066,73.20452 177.69795,190.83187 189.37305,320.64062 l 59.42969,0 C 673.80248,615.20402 592.43695,478.25874 466.25977,394.20508 Z"
       style="font-size:medium;font-style:normal;font-variant:normal;font-weight:normal;font-stretch:normal;text-indent:0;text-align:start;text-decoration:none;line-height:normal;letter-spacing:normal;word-spacing:normal;text-transform:none;direction:ltr;block-progression:tb;writing-mode:lr-tb;text-anchor:start;baseline-shift:baseline;color:#000000;fill:#000000;fill-opacity:1;stroke:none;stroke-width:1.5;marker:none;visibility:visible;display:inline;overflow:visible;enable-background:accumulate;font-family:Sans;-inkscape-font-specification:Sans"
       transform="translate(0,52.362183)"
       id="path3180" />
  </g>
</svg>
