<?xml version="1.0" encoding="UTF-8" standalone="no"?>
<!-- Created with Inkscape (http://www.inkscape.org/) -->

<svg
   xmlns:dc="http://purl.org/dc/elements/1.1/"
   xmlns:cc="http://creativecommons.org/ns#"
   xmlns:rdf="http://www.w3.org/1999/02/22-rdf-syntax-ns#"
   xmlns:svg="http://www.w3.org/2000/svg"
   xmlns="http://www.w3.org/2000/svg"
   xmlns:sodipodi="http://sodipodi.sourceforge.net/DTD/sodipodi-0.dtd"
   xmlns:inkscape="http://www.inkscape.org/namespaces/inkscape"
   width="1000"
   height="1000"
   id="svg3446"
   version="1.1"
   inkscape:version="0.91 r13725"
   sodipodi:docname="toolbox_brush.svg"
   inkscape:export-filename="/Users/chyu/Source/sif.font/resources/concepts/toolbox_brush.png"
   inkscape:export-xdpi="2.1600001"
   inkscape:export-ydpi="2.1600001">
  <defs
     id="defs3448" />
  <sodipodi:namedview
     id="base"
     pagecolor="#ffffff"
     bordercolor="#666666"
     borderopacity="1.0"
     inkscape:pageopacity="0.0"
     inkscape:pageshadow="2"
     inkscape:zoom="0.51231771"
     inkscape:cx="500.00051"
     inkscape:cy="499.00014"
     inkscape:document-units="px"
     inkscape:current-layer="g24727"
     showgrid="false"
     inkscape:window-width="987"
     inkscape:window-height="754"
     inkscape:window-x="58"
     inkscape:window-y="20"
     inkscape:window-maximized="0" />
  <metadata
     id="metadata3451">
    <rdf:RDF>
      <cc:Work
         rdf:about="">
        <dc:format>image/svg+xml</dc:format>
        <dc:type
           rdf:resource="http://purl.org/dc/dcmitype/StillImage" />
        <dc:title />
      </cc:Work>
    </rdf:RDF>
  </metadata>
  <g
     inkscape:label="Layer 1"
     inkscape:groupmode="layer"
     id="layer1"
     transform="translate(0,-52.362183)">
    <g
       transform="matrix(29.450377,29.450377,-29.450377,29.450377,26843.403,-8768.2287)"
       id="g24619"
       style="display:inline"
       inkscape:export-filename="/Users/chyu/Desktop/tools-0.png"
       inkscape:export-xdpi="74.745888"
       inkscape:export-ydpi="74.745888">
      <g
         id="g24623"
         style="fill:#2e3436"
         transform="matrix(0.70710678,-0.70710678,0.70710678,0.70710678,-512.79679,-27.015006)">
        <g
           id="g24675"
           transform="matrix(0.70710678,0.70710678,-0.70710678,0.70710678,343.4996,381.70459)">
          <g
             id="g24727">
            <path
               inkscape:connector-curvature="0"
               style="fill:#000000;fill-rule:evenodd;stroke:none"
               d="m -290.16033,590.71759 c -1.93662,0.51894 -2.45228,1.58015 -2.45228,1.58015 l 3.27093,14.94998 6.72417,-1.80174 -4.59589,-14.59496 c 0,0 -1.01029,-0.65235 -2.94693,-0.13343 z"
               id="path24690"
               sodipodi:nodetypes="cccccc" />
            <path
               style="fill:#000000;fill-rule:evenodd;stroke:none"
               d="m -289.09976,608.28759 6.79186,-1.81987 c 1.06361,0.35191 1.49244,1.47578 1.78078,2.44331 0.61431,2.06128 0.19488,4.62354 -1.22139,6.20129 -1.26259,1.40654 -3.49351,4.03113 -6.96458,4.07251 -1.45005,0.0173 -2.65027,-0.25728 -3.6336,-0.69893 -0.68815,-0.30907 -0.6383,-0.95191 0.0389,-1.20227 1.80859,-0.36616 4.11953,-2.43118 3.78223,-3.93135 -0.33731,-1.50018 -1.48645,-2.42821 -1.05995,-3.90241 0.1555,-0.53748 0.18736,-0.97497 0.48575,-1.16228 z"
               id="path24694"
               inkscape:connector-curvature="0"
               sodipodi:nodetypes="ccssssczsc" />
          </g>
        </g>
      </g>
    </g>
  </g>
</svg>
