<?xml version="1.0" encoding="UTF-8" standalone="no"?>
<!-- Created with Inkscape (http://www.inkscape.org/) -->

<svg
   xmlns:dc="http://purl.org/dc/elements/1.1/"
   xmlns:cc="http://creativecommons.org/ns#"
   xmlns:rdf="http://www.w3.org/1999/02/22-rdf-syntax-ns#"
   xmlns:svg="http://www.w3.org/2000/svg"
   xmlns="http://www.w3.org/2000/svg"
   xmlns:sodipodi="http://sodipodi.sourceforge.net/DTD/sodipodi-0.dtd"
   xmlns:inkscape="http://www.inkscape.org/namespaces/inkscape"
   width="1000"
   height="1000"
   id="svg3888"
   version="1.1"
   inkscape:version="0.91 r13725"
   sodipodi:docname="layer_solid.svg"
   inkscape:export-filename="/Users/chyu/Source/sif.font/resources/concepts/layer_solid.png"
   inkscape:export-xdpi="2.1600001"
   inkscape:export-ydpi="2.1600001">
  <defs
     id="defs3890" />
  <sodipodi:namedview
     id="base"
     pagecolor="#ffffff"
     bordercolor="#666666"
     borderopacity="1.0"
     inkscape:pageopacity="0.0"
     inkscape:pageshadow="2"
     inkscape:zoom="0.52452922"
     inkscape:cx="470.78174"
     inkscape:cy="520.58344"
     inkscape:document-units="px"
     inkscape:current-layer="g3582"
     showgrid="false"
     inkscape:window-width="1440"
     inkscape:window-height="826"
     inkscape:window-x="0"
     inkscape:window-y="0"
     inkscape:window-maximized="1"
     showguides="true"
     inkscape:guide-bbox="true">
    <sodipodi:guide
       position="524.04135,984.21591"
       orientation="1,0"
       id="guide4135" />
    <sodipodi:guide
       position="524.04135,984.21591"
       orientation="0,1"
       id="guide4137" />
  </sodipodi:namedview>
  <metadata
     id="metadata3893">
    <rdf:RDF>
      <cc:Work
         rdf:about="">
        <dc:format>image/svg+xml</dc:format>
        <dc:type
           rdf:resource="http://purl.org/dc/dcmitype/StillImage" />
        <dc:title />
      </cc:Work>
    </rdf:RDF>
  </metadata>
  <g
     inkscape:label="Layer 1"
     inkscape:groupmode="layer"
     id="layer1"
     transform="translate(0,-52.362183)">
    <g
       style="display:inline"
       id="g3582"
       transform="matrix(40.887017,0,0,40.887017,2575.176,-58573.169)">
      <path
         id="path4874"
         style="fill:#000000;stroke:none"
         d="m -58.438197,1443.0975 c -1.910944,0.2902 -3.571936,2.8715 -3.648224,4.5976 0.06359,2.065 0.281538,3.946 0.259659,6.0154 -4.264577,3.8468 5.488672,6.6887 3.489769,-0.026 -0.912627,-1.9397 -0.501188,-4.8407 -0.698368,-7.267 -0.0108,-0.094 -0.02018,-0.1789 -0.02018,-0.2632 l -0.394736,-0.4555 0.48583,-0.425 2.297531,-2.0243 c -0.614701,-0.085 -1.24678,-0.2317 -1.771281,-0.152 z m 7.182731,-8.0831 c -0.786039,0.8645 -1.189844,2.1785 -1.173407,3.8691 l 0.06339,5.4865 c -0.339726,0.258 -0.570851,0.6821 -0.570851,1.1416 0,0.7804 0.615038,1.3954 1.39541,1.3954 0.780362,0 1.427114,-0.615 1.427114,-1.3954 0,-0.4587 -0.232164,-0.8835 -0.570852,-1.1416 l -0.06339,-5.4865 c -0.01294,-1.3411 0.292473,-2.0634 0.665992,-2.4737 0.373529,-0.4104 0.929309,-0.6064 1.680831,-0.5709 0.751624,0.036 1.34999,0.3066 1.775971,0.7929 0.425971,0.4864 0.754508,1.2362 0.761122,2.5688 l 0,1.3954 1.712544,1.9662 -0.03169,-3.3616 c -0.0082,-1.6992 -0.448502,-3.0641 -1.236833,-3.9642 -0.788341,-0.9001 -1.851666,-1.3135 -2.917664,-1.332 -1.276958,-0.022 -2.20327,0.3243 -2.917687,1.11 z m 1.649117,2.8542 c -0.07674,0.3383 -0.06349,0.6766 -0.09508,1.0148 l 0.06339,5.2011 c 0.312854,0.4102 0.539138,0.8777 0.539138,1.4271 0,1.3235 -1.086724,2.4419 -2.410239,2.4419 -1.323525,0 -2.441963,-1.1096 -2.441963,-2.4419 0,-0.5589 0.254991,-1.0201 0.570851,-1.4271 l -0.03169,-2.8225 -5.137633,4.5033 11.004675,12.4953 8.943273,-7.8968 z"
         inkscape:connector-curvature="0"
         sodipodi:nodetypes="sccccccccssccssscccccccccssscccssscccccc" />
    </g>
  </g>
</svg>
