<?xml version="1.0" encoding="UTF-8" standalone="no"?>
<!-- Created with Inkscape (http://www.inkscape.org/) -->

<svg
   xmlns:dc="http://purl.org/dc/elements/1.1/"
   xmlns:cc="http://creativecommons.org/ns#"
   xmlns:rdf="http://www.w3.org/1999/02/22-rdf-syntax-ns#"
   xmlns:svg="http://www.w3.org/2000/svg"
   xmlns="http://www.w3.org/2000/svg"
   xmlns:sodipodi="http://sodipodi.sourceforge.net/DTD/sodipodi-0.dtd"
   xmlns:inkscape="http://www.inkscape.org/namespaces/inkscape"
   width="1000"
   height="1000"
   id="svg3888"
   version="1.1"
   inkscape:version="0.91 r13725"
   sodipodi:docname="layer_checkboard.svg"
   inkscape:export-filename="/Users/chyu/Source/sif.font/resources/concepts/layer_checkboard.png"
   inkscape:export-xdpi="2.1600001"
   inkscape:export-ydpi="2.1600001">
  <defs
     id="defs3890" />
  <sodipodi:namedview
     id="base"
     pagecolor="#ffffff"
     bordercolor="#666666"
     borderopacity="1.0"
     inkscape:pageopacity="0.0"
     inkscape:pageshadow="2"
     inkscape:zoom="0.73142857"
     inkscape:cx="500"
     inkscape:cy="499.46875"
     inkscape:document-units="px"
     inkscape:current-layer="g6692"
     showgrid="false"
     inkscape:window-width="1440"
     inkscape:window-height="826"
     inkscape:window-x="0"
     inkscape:window-y="0"
     inkscape:window-maximized="1" />
  <metadata
     id="metadata3893">
    <rdf:RDF>
      <cc:Work
         rdf:about="">
        <dc:format>image/svg+xml</dc:format>
        <dc:type
           rdf:resource="http://purl.org/dc/dcmitype/StillImage" />
        <dc:title />
      </cc:Work>
    </rdf:RDF>
  </metadata>
  <g
     inkscape:label="Layer 1"
     inkscape:groupmode="layer"
     id="layer1"
     transform="translate(0,-52.362183)">
    <g
       style="display:inline"
       id="g3582"
       transform="matrix(40.887017,0,0,40.887017,2575.176,-58573.169)">
      <g
         transform="matrix(1.0190684,0,0,1.0190684,-222.07247,305.87444)"
         style="display:inline"
         id="g6692">
        <g
           id="g3696"
           transform="translate(-0.01208478,-5.0269912e-4)">
          <path
             style="fill:#000000;fill-rule:evenodd;stroke:none"
             d="m 62.5,63.03125 0,875 875,0 0,-875 z m 41.65625,41.65625 187,0 0,186.96875 208.34375,0 0,-186.96875 208.34375,0 0,186.96875 188,0 0,208.3125 -188,0 0,208.34375 188,0 0,188.0625 -187.5,0 -0.5,-188.0625 -208.34375,0 0,188.0625 -207.84375,0 -0.5,-188.0625 -187,0 0,-207.78125 187,-0.5625 0,-208.3125 -187,0 z m 187,395.28125 0,208.34375 208.34375,0 0,-208.34375 z m 208.34375,0 208.34375,0 0,-208.3125 -208.34375,0 z"
             transform="matrix(0.024,0,0,0.024,156.125,1106.8622)"
             id="rect4198"
             inkscape:connector-curvature="0"
             sodipodi:nodetypes="cccccccccccccccccccccccccccccccccccccccc" />
        </g>
      </g>
    </g>
  </g>
</svg>
