<?xml version="1.0" encoding="UTF-8" standalone="no"?>
<!-- Created with Inkscape (http://www.inkscape.org/) -->

<svg
   xmlns:dc="http://purl.org/dc/elements/1.1/"
   xmlns:cc="http://creativecommons.org/ns#"
   xmlns:rdf="http://www.w3.org/1999/02/22-rdf-syntax-ns#"
   xmlns:svg="http://www.w3.org/2000/svg"
   xmlns="http://www.w3.org/2000/svg"
   xmlns:sodipodi="http://sodipodi.sourceforge.net/DTD/sodipodi-0.dtd"
   xmlns:inkscape="http://www.inkscape.org/namespaces/inkscape"
   width="1000"
   height="1000"
   id="svg3888"
   version="1.1"
   inkscape:version="0.91 r13725"
   sodipodi:docname="clock-2.svg"
   inkscape:export-filename="/Users/chyu/Source/sif.font/resources/concepts/layer_timeloop.png"
   inkscape:export-xdpi="2.1600001"
   inkscape:export-ydpi="2.1600001">
  <defs
     id="defs3890" />
  <sodipodi:namedview
     id="base"
     pagecolor="#ffffff"
     bordercolor="#666666"
     borderopacity="1.0"
     inkscape:pageopacity="0.0"
     inkscape:pageshadow="2"
     inkscape:zoom="0.3737606"
     inkscape:cx="474.76847"
     inkscape:cy="509.35224"
     inkscape:document-units="px"
     inkscape:current-layer="g3582"
     showgrid="false"
     inkscape:window-width="1440"
     inkscape:window-height="826"
     inkscape:window-x="0"
     inkscape:window-y="1"
     inkscape:window-maximized="1" />
  <metadata
     id="metadata3893">
    <rdf:RDF>
      <cc:Work
         rdf:about="">
        <dc:format>image/svg+xml</dc:format>
        <dc:type
           rdf:resource="http://purl.org/dc/dcmitype/StillImage" />
        <dc:title />
      </cc:Work>
    </rdf:RDF>
  </metadata>
  <g
     inkscape:label="Layer 1"
     inkscape:groupmode="layer"
     id="layer1"
     transform="translate(0,-52.362183)">
    <g
       style="display:inline"
       id="g3582"
       transform="matrix(40.887017,0,0,40.887017,2575.176,-58573.169)">
      <path
         id="path4156"
         style="color:#000000;font-style:normal;font-variant:normal;font-weight:normal;font-stretch:normal;font-size:medium;line-height:normal;font-family:Sans;-inkscape-font-specification:Sans;text-indent:0;text-align:start;text-decoration:none;text-decoration-line:none;letter-spacing:normal;word-spacing:normal;text-transform:none;direction:ltr;block-progression:tb;writing-mode:lr-tb;baseline-shift:baseline;text-anchor:start;display:inline;overflow:visible;visibility:visible;fill:#000000;fill-opacity:1;stroke:none;stroke-width:2.05147529;marker:none;enable-background:accumulate"
         d="m -43.37005,1446.0076 3.132628,-0.011 c -0.01925,-4.8346 -3.364045,-9.0413 -8.070104,-10.149 -4.407013,-1.0374 -8.958674,0.891 -11.304496,4.6867 l -1.806759,-1.1166 1.226161,5.1946 5.194753,-1.2262 -1.95017,-1.2052 c 1.645827,-2.6706 4.820614,-4.0109 7.922383,-3.2807 3.310552,0.7792 5.642058,3.7068 5.655604,7.1079 z m -14.758632,0.062 -3.132628,0.012 c 0.01925,4.8346 3.364045,9.0413 8.070104,10.149 4.407013,1.0374 8.958674,-0.891 11.304496,-4.6867 l 1.806759,1.1166 -1.226161,-5.1946 -5.194753,1.2262 1.95017,1.2052 c -1.645827,2.6706 -4.820614,4.0109 -7.922383,3.2807 -3.310552,-0.7792 -5.642058,-3.7068 -5.655604,-7.1079 z m 9.826105,-5.2939 a 0.86497669,0.86497669 0 0 0 -0.737776,0.5005 l -2.055265,4.0579 -2.187014,0.2899 a 0.86497669,0.86497669 0 1 0 0.210779,1.7127 l 2.661341,-0.3427 0.447917,-0.052 0.210827,-0.4215 2.239684,-4.4795 a 0.86497669,0.86497669 0 0 0 -0.790493,-1.2647 l 0,-4e-4 z" />
    </g>
  </g>
</svg>
