<?xml version="1.0" encoding="UTF-8" standalone="no"?>
<!-- Created with Inkscape (http://www.inkscape.org/) -->

<svg
   xmlns:dc="http://purl.org/dc/elements/1.1/"
   xmlns:cc="http://creativecommons.org/ns#"
   xmlns:rdf="http://www.w3.org/1999/02/22-rdf-syntax-ns#"
   xmlns:svg="http://www.w3.org/2000/svg"
   xmlns="http://www.w3.org/2000/svg"
   xmlns:sodipodi="http://sodipodi.sourceforge.net/DTD/sodipodi-0.dtd"
   xmlns:inkscape="http://www.inkscape.org/namespaces/inkscape"
   width="1000"
   height="1000"
   id="svg3288"
   version="1.1"
   inkscape:version="0.91 r13725"
   sodipodi:docname="duck-skew.svg">
  <defs
     id="defs3290" />
  <sodipodi:namedview
     id="base"
     pagecolor="#ffffff"
     bordercolor="#666666"
     borderopacity="1.0"
     inkscape:pageopacity="0.0"
     inkscape:pageshadow="2"
     inkscape:zoom="0.053922241"
     inkscape:cx="541.27669"
     inkscape:cy="342.10561"
     inkscape:document-units="px"
     inkscape:current-layer="g6061"
     showgrid="false"
     showguides="false"
     inkscape:window-width="1402"
     inkscape:window-height="855"
     inkscape:window-x="-6"
     inkscape:window-y="20"
     inkscape:window-maximized="0" />
  <metadata
     id="metadata3293">
    <rdf:RDF>
      <cc:Work
         rdf:about="">
        <dc:format>image/svg+xml</dc:format>
        <dc:type
           rdf:resource="http://purl.org/dc/dcmitype/StillImage" />
        <dc:title />
      </cc:Work>
    </rdf:RDF>
  </metadata>
  <g
     inkscape:label="Layer 1"
     inkscape:groupmode="layer"
     id="layer1"
     transform="translate(0,-52.362183)">
    <g
       transform="matrix(41.666667,0,0,41.666667,-14546.126,-28732.146)"
       id="g5504">
      <g
         transform="translate(-50.51743,-0.51500991)"
         id="g5522">
        <g
           transform="matrix(0.76171904,0,0,0.76171904,164.5965,154.28467)"
           id="g5972">
          <g
             transform="matrix(0.99528452,0,0,0.99528452,-67.170872,3.3246971)"
             id="g6061">
            <g
               id="g5516"
               transform="matrix(1.31282,0,0,1.31282,-33.789554,-254.58659)" />
            <path
               style="color:#000000;font-style:normal;font-variant:normal;font-weight:normal;font-stretch:normal;font-size:medium;line-height:normal;font-family:sans-serif;text-indent:0;text-align:start;text-decoration:none;text-decoration-line:none;text-decoration-style:solid;text-decoration-color:#000000;letter-spacing:normal;word-spacing:normal;text-transform:none;direction:ltr;block-progression:tb;writing-mode:lr-tb;baseline-shift:baseline;text-anchor:start;white-space:normal;clip-rule:nonzero;display:inline;overflow:visible;visibility:visible;opacity:1;isolation:auto;mix-blend-mode:normal;color-interpolation:sRGB;color-interpolation-filters:linearRGB;solid-color:#000000;solid-opacity:1;fill:#000000;fill-opacity:1;fill-rule:evenodd;stroke:none;stroke-width:1px;stroke-linecap:butt;stroke-linejoin:miter;stroke-miterlimit:4;stroke-dasharray:none;stroke-dashoffset:0;stroke-opacity:1;color-rendering:auto;image-rendering:auto;shape-rendering:auto;text-rendering:auto;enable-background:accumulate"
               d="m 399.51385,705.70021 -6.14871,3.67436 6.14871,3.67692 0,-2.3641 8.60001,0 0,-2.62564 -8.60001,0 z"
               id="path4166"
               inkscape:connector-curvature="0"
               sodipodi:nodetypes="cccccccc" />
            <path
               style="color:#000000;font-style:normal;font-variant:normal;font-weight:normal;font-stretch:normal;font-size:medium;line-height:normal;font-family:sans-serif;text-indent:0;text-align:start;text-decoration:none;text-decoration-line:none;text-decoration-style:solid;text-decoration-color:#000000;letter-spacing:normal;word-spacing:normal;text-transform:none;direction:ltr;block-progression:tb;writing-mode:lr-tb;baseline-shift:baseline;text-anchor:start;white-space:normal;clip-rule:nonzero;display:inline;overflow:visible;visibility:visible;opacity:1;isolation:auto;mix-blend-mode:normal;color-interpolation:sRGB;color-interpolation-filters:linearRGB;solid-color:#000000;solid-opacity:1;fill:#000000;fill-opacity:1;fill-rule:nonzero;stroke:none;stroke-width:48.09521484;stroke-linecap:round;stroke-linejoin:miter;stroke-miterlimit:4;stroke-dasharray:none;stroke-dashoffset:0.85000002;stroke-opacity:1;color-rendering:auto;image-rendering:auto;shape-rendering:auto;text-rendering:auto;enable-background:accumulate"
               d="M 223.23242 8.2324219 C 199.1512 8.2000189 174.67717 12.322798 150.79492 21.056641 C 41.619239 60.982461 -14.826211 182.51377 25.099609 291.68945 C 54.764178 372.80527 129.47827 424.79898 210.70117 429.79883 L 414.96484 988.3457 L 572.97656 930.5625 L 568.63867 918.70312 L 997.30273 918.70312 L 800.80078 381.26367 L 372.0957 381.26367 L 368.71289 372.01172 C 427.54672 315.79217 451.09362 227.86682 421.42969 146.75195 C 390.23764 61.458204 309.23678 8.3481468 223.23242 8.2324219 z M 223.41016 56.203125 C 289.87022 56.147173 352.04239 97.047665 376.25977 163.26953 C 407.25832 248.03415 363.97946 341.2166 279.21484 372.21484 C 194.45054 403.21372 101.26809 359.93618 70.269531 275.17188 C 39.270975 190.40757 82.550149 97.225119 167.31445 66.226562 C 185.85664 59.445559 204.80134 56.218791 223.41016 56.203125 z M 328.58984 402.05469 L 511.41016 901.9668 L 443.55859 926.78125 L 260.73828 426.86719 C 272.46682 424.74443 284.17167 421.61549 295.73438 417.38672 C 307.29834 413.15795 318.26194 408.00472 328.58984 402.05469 z M 389.65039 429.26367 L 767.23633 429.26367 L 928.63477 870.70312 L 551.08594 870.70312 L 389.65039 429.26367 z "
               transform="matrix(0.03165696,0,0,0.03165696,377.50037,705.06119)"
               id="path4134" />
          </g>
        </g>
      </g>
    </g>
  </g>
</svg>
