<?xml version="1.0" encoding="UTF-8" standalone="no"?>
<!-- Created with Inkscape (http://www.inkscape.org/) -->

<svg
   xmlns:dc="http://purl.org/dc/elements/1.1/"
   xmlns:cc="http://creativecommons.org/ns#"
   xmlns:rdf="http://www.w3.org/1999/02/22-rdf-syntax-ns#"
   xmlns:svg="http://www.w3.org/2000/svg"
   xmlns="http://www.w3.org/2000/svg"
   xmlns:sodipodi="http://sodipodi.sourceforge.net/DTD/sodipodi-0.dtd"
   xmlns:inkscape="http://www.inkscape.org/namespaces/inkscape"
   width="1000"
   height="1000"
   id="svg3288"
   version="1.1"
   inkscape:version="0.91 r13725"
   sodipodi:docname="duck-position.svg">
  <defs
     id="defs3290" />
  <sodipodi:namedview
     id="base"
     pagecolor="#ffffff"
     bordercolor="#666666"
     borderopacity="1.0"
     inkscape:pageopacity="0.0"
     inkscape:pageshadow="2"
     inkscape:zoom="0.24657576"
     inkscape:cx="701.17256"
     inkscape:cy="278.91837"
     inkscape:document-units="px"
     inkscape:current-layer="g5972"
     showgrid="false"
     showguides="false"
     inkscape:window-width="1402"
     inkscape:window-height="855"
     inkscape:window-x="56"
     inkscape:window-y="0"
     inkscape:window-maximized="0" />
  <metadata
     id="metadata3293">
    <rdf:RDF>
      <cc:Work
         rdf:about="">
        <dc:format>image/svg+xml</dc:format>
        <dc:type
           rdf:resource="http://purl.org/dc/dcmitype/StillImage" />
        <dc:title />
      </cc:Work>
    </rdf:RDF>
  </metadata>
  <g
     inkscape:label="Layer 1"
     inkscape:groupmode="layer"
     id="layer1"
     transform="translate(0,-52.362183)">
    <g
       transform="matrix(41.666667,0,0,41.666667,-14546.126,-28732.146)"
       id="g5504">
      <g
         transform="translate(-50.51743,-0.51500991)"
         id="g5522">
        <g
           transform="matrix(0.76171904,0,0,0.76171904,164.5965,154.28467)"
           id="g5972">
          <path
             id="path4146"
             style="color:#000000;font-style:normal;font-variant:normal;font-weight:normal;font-stretch:normal;font-size:medium;line-height:normal;font-family:sans-serif;text-indent:0;text-align:start;text-decoration:none;text-decoration-line:none;text-decoration-style:solid;text-decoration-color:#000000;letter-spacing:normal;word-spacing:normal;text-transform:none;direction:ltr;block-progression:tb;writing-mode:lr-tb;baseline-shift:baseline;text-anchor:start;white-space:normal;clip-rule:nonzero;display:inline;overflow:visible;visibility:visible;opacity:1;isolation:auto;mix-blend-mode:normal;color-interpolation:sRGB;color-interpolation-filters:linearRGB;solid-color:#000000;solid-opacity:1;fill:#000000;fill-opacity:1;fill-rule:nonzero;stroke:none;stroke-width:1.51236868;stroke-linecap:round;stroke-linejoin:miter;stroke-miterlimit:4;stroke-dasharray:none;stroke-dashoffset:0.85000002;stroke-opacity:1;color-rendering:auto;image-rendering:auto;shape-rendering:auto;text-rendering:auto;enable-background:accumulate"
             d="m 324.30273,705.78125 c -8.29418,0 -15.0332,6.73902 -15.0332,15.0332 0,8.29419 6.73902,15.03516 15.0332,15.03516 8.29419,0 15.03516,-6.74097 15.03516,-15.03516 0,-8.29418 -6.74097,-15.0332 -15.03516,-15.0332 z m 0,1.51172 c 7.47684,0 13.52149,6.04464 13.52149,13.52148 0,7.47684 -6.04465,13.52149 -13.52149,13.52149 -7.47683,0 -13.52148,-6.04465 -13.52148,-13.52149 0,-7.47684 6.04465,-13.52148 13.52148,-13.52148 z m 5.1e-4,6.52331 c -3.85,0 -6.99875,3.14583 -6.99875,6.99875 0,3.85 3.14583,6.99875 6.99875,6.99875 3.85416,0 6.99875,-3.14584 6.99875,-6.99875 0,-3.85 -3.14584,-6.99875 -6.99875,-6.99875 z m 0,1.46666 c 3.03333,0 5.4525,2.5 5.4525,5.53375 0,3.03334 -2.41667,5.4525 -5.4525,5.4525 -3.03334,0 -5.4525,-2.41666 -5.4525,-5.4525 0,-3.03333 2.41666,-5.53375 5.4525,-5.53375 z" />
        </g>
      </g>
    </g>
  </g>
</svg>
