<?xml version="1.0" encoding="UTF-8" standalone="no"?>
<!-- Created with Inkscape (http://www.inkscape.org/) -->

<svg
   xmlns:dc="http://purl.org/dc/elements/1.1/"
   xmlns:cc="http://creativecommons.org/ns#"
   xmlns:rdf="http://www.w3.org/1999/02/22-rdf-syntax-ns#"
   xmlns:svg="http://www.w3.org/2000/svg"
   xmlns="http://www.w3.org/2000/svg"
   xmlns:sodipodi="http://sodipodi.sourceforge.net/DTD/sodipodi-0.dtd"
   xmlns:inkscape="http://www.inkscape.org/namespaces/inkscape"
   width="1000"
   height="1000"
   id="svg3888"
   version="1.1"
   inkscape:version="0.91 r13725"
   sodipodi:docname="layer_image2.svg"
   inkscape:export-filename="/Users/chyu/Source/sif.font/resources/concepts/layer_image2.png"
   inkscape:export-xdpi="2.1600001"
   inkscape:export-ydpi="2.1600001">
  <defs
     id="defs3890" />
  <sodipodi:namedview
     id="base"
     pagecolor="#ffffff"
     bordercolor="#666666"
     borderopacity="1.0"
     inkscape:pageopacity="0.0"
     inkscape:pageshadow="2"
     inkscape:zoom="0.74698376"
     inkscape:cx="499.99997"
     inkscape:cy="499.90661"
     inkscape:document-units="px"
     inkscape:current-layer="g6766"
     showgrid="false"
     inkscape:window-width="1440"
     inkscape:window-height="826"
     inkscape:window-x="0"
     inkscape:window-y="0"
     inkscape:window-maximized="1" />
  <metadata
     id="metadata3893">
    <rdf:RDF>
      <cc:Work
         rdf:about="">
        <dc:format>image/svg+xml</dc:format>
        <dc:type
           rdf:resource="http://purl.org/dc/dcmitype/StillImage" />
        <dc:title />
      </cc:Work>
    </rdf:RDF>
  </metadata>
  <g
     inkscape:label="Layer 1"
     inkscape:groupmode="layer"
     id="layer1"
     transform="translate(0,-52.362183)">
    <g
       style="display:inline"
       id="g3582"
       transform="matrix(40.887017,0,0,40.887017,2575.176,-58573.169)">
      <g
         transform="matrix(1.0190682,0,0,1.0190682,-261.84487,225.88055)"
         style="display:inline"
         id="g6766">
        <path
           id="path14847"
           style="color:#000000;font-style:normal;font-variant:normal;font-weight:normal;font-stretch:normal;font-size:medium;line-height:normal;font-family:Sans;-inkscape-font-specification:Sans;text-indent:0;text-align:start;text-decoration:none;text-decoration-line:none;letter-spacing:normal;word-spacing:normal;text-transform:none;direction:ltr;block-progression:tb;writing-mode:lr-tb;baseline-shift:baseline;text-anchor:start;display:inline;overflow:visible;visibility:visible;fill:#000000;fill-opacity:1;fill-rule:nonzero;stroke:none;stroke-width:1;marker:none;enable-background:accumulate"
           d="m 213.01714,1207.5775 0,-5.9933 6.041,0 z m -17.87619,-20.4974 0.0313,20.5625 17.00002,0 0,-0.012 0.01,0 0,-6.9766 6.95508,0 0,-0.037 0.004,0 0,-13.5371 -23.99995,0 z m 0.98049,0.9804 22.04105,0 0,11.5938 -2.77055,0 -2.94502,-4.7947 -4e-5,0 -7.82325,8.0708 -2.75761,-4.2231 -4.76588,4.6923 0,2.2524 14.08181,0 0,1.0121 -15.03122,0 z m 11.01918,1.2872 c -0.96892,0 -1.74999,0.818 -1.75,1.7812 0,0.9632 0.7937,1.7188 1.75,1.7188 0.95631,0 1.75,-0.7556 1.75,-1.7188 0,-0.9632 -0.78107,-1.7812 -1.75,-1.7812 z m -9.3125,0.3437 0,2.8438 4.40626,0 0,-2.8438 z m 14.1875,0 0,2.8438 4.4375,0 0,-2.8438 z m -4.875,0.1563 c 0.68538,0 1.25,0.589 1.25,1.2812 0,0.6922 -0.552,1.2188 -1.25,1.2188 -0.69799,0 -1.25,-0.5266 -1.25,-1.2188 0,-0.6922 0.56463,-1.2812 1.25,-1.2812 z m -8.8125,0.3437 3.40626,0 0,1.8438 -3.40626,0 z m 14.1875,0 3.4375,0 0,1.8438 -3.4375,0 z" />
      </g>
    </g>
  </g>
</svg>
