<?xml version="1.0" encoding="UTF-8" standalone="no"?>
<!-- Created with Inkscape (http://www.inkscape.org/) -->

<svg
   xmlns:dc="http://purl.org/dc/elements/1.1/"
   xmlns:cc="http://creativecommons.org/ns#"
   xmlns:rdf="http://www.w3.org/1999/02/22-rdf-syntax-ns#"
   xmlns:svg="http://www.w3.org/2000/svg"
   xmlns="http://www.w3.org/2000/svg"
   xmlns:sodipodi="http://sodipodi.sourceforge.net/DTD/sodipodi-0.dtd"
   xmlns:inkscape="http://www.inkscape.org/namespaces/inkscape"
   width="1000"
   height="1000"
   id="svg3288"
   version="1.1"
   inkscape:version="0.91 r13725"
   sodipodi:docname="interpolation_nonnamed.svg">
  <defs
     id="defs3290" />
  <sodipodi:namedview
     id="base"
     pagecolor="#ffffff"
     bordercolor="#666666"
     borderopacity="1.0"
     inkscape:pageopacity="0.0"
     inkscape:pageshadow="2"
     inkscape:zoom="0.319"
     inkscape:cx="551.85779"
     inkscape:cy="364.62595"
     inkscape:document-units="px"
     inkscape:current-layer="g7131"
     showgrid="false"
     showguides="false"
     inkscape:window-width="1402"
     inkscape:window-height="855"
     inkscape:window-x="56"
     inkscape:window-y="16"
     inkscape:window-maximized="0" />
  <metadata
     id="metadata3293">
    <rdf:RDF>
      <cc:Work
         rdf:about="">
        <dc:format>image/svg+xml</dc:format>
        <dc:type
           rdf:resource="http://purl.org/dc/dcmitype/StillImage" />
        <dc:title></dc:title>
      </cc:Work>
    </rdf:RDF>
  </metadata>
  <g
     inkscape:label="Layer 1"
     inkscape:groupmode="layer"
     id="layer1"
     transform="translate(0,-52.362183)">
    <g
       style="display:inline"
       id="g7131"
       transform="matrix(41.666667,0,0,41.666667,-4546.0943,-30849.806)"
       inkscape:export-filename="/Users/chyu/Desktop/fis_interpolations.png"
       inkscape:export-xdpi="300"
       inkscape:export-ydpi="300">
      <g
         transform="matrix(0.40944606,0,0,0.40944606,-526.48327,388.70965)"
         id="g9701"
         style="fill:#555753;stroke:#2e3436;stroke-width:1.92232525;stroke-opacity:1">
        <path
           style="fill:#000000;fill-opacity:1;stroke:none"
           d="M 333.20703 75.001953 C 327.4799 74.931679 321.95344 77.111224 317.81641 81.072266 L 81.712891 317.38867 C 77.621175 321.46806 75.312077 327.0015 75.287109 332.7793 L 74.822266 666.58008 C 74.837806 672.37026 77.149565 677.91772 81.25 682.00586 L 317.49609 918.42969 C 321.56964 922.53451 327.10185 924.85814 332.88477 924.89258 L 666.75781 925 C 672.54799 924.98446 678.09545 922.6727 682.18359 918.57227 L 918.57227 682.64844 C 922.66398 678.56905 924.97503 673.03561 925 667.25781 L 925.17773 333.06445 C 925.16219 327.27427 922.85043 321.72681 918.75 317.63867 L 682.79102 81.607422 C 679.15352 77.847512 674.28759 75.516377 669.07812 75.037109 L 333.20703 75.001953 z M 342.34766 118.85156 L 500.03516 118.92188 L 500.03516 881.07812 L 342.49023 881.07812 L 119.09961 657.54492 L 118.88672 341.5625 L 342.34766 118.85156 z "
           transform="matrix(0.05861578,0,0,0.05861578,1552.3157,861.9997)"
           id="path9356" />
      </g>
    </g>
  </g>
</svg>
