<?xml version="1.0" encoding="UTF-8" standalone="no"?>
<!-- Created with Inkscape (http://www.inkscape.org/) -->

<svg
   xmlns:dc="http://purl.org/dc/elements/1.1/"
   xmlns:cc="http://creativecommons.org/ns#"
   xmlns:rdf="http://www.w3.org/1999/02/22-rdf-syntax-ns#"
   xmlns:svg="http://www.w3.org/2000/svg"
   xmlns="http://www.w3.org/2000/svg"
   xmlns:sodipodi="http://sodipodi.sourceforge.net/DTD/sodipodi-0.dtd"
   xmlns:inkscape="http://www.inkscape.org/namespaces/inkscape"
   width="1000"
   height="1000"
   id="svg2988"
   version="1.1"
   inkscape:version="0.91 r13725"
   sodipodi:docname="key-4.svg"
   inkscape:export-filename="/Users/chyu/Source/sif.font/output/glyphs/key-4.png"
   inkscape:export-xdpi="2.1600001"
   inkscape:export-ydpi="2.1600001">
  <defs
     id="defs2990" />
  <sodipodi:namedview
     id="base"
     pagecolor="#ffffff"
     bordercolor="#666666"
     borderopacity="1.0"
     inkscape:pageopacity="0"
     inkscape:pageshadow="2"
     inkscape:zoom="0.13685094"
     inkscape:cx="-942.74091"
     inkscape:cy="512.24287"
     inkscape:document-units="px"
     inkscape:current-layer="layer1"
     showgrid="true"
     inkscape:showpageshadow="false"
     showguides="true"
     inkscape:guide-bbox="true"
     inkscape:window-width="1440"
     inkscape:window-height="826"
     inkscape:window-x="0"
     inkscape:window-y="1"
     inkscape:window-maximized="1">
    <sodipodi:guide
       orientation="1,0"
       position="50,760"
       id="guide2996" />
    <sodipodi:guide
       orientation="1,0"
       position="950,808.57143"
       id="guide3000" />
    <sodipodi:guide
       orientation="0,1"
       position="648.57143,950"
       id="guide3002" />
    <sodipodi:guide
       orientation="0,1"
       position="605.71429,50"
       id="guide3004" />
    <sodipodi:guide
       orientation="1,0"
       position="100,645.71429"
       id="guide3006" />
    <sodipodi:guide
       orientation="1,0"
       position="900,480"
       id="guide3008" />
    <sodipodi:guide
       orientation="0,1"
       position="531.42857,900"
       id="guide3010" />
    <sodipodi:guide
       orientation="0,1"
       position="648.57143,100"
       id="guide3012" />
    <inkscape:grid
       type="xygrid"
       id="grid3014"
       empspacing="50"
       visible="true"
       enabled="true"
       snapvisiblegridlinesonly="true"
       dotted="false"
       color="#0400ff"
       opacity="0.02745098"
       empcolor="#f00059"
       empopacity="0.25098039" />
  </sodipodi:namedview>
  <metadata
     id="metadata2993">
    <rdf:RDF>
      <cc:Work
         rdf:about="">
        <dc:format>image/svg+xml</dc:format>
        <dc:type
           rdf:resource="http://purl.org/dc/dcmitype/StillImage" />
        <dc:title />
      </cc:Work>
    </rdf:RDF>
  </metadata>
  <g
     inkscape:label="Layer 1"
     inkscape:groupmode="layer"
     id="layer1"
     transform="translate(0,-52.362183)"
     style="display:inline">
    <path
       id="path4560"
       style="fill:#000000;stroke:none"
       d="m 804.91456,763.03138 c 26.98706,45.39329 3.26375,126.00039 -46.87499,154.94789 -50.13832,28.94749 -128.22372,8.5275 -154.94788,-37.76041 -26.71916,-46.27874 -5.10195,-123.15228 45.57291,-151.04164 50.67486,-27.88936 129.2629,-11.53913 156.24996,33.85416 z M 363.50841,122.40651 256.73759,183.60441 539.28962,673.18765 C 466.80255,746.49472 444.70839,855.57886 495.0188,942.71885 556.32253,1048.9001 700.305,1082.0459 815.33123,1015.6355 930.35787,949.22509 972.98908,808.01471 911.68538,701.83348 859.35997,611.20225 746.61416,575.60017 643.45626,608.0835 L 534.08129,417.97937 651.26876,350.27105 549.70628,173.18775 431.21673,240.89607 Z M 108.66929,121.98035 1.8984811,183.18033 284.4505,674.06357 c -72.48706,73.30832 -94.58123,182.39163 -44.27082,269.53328 54.29824,94.04585 173.49871,130.15825 279.94786,91.14585 -24.2975,-19.0542 -44.94291,-42.15836 -61.19791,-70.31252 -6.35041,-11 -11.23916,-22.41666 -15.62499,-33.85416 -38.88583,-1.83333 -77.7929,-19.58333 -95.05207,-49.47916 -26.71916,-46.27915 -3.2625,-123.3958 46.87499,-152.34163 19.47958,-11.25 42.91541,-16.0125 66.40624,-14.325 8.17125,-15.01249 17.92208,-29.32916 28.64583,-42.96666 l -42.96874,-72.91665 c -19.09625,1.45834 -38.39625,4.46667 -57.29166,10.41667 L 280.54425,418.85529 328.72133,391.51363 225.85677,213.13034 177.67969,240.472 Z" />
    <path
       id="path4178"
       style="color:#000000;font-style:normal;font-variant:normal;font-weight:normal;font-stretch:normal;font-size:medium;line-height:normal;font-family:sans-serif;text-indent:0;text-align:start;text-decoration:none;text-decoration-line:none;text-decoration-style:solid;text-decoration-color:#000000;letter-spacing:normal;word-spacing:normal;text-transform:none;direction:ltr;block-progression:tb;writing-mode:lr-tb;baseline-shift:baseline;text-anchor:start;white-space:normal;clip-rule:nonzero;display:inline;overflow:visible;visibility:visible;opacity:1;isolation:auto;mix-blend-mode:normal;color-interpolation:sRGB;color-interpolation-filters:linearRGB;solid-color:#000000;solid-opacity:1;fill:#000000;fill-opacity:1;fill-rule:nonzero;stroke:none;stroke-width:100;stroke-linecap:butt;stroke-linejoin:miter;stroke-miterlimit:4;stroke-dasharray:none;stroke-dashoffset:0.85000002;stroke-opacity:1;color-rendering:auto;image-rendering:auto;shape-rendering:auto;text-rendering:auto;enable-background:accumulate"
       d="m 848.90625,134.28516 18.83203,52.8789 51.14063,23.14063 -36.37696,42.74804 5.53125,55.86133 -55.21289,-10.13086 -45.60937,32.71875 -18.83203,-52.87695 -51.14063,-23.14062 36.37695,-42.74805 -5.53125,-55.86133 55.21094,10.13086 45.61133,-32.7207 z m 24.8194,-79.339484 -82.30867,59.046534 -99.63247,-18.281865 9.97983,100.804685 -65.64823,77.14484 92.2901,41.75815 33.98585,95.4251 82.30705,-59.04654 99.63413,18.28188 L 934.35173,269.27377 1000,192.12892 907.71151,150.37078 873.72565,54.945676 Z" />
  </g>
</svg>
