<?xml version="1.0" encoding="UTF-8" standalone="no"?>
<!-- Created with Inkscape (http://www.inkscape.org/) -->

<svg
   xmlns:dc="http://purl.org/dc/elements/1.1/"
   xmlns:cc="http://creativecommons.org/ns#"
   xmlns:rdf="http://www.w3.org/1999/02/22-rdf-syntax-ns#"
   xmlns:svg="http://www.w3.org/2000/svg"
   xmlns="http://www.w3.org/2000/svg"
   xmlns:sodipodi="http://sodipodi.sourceforge.net/DTD/sodipodi-0.dtd"
   xmlns:inkscape="http://www.inkscape.org/namespaces/inkscape"
   width="1000"
   height="1000"
   id="svg2988"
   version="1.1"
   inkscape:version="0.91 r13725"
   sodipodi:docname="light.svg"
   inkscape:export-filename="/Users/chyu/Source/sif.font/output/glyphs/light.png"
   inkscape:export-xdpi="2.1600001"
   inkscape:export-ydpi="2.1600001">
  <defs
     id="defs2990" />
  <sodipodi:namedview
     id="base"
     pagecolor="#ffffff"
     bordercolor="#666666"
     borderopacity="1.0"
     inkscape:pageopacity="0"
     inkscape:pageshadow="2"
     inkscape:zoom="0.48217121"
     inkscape:cx="470.8773"
     inkscape:cy="385.93544"
     inkscape:document-units="px"
     inkscape:current-layer="layer1"
     showgrid="true"
     inkscape:showpageshadow="false"
     showguides="false"
     inkscape:guide-bbox="true"
     inkscape:window-width="1440"
     inkscape:window-height="826"
     inkscape:window-x="0"
     inkscape:window-y="1"
     inkscape:window-maximized="1">
    <sodipodi:guide
       orientation="1,0"
       position="50,760"
       id="guide2996" />
    <sodipodi:guide
       orientation="1,0"
       position="950,808.57143"
       id="guide3000" />
    <sodipodi:guide
       orientation="0,1"
       position="648.57143,950"
       id="guide3002" />
    <sodipodi:guide
       orientation="0,1"
       position="605.71429,50"
       id="guide3004" />
    <sodipodi:guide
       orientation="1,0"
       position="100,645.71429"
       id="guide3006" />
    <sodipodi:guide
       orientation="1,0"
       position="900,480"
       id="guide3008" />
    <sodipodi:guide
       orientation="0,1"
       position="531.42857,900"
       id="guide3010" />
    <sodipodi:guide
       orientation="0,1"
       position="648.57143,100"
       id="guide3012" />
    <inkscape:grid
       type="xygrid"
       id="grid3014"
       empspacing="50"
       visible="true"
       enabled="true"
       snapvisiblegridlinesonly="true"
       dotted="false"
       color="#0400ff"
       opacity="0.02745098"
       empcolor="#f00059"
       empopacity="0.25098039" />
    <sodipodi:guide
       position="500,900"
       orientation="1,0"
       id="guide4900"
       inkscape:label=""
       inkscape:color="rgb(0,0,255)" />
  </sodipodi:namedview>
  <metadata
     id="metadata2993">
    <rdf:RDF>
      <cc:Work
         rdf:about="">
        <dc:format>image/svg+xml</dc:format>
        <dc:type
           rdf:resource="http://purl.org/dc/dcmitype/StillImage" />
        <dc:title />
      </cc:Work>
    </rdf:RDF>
  </metadata>
  <g
     inkscape:label="Layer 1"
     inkscape:groupmode="layer"
     id="layer1"
     transform="translate(0,-52.362183)"
     style="display:inline">
    <path
       id="path4201"
       style="opacity:1;fill:#000000;fill-opacity:1;stroke:none;stroke-width:90.90908813;stroke-linecap:butt;stroke-linejoin:round;stroke-miterlimit:4;stroke-dasharray:none;stroke-dashoffset:0.85000002;stroke-opacity:1"
       d="m 366.66341,927.36218 c 7.24552,71.18145 8.54635,97.42832 27.89308,100.00002 l 215.03492,0 c 19.34675,-2.5717 20.64756,-28.81857 27.89308,-100.00002 z M 500,78.64148 l -0.50977,0.0059 C 308.46089,80.593295 146.68701,236.12353 154.04883,429.60632 c 3.60543,94.75767 48.56082,167.50778 92.01172,230.40625 43.4509,62.89847 85.48663,118.21624 103.12695,180.89649 l 10.25977,36.45312 281.10546,0 10.25977,-36.45312 C 668.45282,778.2288 710.48855,722.91104 753.93945,660.01257 797.39035,597.1141 842.34575,524.36399 845.95117,429.60632 853.31299,236.12353 691.53911,80.593347 500.50977,78.647339 L 500,78.64148 Z m 0,50.01367 0.60742,0.008 c 163.83051,1.99009 301.63691,134.56857 295.37891,299.04102 -3.04065,79.9142 -40.81219,142.55001 -83.18555,203.88867 -36.44322,52.75432 -75.72935,103.61351 -99.35742,163.99023 l -12.43555,31.7793 -202.01562,0 -12.43555,-31.7793 C 362.92857,735.20616 323.64244,684.34697 287.19922,631.59265 244.82586,570.25399 207.05432,507.61819 204.01367,427.70398 197.75567,263.23153 335.56207,130.65304 499.39258,128.66296 L 500,128.65515 Z" />
  </g>
</svg>
