<?xml version="1.0" encoding="UTF-8" standalone="no"?>
<!-- Created with Inkscape (http://www.inkscape.org/) -->

<svg
   xmlns:dc="http://purl.org/dc/elements/1.1/"
   xmlns:cc="http://creativecommons.org/ns#"
   xmlns:rdf="http://www.w3.org/1999/02/22-rdf-syntax-ns#"
   xmlns:svg="http://www.w3.org/2000/svg"
   xmlns="http://www.w3.org/2000/svg"
   xmlns:sodipodi="http://sodipodi.sourceforge.net/DTD/sodipodi-0.dtd"
   xmlns:inkscape="http://www.inkscape.org/namespaces/inkscape"
   width="1000"
   height="1000"
   id="svg3288"
   version="1.1"
   inkscape:version="0.48.2 r9819"
   sodipodi:docname="valuetype_list.svg"
   inkscape:export-filename="/Users/chyu/Source/sif.font/resources/concepts/valuetype_list.png"
   inkscape:export-xdpi="2.1600001"
   inkscape:export-ydpi="2.1600001">
  <defs
     id="defs3290" />
  <sodipodi:namedview
     id="base"
     pagecolor="#ffffff"
     bordercolor="#666666"
     borderopacity="1.0"
     inkscape:pageopacity="0.0"
     inkscape:pageshadow="2"
     inkscape:zoom="0.2215084"
     inkscape:cx="-524.34653"
     inkscape:cy="535.91251"
     inkscape:document-units="px"
     inkscape:current-layer="layer1"
     showgrid="false"
     showguides="false"
     inkscape:window-width="1218"
     inkscape:window-height="755"
     inkscape:window-x="58"
     inkscape:window-y="20"
     inkscape:window-maximized="0" />
  <metadata
     id="metadata3293">
    <rdf:RDF>
      <cc:Work
         rdf:about="">
        <dc:format>image/svg+xml</dc:format>
        <dc:type
           rdf:resource="http://purl.org/dc/dcmitype/StillImage" />
        <dc:title></dc:title>
      </cc:Work>
    </rdf:RDF>
  </metadata>
  <g
     inkscape:label="Layer 1"
     inkscape:groupmode="layer"
     id="layer1"
     transform="translate(0,-52.362183)">
    <g
       id="g10345"
       transform="matrix(42.976486,0,0,42.976486,-15492.029,-23740.21)">
      <g
         id="g10317">
        <path
           inkscape:connector-curvature="0"
           id="rect10309"
           d="m 367.56009,555.67499 15.60361,0 0,4 -15.60361,0 z"
           style="fill:#000000;fill-opacity:1;stroke:none" />
        <path
           inkscape:connector-curvature="0"
           id="path10315"
           d="m 5.4901586,43.793468 c 0,1.236791 -1.0026166,2.239407 -2.2394069,2.239407 -1.2367902,0 -2.2394068,-1.002616 -2.2394068,-2.239407 0,-1.23679 1.0026166,-2.239406 2.2394068,-2.239406 1.2367903,0 2.2394069,1.002616 2.2394069,2.239406 z"
           style="fill:#000000;fill-opacity:1;stroke:none"
           transform="matrix(1.0047303,0,0,1.0047303,360.04246,513.67436)" />
      </g>
      <g
         transform="translate(0,7.5776614)"
         id="g10333">
        <path
           inkscape:connector-curvature="0"
           id="rect10335"
           d="m 367.56009,555.67499 15.60361,0 0,4 -15.60361,0 z"
           style="fill:#000000;fill-opacity:1;stroke:none" />
        <path
           inkscape:connector-curvature="0"
           id="path10337"
           d="m 5.4901586,43.793468 c 0,1.236791 -1.0026166,2.239407 -2.2394069,2.239407 -1.2367902,0 -2.2394068,-1.002616 -2.2394068,-2.239407 0,-1.23679 1.0026166,-2.239406 2.2394068,-2.239406 1.2367903,0 2.2394069,1.002616 2.2394069,2.239406 z"
           style="fill:#000000;fill-opacity:1;stroke:none"
           transform="matrix(1.0047303,0,0,1.0047303,360.04246,513.67436)" />
      </g>
      <g
         id="g10339"
         transform="translate(0,15.155322)">
        <path
           inkscape:connector-curvature="0"
           id="rect10341"
           d="m 367.56009,555.67499 15.60361,0 0,4 -15.60361,0 z"
           style="fill:#000000;fill-opacity:1;stroke:none" />
        <path
           inkscape:connector-curvature="0"
           id="path10343"
           d="m 5.4901586,43.793468 c 0,1.236791 -1.0026166,2.239407 -2.2394069,2.239407 -1.2367902,0 -2.2394068,-1.002616 -2.2394068,-2.239407 0,-1.23679 1.0026166,-2.239406 2.2394068,-2.239406 1.2367903,0 2.2394069,1.002616 2.2394069,2.239406 z"
           style="fill:#000000;fill-opacity:1;stroke:none"
           transform="matrix(1.0047303,0,0,1.0047303,360.04246,513.67436)" />
      </g>
    </g>
  </g>
</svg>
