<?xml version="1.0" encoding="UTF-8" standalone="no"?>
<!-- Created with Inkscape (http://www.inkscape.org/) -->

<svg
   xmlns:dc="http://purl.org/dc/elements/1.1/"
   xmlns:cc="http://creativecommons.org/ns#"
   xmlns:rdf="http://www.w3.org/1999/02/22-rdf-syntax-ns#"
   xmlns:svg="http://www.w3.org/2000/svg"
   xmlns="http://www.w3.org/2000/svg"
   xmlns:sodipodi="http://sodipodi.sourceforge.net/DTD/sodipodi-0.dtd"
   xmlns:inkscape="http://www.inkscape.org/namespaces/inkscape"
   width="1000"
   height="1000"
   id="svg2988"
   version="1.1"
   inkscape:version="0.91 r13725"
   sodipodi:docname="lock-2.svg"
   inkscape:export-filename="/Users/chyu/Source/sif.font/output/glyphs/lock-2.png"
   inkscape:export-xdpi="2.1600001"
   inkscape:export-ydpi="2.1600001">
  <defs
     id="defs2990" />
  <sodipodi:namedview
     id="base"
     pagecolor="#ffffff"
     bordercolor="#666666"
     borderopacity="1.0"
     inkscape:pageopacity="0"
     inkscape:pageshadow="2"
     inkscape:zoom="0.49180068"
     inkscape:cx="52.362615"
     inkscape:cy="602.18019"
     inkscape:document-units="px"
     inkscape:current-layer="layer1"
     showgrid="false"
     inkscape:showpageshadow="false"
     showguides="false"
     inkscape:guide-bbox="true"
     inkscape:window-width="1440"
     inkscape:window-height="826"
     inkscape:window-x="4"
     inkscape:window-y="0"
     inkscape:window-maximized="0">
    <sodipodi:guide
       orientation="1,0"
       position="50,760"
       id="guide2996" />
    <sodipodi:guide
       orientation="1,0"
       position="950,808.57143"
       id="guide3000" />
    <sodipodi:guide
       orientation="0,1"
       position="648.57143,950"
       id="guide3002" />
    <sodipodi:guide
       orientation="0,1"
       position="605.71429,50"
       id="guide3004" />
    <sodipodi:guide
       orientation="1,0"
       position="100,645.71429"
       id="guide3006" />
    <sodipodi:guide
       orientation="1,0"
       position="900,480"
       id="guide3008" />
    <sodipodi:guide
       orientation="0,1"
       position="800,900"
       id="guide3010" />
    <sodipodi:guide
       orientation="0,1"
       position="648.57143,100"
       id="guide3012" />
    <inkscape:grid
       type="xygrid"
       id="grid3014"
       empspacing="50"
       visible="true"
       enabled="true"
       snapvisiblegridlinesonly="true"
       dotted="false"
       color="#0400ff"
       opacity="0.02745098"
       empcolor="#f00059"
       empopacity="0.25098039" />
  </sodipodi:namedview>
  <metadata
     id="metadata2993">
    <rdf:RDF>
      <cc:Work
         rdf:about="">
        <dc:format>image/svg+xml</dc:format>
        <dc:type
           rdf:resource="http://purl.org/dc/dcmitype/StillImage" />
        <dc:title />
      </cc:Work>
    </rdf:RDF>
  </metadata>
  <g
     inkscape:label="Layer 1"
     inkscape:groupmode="layer"
     id="layer1"
     transform="translate(0,-52.362183)"
     style="display:inline">
    <g
       id="g4557"
       transform="matrix(44.69795,0,0,41.330917,-5669.2218,-17674.743)"
       style="fill:#555753;stroke:#eeeeec;stroke-width:1.93814707" />
    <g
       style="fill:#555753;stroke:none"
       transform="matrix(44.69795,0,0,41.330917,-5669.2218,-17674.743)"
       id="g4559" />
    <path
       style="fill:#000000;stroke:none"
       d="m 349.63672,6.0664062 0,238.1953138 -344.0410169,0 0,511.54297 0,0.002 344.0410169,0 0,238.19531 643.04883,-493.96679 -76.04493,-58.41407 c -13.73282,14.33969 -32.95851,23.39622 -53.96093,23.39844 -87.74092,0 -175.48183,0 -263.22275,0 l -0.004,0 c -40.825,-0.004 -74.98981,-34.16911 -74.99414,-74.99414 l 0,-176.36728 c 2.72713,-21.88286 10.86037,-41.91384 24.21875,-54.69541 z"
       transform="translate(0,52.362183)"
       id="path4221"
       inkscape:connector-curvature="0"
       sodipodi:nodetypes="cccccccccccccccc" />
    <g
       id="g4318"
       transform="matrix(1.0816264,0,0,1.0816264,-75.821524,-17.797009)">
      <path
         style="color:#000000;font-style:normal;font-variant:normal;font-weight:normal;font-stretch:normal;font-size:medium;line-height:normal;font-family:sans-serif;text-indent:0;text-align:start;text-decoration:none;text-decoration-line:none;text-decoration-style:solid;text-decoration-color:#000000;letter-spacing:normal;word-spacing:normal;text-transform:none;direction:ltr;block-progression:tb;writing-mode:lr-tb;baseline-shift:baseline;text-anchor:start;white-space:normal;clip-rule:nonzero;display:inline;overflow:visible;visibility:visible;opacity:1;isolation:auto;mix-blend-mode:normal;color-interpolation:sRGB;color-interpolation-filters:linearRGB;solid-color:#000000;solid-opacity:1;fill:#000000;fill-opacity:1;fill-rule:nonzero;stroke:none;stroke-width:46.22668076;stroke-linecap:butt;stroke-linejoin:miter;stroke-miterlimit:4;stroke-dasharray:none;stroke-dashoffset:0.85000002;stroke-opacity:1;color-rendering:auto;image-rendering:auto;shape-rendering:auto;text-rendering:auto;enable-background:accumulate"
         d="M 683.72461 25.353516 C 651.93537 25.353516 625.5625 51.724358 625.5625 83.513672 L 625.5625 188.66016 L 599.45898 188.66016 A 25.002499 25.002499 0 0 0 574.45898 213.66016 L 574.45898 390.01953 A 25.002499 25.002499 0 0 0 599.45898 415.01953 L 862.67383 415.01953 A 25.002499 25.002499 0 0 0 887.67383 390.01953 L 887.67383 213.66016 A 25.002499 25.002499 0 0 0 862.67383 188.66016 L 836.57031 188.66016 L 836.57031 83.513672 C 836.57031 51.724466 810.19944 25.353516 778.41016 25.353516 L 683.72461 25.353516 z M 683.72461 75.353516 L 778.41016 75.353516 C 783.36438 75.353516 786.57031 78.559542 786.57031 83.513672 L 786.57031 188.66016 L 675.5625 188.66016 L 675.5625 83.513672 C 675.5625 78.559639 678.77058 75.353516 683.72461 75.353516 z M 624.45898 238.66016 L 837.67383 238.66016 L 837.67383 365.01953 L 624.45898 365.01953 L 624.45898 238.66016 z "
         transform="matrix(0.92453365,0,0,0.92453365,70.09955,64.864534)"
         id="rect4313" />
    </g>
  </g>
</svg>
