<?xml version="1.0" encoding="UTF-8" standalone="no"?>
<!-- Created with Inkscape (http://www.inkscape.org/) -->

<svg
   xmlns:dc="http://purl.org/dc/elements/1.1/"
   xmlns:cc="http://creativecommons.org/ns#"
   xmlns:rdf="http://www.w3.org/1999/02/22-rdf-syntax-ns#"
   xmlns:svg="http://www.w3.org/2000/svg"
   xmlns="http://www.w3.org/2000/svg"
   xmlns:sodipodi="http://sodipodi.sourceforge.net/DTD/sodipodi-0.dtd"
   xmlns:inkscape="http://www.inkscape.org/namespaces/inkscape"
   width="1000"
   height="1000"
   id="svg3288"
   version="1.1"
   inkscape:version="0.48.2 r9819"
   sodipodi:docname="valuetype_vector.svg"
   inkscape:export-filename="/Users/chyu/Source/sif.font/resources/concepts/valuetype_vector.png"
   inkscape:export-xdpi="2.1600001"
   inkscape:export-ydpi="2.1600001">
  <defs
     id="defs3290" />
  <sodipodi:namedview
     id="base"
     pagecolor="#ffffff"
     bordercolor="#666666"
     borderopacity="1.0"
     inkscape:pageopacity="0.0"
     inkscape:pageshadow="2"
     inkscape:zoom="0.15663009"
     inkscape:cx="-759.02749"
     inkscape:cy="535.91251"
     inkscape:document-units="px"
     inkscape:current-layer="layer1"
     showgrid="false"
     showguides="false"
     inkscape:window-width="1218"
     inkscape:window-height="755"
     inkscape:window-x="58"
     inkscape:window-y="20"
     inkscape:window-maximized="0" />
  <metadata
     id="metadata3293">
    <rdf:RDF>
      <cc:Work
         rdf:about="">
        <dc:format>image/svg+xml</dc:format>
        <dc:type
           rdf:resource="http://purl.org/dc/dcmitype/StillImage" />
        <dc:title></dc:title>
      </cc:Work>
    </rdf:RDF>
  </metadata>
  <g
     inkscape:label="Layer 1"
     inkscape:groupmode="layer"
     id="layer1"
     transform="translate(0,-52.362183)">
    <path
       inkscape:connector-curvature="0"
       id="path10103"
       style="fill:#000000;fill-opacity:1;stroke:none;display:inline"
       d="m 500.14263,258.3392 c 61.62973,0 109.44097,46.67454 109.44097,108.48092 0,61.80581 -48.38626,110.40079 -109.44097,110.40079 -61.05448,0 -109.44039,-48.59498 -109.44039,-110.40079 0,-61.80638 47.81078,-108.48092 109.44039,-108.48092 z m 0.50836,-205.977017 c -260.91013,0 -355.46877,180.214627 -355.46877,338.541587 0,269.7593 192.04709,437.04025 355.46877,661.45843 163.42213,-224.41818 354.16678,-391.69913 354.16678,-661.45843 0,-158.32696 -93.25655,-338.541587 -354.16678,-338.541587 z m 0,131.510347 c 103.72055,0 183.59387,78.27457 183.59387,182.29166 0,104.0172 -80.8413,184.89596 -183.59387,184.89596 -102.75246,0 -183.59376,-80.87876 -183.59376,-184.89596 0,-104.01709 79.87333,-182.29166 183.59376,-182.29166 z" />
  </g>
</svg>
