<?xml version="1.0" encoding="UTF-8" standalone="no"?>
<!-- Created with Inkscape (http://www.inkscape.org/) -->

<svg
   xmlns:dc="http://purl.org/dc/elements/1.1/"
   xmlns:cc="http://creativecommons.org/ns#"
   xmlns:rdf="http://www.w3.org/1999/02/22-rdf-syntax-ns#"
   xmlns:svg="http://www.w3.org/2000/svg"
   xmlns="http://www.w3.org/2000/svg"
   xmlns:sodipodi="http://sodipodi.sourceforge.net/DTD/sodipodi-0.dtd"
   xmlns:inkscape="http://www.inkscape.org/namespaces/inkscape"
   width="1000"
   height="1000"
   id="svg2988"
   version="1.1"
   inkscape:version="0.91 r13725"
   sodipodi:docname="projector.svg"
   inkscape:export-filename="/Users/chyu/Source/sif.font/resources/concepts/tool_preview.png"
   inkscape:export-xdpi="2.1600001"
   inkscape:export-ydpi="2.1600001">
  <defs
     id="defs2990" />
  <sodipodi:namedview
     id="base"
     pagecolor="#ffffff"
     bordercolor="#666666"
     borderopacity="1.0"
     inkscape:pageopacity="0"
     inkscape:pageshadow="2"
     inkscape:zoom="0.45851627"
     inkscape:cx="56.124606"
     inkscape:cy="386.58458"
     inkscape:document-units="px"
     inkscape:current-layer="layer1"
     showgrid="true"
     inkscape:showpageshadow="false"
     showguides="true"
     inkscape:guide-bbox="true"
     inkscape:window-width="1440"
     inkscape:window-height="826"
     inkscape:window-x="50"
     inkscape:window-y="0"
     inkscape:window-maximized="0">
    <sodipodi:guide
       orientation="1,0"
       position="50,760"
       id="guide2996" />
    <sodipodi:guide
       orientation="1,0"
       position="950,808.57143"
       id="guide3000" />
    <sodipodi:guide
       orientation="0,1"
       position="648.57143,950"
       id="guide3002" />
    <sodipodi:guide
       orientation="0,1"
       position="605.71429,50"
       id="guide3004" />
    <sodipodi:guide
       orientation="1,0"
       position="100,645.71429"
       id="guide3006" />
    <sodipodi:guide
       orientation="1,0"
       position="900,480"
       id="guide3008" />
    <sodipodi:guide
       orientation="0,1"
       position="531.42857,900"
       id="guide3010" />
    <sodipodi:guide
       orientation="0,1"
       position="648.57143,100"
       id="guide3012" />
    <inkscape:grid
       type="xygrid"
       id="grid3014"
       empspacing="50"
       visible="true"
       enabled="true"
       snapvisiblegridlinesonly="true"
       dotted="false"
       color="#0400ff"
       opacity="0.02745098"
       empcolor="#f00059"
       empopacity="0.25098039" />
  </sodipodi:namedview>
  <metadata
     id="metadata2993">
    <rdf:RDF>
      <cc:Work
         rdf:about="">
        <dc:format>image/svg+xml</dc:format>
        <dc:type
           rdf:resource="http://purl.org/dc/dcmitype/StillImage" />
        <dc:title />
      </cc:Work>
    </rdf:RDF>
  </metadata>
  <g
     inkscape:label="Layer 1"
     inkscape:groupmode="layer"
     id="layer1"
     transform="translate(0,-52.362183)"
     style="display:inline">
    <path
       id="path4578"
       style="fill:#000000;fill-opacity:1;stroke:none"
       d="m 217.37225,58.377227 c -119.818416,0 -217.37247578125,97.554893 -217.37247578125,217.372473 0,119.818 97.55405978125,217.37248 217.37247578125,217.37248 119.81758,0 217.37248,-97.55448 217.37248,-217.37248 0,-119.81758 -97.5549,-217.372473 -217.37248,-217.372473 z m 0,57.271793 c 26.83735,0 48.16037,21.32301 48.16037,48.16037 0,26.83735 -21.32302,48.16037 -48.16037,48.16037 -26.83777,0 -48.16037,-21.32302 -48.16037,-48.16037 0,-26.83736 21.3226,-48.16037 48.16037,-48.16037 z M 111.94009,221.08118 c 26.83777,0 48.16037,21.32301 48.16037,48.16037 0,26.83776 -21.3226,49.462 -48.16037,49.462 -26.837351,0 -49.461999,-22.62424 -49.461999,-49.462 0,-26.83736 22.624648,-48.16037 49.461999,-48.16037 z m 210.86432,0 c 26.83735,0 49.462,21.32301 49.462,48.16037 0,26.83776 -22.62465,49.462 -49.462,49.462 -26.83735,0 -48.16037,-22.62424 -48.16037,-49.462 0,-26.83736 21.32302,-48.16037 48.16037,-48.16037 z M 217.37225,326.51334 c 26.83735,0 48.16037,22.62464 48.16037,49.462 0,26.83776 -21.32302,48.16036 -48.16037,48.16036 -26.83777,0 -48.16037,-21.3226 -48.16037,-48.16036 0,-26.83736 21.3226,-49.462 48.16037,-49.462 z M 691.16615,58.377227 c -119.818,0 -217.37248,97.554893 -217.37248,217.372473 0,119.818 97.55448,217.37248 217.37248,217.37248 119.818,0 217.37248,-97.55448 217.37248,-217.37248 0,-119.81758 -97.55448,-217.372473 -217.37248,-217.372473 z m 0,57.271793 c 26.83777,0 48.16037,21.32301 48.16037,48.16037 0,26.83735 -21.3226,48.16037 -48.16037,48.16037 -26.83735,0 -48.16037,-21.32302 -48.16037,-48.16037 0,-26.83736 21.32302,-48.16037 48.16037,-48.16037 z M 585.73399,221.08118 c 26.83777,0 48.16037,21.32301 48.16037,48.16037 0,26.83776 -21.3226,49.462 -48.16037,49.462 -26.83735,0 -48.16037,-22.62424 -48.16037,-49.462 0,-26.83736 21.32302,-48.16037 48.16037,-48.16037 z m 210.86432,0 c 26.83735,0 49.462,21.32301 49.462,48.16037 0,26.83776 -22.62465,49.462 -49.462,49.462 -26.83735,0 -48.16037,-22.62424 -48.16037,-49.462 0,-26.83736 21.32302,-48.16037 48.16037,-48.16037 z M 691.16615,326.51334 c 26.83777,0 48.16037,22.62464 48.16037,49.462 0,26.83776 -21.3226,48.16036 -48.16037,48.16036 -26.83735,0 -48.16037,-21.3226 -48.16037,-48.16036 0,-26.83736 21.32302,-49.462 48.16037,-49.462 z m -623.481533,201.75289 0,516.74777 709.389223,0 0,-516.74777 z M 811.6702,666.36371 995.46433,617.4561 l 0,321.97743 -183.79413,-42.02792 z"
       inkscape:connector-curvature="0"
       sodipodi:nodetypes="sssssssssssssssssssssssssssssssssssssssssssssssssscccccccccc" />
  </g>
</svg>
