<?xml version="1.0" encoding="UTF-8" standalone="no"?>
<!-- Created with Inkscape (http://www.inkscape.org/) -->

<svg
   xmlns:dc="http://purl.org/dc/elements/1.1/"
   xmlns:cc="http://creativecommons.org/ns#"
   xmlns:rdf="http://www.w3.org/1999/02/22-rdf-syntax-ns#"
   xmlns:svg="http://www.w3.org/2000/svg"
   xmlns="http://www.w3.org/2000/svg"
   xmlns:sodipodi="http://sodipodi.sourceforge.net/DTD/sodipodi-0.dtd"
   xmlns:inkscape="http://www.inkscape.org/namespaces/inkscape"
   width="1000"
   height="1000"
   id="svg3446"
   version="1.1"
   inkscape:version="0.91 r13725"
   sodipodi:docname="toolbox_rotate.svg"
   inkscape:export-filename="/Users/chyu/Source/sif.font/resources/concepts/toolbox_rotate.png"
   inkscape:export-xdpi="2.1600001"
   inkscape:export-ydpi="2.1600001">
  <defs
     id="defs3448" />
  <sodipodi:namedview
     id="base"
     pagecolor="#ffffff"
     bordercolor="#666666"
     borderopacity="1.0"
     inkscape:pageopacity="0.0"
     inkscape:pageshadow="2"
     inkscape:zoom="0.49620891"
     inkscape:cx="499.99998"
     inkscape:cy="499.99952"
     inkscape:document-units="px"
     inkscape:current-layer="layer1"
     showgrid="false"
     inkscape:window-width="987"
     inkscape:window-height="754"
     inkscape:window-x="58"
     inkscape:window-y="20"
     inkscape:window-maximized="0"
     showguides="true"
     inkscape:guide-bbox="true" />
  <metadata
     id="metadata3451">
    <rdf:RDF>
      <cc:Work
         rdf:about="">
        <dc:format>image/svg+xml</dc:format>
        <dc:type
           rdf:resource="http://purl.org/dc/dcmitype/StillImage" />
        <dc:title />
      </cc:Work>
    </rdf:RDF>
  </metadata>
  <g
     inkscape:label="Layer 1"
     inkscape:groupmode="layer"
     id="layer1"
     transform="translate(0,-52.362183)">
    <g
       id="g16457"
       transform="matrix(8.1390652,0,0,8.1390652,1277.0264,-3710.4739)">
      <path
         id="path19619"
         style="opacity:0.95;fill:#000000;fill-rule:evenodd;stroke:none"
         d="m -71.78125,508.5625 0,21.65625 -58.34375,0 49.5,48.34375 39.3125,-40.25 z m -65.5,23.875 -19.59375,19.0625 14.46875,0 0,10 c 0,3.33895 1.44089,9 10.21875,9 l 13.125,0 0,-9 -8.5625,0 c -4.44136,0.36653 -4.5625,-1.8222 -4.5625,-5 l 0,-5 14.46875,0 z m -14.46875,-63.5 0,56.28125 74.96875,0 0,-56.28125 z m 79.875,7.21875 0,9 8.5625,0 c 4.44136,-0.36653 4.5625,1.8222 4.5625,5 l 0,5 -14.46875,0 19.59375,19.0625 19.5625,-19.0625 -14.46875,0 0,-10 c 0,-3.33895 -1.44089,-9 -10.21875,-9 z" />
    </g>
  </g>
</svg>
