<?xml version="1.0" encoding="UTF-8" standalone="no"?>
<!-- Created with Inkscape (http://www.inkscape.org/) -->

<svg
   xmlns:dc="http://purl.org/dc/elements/1.1/"
   xmlns:cc="http://creativecommons.org/ns#"
   xmlns:rdf="http://www.w3.org/1999/02/22-rdf-syntax-ns#"
   xmlns:svg="http://www.w3.org/2000/svg"
   xmlns="http://www.w3.org/2000/svg"
   xmlns:sodipodi="http://sodipodi.sourceforge.net/DTD/sodipodi-0.dtd"
   xmlns:inkscape="http://www.inkscape.org/namespaces/inkscape"
   width="1000"
   height="1000"
   id="svg2988"
   version="1.1"
   inkscape:version="0.91 r13725"
   sodipodi:docname="shade-1.svg"
   inkscape:export-filename="/Users/chyu/Source/sif.font/output/glyphs/shade-1.png"
   inkscape:export-xdpi="2.1600001"
   inkscape:export-ydpi="2.1600001">
  <defs
     id="defs2990" />
  <sodipodi:namedview
     id="base"
     pagecolor="#ffffff"
     bordercolor="#666666"
     borderopacity="1.0"
     inkscape:pageopacity="0"
     inkscape:pageshadow="2"
     inkscape:zoom="0.45141952"
     inkscape:cx="460.66109"
     inkscape:cy="518.88615"
     inkscape:document-units="px"
     inkscape:current-layer="layer1"
     showgrid="true"
     inkscape:showpageshadow="false"
     showguides="false"
     inkscape:guide-bbox="true"
     inkscape:window-width="1440"
     inkscape:window-height="826"
     inkscape:window-x="0"
     inkscape:window-y="1"
     inkscape:window-maximized="1">
    <sodipodi:guide
       orientation="1,0"
       position="50,760"
       id="guide2996" />
    <sodipodi:guide
       orientation="1,0"
       position="950,808.57143"
       id="guide3000" />
    <sodipodi:guide
       orientation="0,1"
       position="648.57143,950"
       id="guide3002" />
    <sodipodi:guide
       orientation="0,1"
       position="605.71429,50"
       id="guide3004" />
    <sodipodi:guide
       orientation="1,0"
       position="100,645.71429"
       id="guide3006" />
    <sodipodi:guide
       orientation="1,0"
       position="900,480"
       id="guide3008" />
    <sodipodi:guide
       orientation="0,1"
       position="531.42857,900"
       id="guide3010" />
    <sodipodi:guide
       orientation="0,1"
       position="648.57143,100"
       id="guide3012" />
    <inkscape:grid
       type="xygrid"
       id="grid3014"
       empspacing="50"
       visible="true"
       enabled="true"
       snapvisiblegridlinesonly="true"
       dotted="false"
       color="#0400ff"
       opacity="0.02745098"
       empcolor="#f00059"
       empopacity="0.25098039" />
  </sodipodi:namedview>
  <metadata
     id="metadata2993">
    <rdf:RDF>
      <cc:Work
         rdf:about="">
        <dc:format>image/svg+xml</dc:format>
        <dc:type
           rdf:resource="http://purl.org/dc/dcmitype/StillImage" />
        <dc:title />
      </cc:Work>
    </rdf:RDF>
  </metadata>
  <g
     inkscape:label="Layer 1"
     inkscape:groupmode="layer"
     id="layer1"
     transform="translate(0,-52.362183)"
     style="display:inline">
    <path
       style="opacity:1;fill:#000000;fill-opacity:1;stroke:none;stroke-width:128;stroke-linecap:round;stroke-linejoin:miter;stroke-miterlimit:4;stroke-dasharray:none;stroke-dashoffset:0.85000002;stroke-opacity:1"
       d="M 769.91016 280.45703 L 769.91016 283.25586 A 374.32483 374.32483 0 0 1 772.50195 290.29297 L 789.91016 290.29297 L 789.91016 289.6582 A 374.32483 374.32483 0 0 0 769.91016 280.45703 z M 789.91016 290.29297 L 789.91016 310.29297 L 809.91016 310.29297 L 809.91016 300.50586 A 374.32483 374.32483 0 0 0 791.29102 290.29297 L 789.91016 290.29297 z M 809.91016 310.29297 L 809.91016 330.29297 L 829.91016 330.29297 L 829.91016 312.26758 A 374.32483 374.32483 0 0 0 826.98633 310.29297 L 809.91016 310.29297 z M 829.91016 330.29297 L 829.91016 350.29297 L 849.91016 350.29297 L 849.91016 330.29297 L 829.91016 330.29297 z M 849.91016 330.29297 L 855.14062 330.29297 A 374.32483 374.32483 0 0 0 849.91016 326.55664 L 849.91016 330.29297 z M 849.91016 350.29297 L 849.91016 370.29297 L 869.91016 370.29297 L 869.91016 350.29297 L 849.91016 350.29297 z M 869.91016 350.29297 L 878.50195 350.29297 A 374.32483 374.32483 0 0 0 869.91016 342.75 L 869.91016 350.29297 z M 869.91016 370.29297 L 869.91016 390.29297 L 889.91016 390.29297 L 889.91016 370.29297 L 869.91016 370.29297 z M 889.91016 370.29297 L 898.57617 370.29297 A 374.32483 374.32483 0 0 0 889.91016 360.99805 L 889.91016 370.29297 z M 889.91016 390.29297 L 889.91016 410.29297 L 909.91016 410.29297 L 909.91016 390.29297 L 889.91016 390.29297 z M 909.91016 390.29297 L 916.24023 390.29297 A 374.32483 374.32483 0 0 0 909.91016 382.44922 L 909.91016 390.29297 z M 909.91016 410.29297 L 909.91016 430.29297 L 929.91016 430.29297 L 929.91016 410.29297 L 909.91016 410.29297 z M 929.91016 410.29297 L 931.45703 410.29297 A 374.32483 374.32483 0 0 0 929.91016 408.25977 L 929.91016 410.29297 z M 929.91016 430.29297 L 929.91016 450.29297 L 949.91016 450.29297 L 949.91016 439.39453 A 374.32483 374.32483 0 0 0 944.32422 430.29297 L 929.91016 430.29297 z M 949.91016 450.29297 L 949.91016 470.29297 L 965.74023 470.29297 A 374.32483 374.32483 0 0 0 956.06836 450.29297 L 949.91016 450.29297 z M 949.91016 470.29297 L 929.91016 470.29297 L 929.91016 490.29297 L 949.91016 490.29297 L 949.91016 470.29297 z M 949.91016 490.29297 L 949.91016 510.29297 L 969.91016 510.29297 L 969.91016 490.29297 L 949.91016 490.29297 z M 969.91016 490.29297 L 974.18555 490.29297 A 374.32483 374.32483 0 0 0 969.91016 478.91602 L 969.91016 490.29297 z M 969.91016 510.29297 L 969.91016 530.29297 L 987.13281 530.29297 A 374.32483 374.32483 0 0 0 981.49609 510.29297 L 969.91016 510.29297 z M 969.91016 530.29297 L 949.91016 530.29297 L 949.91016 550.29297 L 969.91016 550.29297 L 969.91016 530.29297 z M 969.91016 550.29297 L 969.91016 570.29297 L 989.91016 570.29297 L 989.91016 550.29297 L 969.91016 550.29297 z M 989.91016 550.29297 L 992.24805 550.29297 A 374.32483 374.32483 0 0 0 989.91016 541.14844 L 989.91016 550.29297 z M 989.91016 570.29297 L 989.91016 590.29297 L 998.21484 590.29297 A 374.32483 374.32483 0 0 0 995.38672 570.29297 L 989.91016 570.29297 z M 989.91016 590.29297 L 969.91016 590.29297 L 969.91016 610.29297 L 989.91016 610.29297 L 989.91016 590.29297 z M 989.91016 610.29297 L 989.91016 630.29297 L 999.83594 630.29297 A 374.32483 374.32483 0 0 0 1000 625.67578 A 374.32483 374.32483 0 0 0 999.22461 610.29297 L 989.91016 610.29297 z M 989.91016 630.29297 L 969.91016 630.29297 L 969.91016 650.29297 L 989.91016 650.29297 L 989.91016 630.29297 z M 989.91016 650.29297 L 989.91016 670.29297 L 996.85938 670.29297 A 374.32483 374.32483 0 0 0 999.12891 650.29297 L 989.91016 650.29297 z M 989.91016 670.29297 L 969.91016 670.29297 L 969.91016 690.29297 L 989.91016 690.29297 L 989.91016 670.29297 z M 989.91016 690.29297 L 989.91016 709.98438 A 374.32483 374.32483 0 0 0 994.33008 690.29297 L 989.91016 690.29297 z M 969.91016 690.29297 L 949.91016 690.29297 L 949.91016 710.29297 L 969.91016 710.29297 L 969.91016 690.29297 z M 969.91016 710.29297 L 969.91016 730.29297 L 984.86914 730.29297 A 374.32483 374.32483 0 0 0 989.8418 710.29297 L 969.91016 710.29297 z M 969.91016 730.29297 L 949.91016 730.29297 L 949.91016 750.29297 L 969.91016 750.29297 L 969.91016 730.29297 z M 969.91016 750.29297 L 969.91016 770.29297 L 970.54297 770.29297 A 374.32483 374.32483 0 0 0 978.22266 750.29297 L 969.91016 750.29297 z M 969.91016 770.29297 L 949.91016 770.29297 L 949.91016 790.29297 L 961.5918 790.29297 A 374.32483 374.32483 0 0 0 969.91016 771.70703 L 969.91016 770.29297 z M 949.91016 790.29297 L 929.91016 790.29297 L 929.91016 810.29297 L 949.91016 810.29297 L 949.91016 790.29297 z M 949.91016 810.29297 L 949.91016 811.79492 A 374.32483 374.32483 0 0 0 950.77148 810.29297 L 949.91016 810.29297 z M 929.91016 810.29297 L 909.91016 810.29297 L 909.91016 830.29297 L 929.91016 830.29297 L 929.91016 810.29297 z M 929.91016 830.29297 L 929.91016 842.95508 A 374.32483 374.32483 0 0 0 938.96484 830.29297 L 929.91016 830.29297 z M 909.91016 830.29297 L 889.91016 830.29297 L 889.91016 850.29297 L 909.91016 850.29297 L 909.91016 830.29297 z M 909.91016 850.29297 L 909.91016 868.58594 A 374.32483 374.32483 0 0 0 924.66211 850.29297 L 909.91016 850.29297 z M 889.91016 850.29297 L 869.91016 850.29297 L 869.91016 870.29297 L 889.91016 870.29297 L 889.91016 850.29297 z M 889.91016 870.29297 L 889.91016 890.29297 L 890.09375 890.29297 A 374.32483 374.32483 0 0 0 908.41016 870.29297 L 889.91016 870.29297 z M 889.91016 890.29297 L 869.91016 890.29297 L 869.91016 909.09766 A 374.32483 374.32483 0 0 0 889.91016 890.46484 L 889.91016 890.29297 z M 869.91016 890.29297 L 869.91016 870.29297 L 849.91016 870.29297 L 849.91016 890.29297 L 869.91016 890.29297 z M 849.91016 890.29297 L 829.91016 890.29297 L 829.91016 910.29297 L 849.91016 910.29297 L 849.91016 890.29297 z M 849.91016 910.29297 L 849.91016 924.83203 A 374.32483 374.32483 0 0 0 868.62695 910.29297 L 849.91016 910.29297 z M 829.91016 910.29297 L 809.91016 910.29297 L 809.91016 930.29297 L 829.91016 930.29297 L 829.91016 910.29297 z M 829.91016 930.29297 L 829.91016 938.98828 A 374.32483 374.32483 0 0 0 842.72656 930.29297 L 829.91016 930.29297 z M 809.91016 930.29297 L 789.91016 930.29297 L 789.91016 950.29297 L 809.91016 950.29297 L 809.91016 930.29297 z M 809.91016 950.29297 L 809.91016 951.25 A 374.32483 374.32483 0 0 0 811.4707 950.29297 L 809.91016 950.29297 z M 789.91016 950.29297 L 769.91016 950.29297 L 769.91016 970.29297 L 771.77344 970.29297 A 374.32483 374.32483 0 0 0 789.91016 961.53125 L 789.91016 950.29297 z M 769.91016 970.29297 L 749.91016 970.29297 L 749.91016 978.3125 A 374.32483 374.32483 0 0 0 769.91016 971.01172 L 769.91016 970.29297 z M 749.91016 970.29297 L 749.91016 950.29297 L 729.91016 950.29297 L 729.91016 970.29297 L 749.91016 970.29297 z M 729.91016 970.29297 L 709.91016 970.29297 L 709.91016 990.01953 A 374.32483 374.32483 0 0 0 729.91016 984.91211 L 729.91016 970.29297 z M 709.91016 970.29297 L 709.91016 950.29297 L 689.91016 950.29297 L 689.91016 970.29297 L 709.91016 970.29297 z M 689.91016 970.29297 L 669.91016 970.29297 L 669.91016 990.29297 L 689.91016 990.29297 L 689.91016 970.29297 z M 689.91016 990.29297 L 689.91016 994.07031 A 374.32483 374.32483 0 0 0 708.83789 990.29297 L 689.91016 990.29297 z M 669.91016 990.29297 L 649.91016 990.29297 L 649.91016 998.78711 A 374.32483 374.32483 0 0 0 669.91016 997.0918 L 669.91016 990.29297 z M 649.91016 990.29297 L 649.91016 970.29297 L 629.91016 970.29297 L 629.91016 990.29297 L 649.91016 990.29297 z M 629.91016 990.29297 L 609.91016 990.29297 L 609.91016 999.43359 A 374.32483 374.32483 0 0 0 625.67578 1000 A 374.32483 374.32483 0 0 0 629.91016 999.78711 L 629.91016 990.29297 z M 609.91016 990.29297 L 609.91016 970.29297 L 589.91016 970.29297 L 589.91016 990.29297 L 609.91016 990.29297 z M 589.91016 990.29297 L 569.91016 990.29297 L 569.91016 995.45703 A 374.32483 374.32483 0 0 0 589.91016 997.88281 L 589.91016 990.29297 z M 569.91016 990.29297 L 569.91016 970.29297 L 549.91016 970.29297 L 549.91016 990.29297 L 569.91016 990.29297 z M 549.91016 990.29297 L 543.49609 990.29297 A 374.32483 374.32483 0 0 0 549.91016 991.73242 L 549.91016 990.29297 z M 549.91016 970.29297 L 549.91016 950.29297 L 529.91016 950.29297 L 529.91016 970.29297 L 549.91016 970.29297 z M 529.91016 970.29297 L 509.91016 970.29297 L 509.91016 981.02344 A 374.32483 374.32483 0 0 0 529.91016 987.24414 L 529.91016 970.29297 z M 509.91016 970.29297 L 509.91016 950.29297 L 489.91016 950.29297 L 489.91016 970.29297 L 509.91016 970.29297 z M 489.91016 970.29297 L 480.92383 970.29297 A 374.32483 374.32483 0 0 0 489.91016 974.3125 L 489.91016 970.29297 z M 489.91016 950.29297 L 489.91016 930.29297 L 469.91016 930.29297 L 469.91016 950.29297 L 489.91016 950.29297 z M 469.91016 950.29297 L 449.91211 950.29297 L 449.91211 955.60938 A 374.32483 374.32483 0 0 0 469.91016 965.36523 L 469.91016 950.29297 z M 449.91211 950.29297 L 449.91211 930.29297 L 429.91211 930.29297 L 429.91211 944.13867 A 374.32483 374.32483 0 0 0 440.64453 950.29297 L 449.91211 950.29297 z M 429.91211 930.29297 L 429.91211 910.29297 L 409.91211 910.29297 L 409.91211 930.29297 L 429.91211 930.29297 z M 409.91211 930.29297 L 409.35547 930.29297 A 374.32483 374.32483 0 0 0 409.91211 930.69141 L 409.91211 930.29297 z M 409.91211 910.29297 L 409.91211 890.29297 L 389.91211 890.29297 L 389.91211 910.29297 L 409.91211 910.29297 z M 389.91211 910.29297 L 383.625 910.29297 A 374.32483 374.32483 0 0 0 389.91211 915.81445 L 389.91211 910.29297 z M 389.91211 890.29297 L 389.91211 870.29297 L 369.91211 870.29297 L 369.91211 890.29297 L 389.91211 890.29297 z M 369.91211 890.29297 L 361.66602 890.29297 A 374.32483 374.32483 0 0 0 369.91211 898.24805 L 369.91211 890.29297 z M 369.91211 870.29297 L 369.91211 850.29297 L 349.91211 850.29297 L 349.91211 870.29297 L 369.91211 870.29297 z M 349.91211 870.29297 L 343.03125 870.29297 A 374.32483 374.32483 0 0 0 349.91211 877.67773 L 349.91211 870.29297 z M 349.91211 850.29297 L 349.91211 830.29297 L 329.91211 830.29297 L 329.91211 850.29297 L 349.91211 850.29297 z M 329.91211 850.29297 L 327.23438 850.29297 A 374.32483 374.32483 0 0 0 329.91211 853.81445 L 329.91211 850.29297 z M 329.91211 830.29297 L 329.91211 810.29297 L 309.91211 810.29297 L 309.91211 825.2207 A 374.32483 374.32483 0 0 0 313.02344 830.29297 L 329.91211 830.29297 z M 309.91211 810.29297 L 309.91211 790.29297 L 290.42773 790.29297 A 374.32483 374.32483 0 0 0 300.75977 810.29297 L 309.91211 810.29297 z M 309.91211 790.29297 L 329.91211 790.29297 L 329.91211 787.32617 A 374.32483 374.32483 0 0 1 309.91211 781.79883 L 309.91211 790.29297 z M 329.91211 790.29297 L 329.91211 810.29297 L 349.91211 810.29297 L 349.91211 792.45312 A 374.32483 374.32483 0 0 1 341.48438 790.29297 L 329.91211 790.29297 z M 349.91211 810.29297 L 349.91211 830.29297 L 369.91211 830.29297 L 369.91211 810.29297 L 349.91211 810.29297 z M 369.91211 810.29297 L 389.91211 810.29297 L 389.91211 798.24414 A 374.32483 374.32483 0 0 1 369.91211 795.50195 L 369.91211 810.29297 z M 389.91211 810.29297 L 389.91211 830.29297 L 409.91211 830.29297 L 409.91211 810.29297 L 389.91211 810.29297 z M 409.91211 810.29297 L 429.91211 810.29297 L 429.91211 799.80273 A 374.32483 374.32483 0 0 1 424.32422 800 A 374.32483 374.32483 0 0 1 409.91211 799.26562 L 409.91211 810.29297 z M 429.91211 810.29297 L 429.91211 830.29297 L 449.91211 830.29297 L 449.91211 810.29297 L 429.91211 810.29297 z M 449.91211 810.29297 L 469.91016 810.29297 L 469.91016 796.74219 A 374.32483 374.32483 0 0 1 449.91211 799.09375 L 449.91211 810.29297 z M 469.91016 810.29297 L 469.91016 830.29297 L 489.91016 830.29297 L 489.91016 810.29297 L 469.91016 810.29297 z M 489.91016 810.29297 L 509.91016 810.29297 L 509.91016 790.29297 L 506.92969 790.29297 A 374.32483 374.32483 0 0 1 489.91016 794.11133 L 489.91016 810.29297 z M 509.91016 790.29297 L 529.91016 790.29297 L 529.91016 784.54688 A 374.32483 374.32483 0 0 1 509.91016 789.62305 L 509.91016 790.29297 z M 529.91016 790.29297 L 529.91016 810.29297 L 549.91016 810.29297 L 549.91016 790.29297 L 529.91016 790.29297 z M 549.91016 790.29297 L 569.91016 790.29297 L 569.91016 770.29297 L 569.50195 770.29297 A 374.32483 374.32483 0 0 1 549.91016 777.90234 L 549.91016 790.29297 z M 569.91016 770.29297 L 589.91016 770.29297 L 589.91016 761.16016 A 374.32483 374.32483 0 0 1 569.91016 770.10938 L 569.91016 770.29297 z M 589.91016 770.29297 L 589.91016 790.29297 L 609.91016 790.29297 L 609.91016 770.29297 L 589.91016 770.29297 z M 609.91016 770.29297 L 629.91016 770.29297 L 629.91016 750.29297 L 609.91016 750.29297 L 609.91016 770.29297 z M 609.91016 750.29297 L 609.91016 750.2168 A 374.32483 374.32483 0 0 1 609.7793 750.29297 L 609.91016 750.29297 z M 629.91016 750.29297 L 649.91016 750.29297 L 649.91016 730.29297 L 641.07031 730.29297 A 374.32483 374.32483 0 0 1 629.91016 738.27344 L 629.91016 750.29297 z M 649.91016 730.29297 L 669.91016 730.29297 L 669.91016 710.29297 L 666.80078 710.29297 A 374.32483 374.32483 0 0 1 649.91016 723.9707 L 649.91016 730.29297 z M 669.91016 710.29297 L 689.91016 710.29297 L 689.91016 690.29297 L 688.75781 690.29297 A 374.32483 374.32483 0 0 1 669.91016 707.56055 L 669.91016 710.29297 z M 689.91016 690.29297 L 709.91016 690.29297 L 709.91016 670.29297 L 707.39062 670.29297 A 374.32483 374.32483 0 0 1 689.91016 689.05664 L 689.91016 690.29297 z M 709.91016 670.29297 L 729.91016 670.29297 L 729.91016 650.29297 L 723.19141 650.29297 A 374.32483 374.32483 0 0 1 709.91016 667.58984 L 709.91016 670.29297 z M 729.91016 650.29297 L 749.91016 650.29297 L 749.91016 630.29297 L 737.40234 630.29297 A 374.32483 374.32483 0 0 1 729.91016 641.45508 L 729.91016 650.29297 z M 749.91016 630.29297 L 769.91016 630.29297 L 769.91016 610.29297 L 749.91016 610.29297 L 749.91016 630.29297 z M 749.91016 610.29297 L 749.91016 609.89258 A 374.32483 374.32483 0 0 1 749.66406 610.29297 L 749.91016 610.29297 z M 769.91016 610.29297 L 789.91016 610.29297 L 789.91016 590.29297 L 769.91016 590.29297 L 769.91016 610.29297 z M 769.91016 590.29297 L 769.91016 570.29297 L 769.52148 570.29297 A 374.32483 374.32483 0 0 1 759.99609 590.29297 L 769.91016 590.29297 z M 769.91016 570.29297 L 789.91016 570.29297 L 789.91016 550.29297 L 776.82227 550.29297 A 374.32483 374.32483 0 0 1 769.91016 569.23047 L 769.91016 570.29297 z M 789.91016 550.29297 L 809.91016 550.29297 L 809.91016 530.29297 L 789.91016 530.29297 L 789.91016 550.29297 z M 789.91016 530.29297 L 789.91016 510.29297 L 788.57227 510.29297 A 374.32483 374.32483 0 0 1 783.46484 530.29297 L 789.91016 530.29297 z M 789.91016 510.29297 L 809.91016 510.29297 L 809.91016 490.29297 L 792.66211 490.29297 A 374.32483 374.32483 0 0 1 789.91016 505.05273 L 789.91016 510.29297 z M 809.91016 490.29297 L 829.91016 490.29297 L 829.91016 470.29297 L 809.91016 470.29297 L 809.91016 490.29297 z M 809.91016 470.29297 L 809.91016 450.29297 L 797.41797 450.29297 A 374.32483 374.32483 0 0 1 795.68359 470.29297 L 809.91016 470.29297 z M 809.91016 450.29297 L 829.91016 450.29297 L 829.91016 430.29297 L 809.91016 430.29297 L 809.91016 450.29297 z M 809.91016 430.29297 L 809.91016 410.29297 L 797.83984 410.29297 A 374.32483 374.32483 0 0 1 798.65039 425.67578 A 374.32483 374.32483 0 0 1 798.41992 430.29297 L 809.91016 430.29297 z M 809.91016 410.29297 L 829.91016 410.29297 L 829.91016 390.29297 L 809.91016 390.29297 L 809.91016 410.29297 z M 809.91016 390.29297 L 809.91016 370.29297 L 793.90625 370.29297 A 374.32483 374.32483 0 0 1 796.7793 390.29297 L 809.91016 390.29297 z M 809.91016 370.29297 L 829.91016 370.29297 L 829.91016 350.29297 L 809.91016 350.29297 L 809.91016 370.29297 z M 809.91016 350.29297 L 809.91016 330.29297 L 789.91016 330.29297 L 789.91016 347.13281 A 374.32483 374.32483 0 0 1 790.72656 350.29297 L 809.91016 350.29297 z M 789.91016 330.29297 L 789.91016 310.29297 L 779.87109 310.29297 A 374.32483 374.32483 0 0 1 785.55859 330.29297 L 789.91016 330.29297 z M 829.91016 370.29297 L 829.91016 390.29297 L 849.91016 390.29297 L 849.91016 370.29297 L 829.91016 370.29297 z M 849.91016 390.29297 L 849.91016 410.29297 L 869.91016 410.29297 L 869.91016 390.29297 L 849.91016 390.29297 z M 869.91016 410.29297 L 869.91016 430.29297 L 889.91016 430.29297 L 889.91016 410.29297 L 869.91016 410.29297 z M 889.91016 430.29297 L 889.91016 450.29297 L 909.91016 450.29297 L 909.91016 430.29297 L 889.91016 430.29297 z M 909.91016 450.29297 L 909.91016 470.29297 L 929.91016 470.29297 L 929.91016 450.29297 L 909.91016 450.29297 z M 909.91016 470.29297 L 889.91016 470.29297 L 889.91016 490.29297 L 909.91016 490.29297 L 909.91016 470.29297 z M 909.91016 490.29297 L 909.91016 510.29297 L 929.91016 510.29297 L 929.91016 490.29297 L 909.91016 490.29297 z M 929.91016 510.29297 L 929.91016 530.29297 L 949.91016 530.29297 L 949.91016 510.29297 L 929.91016 510.29297 z M 929.91016 530.29297 L 909.91016 530.29297 L 909.91016 550.29297 L 929.91016 550.29297 L 929.91016 530.29297 z M 929.91016 550.29297 L 929.91016 570.29297 L 949.91016 570.29297 L 949.91016 550.29297 L 929.91016 550.29297 z M 949.91016 570.29297 L 949.91016 590.29297 L 969.91016 590.29297 L 969.91016 570.29297 L 949.91016 570.29297 z M 949.91016 590.29297 L 929.91016 590.29297 L 929.91016 610.29297 L 949.91016 610.29297 L 949.91016 590.29297 z M 949.91016 610.29297 L 949.91016 630.29297 L 969.91016 630.29297 L 969.91016 610.29297 L 949.91016 610.29297 z M 949.91016 630.29297 L 929.91016 630.29297 L 929.91016 650.29297 L 949.91016 650.29297 L 949.91016 630.29297 z M 949.91016 650.29297 L 949.91016 670.29297 L 969.91016 670.29297 L 969.91016 650.29297 L 949.91016 650.29297 z M 949.91016 670.29297 L 929.91016 670.29297 L 929.91016 690.29297 L 949.91016 690.29297 L 949.91016 670.29297 z M 929.91016 690.29297 L 909.91016 690.29297 L 909.91016 710.29297 L 929.91016 710.29297 L 929.91016 690.29297 z M 929.91016 710.29297 L 929.91016 730.29297 L 949.91016 730.29297 L 949.91016 710.29297 L 929.91016 710.29297 z M 929.91016 730.29297 L 909.91016 730.29297 L 909.91016 750.29297 L 929.91016 750.29297 L 929.91016 730.29297 z M 929.91016 750.29297 L 929.91016 770.29297 L 949.91016 770.29297 L 949.91016 750.29297 L 929.91016 750.29297 z M 929.91016 770.29297 L 909.91016 770.29297 L 909.91016 790.29297 L 929.91016 790.29297 L 929.91016 770.29297 z M 909.91016 790.29297 L 889.91016 790.29297 L 889.91016 810.29297 L 909.91016 810.29297 L 909.91016 790.29297 z M 889.91016 810.29297 L 869.91016 810.29297 L 869.91016 830.29297 L 889.91016 830.29297 L 889.91016 810.29297 z M 869.91016 830.29297 L 849.91016 830.29297 L 849.91016 850.29297 L 869.91016 850.29297 L 869.91016 830.29297 z M 849.91016 850.29297 L 829.91016 850.29297 L 829.91016 870.29297 L 849.91016 870.29297 L 849.91016 850.29297 z M 829.91016 870.29297 L 809.91016 870.29297 L 809.91016 890.29297 L 829.91016 890.29297 L 829.91016 870.29297 z M 809.91016 890.29297 L 789.91016 890.29297 L 789.91016 910.29297 L 809.91016 910.29297 L 809.91016 890.29297 z M 789.91016 910.29297 L 769.91016 910.29297 L 769.91016 930.29297 L 789.91016 930.29297 L 789.91016 910.29297 z M 769.91016 930.29297 L 749.91016 930.29297 L 749.91016 950.29297 L 769.91016 950.29297 L 769.91016 930.29297 z M 749.91016 930.29297 L 749.91016 910.29297 L 729.91016 910.29297 L 729.91016 930.29297 L 749.91016 930.29297 z M 729.91016 930.29297 L 709.91016 930.29297 L 709.91016 950.29297 L 729.91016 950.29297 L 729.91016 930.29297 z M 709.91016 930.29297 L 709.91016 910.29297 L 689.91016 910.29297 L 689.91016 930.29297 L 709.91016 930.29297 z M 689.91016 930.29297 L 669.91016 930.29297 L 669.91016 950.29297 L 689.91016 950.29297 L 689.91016 930.29297 z M 669.91016 950.29297 L 649.91016 950.29297 L 649.91016 970.29297 L 669.91016 970.29297 L 669.91016 950.29297 z M 649.91016 950.29297 L 649.91016 930.29297 L 629.91016 930.29297 L 629.91016 950.29297 L 649.91016 950.29297 z M 629.91016 950.29297 L 609.91016 950.29297 L 609.91016 970.29297 L 629.91016 970.29297 L 629.91016 950.29297 z M 609.91016 950.29297 L 609.91016 930.29297 L 589.91016 930.29297 L 589.91016 950.29297 L 609.91016 950.29297 z M 589.91016 950.29297 L 569.91016 950.29297 L 569.91016 970.29297 L 589.91016 970.29297 L 589.91016 950.29297 z M 569.91016 950.29297 L 569.91016 930.29297 L 549.91016 930.29297 L 549.91016 950.29297 L 569.91016 950.29297 z M 549.91016 930.29297 L 549.91016 910.29297 L 529.91016 910.29297 L 529.91016 930.29297 L 549.91016 930.29297 z M 529.91016 930.29297 L 509.91016 930.29297 L 509.91016 950.29297 L 529.91016 950.29297 L 529.91016 930.29297 z M 509.91016 930.29297 L 509.91016 910.29297 L 489.91016 910.29297 L 489.91016 930.29297 L 509.91016 930.29297 z M 489.91016 910.29297 L 489.91016 890.29297 L 469.91016 890.29297 L 469.91016 910.29297 L 489.91016 910.29297 z M 469.91016 910.29297 L 449.91211 910.29297 L 449.91211 930.29297 L 469.91016 930.29297 L 469.91016 910.29297 z M 449.91211 910.29297 L 449.91211 890.29297 L 429.91211 890.29297 L 429.91211 910.29297 L 449.91211 910.29297 z M 429.91211 890.29297 L 429.91211 870.29297 L 409.91211 870.29297 L 409.91211 890.29297 L 429.91211 890.29297 z M 409.91211 870.29297 L 409.91211 850.29297 L 389.91211 850.29297 L 389.91211 870.29297 L 409.91211 870.29297 z M 389.91211 850.29297 L 389.91211 830.29297 L 369.91211 830.29297 L 369.91211 850.29297 L 389.91211 850.29297 z M 409.91211 850.29297 L 429.91211 850.29297 L 429.91211 830.29297 L 409.91211 830.29297 L 409.91211 850.29297 z M 429.91211 850.29297 L 429.91211 870.29297 L 449.91211 870.29297 L 449.91211 850.29297 L 429.91211 850.29297 z M 449.91211 850.29297 L 469.91016 850.29297 L 469.91016 830.29297 L 449.91211 830.29297 L 449.91211 850.29297 z M 469.91016 850.29297 L 469.91016 870.29297 L 489.91016 870.29297 L 489.91016 850.29297 L 469.91016 850.29297 z M 489.91016 850.29297 L 509.91016 850.29297 L 509.91016 830.29297 L 489.91016 830.29297 L 489.91016 850.29297 z M 509.91016 830.29297 L 529.91016 830.29297 L 529.91016 810.29297 L 509.91016 810.29297 L 509.91016 830.29297 z M 529.91016 830.29297 L 529.91016 850.29297 L 549.91016 850.29297 L 549.91016 830.29297 L 529.91016 830.29297 z M 549.91016 830.29297 L 569.91016 830.29297 L 569.91016 810.29297 L 549.91016 810.29297 L 549.91016 830.29297 z M 569.91016 810.29297 L 589.91016 810.29297 L 589.91016 790.29297 L 569.91016 790.29297 L 569.91016 810.29297 z M 589.91016 810.29297 L 589.91016 830.29297 L 609.91016 830.29297 L 609.91016 810.29297 L 589.91016 810.29297 z M 609.91016 810.29297 L 629.91016 810.29297 L 629.91016 790.29297 L 609.91016 790.29297 L 609.91016 810.29297 z M 629.91016 790.29297 L 649.91016 790.29297 L 649.91016 770.29297 L 629.91016 770.29297 L 629.91016 790.29297 z M 649.91016 770.29297 L 669.91016 770.29297 L 669.91016 750.29297 L 649.91016 750.29297 L 649.91016 770.29297 z M 669.91016 750.29297 L 689.91016 750.29297 L 689.91016 730.29297 L 669.91016 730.29297 L 669.91016 750.29297 z M 689.91016 730.29297 L 709.91016 730.29297 L 709.91016 710.29297 L 689.91016 710.29297 L 689.91016 730.29297 z M 709.91016 710.29297 L 729.91016 710.29297 L 729.91016 690.29297 L 709.91016 690.29297 L 709.91016 710.29297 z M 729.91016 690.29297 L 749.91016 690.29297 L 749.91016 670.29297 L 729.91016 670.29297 L 729.91016 690.29297 z M 749.91016 670.29297 L 769.91016 670.29297 L 769.91016 650.29297 L 749.91016 650.29297 L 749.91016 670.29297 z M 769.91016 650.29297 L 789.91016 650.29297 L 789.91016 630.29297 L 769.91016 630.29297 L 769.91016 650.29297 z M 789.91016 630.29297 L 809.91016 630.29297 L 809.91016 610.29297 L 789.91016 610.29297 L 789.91016 630.29297 z M 809.91016 610.29297 L 829.91016 610.29297 L 829.91016 590.29297 L 809.91016 590.29297 L 809.91016 610.29297 z M 809.91016 590.29297 L 809.91016 570.29297 L 789.91016 570.29297 L 789.91016 590.29297 L 809.91016 590.29297 z M 809.91016 570.29297 L 829.91016 570.29297 L 829.91016 550.29297 L 809.91016 550.29297 L 809.91016 570.29297 z M 829.91016 550.29297 L 849.91016 550.29297 L 849.91016 530.29297 L 829.91016 530.29297 L 829.91016 550.29297 z M 829.91016 530.29297 L 829.91016 510.29297 L 809.91016 510.29297 L 809.91016 530.29297 L 829.91016 530.29297 z M 829.91016 510.29297 L 849.91016 510.29297 L 849.91016 490.29297 L 829.91016 490.29297 L 829.91016 510.29297 z M 849.91016 490.29297 L 869.91016 490.29297 L 869.91016 470.29297 L 849.91016 470.29297 L 849.91016 490.29297 z M 849.91016 470.29297 L 849.91016 450.29297 L 829.91016 450.29297 L 829.91016 470.29297 L 849.91016 470.29297 z M 849.91016 450.29297 L 869.91016 450.29297 L 869.91016 430.29297 L 849.91016 430.29297 L 849.91016 450.29297 z M 849.91016 430.29297 L 849.91016 410.29297 L 829.91016 410.29297 L 829.91016 430.29297 L 849.91016 430.29297 z M 869.91016 450.29297 L 869.91016 470.29297 L 889.91016 470.29297 L 889.91016 450.29297 L 869.91016 450.29297 z M 869.91016 490.29297 L 869.91016 510.29297 L 889.91016 510.29297 L 889.91016 490.29297 L 869.91016 490.29297 z M 889.91016 510.29297 L 889.91016 530.29297 L 909.91016 530.29297 L 909.91016 510.29297 L 889.91016 510.29297 z M 889.91016 530.29297 L 869.91016 530.29297 L 869.91016 550.29297 L 889.91016 550.29297 L 889.91016 530.29297 z M 889.91016 550.29297 L 889.91016 570.29297 L 909.91016 570.29297 L 909.91016 550.29297 L 889.91016 550.29297 z M 909.91016 570.29297 L 909.91016 590.29297 L 929.91016 590.29297 L 929.91016 570.29297 L 909.91016 570.29297 z M 909.91016 590.29297 L 889.91016 590.29297 L 889.91016 610.29297 L 909.91016 610.29297 L 909.91016 590.29297 z M 909.91016 610.29297 L 909.91016 630.29297 L 929.91016 630.29297 L 929.91016 610.29297 L 909.91016 610.29297 z M 909.91016 630.29297 L 889.91016 630.29297 L 889.91016 650.29297 L 909.91016 650.29297 L 909.91016 630.29297 z M 909.91016 650.29297 L 909.91016 670.29297 L 929.91016 670.29297 L 929.91016 650.29297 L 909.91016 650.29297 z M 909.91016 670.29297 L 889.91016 670.29297 L 889.91016 690.29297 L 909.91016 690.29297 L 909.91016 670.29297 z M 889.91016 690.29297 L 869.91016 690.29297 L 869.91016 710.29297 L 889.91016 710.29297 L 889.91016 690.29297 z M 889.91016 710.29297 L 889.91016 730.29297 L 909.91016 730.29297 L 909.91016 710.29297 L 889.91016 710.29297 z M 889.91016 730.29297 L 869.91016 730.29297 L 869.91016 750.29297 L 889.91016 750.29297 L 889.91016 730.29297 z M 889.91016 750.29297 L 889.91016 770.29297 L 909.91016 770.29297 L 909.91016 750.29297 L 889.91016 750.29297 z M 889.91016 770.29297 L 869.91016 770.29297 L 869.91016 790.29297 L 889.91016 790.29297 L 889.91016 770.29297 z M 869.91016 790.29297 L 849.91016 790.29297 L 849.91016 810.29297 L 869.91016 810.29297 L 869.91016 790.29297 z M 849.91016 810.29297 L 829.91016 810.29297 L 829.91016 830.29297 L 849.91016 830.29297 L 849.91016 810.29297 z M 829.91016 830.29297 L 809.91016 830.29297 L 809.91016 850.29297 L 829.91016 850.29297 L 829.91016 830.29297 z M 809.91016 850.29297 L 789.91016 850.29297 L 789.91016 870.29297 L 809.91016 870.29297 L 809.91016 850.29297 z M 789.91016 870.29297 L 769.91016 870.29297 L 769.91016 890.29297 L 789.91016 890.29297 L 789.91016 870.29297 z M 769.91016 890.29297 L 749.91016 890.29297 L 749.91016 910.29297 L 769.91016 910.29297 L 769.91016 890.29297 z M 749.91016 890.29297 L 749.91016 870.29297 L 729.91016 870.29297 L 729.91016 890.29297 L 749.91016 890.29297 z M 729.91016 890.29297 L 709.91016 890.29297 L 709.91016 910.29297 L 729.91016 910.29297 L 729.91016 890.29297 z M 709.91016 890.29297 L 709.91016 870.29297 L 689.91016 870.29297 L 689.91016 890.29297 L 709.91016 890.29297 z M 689.91016 890.29297 L 669.91016 890.29297 L 669.91016 910.29297 L 689.91016 910.29297 L 689.91016 890.29297 z M 669.91016 910.29297 L 649.91016 910.29297 L 649.91016 930.29297 L 669.91016 930.29297 L 669.91016 910.29297 z M 649.91016 910.29297 L 649.91016 890.29297 L 629.91016 890.29297 L 629.91016 910.29297 L 649.91016 910.29297 z M 629.91016 910.29297 L 609.91016 910.29297 L 609.91016 930.29297 L 629.91016 930.29297 L 629.91016 910.29297 z M 609.91016 910.29297 L 609.91016 890.29297 L 589.91016 890.29297 L 589.91016 910.29297 L 609.91016 910.29297 z M 589.91016 910.29297 L 569.91016 910.29297 L 569.91016 930.29297 L 589.91016 930.29297 L 589.91016 910.29297 z M 569.91016 910.29297 L 569.91016 890.29297 L 549.91016 890.29297 L 549.91016 910.29297 L 569.91016 910.29297 z M 549.91016 890.29297 L 549.91016 870.29297 L 529.91016 870.29297 L 529.91016 890.29297 L 549.91016 890.29297 z M 529.91016 890.29297 L 509.91016 890.29297 L 509.91016 910.29297 L 529.91016 910.29297 L 529.91016 890.29297 z M 509.91016 890.29297 L 509.91016 870.29297 L 489.91016 870.29297 L 489.91016 890.29297 L 509.91016 890.29297 z M 509.91016 870.29297 L 529.91016 870.29297 L 529.91016 850.29297 L 509.91016 850.29297 L 509.91016 870.29297 z M 549.91016 870.29297 L 569.91016 870.29297 L 569.91016 850.29297 L 549.91016 850.29297 L 549.91016 870.29297 z M 569.91016 850.29297 L 589.91016 850.29297 L 589.91016 830.29297 L 569.91016 830.29297 L 569.91016 850.29297 z M 589.91016 850.29297 L 589.91016 870.29297 L 609.91016 870.29297 L 609.91016 850.29297 L 589.91016 850.29297 z M 609.91016 850.29297 L 629.91016 850.29297 L 629.91016 830.29297 L 609.91016 830.29297 L 609.91016 850.29297 z M 629.91016 830.29297 L 649.91016 830.29297 L 649.91016 810.29297 L 629.91016 810.29297 L 629.91016 830.29297 z M 649.91016 810.29297 L 669.91016 810.29297 L 669.91016 790.29297 L 649.91016 790.29297 L 649.91016 810.29297 z M 669.91016 790.29297 L 689.91016 790.29297 L 689.91016 770.29297 L 669.91016 770.29297 L 669.91016 790.29297 z M 689.91016 770.29297 L 709.91016 770.29297 L 709.91016 750.29297 L 689.91016 750.29297 L 689.91016 770.29297 z M 709.91016 750.29297 L 729.91016 750.29297 L 729.91016 730.29297 L 709.91016 730.29297 L 709.91016 750.29297 z M 729.91016 730.29297 L 749.91016 730.29297 L 749.91016 710.29297 L 729.91016 710.29297 L 729.91016 730.29297 z M 749.91016 710.29297 L 769.91016 710.29297 L 769.91016 690.29297 L 749.91016 690.29297 L 749.91016 710.29297 z M 769.91016 690.29297 L 789.91016 690.29297 L 789.91016 670.29297 L 769.91016 670.29297 L 769.91016 690.29297 z M 789.91016 670.29297 L 809.91016 670.29297 L 809.91016 650.29297 L 789.91016 650.29297 L 789.91016 670.29297 z M 809.91016 650.29297 L 829.91016 650.29297 L 829.91016 630.29297 L 809.91016 630.29297 L 809.91016 650.29297 z M 829.91016 630.29297 L 849.91016 630.29297 L 849.91016 610.29297 L 829.91016 610.29297 L 829.91016 630.29297 z M 849.91016 610.29297 L 869.91016 610.29297 L 869.91016 590.29297 L 849.91016 590.29297 L 849.91016 610.29297 z M 849.91016 590.29297 L 849.91016 570.29297 L 829.91016 570.29297 L 829.91016 590.29297 L 849.91016 590.29297 z M 849.91016 570.29297 L 869.91016 570.29297 L 869.91016 550.29297 L 849.91016 550.29297 L 849.91016 570.29297 z M 869.91016 570.29297 L 869.91016 590.29297 L 889.91016 590.29297 L 889.91016 570.29297 L 869.91016 570.29297 z M 869.91016 610.29297 L 869.91016 630.29297 L 889.91016 630.29297 L 889.91016 610.29297 L 869.91016 610.29297 z M 869.91016 630.29297 L 849.91016 630.29297 L 849.91016 650.29297 L 869.91016 650.29297 L 869.91016 630.29297 z M 869.91016 650.29297 L 869.91016 670.29297 L 889.91016 670.29297 L 889.91016 650.29297 L 869.91016 650.29297 z M 869.91016 670.29297 L 849.91016 670.29297 L 849.91016 690.29297 L 869.91016 690.29297 L 869.91016 670.29297 z M 849.91016 690.29297 L 829.91016 690.29297 L 829.91016 710.29297 L 849.91016 710.29297 L 849.91016 690.29297 z M 849.91016 710.29297 L 849.91016 730.29297 L 869.91016 730.29297 L 869.91016 710.29297 L 849.91016 710.29297 z M 849.91016 730.29297 L 829.91016 730.29297 L 829.91016 750.29297 L 849.91016 750.29297 L 849.91016 730.29297 z M 849.91016 750.29297 L 849.91016 770.29297 L 869.91016 770.29297 L 869.91016 750.29297 L 849.91016 750.29297 z M 849.91016 770.29297 L 829.91016 770.29297 L 829.91016 790.29297 L 849.91016 790.29297 L 849.91016 770.29297 z M 829.91016 790.29297 L 809.91016 790.29297 L 809.91016 810.29297 L 829.91016 810.29297 L 829.91016 790.29297 z M 809.91016 810.29297 L 789.91016 810.29297 L 789.91016 830.29297 L 809.91016 830.29297 L 809.91016 810.29297 z M 789.91016 830.29297 L 769.91016 830.29297 L 769.91016 850.29297 L 789.91016 850.29297 L 789.91016 830.29297 z M 769.91016 850.29297 L 749.91016 850.29297 L 749.91016 870.29297 L 769.91016 870.29297 L 769.91016 850.29297 z M 749.91016 850.29297 L 749.91016 830.29297 L 729.91016 830.29297 L 729.91016 850.29297 L 749.91016 850.29297 z M 729.91016 850.29297 L 709.91016 850.29297 L 709.91016 870.29297 L 729.91016 870.29297 L 729.91016 850.29297 z M 709.91016 850.29297 L 709.91016 830.29297 L 689.91016 830.29297 L 689.91016 850.29297 L 709.91016 850.29297 z M 689.91016 850.29297 L 669.91016 850.29297 L 669.91016 870.29297 L 689.91016 870.29297 L 689.91016 850.29297 z M 669.91016 870.29297 L 649.91016 870.29297 L 649.91016 890.29297 L 669.91016 890.29297 L 669.91016 870.29297 z M 649.91016 870.29297 L 649.91016 850.29297 L 629.91016 850.29297 L 629.91016 870.29297 L 649.91016 870.29297 z M 629.91016 870.29297 L 609.91016 870.29297 L 609.91016 890.29297 L 629.91016 890.29297 L 629.91016 870.29297 z M 649.91016 850.29297 L 669.91016 850.29297 L 669.91016 830.29297 L 649.91016 830.29297 L 649.91016 850.29297 z M 669.91016 830.29297 L 689.91016 830.29297 L 689.91016 810.29297 L 669.91016 810.29297 L 669.91016 830.29297 z M 689.91016 810.29297 L 709.91016 810.29297 L 709.91016 790.29297 L 689.91016 790.29297 L 689.91016 810.29297 z M 709.91016 790.29297 L 729.91016 790.29297 L 729.91016 770.29297 L 709.91016 770.29297 L 709.91016 790.29297 z M 729.91016 770.29297 L 749.91016 770.29297 L 749.91016 750.29297 L 729.91016 750.29297 L 729.91016 770.29297 z M 749.91016 750.29297 L 769.91016 750.29297 L 769.91016 730.29297 L 749.91016 730.29297 L 749.91016 750.29297 z M 769.91016 730.29297 L 789.91016 730.29297 L 789.91016 710.29297 L 769.91016 710.29297 L 769.91016 730.29297 z M 789.91016 710.29297 L 809.91016 710.29297 L 809.91016 690.29297 L 789.91016 690.29297 L 789.91016 710.29297 z M 809.91016 690.29297 L 829.91016 690.29297 L 829.91016 670.29297 L 809.91016 670.29297 L 809.91016 690.29297 z M 829.91016 670.29297 L 849.91016 670.29297 L 849.91016 650.29297 L 829.91016 650.29297 L 829.91016 670.29297 z M 809.91016 710.29297 L 809.91016 730.29297 L 829.91016 730.29297 L 829.91016 710.29297 L 809.91016 710.29297 z M 809.91016 730.29297 L 789.91016 730.29297 L 789.91016 750.29297 L 809.91016 750.29297 L 809.91016 730.29297 z M 809.91016 750.29297 L 809.91016 770.29297 L 829.91016 770.29297 L 829.91016 750.29297 L 809.91016 750.29297 z M 809.91016 770.29297 L 789.91016 770.29297 L 789.91016 790.29297 L 809.91016 790.29297 L 809.91016 770.29297 z M 789.91016 790.29297 L 769.91016 790.29297 L 769.91016 810.29297 L 789.91016 810.29297 L 789.91016 790.29297 z M 769.91016 810.29297 L 749.91016 810.29297 L 749.91016 830.29297 L 769.91016 830.29297 L 769.91016 810.29297 z M 749.91016 810.29297 L 749.91016 790.29297 L 729.91016 790.29297 L 729.91016 810.29297 L 749.91016 810.29297 z M 729.91016 810.29297 L 709.91016 810.29297 L 709.91016 830.29297 L 729.91016 830.29297 L 729.91016 810.29297 z M 749.91016 790.29297 L 769.91016 790.29297 L 769.91016 770.29297 L 749.91016 770.29297 L 749.91016 790.29297 z M 769.91016 770.29297 L 789.91016 770.29297 L 789.91016 750.29297 L 769.91016 750.29297 L 769.91016 770.29297 z M 589.91016 870.29297 L 569.91016 870.29297 L 569.91016 890.29297 L 589.91016 890.29297 L 589.91016 870.29297 z M 869.91016 530.29297 L 869.91016 510.29297 L 849.91016 510.29297 L 849.91016 530.29297 L 869.91016 530.29297 z M 469.91016 870.29297 L 449.91211 870.29297 L 449.91211 890.29297 L 469.91016 890.29297 L 469.91016 870.29297 z M 281.33203 771.46484 A 374.32483 374.32483 0 0 0 289.91211 789.22461 L 289.91211 774.56641 A 374.32483 374.32483 0 0 1 281.33203 771.46484 z "
       transform="translate(0,52.362183)"
       id="rect25992" />
    <path
       style="display:inline;opacity:1;fill:#000000;fill-opacity:1;stroke:none;stroke-width:128;stroke-linecap:round;stroke-linejoin:miter;stroke-miterlimit:4;stroke-dasharray:none;stroke-dashoffset:0.85000002;stroke-opacity:1"
       d="M 749.32483,427.36221 A 374.32483,374.32483 0 0 1 375,801.68704 374.32483,374.32483 0 0 1 0.6751709,427.36221 374.32483,374.32483 0 0 1 375,53.037384 374.32483,374.32483 0 0 1 749.32483,427.36221 Z"
       id="circle4708" />
  </g>
</svg>
