<?xml version="1.0" encoding="UTF-8" standalone="no"?>
<!-- Created with Inkscape (http://www.inkscape.org/) -->

<svg
   xmlns:dc="http://purl.org/dc/elements/1.1/"
   xmlns:cc="http://creativecommons.org/ns#"
   xmlns:rdf="http://www.w3.org/1999/02/22-rdf-syntax-ns#"
   xmlns:svg="http://www.w3.org/2000/svg"
   xmlns="http://www.w3.org/2000/svg"
   xmlns:sodipodi="http://sodipodi.sourceforge.net/DTD/sodipodi-0.dtd"
   xmlns:inkscape="http://www.inkscape.org/namespaces/inkscape"
   width="1000"
   height="1000"
   id="svg2988"
   version="1.1"
   inkscape:version="0.91 r13725"
   sodipodi:docname="shade-1.svg">
  <defs
     id="defs2990" />
  <sodipodi:namedview
     id="base"
     pagecolor="#ffffff"
     bordercolor="#666666"
     borderopacity="1.0"
     inkscape:pageopacity="0"
     inkscape:pageshadow="2"
     inkscape:zoom="0.5"
     inkscape:cx="706.3978"
     inkscape:cy="430.82585"
     inkscape:document-units="px"
     inkscape:current-layer="layer1"
     showgrid="true"
     inkscape:showpageshadow="false"
     showguides="false"
     inkscape:guide-bbox="true"
     inkscape:window-width="1440"
     inkscape:window-height="826"
     inkscape:window-x="0"
     inkscape:window-y="0"
     inkscape:window-maximized="1">
    <sodipodi:guide
       orientation="1,0"
       position="50,760"
       id="guide2996" />
    <sodipodi:guide
       orientation="1,0"
       position="950,808.57143"
       id="guide3000" />
    <sodipodi:guide
       orientation="0,1"
       position="648.57143,950"
       id="guide3002" />
    <sodipodi:guide
       orientation="0,1"
       position="605.71429,50"
       id="guide3004" />
    <sodipodi:guide
       orientation="1,0"
       position="100,645.71429"
       id="guide3006" />
    <sodipodi:guide
       orientation="1,0"
       position="900,480"
       id="guide3008" />
    <sodipodi:guide
       orientation="0,1"
       position="531.42857,900"
       id="guide3010" />
    <sodipodi:guide
       orientation="0,1"
       position="648.57143,100"
       id="guide3012" />
    <inkscape:grid
       type="xygrid"
       id="grid3014"
       empspacing="50"
       visible="true"
       enabled="true"
       snapvisiblegridlinesonly="true"
       dotted="false"
       color="#0400ff"
       opacity="0.02745098"
       empcolor="#f00059"
       empopacity="0.25098039" />
  </sodipodi:namedview>
  <metadata
     id="metadata2993">
    <rdf:RDF>
      <cc:Work
         rdf:about="">
        <dc:format>image/svg+xml</dc:format>
        <dc:type
           rdf:resource="http://purl.org/dc/dcmitype/StillImage" />
        <dc:title />
      </cc:Work>
    </rdf:RDF>
  </metadata>
  <g
     inkscape:label="Layer 1"
     inkscape:groupmode="layer"
     id="layer1"
     transform="translate(0,-52.362183)"
     style="display:inline">
    <path
       style="opacity:1;fill:#000000;fill-opacity:1;stroke:none;stroke-width:128;stroke-linecap:round;stroke-linejoin:miter;stroke-miterlimit:4;stroke-dasharray:none;stroke-dashoffset:0.85000002;stroke-opacity:1"
       d="M 792.29688 290.97266 A 426.10193 426.10193 0 0 1 794.32422 300 L 800 300 L 800 294.69336 A 374.32483 374.32483 0 0 0 792.29688 290.97266 z M 800 300 L 800 310 L 810 310 L 810 300.15625 A 374.32483 374.32483 0 0 0 809.74609 300 L 800 300 z M 810 310 L 810 320 L 820 320 L 820 310 L 810 310 z M 820 310 L 826.05469 310 A 374.32483 374.32483 0 0 0 820 306.28711 L 820 310 z M 820 320 L 820 330 L 830 330 L 830 320 L 820 320 z M 830 320 L 840 320 L 840 318.98633 A 374.32483 374.32483 0 0 0 830 312.41797 L 830 320 z M 840 320 L 840 330 L 850 330 L 850 326.58789 A 374.32483 374.32483 0 0 0 841.33398 320 L 840 320 z M 850 330 L 850 340 L 860 340 L 860 334.18945 A 374.32483 374.32483 0 0 0 854.48828 330 L 850 330 z M 860 340 L 860 350 L 870 350 L 870 342.33594 A 374.32483 374.32483 0 0 0 867.49219 340 L 860 340 z M 870 350 L 870 360 L 880 360 L 880 351.65234 A 374.32483 374.32483 0 0 0 878.22656 350 L 870 350 z M 880 360 L 880 370 L 890 370 L 890 360.96875 A 374.32483 374.32483 0 0 0 888.96094 360 L 880 360 z M 890 370 L 890 380 L 900 380 L 900 371.48438 A 374.32483 374.32483 0 0 0 898.69727 370 L 890 370 z M 900 380 L 900 390 L 910 390 L 910 382.86523 A 374.32483 374.32483 0 0 0 907.48242 380 L 900 380 z M 910 390 L 910 400 L 920 400 L 920 394.53711 A 374.32483 374.32483 0 0 0 916.26758 390 L 910 390 z M 920 400 L 920 410 L 930 410 L 930 408.52148 A 374.32483 374.32483 0 0 0 923.90625 400 L 920 400 z M 930 410 L 930 420 L 938.20898 420 A 374.32483 374.32483 0 0 0 931.05859 410 L 930 410 z M 930 420 L 920 420 L 920 430 L 930 430 L 930 420 z M 930 430 L 930 440 L 940 440 L 940 430 L 930 430 z M 940 430 L 944.42969 430 A 374.32483 374.32483 0 0 0 940 422.50586 L 940 430 z M 940 440 L 940 450 L 950 450 L 950 440 L 940 440 z M 950 440 L 950.16602 440 A 374.32483 374.32483 0 0 0 950 439.71289 L 950 440 z M 950 450 L 950 460 L 960 460 L 960 457.50195 A 374.32483 374.32483 0 0 0 955.90039 450 L 950 450 z M 960 460 L 960 470 L 965.59375 470 A 374.32483 374.32483 0 0 0 961.11719 460 L 960 460 z M 960 470 L 950 470 L 950 480 L 960 480 L 960 470 z M 960 480 L 960 490 L 970 490 L 970 480 L 960 480 z M 970 480 L 970.06836 480 A 374.32483 374.32483 0 0 0 970 479.8457 L 970 480 z M 970 490 L 970 500 L 977.87109 500 A 374.32483 374.32483 0 0 0 974.54492 490 L 970 490 z M 970 500 L 960 500 L 960 510 L 970 510 L 970 500 z M 970 510 L 970 520 L 980 520 L 980 510 L 970 510 z M 980 510 L 981.19531 510 A 374.32483 374.32483 0 0 0 980 506.4043 L 980 510 z M 980 520 L 980 530 L 987.35938 530 A 374.32483 374.32483 0 0 0 984.51758 520 L 980 520 z M 980 530 L 970 530 L 970 540 L 980 540 L 980 530 z M 980 540 L 980 550 L 990 550 L 990 541.76562 A 374.32483 374.32483 0 0 0 989.60352 540 L 980 540 z M 990 550 L 990 560 L 994.0918 560 A 374.32483 374.32483 0 0 0 991.84766 550 L 990 550 z M 990 560 L 980 560 L 980 570 L 990 570 L 990 560 z M 990 570 L 990 580 L 996.73242 580 A 374.32483 374.32483 0 0 0 995.51758 570 L 990 570 z M 990 580 L 980 580 L 980 590 L 990 590 L 990 580 z M 990 590 L 990 600 L 999.0918 600 A 374.32483 374.32483 0 0 0 997.94531 590 L 990 590 z M 990 600 L 980 600 L 980 610 L 990 610 L 990 600 z M 990 610 L 990 620 L 999.79883 620 A 374.32483 374.32483 0 0 0 999.44531 610 L 990 610 z M 990 620 L 980 620 L 980 630 L 990 630 L 990 620 z M 990 630 L 990 640 L 999.2832 640 A 374.32483 374.32483 0 0 0 999.7832 630 L 990 630 z M 990 640 L 980 640 L 980 650 L 990 650 L 990 640 z M 990 650 L 990 660 L 998.2832 660 A 374.32483 374.32483 0 0 0 998.7832 650 L 990 650 z M 990 660 L 980 660 L 980 670 L 990 670 L 990 660 z M 990 670 L 990 680 L 995.56836 680 A 374.32483 374.32483 0 0 0 997.08008 670 L 990 670 z M 990 680 L 980 680 L 980 690 L 990 690 L 990 680 z M 990 690 L 990 700 L 992.54492 700 A 374.32483 374.32483 0 0 0 994.05664 690 L 990 690 z M 990 700 L 980 700 L 980 710 L 989.99609 710 A 374.32483 374.32483 0 0 0 990 709.98633 L 990 700 z M 980 710 L 970 710 L 970 720 L 980 720 L 980 710 z M 980 720 L 980 730 L 984.88867 730 A 374.32483 374.32483 0 0 0 987.44336 720 L 980 720 z M 980 730 L 970 730 L 970 740 L 980 740 L 980 730 z M 980 740 L 980 745.2832 A 374.32483 374.32483 0 0 0 981.92969 740 L 980 740 z M 970 740 L 960 740 L 960 750 L 970 750 L 970 740 z M 970 750 L 970 760 L 974.62891 760 A 374.32483 374.32483 0 0 0 978.2793 750 L 970 750 z M 970 760 L 960 760 L 960 770 L 970 770 L 970 760 z M 970 770 L 970 772.37695 A 374.32483 374.32483 0 0 0 970.97852 770 L 970 770 z M 960 770 L 950 770 L 950 780 L 960 780 L 960 770 z M 960 780 L 960 790 L 961.48828 790 A 374.32483 374.32483 0 0 0 966.31836 780 L 960 780 z M 960 790 L 950 790 L 950 800 L 956.65625 800 A 374.32483 374.32483 0 0 0 960 793.08008 L 960 790 z M 950 800 L 940 800 L 940 810 L 950 810 L 950 800 z M 950 810 L 950 811.94727 A 374.32483 374.32483 0 0 0 951.19336 810 L 950 810 z M 940 810 L 930 810 L 930 820 L 940 820 L 940 810 z M 940 820 L 940 828.25781 A 374.32483 374.32483 0 0 0 945.0625 820 L 940 820 z M 930 820 L 920 820 L 920 830 L 930 830 L 930 820 z M 930 830 L 930 840 L 932.36523 840 A 374.32483 374.32483 0 0 0 938.93164 830 L 930 830 z M 930 840 L 920 840 L 920 850 L 924.76367 850 A 374.32483 374.32483 0 0 0 930 843.11133 L 930 840 z M 920 850 L 910 850 L 910 860 L 917.16016 860 A 374.32483 374.32483 0 0 0 920 856.26562 L 920 850 z M 910 860 L 900 860 L 900 870 L 909.01367 870 A 374.32483 374.32483 0 0 0 910 868.94141 L 910 860 z M 900 870 L 890 870 L 890 880 L 899.69922 880 A 374.32483 374.32483 0 0 0 900 879.67578 L 900 870 z M 890 880 L 880 880 L 880 890 L 890 890 L 890 880 z M 890 890 L 890 890.41016 A 374.32483 374.32483 0 0 0 890.38281 890 L 890 890 z M 880 890 L 870 890 L 870 900 L 879.86719 900 A 374.32483 374.32483 0 0 0 880 899.88281 L 880 890 z M 870 900 L 860 900 L 860 910 L 868.48438 910 A 374.32483 374.32483 0 0 0 870 908.66797 L 870 900 z M 860 910 L 850 910 L 850 920 L 856.8125 920 A 374.32483 374.32483 0 0 0 860 917.45312 L 860 910 z M 850 920 L 840 920 L 840 930 L 842.82812 930 A 374.32483 374.32483 0 0 0 850 924.87305 L 850 920 z M 840 930 L 830 930 L 830 939.17383 A 374.32483 374.32483 0 0 0 840 932.02344 L 840 930 z M 830 930 L 830 920 L 820 920 L 820 930 L 830 930 z M 820 930 L 810 930 L 810 940 L 820 940 L 820 930 z M 820 940 L 820 945.20312 A 374.32483 374.32483 0 0 0 828.84375 940 L 820 940 z M 810 940 L 800 940 L 800 950 L 810 950 L 810 940 z M 810 950 L 810 950.93945 A 374.32483 374.32483 0 0 0 811.63672 950 L 810 950 z M 800 950 L 790 950 L 790 960 L 793.84766 960 A 374.32483 374.32483 0 0 0 800 956.67578 L 800 950 z M 790 960 L 780 960 L 780 966.19727 A 374.32483 374.32483 0 0 0 790 961.72266 L 790 960 z M 780 960 L 780 950 L 770 950 L 770 960 L 780 960 z M 770 960 L 760 960 L 760 970 L 770 970 L 770 960 z M 770 970 L 770 970.67383 A 374.32483 374.32483 0 0 0 771.50391 970 L 770 970 z M 760 970 L 750 970 L 750 978.32031 A 374.32483 374.32483 0 0 0 760 974.99805 L 760 970 z M 750 970 L 750 960 L 740 960 L 740 970 L 750 970 z M 740 970 L 730 970 L 730 980 L 740 980 L 740 970 z M 740 980 L 740 981.64258 A 374.32483 374.32483 0 0 0 744.94531 980 L 740 980 z M 730 980 L 720 980 L 720 987.66211 A 374.32483 374.32483 0 0 0 730 984.9668 L 730 980 z M 720 980 L 720 970 L 710 970 L 710 980 L 720 980 z M 710 980 L 700 980 L 700 990 L 709.58398 990 A 374.32483 374.32483 0 0 0 710 989.90625 L 710 980 z M 700 990 L 690 990 L 690 994.39453 A 374.32483 374.32483 0 0 0 700 992.15039 L 700 990 z M 690 990 L 690 980 L 680 980 L 680 990 L 690 990 z M 680 990 L 670 990 L 670 996.89648 A 374.32483 374.32483 0 0 0 680 995.68164 L 680 990 z M 670 990 L 670 980 L 660 980 L 660 990 L 670 990 z M 660 990 L 650 990 L 650 999.13867 A 374.32483 374.32483 0 0 0 660 998.10938 L 660 990 z M 650 990 L 650 980 L 640 980 L 640 990 L 650 990 z M 640 990 L 630 990 L 630 999.84766 A 374.32483 374.32483 0 0 0 640 999.49219 L 640 990 z M 630 990 L 630 980 L 620 980 L 620 990 L 630 990 z M 620 990 L 610 990 L 610 999.2168 A 374.32483 374.32483 0 0 0 620 999.7168 L 620 990 z M 610 990 L 610 980 L 600 980 L 600 990 L 610 990 z M 600 990 L 590 990 L 590 998.21484 A 374.32483 374.32483 0 0 0 600 998.71484 L 600 990 z M 590 990 L 590 980 L 580 980 L 580 990 L 590 990 z M 580 990 L 570 990 L 570 995.36328 A 374.32483 374.32483 0 0 0 580 996.875 L 580 990 z M 570 990 L 570 980 L 560 980 L 560 990 L 570 990 z M 560 990 L 550 990 L 550 992.20508 A 374.32483 374.32483 0 0 0 560 993.85352 L 560 990 z M 550 990 L 550 980 L 540 980 L 540 989.65039 A 374.32483 374.32483 0 0 0 541.36523 990 L 550 990 z M 540 980 L 540 970 L 530 970 L 530 980 L 540 980 z M 530 980 L 520 980 L 520 984.54492 A 374.32483 374.32483 0 0 0 530 987.09766 L 530 980 z M 520 980 L 520 970 L 510 970 L 510 980 L 520 980 z M 510 980 L 506.06641 980 A 374.32483 374.32483 0 0 0 510 981.43555 L 510 980 z M 510 970 L 510 960 L 500 960 L 500 970 L 510 970 z M 500 970 L 490 970 L 490 974.13477 A 374.32483 374.32483 0 0 0 500 977.78516 L 500 970 z M 490 970 L 490 960 L 480 960 L 480 970 L 490 970 z M 480 970 L 478.97266 970 A 374.32483 374.32483 0 0 0 480 970.48633 L 480 970 z M 480 960 L 480 950 L 470 950 L 470 960 L 480 960 z M 470 960 L 460 960 L 460 960.83594 A 374.32483 374.32483 0 0 0 470 965.66602 L 470 960 z M 460 960 L 460 950 L 450 950 L 450 956.00391 A 374.32483 374.32483 0 0 0 458.27148 960 L 460 960 z M 450 950 L 450 940 L 440 940 L 440 950 L 450 950 z M 440 950 L 439.4043 950 A 374.32483 374.32483 0 0 0 440 950.36523 L 440 950 z M 440 940 L 440 930 L 430 930 L 430 940 L 440 940 z M 430 940 L 423.09375 940 A 374.32483 374.32483 0 0 0 430 944.23438 L 430 940 z M 430 930 L 430 920 L 420 920 L 420 930 L 430 930 z M 420 930 L 410 930 L 410 931.33789 A 374.32483 374.32483 0 0 0 420 938.10352 L 420 930 z M 410 930 L 410 920 L 400 920 L 400 923.73633 A 374.32483 374.32483 0 0 0 408.24023 930 L 410 930 z M 400 920 L 400 910 L 390 910 L 390 916.13281 A 374.32483 374.32483 0 0 0 395.08594 920 L 400 920 z M 390 910 L 390 900 L 380 900 L 380 907.75586 A 374.32483 374.32483 0 0 0 382.41016 910 L 390 910 z M 380 900 L 380 890 L 370 890 L 370 898.43945 A 374.32483 374.32483 0 0 0 371.67383 900 L 380 900 z M 370 890 L 370 880 L 360 880 L 360 889.125 A 374.32483 374.32483 0 0 0 360.93945 890 L 370 890 z M 360 880 L 360 870 L 350 870 L 350 878.33008 A 374.32483 374.32483 0 0 0 351.4668 880 L 360 880 z M 350 870 L 350 860 L 340 860 L 340 866.94727 A 374.32483 374.32483 0 0 0 342.68164 870 L 350 870 z M 340 860 L 340 850 L 330 850 L 330 854.92383 A 374.32483 374.32483 0 0 0 333.89844 860 L 340 860 z M 330 850 L 330 840 L 320 840 L 320 840.93945 A 374.32483 374.32483 0 0 0 326.47852 850 L 330 850 z M 320 840 L 320 830 L 312.17578 830 A 374.32483 374.32483 0 0 0 319.32812 840 L 320 840 z M 320 830 L 330 830 L 330 820 L 320 820 L 320 830 z M 320 820 L 320 810 L 310 810 L 310 820 L 320 820 z M 310 820 L 306.14648 820 A 374.32483 374.32483 0 0 0 310 826.71875 L 310 820 z M 310 810 L 310 800 L 300 800 L 300 809.28516 A 374.32483 374.32483 0 0 0 300.41016 810 L 310 810 z M 300 800 L 300 794.06641 A 426.10193 426.10193 0 0 1 290.95117 792.69922 A 374.32483 374.32483 0 0 0 294.67383 800 L 300 800 z M 310 800 L 320 800 L 320 797.08984 A 426.10193 426.10193 0 0 1 310 795.57812 L 310 800 z M 320 800 L 320 810 L 330 810 L 330 800 L 320 800 z M 330 800 L 340 800 L 340 799.34961 A 426.10193 426.10193 0 0 1 330 798.60156 L 330 800 z M 340 800 L 340 810 L 350 810 L 350 800 L 340 800 z M 350 800 L 352.98828 800 A 426.10193 426.10193 0 0 1 350 799.84961 L 350 800 z M 350 810 L 350 820 L 360 820 L 360 810 L 350 810 z M 360 810 L 370 810 L 370 800.85156 A 426.10193 426.10193 0 0 1 360 800.35156 L 360 810 z M 370 810 L 370 820 L 380 820 L 380 810 L 370 810 z M 380 810 L 390 810 L 390 800.57031 A 426.10193 426.10193 0 0 1 380 800.92383 L 380 810 z M 390 810 L 390 820 L 400 820 L 400 810 L 390 810 z M 400 810 L 410 810 L 410 800 L 405.42969 800 A 426.10193 426.10193 0 0 1 400 800.2168 L 400 810 z M 410 800 L 420 800 L 420 798.23047 A 426.10193 426.10193 0 0 1 410 799.44531 L 410 800 z M 420 800 L 420 810 L 430 810 L 430 800 L 420 800 z M 430 800 L 440 800 L 440 795.80273 A 426.10193 426.10193 0 0 1 430 797.01758 L 430 800 z M 440 800 L 440 810 L 450 810 L 450 800 L 440 800 z M 450 800 L 460 800 L 460 792.08008 A 426.10193 426.10193 0 0 1 450 794.32422 L 450 800 z M 460 800 L 460 810 L 470 810 L 470 800 L 460 800 z M 470 800 L 480 800 L 480 790 L 470 790 L 470 800 z M 470 790 L 470 789.83398 A 426.10193 426.10193 0 0 1 469.26562 790 L 470 790 z M 480 790 L 490 790 L 490 785.23633 A 426.10193 426.10193 0 0 1 480 787.58984 L 480 790 z M 490 790 L 490 800 L 500 800 L 500 790 L 490 790 z M 500 790 L 510 790 L 510 780 L 505.75781 780 A 426.10193 426.10193 0 0 1 500 781.91406 L 500 790 z M 510 780 L 520 780 L 520 775.26758 A 426.10193 426.10193 0 0 1 510 778.58984 L 510 780 z M 520 780 L 520 790 L 530 790 L 530 780 L 520 780 z M 530 780 L 540 780 L 540 770 L 534.19141 770 A 426.10193 426.10193 0 0 1 530 771.87695 L 530 780 z M 540 770 L 550 770 L 550 762.92578 A 426.10193 426.10193 0 0 1 540 767.40039 L 540 770 z M 550 770 L 550 780 L 560 780 L 560 770 L 550 770 z M 560 770 L 570 770 L 570 760 L 560 760 L 560 770 z M 560 760 L 560 758.45117 A 426.10193 426.10193 0 0 1 556.53711 760 L 560 760 z M 570 760 L 580 760 L 580 750 L 576.55078 750 A 426.10193 426.10193 0 0 1 570 753.75781 L 570 760 z M 580 750 L 590 750 L 590 742.28516 A 426.10193 426.10193 0 0 1 580 748.02148 L 580 750 z M 590 750 L 590 760 L 600 760 L 600 750 L 590 750 z M 600 750 L 610 750 L 610 740 L 600 740 L 600 750 z M 600 740 L 600 736.54883 A 426.10193 426.10193 0 0 1 593.98438 740 L 600 740 z M 610 740 L 620 740 L 620 730 L 610.19336 730 A 426.10193 426.10193 0 0 1 610 730.13867 L 610 740 z M 620 730 L 630 730 L 630 720 L 624.17578 720 A 426.10193 426.10193 0 0 1 620 722.98633 L 620 730 z M 630 720 L 640 720 L 640 710 L 638.16016 710 A 426.10193 426.10193 0 0 1 630 715.83594 L 630 720 z M 640 710 L 650 710 L 650 700 L 649.85938 700 A 426.10193 426.10193 0 0 1 640 708.66211 L 640 710 z M 650 700 L 660 700 L 660 691.0918 A 426.10193 426.10193 0 0 1 650 699.87695 L 650 700 z M 660 700 L 660 710 L 670 710 L 670 700 L 660 700 z M 670 700 L 680 700 L 680 690 L 670 690 L 670 700 z M 670 690 L 670 682.30664 A 426.10193 426.10193 0 0 1 661.24219 690 L 670 690 z M 680 690 L 690 690 L 690 680 L 680 680 L 680 690 z M 680 680 L 680 671.93555 A 426.10193 426.10193 0 0 1 672.48828 680 L 680 680 z M 690 680 L 700 680 L 700 670 L 690 670 L 690 680 z M 690 670 L 690 661.20312 A 426.10193 426.10193 0 0 1 681.80469 670 L 690 670 z M 700 670 L 710 670 L 710 660 L 700 660 L 700 670 z M 700 660 L 700 650.46875 A 426.10193 426.10193 0 0 1 691.12109 660 L 700 660 z M 710 660 L 720 660 L 720 650 L 710 650 L 710 660 z M 710 650 L 710 640 L 708.125 640 A 426.10193 426.10193 0 0 1 700.43555 650 L 710 650 z M 710 640 L 720 640 L 720 630 L 715.72656 630 A 426.10193 426.10193 0 0 1 710 637.5332 L 710 640 z M 720 630 L 730 630 L 730 620 L 723.33008 620 A 426.10193 426.10193 0 0 1 720 624.37891 L 720 630 z M 730 620 L 740 620 L 740 610 L 730.10742 610 A 426.10193 426.10193 0 0 1 730 610.17578 L 730 620 z M 740 610 L 750 610 L 750 600 L 740 600 L 740 610 z M 740 600 L 740 593.86523 A 426.10193 426.10193 0 0 1 736.23828 600 L 740 600 z M 750 600 L 760 600 L 760 590 L 750 590 L 750 600 z M 750 590 L 750 580 L 748.5 580 A 426.10193 426.10193 0 0 1 742.36914 590 L 750 590 z M 750 580 L 760 580 L 760 570 L 753.42383 570 A 426.10193 426.10193 0 0 1 750 577.08789 L 750 580 z M 760 570 L 770 570 L 770 560 L 760 560 L 760 570 z M 760 560 L 760 556.38867 A 426.10193 426.10193 0 0 1 758.25586 560 L 760 560 z M 770 560 L 780 560 L 780 550 L 770 550 L 770 560 z M 770 550 L 770 540 L 767.80664 540 A 426.10193 426.10193 0 0 1 763.08594 550 L 770 550 z M 770 540 L 780 540 L 780 530 L 771.45703 530 A 426.10193 426.10193 0 0 1 770 533.99219 L 770 540 z M 780 530 L 790 530 L 790 520 L 780 520 L 780 530 z M 780 520 L 780 510 L 778.75586 510 A 426.10193 426.10193 0 0 1 775.10742 520 L 780 520 z M 780 510 L 790 510 L 790 500 L 782.30664 500 A 426.10193 426.10193 0 0 1 780 506.59375 L 780 510 z M 790 500 L 800 500 L 800 490 L 790 490 L 790 500 z M 790 490 L 790 480 L 787.41211 480 A 426.10193 426.10193 0 0 1 784.85938 490 L 790 490 z M 790 480 L 800 480 L 800 470 L 790 470 L 790 480 z M 790 470 L 790 469.86523 A 426.10193 426.10193 0 0 1 789.96484 470 L 790 470 z M 800 470 L 810 470 L 810 460 L 800 460 L 800 470 z M 800 460 L 800 450 L 794.06641 450 A 426.10193 426.10193 0 0 1 792.51953 460 L 800 460 z M 800 450 L 810 450 L 810 440 L 800 440 L 800 450 z M 800 440 L 800 430 L 797.08984 430 A 426.10193 426.10193 0 0 1 795.57812 440 L 800 440 z M 800 430 L 810 430 L 810 420 L 800 420 L 800 430 z M 800 420 L 800 410 L 799.34961 410 A 426.10193 426.10193 0 0 1 798.60156 420 L 800 420 z M 800 410 L 810 410 L 810 400 L 800 400 L 800 410 z M 800 400 L 800 397.01172 A 426.10193 426.10193 0 0 1 799.84961 400 L 800 400 z M 810 400 L 820 400 L 820 390 L 810 390 L 810 400 z M 810 390 L 810 380 L 800.85156 380 A 426.10193 426.10193 0 0 1 800.35156 390 L 810 390 z M 810 380 L 820 380 L 820 370 L 810 370 L 810 380 z M 810 370 L 810 360 L 800.57031 360 A 426.10193 426.10193 0 0 1 800.92383 370 L 810 370 z M 810 360 L 820 360 L 820 350 L 810 350 L 810 360 z M 810 350 L 810 340 L 800 340 L 800 344.57031 A 426.10193 426.10193 0 0 1 800.2168 350 L 810 350 z M 800 340 L 800 330 L 798.23047 330 A 426.10193 426.10193 0 0 1 799.44531 340 L 800 340 z M 800 330 L 810 330 L 810 320 L 800 320 L 800 330 z M 800 320 L 800 310 L 795.80273 310 A 426.10193 426.10193 0 0 1 797.01758 320 L 800 320 z M 810 330 L 810 340 L 820 340 L 820 330 L 810 330 z M 820 340 L 820 350 L 830 350 L 830 340 L 820 340 z M 830 340 L 840 340 L 840 330 L 830 330 L 830 340 z M 840 340 L 840 350 L 850 350 L 850 340 L 840 340 z M 850 350 L 850 360 L 860 360 L 860 350 L 850 350 z M 860 360 L 860 370 L 870 370 L 870 360 L 860 360 z M 870 370 L 870 380 L 880 380 L 880 370 L 870 370 z M 880 380 L 880 390 L 890 390 L 890 380 L 880 380 z M 890 390 L 890 400 L 900 400 L 900 390 L 890 390 z M 900 400 L 900 410 L 910 410 L 910 400 L 900 400 z M 910 410 L 910 420 L 920 420 L 920 410 L 910 410 z M 910 420 L 900 420 L 900 430 L 910 430 L 910 420 z M 910 430 L 910 440 L 920 440 L 920 430 L 910 430 z M 920 440 L 920 450 L 930 450 L 930 440 L 920 440 z M 930 450 L 930 460 L 940 460 L 940 450 L 930 450 z M 940 460 L 940 470 L 950 470 L 950 460 L 940 460 z M 940 470 L 930 470 L 930 480 L 940 480 L 940 470 z M 940 480 L 940 490 L 950 490 L 950 480 L 940 480 z M 950 490 L 950 500 L 960 500 L 960 490 L 950 490 z M 950 500 L 940 500 L 940 510 L 950 510 L 950 500 z M 950 510 L 950 520 L 960 520 L 960 510 L 950 510 z M 960 520 L 960 530 L 970 530 L 970 520 L 960 520 z M 960 530 L 950 530 L 950 540 L 960 540 L 960 530 z M 960 540 L 960 550 L 970 550 L 970 540 L 960 540 z M 970 550 L 970 560 L 980 560 L 980 550 L 970 550 z M 970 560 L 960 560 L 960 570 L 970 570 L 970 560 z M 970 570 L 970 580 L 980 580 L 980 570 L 970 570 z M 970 580 L 960 580 L 960 590 L 970 590 L 970 580 z M 970 590 L 970 600 L 980 600 L 980 590 L 970 590 z M 970 600 L 960 600 L 960 610 L 970 610 L 970 600 z M 970 610 L 970 620 L 980 620 L 980 610 L 970 610 z M 970 620 L 960 620 L 960 630 L 970 630 L 970 620 z M 970 630 L 970 640 L 980 640 L 980 630 L 970 630 z M 970 640 L 960 640 L 960 650 L 970 650 L 970 640 z M 970 650 L 970 660 L 980 660 L 980 650 L 970 650 z M 970 660 L 960 660 L 960 670 L 970 670 L 970 660 z M 970 670 L 970 680 L 980 680 L 980 670 L 970 670 z M 970 680 L 960 680 L 960 690 L 970 690 L 970 680 z M 970 690 L 970 700 L 980 700 L 980 690 L 970 690 z M 970 700 L 960 700 L 960 710 L 970 710 L 970 700 z M 960 710 L 950 710 L 950 720 L 960 720 L 960 710 z M 960 720 L 960 730 L 970 730 L 970 720 L 960 720 z M 960 730 L 950 730 L 950 740 L 960 740 L 960 730 z M 950 740 L 940 740 L 940 750 L 950 750 L 950 740 z M 950 750 L 950 760 L 960 760 L 960 750 L 950 750 z M 950 760 L 940 760 L 940 770 L 950 770 L 950 760 z M 940 770 L 930 770 L 930 780 L 940 780 L 940 770 z M 940 780 L 940 790 L 950 790 L 950 780 L 940 780 z M 940 790 L 930 790 L 930 800 L 940 800 L 940 790 z M 930 800 L 920 800 L 920 810 L 930 810 L 930 800 z M 920 810 L 910 810 L 910 820 L 920 820 L 920 810 z M 910 820 L 900 820 L 900 830 L 910 830 L 910 820 z M 910 830 L 910 840 L 920 840 L 920 830 L 910 830 z M 910 840 L 900 840 L 900 850 L 910 850 L 910 840 z M 900 850 L 890 850 L 890 860 L 900 860 L 900 850 z M 890 860 L 880 860 L 880 870 L 890 870 L 890 860 z M 880 870 L 870 870 L 870 880 L 880 880 L 880 870 z M 870 880 L 860 880 L 860 890 L 870 890 L 870 880 z M 860 890 L 850 890 L 850 900 L 860 900 L 860 890 z M 850 900 L 840 900 L 840 910 L 850 910 L 850 900 z M 840 910 L 830 910 L 830 920 L 840 920 L 840 910 z M 830 910 L 830 900 L 820 900 L 820 910 L 830 910 z M 820 910 L 810 910 L 810 920 L 820 920 L 820 910 z M 810 920 L 800 920 L 800 930 L 810 930 L 810 920 z M 800 930 L 790 930 L 790 940 L 800 940 L 800 930 z M 790 940 L 780 940 L 780 950 L 790 950 L 790 940 z M 780 940 L 780 930 L 770 930 L 770 940 L 780 940 z M 770 940 L 760 940 L 760 950 L 770 950 L 770 940 z M 760 950 L 750 950 L 750 960 L 760 960 L 760 950 z M 750 950 L 750 940 L 740 940 L 740 950 L 750 950 z M 740 950 L 730 950 L 730 960 L 740 960 L 740 950 z M 730 960 L 720 960 L 720 970 L 730 970 L 730 960 z M 720 960 L 720 950 L 710 950 L 710 960 L 720 960 z M 710 960 L 700 960 L 700 970 L 710 970 L 710 960 z M 700 970 L 690 970 L 690 980 L 700 980 L 700 970 z M 690 970 L 690 960 L 680 960 L 680 970 L 690 970 z M 680 970 L 670 970 L 670 980 L 680 980 L 680 970 z M 670 970 L 670 960 L 660 960 L 660 970 L 670 970 z M 660 970 L 650 970 L 650 980 L 660 980 L 660 970 z M 650 970 L 650 960 L 640 960 L 640 970 L 650 970 z M 640 970 L 630 970 L 630 980 L 640 980 L 640 970 z M 630 970 L 630 960 L 620 960 L 620 970 L 630 970 z M 620 970 L 610 970 L 610 980 L 620 980 L 620 970 z M 610 970 L 610 960 L 600 960 L 600 970 L 610 970 z M 600 970 L 590 970 L 590 980 L 600 980 L 600 970 z M 590 970 L 590 960 L 580 960 L 580 970 L 590 970 z M 580 970 L 570 970 L 570 980 L 580 980 L 580 970 z M 570 970 L 570 960 L 560 960 L 560 970 L 570 970 z M 560 970 L 550 970 L 550 980 L 560 980 L 560 970 z M 550 970 L 550 960 L 540 960 L 540 970 L 550 970 z M 540 960 L 540 950 L 530 950 L 530 960 L 540 960 z M 530 960 L 520 960 L 520 970 L 530 970 L 530 960 z M 520 960 L 520 950 L 510 950 L 510 960 L 520 960 z M 510 950 L 510 940 L 500 940 L 500 950 L 510 950 z M 500 950 L 490 950 L 490 960 L 500 960 L 500 950 z M 490 950 L 490 940 L 480 940 L 480 950 L 490 950 z M 480 940 L 480 930 L 470 930 L 470 940 L 480 940 z M 470 940 L 460 940 L 460 950 L 470 950 L 470 940 z M 460 940 L 460 930 L 450 930 L 450 940 L 460 940 z M 450 930 L 450 920 L 440 920 L 440 930 L 450 930 z M 440 920 L 440 910 L 430 910 L 430 920 L 440 920 z M 430 910 L 430 900 L 420 900 L 420 910 L 430 910 z M 420 910 L 410 910 L 410 920 L 420 920 L 420 910 z M 410 910 L 410 900 L 400 900 L 400 910 L 410 910 z M 400 900 L 400 890 L 390 890 L 390 900 L 400 900 z M 390 890 L 390 880 L 380 880 L 380 890 L 390 890 z M 380 880 L 380 870 L 370 870 L 370 880 L 380 880 z M 370 870 L 370 860 L 360 860 L 360 870 L 370 870 z M 360 860 L 360 850 L 350 850 L 350 860 L 360 860 z M 350 850 L 350 840 L 340 840 L 340 850 L 350 850 z M 340 840 L 340 830 L 330 830 L 330 840 L 340 840 z M 340 830 L 350 830 L 350 820 L 340 820 L 340 830 z M 340 820 L 340 810 L 330 810 L 330 820 L 340 820 z M 350 830 L 350 840 L 360 840 L 360 830 L 350 830 z M 360 830 L 370 830 L 370 820 L 360 820 L 360 830 z M 370 830 L 370 840 L 380 840 L 380 830 L 370 830 z M 380 830 L 390 830 L 390 820 L 380 820 L 380 830 z M 390 830 L 390 840 L 400 840 L 400 830 L 390 830 z M 400 830 L 410 830 L 410 820 L 400 820 L 400 830 z M 410 820 L 420 820 L 420 810 L 410 810 L 410 820 z M 420 820 L 420 830 L 430 830 L 430 820 L 420 820 z M 430 820 L 440 820 L 440 810 L 430 810 L 430 820 z M 440 820 L 440 830 L 450 830 L 450 820 L 440 820 z M 450 820 L 460 820 L 460 810 L 450 810 L 450 820 z M 460 820 L 460 830 L 470 830 L 470 820 L 460 820 z M 470 820 L 480 820 L 480 810 L 470 810 L 470 820 z M 480 810 L 490 810 L 490 800 L 480 800 L 480 810 z M 490 810 L 490 820 L 500 820 L 500 810 L 490 810 z M 500 810 L 510 810 L 510 800 L 500 800 L 500 810 z M 510 800 L 520 800 L 520 790 L 510 790 L 510 800 z M 520 800 L 520 810 L 530 810 L 530 800 L 520 800 z M 530 800 L 540 800 L 540 790 L 530 790 L 530 800 z M 540 790 L 550 790 L 550 780 L 540 780 L 540 790 z M 550 790 L 550 800 L 560 800 L 560 790 L 550 790 z M 560 790 L 570 790 L 570 780 L 560 780 L 560 790 z M 570 780 L 580 780 L 580 770 L 570 770 L 570 780 z M 580 770 L 590 770 L 590 760 L 580 760 L 580 770 z M 590 770 L 590 780 L 600 780 L 600 770 L 590 770 z M 600 770 L 610 770 L 610 760 L 600 760 L 600 770 z M 610 760 L 620 760 L 620 750 L 610 750 L 610 760 z M 620 750 L 630 750 L 630 740 L 620 740 L 620 750 z M 630 740 L 640 740 L 640 730 L 630 730 L 630 740 z M 640 730 L 650 730 L 650 720 L 640 720 L 640 730 z M 650 720 L 660 720 L 660 710 L 650 710 L 650 720 z M 660 720 L 660 730 L 670 730 L 670 720 L 660 720 z M 670 720 L 680 720 L 680 710 L 670 710 L 670 720 z M 680 710 L 690 710 L 690 700 L 680 700 L 680 710 z M 690 700 L 700 700 L 700 690 L 690 690 L 690 700 z M 700 690 L 710 690 L 710 680 L 700 680 L 700 690 z M 710 680 L 720 680 L 720 670 L 710 670 L 710 680 z M 720 670 L 730 670 L 730 660 L 720 660 L 720 670 z M 730 660 L 740 660 L 740 650 L 730 650 L 730 660 z M 730 650 L 730 640 L 720 640 L 720 650 L 730 650 z M 730 640 L 740 640 L 740 630 L 730 630 L 730 640 z M 740 630 L 750 630 L 750 620 L 740 620 L 740 630 z M 750 620 L 760 620 L 760 610 L 750 610 L 750 620 z M 760 610 L 770 610 L 770 600 L 760 600 L 760 610 z M 770 600 L 780 600 L 780 590 L 770 590 L 770 600 z M 770 590 L 770 580 L 760 580 L 760 590 L 770 590 z M 770 580 L 780 580 L 780 570 L 770 570 L 770 580 z M 780 570 L 790 570 L 790 560 L 780 560 L 780 570 z M 790 560 L 800 560 L 800 550 L 790 550 L 790 560 z M 790 550 L 790 540 L 780 540 L 780 550 L 790 550 z M 790 540 L 800 540 L 800 530 L 790 530 L 790 540 z M 800 530 L 810 530 L 810 520 L 800 520 L 800 530 z M 800 520 L 800 510 L 790 510 L 790 520 L 800 520 z M 800 510 L 810 510 L 810 500 L 800 500 L 800 510 z M 810 500 L 820 500 L 820 490 L 810 490 L 810 500 z M 810 490 L 810 480 L 800 480 L 800 490 L 810 490 z M 810 480 L 820 480 L 820 470 L 810 470 L 810 480 z M 820 470 L 830 470 L 830 460 L 820 460 L 820 470 z M 820 460 L 820 450 L 810 450 L 810 460 L 820 460 z M 820 450 L 830 450 L 830 440 L 820 440 L 820 450 z M 820 440 L 820 430 L 810 430 L 810 440 L 820 440 z M 820 430 L 830 430 L 830 420 L 820 420 L 820 430 z M 820 420 L 820 410 L 810 410 L 810 420 L 820 420 z M 820 410 L 830 410 L 830 400 L 820 400 L 820 410 z M 830 400 L 840 400 L 840 390 L 830 390 L 830 400 z M 830 390 L 830 380 L 820 380 L 820 390 L 830 390 z M 830 380 L 840 380 L 840 370 L 830 370 L 830 380 z M 830 370 L 830 360 L 820 360 L 820 370 L 830 370 z M 830 360 L 840 360 L 840 350 L 830 350 L 830 360 z M 840 360 L 840 370 L 850 370 L 850 360 L 840 360 z M 850 370 L 850 380 L 860 380 L 860 370 L 850 370 z M 860 380 L 860 390 L 870 390 L 870 380 L 860 380 z M 870 390 L 870 400 L 880 400 L 880 390 L 870 390 z M 880 400 L 880 410 L 890 410 L 890 400 L 880 400 z M 890 410 L 890 420 L 900 420 L 900 410 L 890 410 z M 890 420 L 880 420 L 880 430 L 890 430 L 890 420 z M 890 430 L 890 440 L 900 440 L 900 430 L 890 430 z M 900 440 L 900 450 L 910 450 L 910 440 L 900 440 z M 910 450 L 910 460 L 920 460 L 920 450 L 910 450 z M 920 460 L 920 470 L 930 470 L 930 460 L 920 460 z M 920 470 L 910 470 L 910 480 L 920 480 L 920 470 z M 920 480 L 920 490 L 930 490 L 930 480 L 920 480 z M 930 490 L 930 500 L 940 500 L 940 490 L 930 490 z M 930 500 L 920 500 L 920 510 L 930 510 L 930 500 z M 930 510 L 930 520 L 940 520 L 940 510 L 930 510 z M 940 520 L 940 530 L 950 530 L 950 520 L 940 520 z M 940 530 L 930 530 L 930 540 L 940 540 L 940 530 z M 940 540 L 940 550 L 950 550 L 950 540 L 940 540 z M 950 550 L 950 560 L 960 560 L 960 550 L 950 550 z M 950 560 L 940 560 L 940 570 L 950 570 L 950 560 z M 950 570 L 950 580 L 960 580 L 960 570 L 950 570 z M 950 580 L 940 580 L 940 590 L 950 590 L 950 580 z M 950 590 L 950 600 L 960 600 L 960 590 L 950 590 z M 950 600 L 940 600 L 940 610 L 950 610 L 950 600 z M 950 610 L 950 620 L 960 620 L 960 610 L 950 610 z M 950 620 L 940 620 L 940 630 L 950 630 L 950 620 z M 950 630 L 950 640 L 960 640 L 960 630 L 950 630 z M 950 640 L 940 640 L 940 650 L 950 650 L 950 640 z M 950 650 L 950 660 L 960 660 L 960 650 L 950 650 z M 950 660 L 940 660 L 940 670 L 950 670 L 950 660 z M 950 670 L 950 680 L 960 680 L 960 670 L 950 670 z M 950 680 L 940 680 L 940 690 L 950 690 L 950 680 z M 950 690 L 950 700 L 960 700 L 960 690 L 950 690 z M 950 700 L 940 700 L 940 710 L 950 710 L 950 700 z M 940 710 L 930 710 L 930 720 L 940 720 L 940 710 z M 940 720 L 940 730 L 950 730 L 950 720 L 940 720 z M 940 730 L 930 730 L 930 740 L 940 740 L 940 730 z M 930 740 L 920 740 L 920 750 L 930 750 L 930 740 z M 930 750 L 930 760 L 940 760 L 940 750 L 930 750 z M 930 760 L 920 760 L 920 770 L 930 770 L 930 760 z M 920 770 L 910 770 L 910 780 L 920 780 L 920 770 z M 920 780 L 920 790 L 930 790 L 930 780 L 920 780 z M 920 790 L 910 790 L 910 800 L 920 800 L 920 790 z M 910 800 L 900 800 L 900 810 L 910 810 L 910 800 z M 900 810 L 890 810 L 890 820 L 900 820 L 900 810 z M 890 820 L 880 820 L 880 830 L 890 830 L 890 820 z M 890 830 L 890 840 L 900 840 L 900 830 L 890 830 z M 890 840 L 880 840 L 880 850 L 890 850 L 890 840 z M 880 850 L 870 850 L 870 860 L 880 860 L 880 850 z M 870 860 L 860 860 L 860 870 L 870 870 L 870 860 z M 860 870 L 850 870 L 850 880 L 860 880 L 860 870 z M 850 880 L 840 880 L 840 890 L 850 890 L 850 880 z M 840 890 L 830 890 L 830 900 L 840 900 L 840 890 z M 830 890 L 830 880 L 820 880 L 820 890 L 830 890 z M 820 890 L 810 890 L 810 900 L 820 900 L 820 890 z M 810 900 L 800 900 L 800 910 L 810 910 L 810 900 z M 800 910 L 790 910 L 790 920 L 800 920 L 800 910 z M 790 920 L 780 920 L 780 930 L 790 930 L 790 920 z M 780 920 L 780 910 L 770 910 L 770 920 L 780 920 z M 770 920 L 760 920 L 760 930 L 770 930 L 770 920 z M 760 930 L 750 930 L 750 940 L 760 940 L 760 930 z M 750 930 L 750 920 L 740 920 L 740 930 L 750 930 z M 740 930 L 730 930 L 730 940 L 740 940 L 740 930 z M 730 940 L 720 940 L 720 950 L 730 950 L 730 940 z M 720 940 L 720 930 L 710 930 L 710 940 L 720 940 z M 710 940 L 700 940 L 700 950 L 710 950 L 710 940 z M 700 950 L 690 950 L 690 960 L 700 960 L 700 950 z M 690 950 L 690 940 L 680 940 L 680 950 L 690 950 z M 680 950 L 670 950 L 670 960 L 680 960 L 680 950 z M 670 950 L 670 940 L 660 940 L 660 950 L 670 950 z M 660 950 L 650 950 L 650 960 L 660 960 L 660 950 z M 650 950 L 650 940 L 640 940 L 640 950 L 650 950 z M 640 950 L 630 950 L 630 960 L 640 960 L 640 950 z M 630 950 L 630 940 L 620 940 L 620 950 L 630 950 z M 620 950 L 610 950 L 610 960 L 620 960 L 620 950 z M 610 950 L 610 940 L 600 940 L 600 950 L 610 950 z M 600 950 L 590 950 L 590 960 L 600 960 L 600 950 z M 590 950 L 590 940 L 580 940 L 580 950 L 590 950 z M 580 950 L 570 950 L 570 960 L 580 960 L 580 950 z M 570 950 L 570 940 L 560 940 L 560 950 L 570 950 z M 560 950 L 550 950 L 550 960 L 560 960 L 560 950 z M 550 950 L 550 940 L 540 940 L 540 950 L 550 950 z M 540 940 L 540 930 L 530 930 L 530 940 L 540 940 z M 530 940 L 520 940 L 520 950 L 530 950 L 530 940 z M 520 940 L 520 930 L 510 930 L 510 940 L 520 940 z M 510 930 L 510 920 L 500 920 L 500 930 L 510 930 z M 500 930 L 490 930 L 490 940 L 500 940 L 500 930 z M 490 930 L 490 920 L 480 920 L 480 930 L 490 930 z M 480 920 L 480 910 L 470 910 L 470 920 L 480 920 z M 470 920 L 460 920 L 460 930 L 470 930 L 470 920 z M 460 920 L 460 910 L 450 910 L 450 920 L 460 920 z M 450 910 L 450 900 L 440 900 L 440 910 L 450 910 z M 440 900 L 440 890 L 430 890 L 430 900 L 440 900 z M 430 890 L 430 880 L 420 880 L 420 890 L 430 890 z M 420 890 L 410 890 L 410 900 L 420 900 L 420 890 z M 410 890 L 410 880 L 400 880 L 400 890 L 410 890 z M 400 880 L 400 870 L 390 870 L 390 880 L 400 880 z M 390 870 L 390 860 L 380 860 L 380 870 L 390 870 z M 380 860 L 380 850 L 370 850 L 370 860 L 380 860 z M 370 850 L 370 840 L 360 840 L 360 850 L 370 850 z M 380 850 L 390 850 L 390 840 L 380 840 L 380 850 z M 390 850 L 390 860 L 400 860 L 400 850 L 390 850 z M 400 850 L 410 850 L 410 840 L 400 840 L 400 850 z M 410 840 L 420 840 L 420 830 L 410 830 L 410 840 z M 420 840 L 420 850 L 430 850 L 430 840 L 420 840 z M 430 840 L 440 840 L 440 830 L 430 830 L 430 840 z M 440 840 L 440 850 L 450 850 L 450 840 L 440 840 z M 450 840 L 460 840 L 460 830 L 450 830 L 450 840 z M 460 840 L 460 850 L 470 850 L 470 840 L 460 840 z M 470 840 L 480 840 L 480 830 L 470 830 L 470 840 z M 480 830 L 490 830 L 490 820 L 480 820 L 480 830 z M 490 830 L 490 840 L 500 840 L 500 830 L 490 830 z M 500 830 L 510 830 L 510 820 L 500 820 L 500 830 z M 510 820 L 520 820 L 520 810 L 510 810 L 510 820 z M 520 820 L 520 830 L 530 830 L 530 820 L 520 820 z M 530 820 L 540 820 L 540 810 L 530 810 L 530 820 z M 540 810 L 550 810 L 550 800 L 540 800 L 540 810 z M 550 810 L 550 820 L 560 820 L 560 810 L 550 810 z M 560 810 L 570 810 L 570 800 L 560 800 L 560 810 z M 570 800 L 580 800 L 580 790 L 570 790 L 570 800 z M 580 790 L 590 790 L 590 780 L 580 780 L 580 790 z M 590 790 L 590 800 L 600 800 L 600 790 L 590 790 z M 600 790 L 610 790 L 610 780 L 600 780 L 600 790 z M 610 780 L 620 780 L 620 770 L 610 770 L 610 780 z M 620 770 L 630 770 L 630 760 L 620 760 L 620 770 z M 630 760 L 640 760 L 640 750 L 630 750 L 630 760 z M 640 750 L 650 750 L 650 740 L 640 740 L 640 750 z M 650 740 L 660 740 L 660 730 L 650 730 L 650 740 z M 660 740 L 660 750 L 670 750 L 670 740 L 660 740 z M 670 740 L 680 740 L 680 730 L 670 730 L 670 740 z M 680 730 L 690 730 L 690 720 L 680 720 L 680 730 z M 690 720 L 700 720 L 700 710 L 690 710 L 690 720 z M 700 710 L 710 710 L 710 700 L 700 700 L 700 710 z M 710 700 L 720 700 L 720 690 L 710 690 L 710 700 z M 720 690 L 730 690 L 730 680 L 720 680 L 720 690 z M 730 680 L 740 680 L 740 670 L 730 670 L 730 680 z M 740 670 L 750 670 L 750 660 L 740 660 L 740 670 z M 750 660 L 760 660 L 760 650 L 750 650 L 750 660 z M 750 650 L 750 640 L 740 640 L 740 650 L 750 650 z M 750 640 L 760 640 L 760 630 L 750 630 L 750 640 z M 760 630 L 770 630 L 770 620 L 760 620 L 760 630 z M 770 620 L 780 620 L 780 610 L 770 610 L 770 620 z M 780 610 L 790 610 L 790 600 L 780 600 L 780 610 z M 790 600 L 800 600 L 800 590 L 790 590 L 790 600 z M 790 590 L 790 580 L 780 580 L 780 590 L 790 590 z M 790 580 L 800 580 L 800 570 L 790 570 L 790 580 z M 800 570 L 810 570 L 810 560 L 800 560 L 800 570 z M 810 560 L 820 560 L 820 550 L 810 550 L 810 560 z M 810 550 L 810 540 L 800 540 L 800 550 L 810 550 z M 810 540 L 820 540 L 820 530 L 810 530 L 810 540 z M 820 530 L 830 530 L 830 520 L 820 520 L 820 530 z M 820 520 L 820 510 L 810 510 L 810 520 L 820 520 z M 820 510 L 830 510 L 830 500 L 820 500 L 820 510 z M 830 500 L 840 500 L 840 490 L 830 490 L 830 500 z M 830 490 L 830 480 L 820 480 L 820 490 L 830 490 z M 830 480 L 840 480 L 840 470 L 830 470 L 830 480 z M 840 470 L 850 470 L 850 460 L 840 460 L 840 470 z M 840 460 L 840 450 L 830 450 L 830 460 L 840 460 z M 840 450 L 850 450 L 850 440 L 840 440 L 840 450 z M 840 440 L 840 430 L 830 430 L 830 440 L 840 440 z M 840 430 L 850 430 L 850 420 L 840 420 L 840 430 z M 840 420 L 840 410 L 830 410 L 830 420 L 840 420 z M 840 410 L 850 410 L 850 400 L 840 400 L 840 410 z M 850 400 L 860 400 L 860 390 L 850 390 L 850 400 z M 850 390 L 850 380 L 840 380 L 840 390 L 850 390 z M 860 400 L 860 410 L 870 410 L 870 400 L 860 400 z M 870 410 L 870 420 L 880 420 L 880 410 L 870 410 z M 870 420 L 860 420 L 860 430 L 870 430 L 870 420 z M 870 430 L 870 440 L 880 440 L 880 430 L 870 430 z M 880 440 L 880 450 L 890 450 L 890 440 L 880 440 z M 890 450 L 890 460 L 900 460 L 900 450 L 890 450 z M 900 460 L 900 470 L 910 470 L 910 460 L 900 460 z M 900 470 L 890 470 L 890 480 L 900 480 L 900 470 z M 900 480 L 900 490 L 910 490 L 910 480 L 900 480 z M 910 490 L 910 500 L 920 500 L 920 490 L 910 490 z M 910 500 L 900 500 L 900 510 L 910 510 L 910 500 z M 910 510 L 910 520 L 920 520 L 920 510 L 910 510 z M 920 520 L 920 530 L 930 530 L 930 520 L 920 520 z M 920 530 L 910 530 L 910 540 L 920 540 L 920 530 z M 920 540 L 920 550 L 930 550 L 930 540 L 920 540 z M 930 550 L 930 560 L 940 560 L 940 550 L 930 550 z M 930 560 L 920 560 L 920 570 L 930 570 L 930 560 z M 930 570 L 930 580 L 940 580 L 940 570 L 930 570 z M 930 580 L 920 580 L 920 590 L 930 590 L 930 580 z M 930 590 L 930 600 L 940 600 L 940 590 L 930 590 z M 930 600 L 920 600 L 920 610 L 930 610 L 930 600 z M 930 610 L 930 620 L 940 620 L 940 610 L 930 610 z M 930 620 L 920 620 L 920 630 L 930 630 L 930 620 z M 930 630 L 930 640 L 940 640 L 940 630 L 930 630 z M 930 640 L 920 640 L 920 650 L 930 650 L 930 640 z M 930 650 L 930 660 L 940 660 L 940 650 L 930 650 z M 930 660 L 920 660 L 920 670 L 930 670 L 930 660 z M 930 670 L 930 680 L 940 680 L 940 670 L 930 670 z M 930 680 L 920 680 L 920 690 L 930 690 L 930 680 z M 930 690 L 930 700 L 940 700 L 940 690 L 930 690 z M 930 700 L 920 700 L 920 710 L 930 710 L 930 700 z M 920 710 L 910 710 L 910 720 L 920 720 L 920 710 z M 920 720 L 920 730 L 930 730 L 930 720 L 920 720 z M 920 730 L 910 730 L 910 740 L 920 740 L 920 730 z M 910 740 L 900 740 L 900 750 L 910 750 L 910 740 z M 910 750 L 910 760 L 920 760 L 920 750 L 910 750 z M 910 760 L 900 760 L 900 770 L 910 770 L 910 760 z M 900 770 L 890 770 L 890 780 L 900 780 L 900 770 z M 900 780 L 900 790 L 910 790 L 910 780 L 900 780 z M 900 790 L 890 790 L 890 800 L 900 800 L 900 790 z M 890 800 L 880 800 L 880 810 L 890 810 L 890 800 z M 880 810 L 870 810 L 870 820 L 880 820 L 880 810 z M 870 820 L 860 820 L 860 830 L 870 830 L 870 820 z M 870 830 L 870 840 L 880 840 L 880 830 L 870 830 z M 870 840 L 860 840 L 860 850 L 870 850 L 870 840 z M 860 850 L 850 850 L 850 860 L 860 860 L 860 850 z M 850 860 L 840 860 L 840 870 L 850 870 L 850 860 z M 840 870 L 830 870 L 830 880 L 840 880 L 840 870 z M 830 870 L 830 860 L 820 860 L 820 870 L 830 870 z M 820 870 L 810 870 L 810 880 L 820 880 L 820 870 z M 810 880 L 800 880 L 800 890 L 810 890 L 810 880 z M 800 890 L 790 890 L 790 900 L 800 900 L 800 890 z M 790 900 L 780 900 L 780 910 L 790 910 L 790 900 z M 780 900 L 780 890 L 770 890 L 770 900 L 780 900 z M 770 900 L 760 900 L 760 910 L 770 910 L 770 900 z M 760 910 L 750 910 L 750 920 L 760 920 L 760 910 z M 750 910 L 750 900 L 740 900 L 740 910 L 750 910 z M 740 910 L 730 910 L 730 920 L 740 920 L 740 910 z M 730 920 L 720 920 L 720 930 L 730 930 L 730 920 z M 720 920 L 720 910 L 710 910 L 710 920 L 720 920 z M 710 920 L 700 920 L 700 930 L 710 930 L 710 920 z M 700 930 L 690 930 L 690 940 L 700 940 L 700 930 z M 690 930 L 690 920 L 680 920 L 680 930 L 690 930 z M 680 930 L 670 930 L 670 940 L 680 940 L 680 930 z M 670 930 L 670 920 L 660 920 L 660 930 L 670 930 z M 660 930 L 650 930 L 650 940 L 660 940 L 660 930 z M 650 930 L 650 920 L 640 920 L 640 930 L 650 930 z M 640 930 L 630 930 L 630 940 L 640 940 L 640 930 z M 630 930 L 630 920 L 620 920 L 620 930 L 630 930 z M 620 930 L 610 930 L 610 940 L 620 940 L 620 930 z M 610 930 L 610 920 L 600 920 L 600 930 L 610 930 z M 600 930 L 590 930 L 590 940 L 600 940 L 600 930 z M 590 930 L 590 920 L 580 920 L 580 930 L 590 930 z M 580 930 L 570 930 L 570 940 L 580 940 L 580 930 z M 570 930 L 570 920 L 560 920 L 560 930 L 570 930 z M 560 930 L 550 930 L 550 940 L 560 940 L 560 930 z M 550 930 L 550 920 L 540 920 L 540 930 L 550 930 z M 540 920 L 540 910 L 530 910 L 530 920 L 540 920 z M 530 920 L 520 920 L 520 930 L 530 930 L 530 920 z M 520 920 L 520 910 L 510 910 L 510 920 L 520 920 z M 510 910 L 510 900 L 500 900 L 500 910 L 510 910 z M 500 910 L 490 910 L 490 920 L 500 920 L 500 910 z M 490 910 L 490 900 L 480 900 L 480 910 L 490 910 z M 480 900 L 480 890 L 470 890 L 470 900 L 480 900 z M 470 900 L 460 900 L 460 910 L 470 910 L 470 900 z M 460 900 L 460 890 L 450 890 L 450 900 L 460 900 z M 450 890 L 450 880 L 440 880 L 440 890 L 450 890 z M 440 880 L 440 870 L 430 870 L 430 880 L 440 880 z M 430 870 L 430 860 L 420 860 L 420 870 L 430 870 z M 420 870 L 410 870 L 410 880 L 420 880 L 420 870 z M 410 870 L 410 860 L 400 860 L 400 870 L 410 870 z M 410 860 L 420 860 L 420 850 L 410 850 L 410 860 z M 430 860 L 440 860 L 440 850 L 430 850 L 430 860 z M 440 860 L 440 870 L 450 870 L 450 860 L 440 860 z M 450 860 L 460 860 L 460 850 L 450 850 L 450 860 z M 460 860 L 460 870 L 470 870 L 470 860 L 460 860 z M 470 860 L 480 860 L 480 850 L 470 850 L 470 860 z M 480 850 L 490 850 L 490 840 L 480 840 L 480 850 z M 490 850 L 490 860 L 500 860 L 500 850 L 490 850 z M 500 850 L 510 850 L 510 840 L 500 840 L 500 850 z M 510 840 L 520 840 L 520 830 L 510 830 L 510 840 z M 520 840 L 520 850 L 530 850 L 530 840 L 520 840 z M 530 840 L 540 840 L 540 830 L 530 830 L 530 840 z M 540 830 L 550 830 L 550 820 L 540 820 L 540 830 z M 550 830 L 550 840 L 560 840 L 560 830 L 550 830 z M 560 830 L 570 830 L 570 820 L 560 820 L 560 830 z M 570 820 L 580 820 L 580 810 L 570 810 L 570 820 z M 580 810 L 590 810 L 590 800 L 580 800 L 580 810 z M 590 810 L 590 820 L 600 820 L 600 810 L 590 810 z M 600 810 L 610 810 L 610 800 L 600 800 L 600 810 z M 610 800 L 620 800 L 620 790 L 610 790 L 610 800 z M 620 790 L 630 790 L 630 780 L 620 780 L 620 790 z M 630 780 L 640 780 L 640 770 L 630 770 L 630 780 z M 640 770 L 650 770 L 650 760 L 640 760 L 640 770 z M 650 760 L 660 760 L 660 750 L 650 750 L 650 760 z M 660 760 L 660 770 L 670 770 L 670 760 L 660 760 z M 670 760 L 680 760 L 680 750 L 670 750 L 670 760 z M 680 750 L 690 750 L 690 740 L 680 740 L 680 750 z M 690 740 L 700 740 L 700 730 L 690 730 L 690 740 z M 700 730 L 710 730 L 710 720 L 700 720 L 700 730 z M 710 720 L 720 720 L 720 710 L 710 710 L 710 720 z M 720 710 L 730 710 L 730 700 L 720 700 L 720 710 z M 730 700 L 740 700 L 740 690 L 730 690 L 730 700 z M 740 690 L 750 690 L 750 680 L 740 680 L 740 690 z M 750 680 L 760 680 L 760 670 L 750 670 L 750 680 z M 760 670 L 770 670 L 770 660 L 760 660 L 760 670 z M 770 660 L 780 660 L 780 650 L 770 650 L 770 660 z M 770 650 L 770 640 L 760 640 L 760 650 L 770 650 z M 770 640 L 780 640 L 780 630 L 770 630 L 770 640 z M 780 630 L 790 630 L 790 620 L 780 620 L 780 630 z M 790 620 L 800 620 L 800 610 L 790 610 L 790 620 z M 800 610 L 810 610 L 810 600 L 800 600 L 800 610 z M 810 600 L 820 600 L 820 590 L 810 590 L 810 600 z M 810 590 L 810 580 L 800 580 L 800 590 L 810 590 z M 810 580 L 820 580 L 820 570 L 810 570 L 810 580 z M 820 570 L 830 570 L 830 560 L 820 560 L 820 570 z M 830 560 L 840 560 L 840 550 L 830 550 L 830 560 z M 830 550 L 830 540 L 820 540 L 820 550 L 830 550 z M 830 540 L 840 540 L 840 530 L 830 530 L 830 540 z M 840 530 L 850 530 L 850 520 L 840 520 L 840 530 z M 840 520 L 840 510 L 830 510 L 830 520 L 840 520 z M 840 510 L 850 510 L 850 500 L 840 500 L 840 510 z M 850 500 L 860 500 L 860 490 L 850 490 L 850 500 z M 850 490 L 850 480 L 840 480 L 840 490 L 850 490 z M 850 480 L 860 480 L 860 470 L 850 470 L 850 480 z M 860 470 L 870 470 L 870 460 L 860 460 L 860 470 z M 860 460 L 860 450 L 850 450 L 850 460 L 860 460 z M 860 450 L 870 450 L 870 440 L 860 440 L 860 450 z M 860 440 L 860 430 L 850 430 L 850 440 L 860 440 z M 870 450 L 870 460 L 880 460 L 880 450 L 870 450 z M 880 460 L 880 470 L 890 470 L 890 460 L 880 460 z M 880 470 L 870 470 L 870 480 L 880 480 L 880 470 z M 880 480 L 880 490 L 890 490 L 890 480 L 880 480 z M 890 490 L 890 500 L 900 500 L 900 490 L 890 490 z M 890 500 L 880 500 L 880 510 L 890 510 L 890 500 z M 890 510 L 890 520 L 900 520 L 900 510 L 890 510 z M 900 520 L 900 530 L 910 530 L 910 520 L 900 520 z M 900 530 L 890 530 L 890 540 L 900 540 L 900 530 z M 900 540 L 900 550 L 910 550 L 910 540 L 900 540 z M 910 550 L 910 560 L 920 560 L 920 550 L 910 550 z M 910 560 L 900 560 L 900 570 L 910 570 L 910 560 z M 910 570 L 910 580 L 920 580 L 920 570 L 910 570 z M 910 580 L 900 580 L 900 590 L 910 590 L 910 580 z M 910 590 L 910 600 L 920 600 L 920 590 L 910 590 z M 910 600 L 900 600 L 900 610 L 910 610 L 910 600 z M 910 610 L 910 620 L 920 620 L 920 610 L 910 610 z M 910 620 L 900 620 L 900 630 L 910 630 L 910 620 z M 910 630 L 910 640 L 920 640 L 920 630 L 910 630 z M 910 640 L 900 640 L 900 650 L 910 650 L 910 640 z M 910 650 L 910 660 L 920 660 L 920 650 L 910 650 z M 910 660 L 900 660 L 900 670 L 910 670 L 910 660 z M 910 670 L 910 680 L 920 680 L 920 670 L 910 670 z M 910 680 L 900 680 L 900 690 L 910 690 L 910 680 z M 910 690 L 910 700 L 920 700 L 920 690 L 910 690 z M 910 700 L 900 700 L 900 710 L 910 710 L 910 700 z M 900 710 L 890 710 L 890 720 L 900 720 L 900 710 z M 900 720 L 900 730 L 910 730 L 910 720 L 900 720 z M 900 730 L 890 730 L 890 740 L 900 740 L 900 730 z M 890 740 L 880 740 L 880 750 L 890 750 L 890 740 z M 890 750 L 890 760 L 900 760 L 900 750 L 890 750 z M 890 760 L 880 760 L 880 770 L 890 770 L 890 760 z M 880 770 L 870 770 L 870 780 L 880 780 L 880 770 z M 880 780 L 880 790 L 890 790 L 890 780 L 880 780 z M 880 790 L 870 790 L 870 800 L 880 800 L 880 790 z M 870 800 L 860 800 L 860 810 L 870 810 L 870 800 z M 860 810 L 850 810 L 850 820 L 860 820 L 860 810 z M 850 820 L 840 820 L 840 830 L 850 830 L 850 820 z M 850 830 L 850 840 L 860 840 L 860 830 L 850 830 z M 850 840 L 840 840 L 840 850 L 850 850 L 850 840 z M 840 850 L 830 850 L 830 860 L 840 860 L 840 850 z M 830 850 L 830 840 L 820 840 L 820 850 L 830 850 z M 820 850 L 810 850 L 810 860 L 820 860 L 820 850 z M 810 860 L 800 860 L 800 870 L 810 870 L 810 860 z M 800 870 L 790 870 L 790 880 L 800 880 L 800 870 z M 790 880 L 780 880 L 780 890 L 790 890 L 790 880 z M 780 880 L 780 870 L 770 870 L 770 880 L 780 880 z M 770 880 L 760 880 L 760 890 L 770 890 L 770 880 z M 760 890 L 750 890 L 750 900 L 760 900 L 760 890 z M 750 890 L 750 880 L 740 880 L 740 890 L 750 890 z M 740 890 L 730 890 L 730 900 L 740 900 L 740 890 z M 730 900 L 720 900 L 720 910 L 730 910 L 730 900 z M 720 900 L 720 890 L 710 890 L 710 900 L 720 900 z M 710 900 L 700 900 L 700 910 L 710 910 L 710 900 z M 700 910 L 690 910 L 690 920 L 700 920 L 700 910 z M 690 910 L 690 900 L 680 900 L 680 910 L 690 910 z M 680 910 L 670 910 L 670 920 L 680 920 L 680 910 z M 670 910 L 670 900 L 660 900 L 660 910 L 670 910 z M 660 910 L 650 910 L 650 920 L 660 920 L 660 910 z M 650 910 L 650 900 L 640 900 L 640 910 L 650 910 z M 640 910 L 630 910 L 630 920 L 640 920 L 640 910 z M 630 910 L 630 900 L 620 900 L 620 910 L 630 910 z M 620 910 L 610 910 L 610 920 L 620 920 L 620 910 z M 610 910 L 610 900 L 600 900 L 600 910 L 610 910 z M 600 910 L 590 910 L 590 920 L 600 920 L 600 910 z M 590 910 L 590 900 L 580 900 L 580 910 L 590 910 z M 580 910 L 570 910 L 570 920 L 580 920 L 580 910 z M 570 910 L 570 900 L 560 900 L 560 910 L 570 910 z M 560 910 L 550 910 L 550 920 L 560 920 L 560 910 z M 550 910 L 550 900 L 540 900 L 540 910 L 550 910 z M 540 900 L 540 890 L 530 890 L 530 900 L 540 900 z M 530 900 L 520 900 L 520 910 L 530 910 L 530 900 z M 520 900 L 520 890 L 510 890 L 510 900 L 520 900 z M 510 890 L 510 880 L 500 880 L 500 890 L 510 890 z M 500 890 L 490 890 L 490 900 L 500 900 L 500 890 z M 490 890 L 490 880 L 480 880 L 480 890 L 490 890 z M 480 880 L 480 870 L 470 870 L 470 880 L 480 880 z M 470 880 L 460 880 L 460 890 L 470 890 L 470 880 z M 460 880 L 460 870 L 450 870 L 450 880 L 460 880 z M 480 870 L 490 870 L 490 860 L 480 860 L 480 870 z M 490 870 L 490 880 L 500 880 L 500 870 L 490 870 z M 500 870 L 510 870 L 510 860 L 500 860 L 500 870 z M 510 860 L 520 860 L 520 850 L 510 850 L 510 860 z M 520 860 L 520 870 L 530 870 L 530 860 L 520 860 z M 530 860 L 540 860 L 540 850 L 530 850 L 530 860 z M 540 850 L 550 850 L 550 840 L 540 840 L 540 850 z M 550 850 L 550 860 L 560 860 L 560 850 L 550 850 z M 560 850 L 570 850 L 570 840 L 560 840 L 560 850 z M 570 840 L 580 840 L 580 830 L 570 830 L 570 840 z M 580 830 L 590 830 L 590 820 L 580 820 L 580 830 z M 590 830 L 590 840 L 600 840 L 600 830 L 590 830 z M 600 830 L 610 830 L 610 820 L 600 820 L 600 830 z M 610 820 L 620 820 L 620 810 L 610 810 L 610 820 z M 620 810 L 630 810 L 630 800 L 620 800 L 620 810 z M 630 800 L 640 800 L 640 790 L 630 790 L 630 800 z M 640 790 L 650 790 L 650 780 L 640 780 L 640 790 z M 650 780 L 660 780 L 660 770 L 650 770 L 650 780 z M 660 780 L 660 790 L 670 790 L 670 780 L 660 780 z M 670 780 L 680 780 L 680 770 L 670 770 L 670 780 z M 680 770 L 690 770 L 690 760 L 680 760 L 680 770 z M 690 760 L 700 760 L 700 750 L 690 750 L 690 760 z M 700 750 L 710 750 L 710 740 L 700 740 L 700 750 z M 710 740 L 720 740 L 720 730 L 710 730 L 710 740 z M 720 730 L 730 730 L 730 720 L 720 720 L 720 730 z M 730 720 L 740 720 L 740 710 L 730 710 L 730 720 z M 740 710 L 750 710 L 750 700 L 740 700 L 740 710 z M 750 700 L 760 700 L 760 690 L 750 690 L 750 700 z M 760 690 L 770 690 L 770 680 L 760 680 L 760 690 z M 770 680 L 780 680 L 780 670 L 770 670 L 770 680 z M 780 670 L 790 670 L 790 660 L 780 660 L 780 670 z M 790 660 L 800 660 L 800 650 L 790 650 L 790 660 z M 790 650 L 790 640 L 780 640 L 780 650 L 790 650 z M 790 640 L 800 640 L 800 630 L 790 630 L 790 640 z M 800 630 L 810 630 L 810 620 L 800 620 L 800 630 z M 810 620 L 820 620 L 820 610 L 810 610 L 810 620 z M 820 610 L 830 610 L 830 600 L 820 600 L 820 610 z M 830 600 L 840 600 L 840 590 L 830 590 L 830 600 z M 830 590 L 830 580 L 820 580 L 820 590 L 830 590 z M 830 580 L 840 580 L 840 570 L 830 570 L 830 580 z M 840 570 L 850 570 L 850 560 L 840 560 L 840 570 z M 850 560 L 860 560 L 860 550 L 850 550 L 850 560 z M 850 550 L 850 540 L 840 540 L 840 550 L 850 550 z M 850 540 L 860 540 L 860 530 L 850 530 L 850 540 z M 860 530 L 870 530 L 870 520 L 860 520 L 860 530 z M 860 520 L 860 510 L 850 510 L 850 520 L 860 520 z M 860 510 L 870 510 L 870 500 L 860 500 L 860 510 z M 870 500 L 880 500 L 880 490 L 870 490 L 870 500 z M 870 490 L 870 480 L 860 480 L 860 490 L 870 490 z M 870 510 L 870 520 L 880 520 L 880 510 L 870 510 z M 880 520 L 880 530 L 890 530 L 890 520 L 880 520 z M 880 530 L 870 530 L 870 540 L 880 540 L 880 530 z M 880 540 L 880 550 L 890 550 L 890 540 L 880 540 z M 890 550 L 890 560 L 900 560 L 900 550 L 890 550 z M 890 560 L 880 560 L 880 570 L 890 570 L 890 560 z M 890 570 L 890 580 L 900 580 L 900 570 L 890 570 z M 890 580 L 880 580 L 880 590 L 890 590 L 890 580 z M 890 590 L 890 600 L 900 600 L 900 590 L 890 590 z M 890 600 L 880 600 L 880 610 L 890 610 L 890 600 z M 890 610 L 890 620 L 900 620 L 900 610 L 890 610 z M 890 620 L 880 620 L 880 630 L 890 630 L 890 620 z M 890 630 L 890 640 L 900 640 L 900 630 L 890 630 z M 890 640 L 880 640 L 880 650 L 890 650 L 890 640 z M 890 650 L 890 660 L 900 660 L 900 650 L 890 650 z M 890 660 L 880 660 L 880 670 L 890 670 L 890 660 z M 890 670 L 890 680 L 900 680 L 900 670 L 890 670 z M 890 680 L 880 680 L 880 690 L 890 690 L 890 680 z M 890 690 L 890 700 L 900 700 L 900 690 L 890 690 z M 890 700 L 880 700 L 880 710 L 890 710 L 890 700 z M 880 710 L 870 710 L 870 720 L 880 720 L 880 710 z M 880 720 L 880 730 L 890 730 L 890 720 L 880 720 z M 880 730 L 870 730 L 870 740 L 880 740 L 880 730 z M 870 740 L 860 740 L 860 750 L 870 750 L 870 740 z M 870 750 L 870 760 L 880 760 L 880 750 L 870 750 z M 870 760 L 860 760 L 860 770 L 870 770 L 870 760 z M 860 770 L 850 770 L 850 780 L 860 780 L 860 770 z M 860 780 L 860 790 L 870 790 L 870 780 L 860 780 z M 860 790 L 850 790 L 850 800 L 860 800 L 860 790 z M 850 800 L 840 800 L 840 810 L 850 810 L 850 800 z M 840 810 L 830 810 L 830 820 L 840 820 L 840 810 z M 830 820 L 820 820 L 820 830 L 830 830 L 830 820 z M 830 830 L 830 840 L 840 840 L 840 830 L 830 830 z M 820 830 L 810 830 L 810 840 L 820 840 L 820 830 z M 810 840 L 800 840 L 800 850 L 810 850 L 810 840 z M 800 850 L 790 850 L 790 860 L 800 860 L 800 850 z M 790 860 L 780 860 L 780 870 L 790 870 L 790 860 z M 780 860 L 780 850 L 770 850 L 770 860 L 780 860 z M 770 860 L 760 860 L 760 870 L 770 870 L 770 860 z M 760 870 L 750 870 L 750 880 L 760 880 L 760 870 z M 750 870 L 750 860 L 740 860 L 740 870 L 750 870 z M 740 870 L 730 870 L 730 880 L 740 880 L 740 870 z M 730 880 L 720 880 L 720 890 L 730 890 L 730 880 z M 720 880 L 720 870 L 710 870 L 710 880 L 720 880 z M 710 880 L 700 880 L 700 890 L 710 890 L 710 880 z M 700 890 L 690 890 L 690 900 L 700 900 L 700 890 z M 690 890 L 690 880 L 680 880 L 680 890 L 690 890 z M 680 890 L 670 890 L 670 900 L 680 900 L 680 890 z M 670 890 L 670 880 L 660 880 L 660 890 L 670 890 z M 660 890 L 650 890 L 650 900 L 660 900 L 660 890 z M 650 890 L 650 880 L 640 880 L 640 890 L 650 890 z M 640 890 L 630 890 L 630 900 L 640 900 L 640 890 z M 630 890 L 630 880 L 620 880 L 620 890 L 630 890 z M 620 890 L 610 890 L 610 900 L 620 900 L 620 890 z M 610 890 L 610 880 L 600 880 L 600 890 L 610 890 z M 600 890 L 590 890 L 590 900 L 600 900 L 600 890 z M 590 890 L 590 880 L 580 880 L 580 890 L 590 890 z M 580 890 L 570 890 L 570 900 L 580 900 L 580 890 z M 570 890 L 570 880 L 560 880 L 560 890 L 570 890 z M 560 890 L 550 890 L 550 900 L 560 900 L 560 890 z M 550 890 L 550 880 L 540 880 L 540 890 L 550 890 z M 540 880 L 540 870 L 530 870 L 530 880 L 540 880 z M 530 880 L 520 880 L 520 890 L 530 890 L 530 880 z M 520 880 L 520 870 L 510 870 L 510 880 L 520 880 z M 540 870 L 550 870 L 550 860 L 540 860 L 540 870 z M 550 870 L 550 880 L 560 880 L 560 870 L 550 870 z M 560 870 L 570 870 L 570 860 L 560 860 L 560 870 z M 570 860 L 580 860 L 580 850 L 570 850 L 570 860 z M 580 850 L 590 850 L 590 840 L 580 840 L 580 850 z M 590 850 L 590 860 L 600 860 L 600 850 L 590 850 z M 600 850 L 610 850 L 610 840 L 600 840 L 600 850 z M 610 840 L 620 840 L 620 830 L 610 830 L 610 840 z M 620 830 L 630 830 L 630 820 L 620 820 L 620 830 z M 630 820 L 640 820 L 640 810 L 630 810 L 630 820 z M 640 810 L 650 810 L 650 800 L 640 800 L 640 810 z M 650 800 L 660 800 L 660 790 L 650 790 L 650 800 z M 660 800 L 660 810 L 670 810 L 670 800 L 660 800 z M 670 800 L 680 800 L 680 790 L 670 790 L 670 800 z M 680 790 L 690 790 L 690 780 L 680 780 L 680 790 z M 690 780 L 700 780 L 700 770 L 690 770 L 690 780 z M 700 770 L 710 770 L 710 760 L 700 760 L 700 770 z M 710 760 L 720 760 L 720 750 L 710 750 L 710 760 z M 720 750 L 730 750 L 730 740 L 720 740 L 720 750 z M 730 740 L 740 740 L 740 730 L 730 730 L 730 740 z M 740 730 L 750 730 L 750 720 L 740 720 L 740 730 z M 750 720 L 760 720 L 760 710 L 750 710 L 750 720 z M 760 710 L 770 710 L 770 700 L 760 700 L 760 710 z M 770 700 L 780 700 L 780 690 L 770 690 L 770 700 z M 780 690 L 790 690 L 790 680 L 780 680 L 780 690 z M 790 680 L 800 680 L 800 670 L 790 670 L 790 680 z M 800 670 L 810 670 L 810 660 L 800 660 L 800 670 z M 810 660 L 820 660 L 820 650 L 810 650 L 810 660 z M 810 650 L 810 640 L 800 640 L 800 650 L 810 650 z M 810 640 L 820 640 L 820 630 L 810 630 L 810 640 z M 820 630 L 830 630 L 830 620 L 820 620 L 820 630 z M 830 620 L 840 620 L 840 610 L 830 610 L 830 620 z M 840 610 L 850 610 L 850 600 L 840 600 L 840 610 z M 850 600 L 860 600 L 860 590 L 850 590 L 850 600 z M 850 590 L 850 580 L 840 580 L 840 590 L 850 590 z M 850 580 L 860 580 L 860 570 L 850 570 L 850 580 z M 860 570 L 870 570 L 870 560 L 860 560 L 860 570 z M 870 560 L 880 560 L 880 550 L 870 550 L 870 560 z M 870 550 L 870 540 L 860 540 L 860 550 L 870 550 z M 870 570 L 870 580 L 880 580 L 880 570 L 870 570 z M 870 580 L 860 580 L 860 590 L 870 590 L 870 580 z M 870 590 L 870 600 L 880 600 L 880 590 L 870 590 z M 870 600 L 860 600 L 860 610 L 870 610 L 870 600 z M 870 610 L 870 620 L 880 620 L 880 610 L 870 610 z M 870 620 L 860 620 L 860 630 L 870 630 L 870 620 z M 870 630 L 870 640 L 880 640 L 880 630 L 870 630 z M 870 640 L 860 640 L 860 650 L 870 650 L 870 640 z M 870 650 L 870 660 L 880 660 L 880 650 L 870 650 z M 870 660 L 860 660 L 860 670 L 870 670 L 870 660 z M 870 670 L 870 680 L 880 680 L 880 670 L 870 670 z M 870 680 L 860 680 L 860 690 L 870 690 L 870 680 z M 870 690 L 870 700 L 880 700 L 880 690 L 870 690 z M 870 700 L 860 700 L 860 710 L 870 710 L 870 700 z M 860 710 L 850 710 L 850 720 L 860 720 L 860 710 z M 860 720 L 860 730 L 870 730 L 870 720 L 860 720 z M 860 730 L 850 730 L 850 740 L 860 740 L 860 730 z M 850 740 L 840 740 L 840 750 L 850 750 L 850 740 z M 850 750 L 850 760 L 860 760 L 860 750 L 850 750 z M 850 760 L 840 760 L 840 770 L 850 770 L 850 760 z M 840 770 L 830 770 L 830 780 L 840 780 L 840 770 z M 840 780 L 840 790 L 850 790 L 850 780 L 840 780 z M 840 790 L 830 790 L 830 800 L 840 800 L 840 790 z M 830 800 L 820 800 L 820 810 L 830 810 L 830 800 z M 820 810 L 810 810 L 810 820 L 820 820 L 820 810 z M 810 820 L 800 820 L 800 830 L 810 830 L 810 820 z M 800 830 L 790 830 L 790 840 L 800 840 L 800 830 z M 790 840 L 780 840 L 780 850 L 790 850 L 790 840 z M 780 840 L 780 830 L 770 830 L 770 840 L 780 840 z M 770 840 L 760 840 L 760 850 L 770 850 L 770 840 z M 760 850 L 750 850 L 750 860 L 760 860 L 760 850 z M 750 850 L 750 840 L 740 840 L 740 850 L 750 850 z M 740 850 L 730 850 L 730 860 L 740 860 L 740 850 z M 730 860 L 720 860 L 720 870 L 730 870 L 730 860 z M 720 860 L 720 850 L 710 850 L 710 860 L 720 860 z M 710 860 L 700 860 L 700 870 L 710 870 L 710 860 z M 700 870 L 690 870 L 690 880 L 700 880 L 700 870 z M 690 870 L 690 860 L 680 860 L 680 870 L 690 870 z M 680 870 L 670 870 L 670 880 L 680 880 L 680 870 z M 670 870 L 670 860 L 660 860 L 660 870 L 670 870 z M 660 870 L 650 870 L 650 880 L 660 880 L 660 870 z M 650 870 L 650 860 L 640 860 L 640 870 L 650 870 z M 640 870 L 630 870 L 630 880 L 640 880 L 640 870 z M 630 870 L 630 860 L 620 860 L 620 870 L 630 870 z M 620 870 L 610 870 L 610 880 L 620 880 L 620 870 z M 610 870 L 610 860 L 600 860 L 600 870 L 610 870 z M 600 870 L 590 870 L 590 880 L 600 880 L 600 870 z M 590 870 L 590 860 L 580 860 L 580 870 L 590 870 z M 580 870 L 570 870 L 570 880 L 580 880 L 580 870 z M 610 860 L 620 860 L 620 850 L 610 850 L 610 860 z M 620 850 L 630 850 L 630 840 L 620 840 L 620 850 z M 630 840 L 640 840 L 640 830 L 630 830 L 630 840 z M 640 830 L 650 830 L 650 820 L 640 820 L 640 830 z M 650 820 L 660 820 L 660 810 L 650 810 L 650 820 z M 660 820 L 660 830 L 670 830 L 670 820 L 660 820 z M 670 820 L 680 820 L 680 810 L 670 810 L 670 820 z M 680 810 L 690 810 L 690 800 L 680 800 L 680 810 z M 690 800 L 700 800 L 700 790 L 690 790 L 690 800 z M 700 790 L 710 790 L 710 780 L 700 780 L 700 790 z M 710 780 L 720 780 L 720 770 L 710 770 L 710 780 z M 720 770 L 730 770 L 730 760 L 720 760 L 720 770 z M 730 760 L 740 760 L 740 750 L 730 750 L 730 760 z M 740 750 L 750 750 L 750 740 L 740 740 L 740 750 z M 750 740 L 760 740 L 760 730 L 750 730 L 750 740 z M 760 730 L 770 730 L 770 720 L 760 720 L 760 730 z M 770 720 L 780 720 L 780 710 L 770 710 L 770 720 z M 780 710 L 790 710 L 790 700 L 780 700 L 780 710 z M 790 700 L 800 700 L 800 690 L 790 690 L 790 700 z M 800 690 L 810 690 L 810 680 L 800 680 L 800 690 z M 810 680 L 820 680 L 820 670 L 810 670 L 810 680 z M 820 670 L 830 670 L 830 660 L 820 660 L 820 670 z M 830 660 L 840 660 L 840 650 L 830 650 L 830 660 z M 830 650 L 830 640 L 820 640 L 820 650 L 830 650 z M 830 640 L 840 640 L 840 630 L 830 630 L 830 640 z M 840 630 L 850 630 L 850 620 L 840 620 L 840 630 z M 850 620 L 860 620 L 860 610 L 850 610 L 850 620 z M 850 630 L 850 640 L 860 640 L 860 630 L 850 630 z M 850 640 L 840 640 L 840 650 L 850 650 L 850 640 z M 850 650 L 850 660 L 860 660 L 860 650 L 850 650 z M 850 660 L 840 660 L 840 670 L 850 670 L 850 660 z M 850 670 L 850 680 L 860 680 L 860 670 L 850 670 z M 850 680 L 840 680 L 840 690 L 850 690 L 850 680 z M 850 690 L 850 700 L 860 700 L 860 690 L 850 690 z M 850 700 L 840 700 L 840 710 L 850 710 L 850 700 z M 840 710 L 830 710 L 830 720 L 840 720 L 840 710 z M 840 720 L 840 730 L 850 730 L 850 720 L 840 720 z M 840 730 L 830 730 L 830 740 L 840 740 L 840 730 z M 830 740 L 820 740 L 820 750 L 830 750 L 830 740 z M 830 750 L 830 760 L 840 760 L 840 750 L 830 750 z M 830 760 L 820 760 L 820 770 L 830 770 L 830 760 z M 820 770 L 810 770 L 810 780 L 820 780 L 820 770 z M 820 780 L 820 790 L 830 790 L 830 780 L 820 780 z M 820 790 L 810 790 L 810 800 L 820 800 L 820 790 z M 810 800 L 800 800 L 800 810 L 810 810 L 810 800 z M 800 810 L 790 810 L 790 820 L 800 820 L 800 810 z M 790 820 L 780 820 L 780 830 L 790 830 L 790 820 z M 780 820 L 780 810 L 770 810 L 770 820 L 780 820 z M 770 820 L 760 820 L 760 830 L 770 830 L 770 820 z M 760 830 L 750 830 L 750 840 L 760 840 L 760 830 z M 750 830 L 750 820 L 740 820 L 740 830 L 750 830 z M 740 830 L 730 830 L 730 840 L 740 840 L 740 830 z M 730 840 L 720 840 L 720 850 L 730 850 L 730 840 z M 720 840 L 720 830 L 710 830 L 710 840 L 720 840 z M 710 840 L 700 840 L 700 850 L 710 850 L 710 840 z M 700 850 L 690 850 L 690 860 L 700 860 L 700 850 z M 690 850 L 690 840 L 680 840 L 680 850 L 690 850 z M 680 850 L 670 850 L 670 860 L 680 860 L 680 850 z M 670 850 L 670 840 L 660 840 L 660 850 L 670 850 z M 660 850 L 650 850 L 650 860 L 660 860 L 660 850 z M 650 850 L 650 840 L 640 840 L 640 850 L 650 850 z M 640 850 L 630 850 L 630 860 L 640 860 L 640 850 z M 650 840 L 660 840 L 660 830 L 650 830 L 650 840 z M 670 840 L 680 840 L 680 830 L 670 830 L 670 840 z M 680 830 L 690 830 L 690 820 L 680 820 L 680 830 z M 690 820 L 700 820 L 700 810 L 690 810 L 690 820 z M 700 810 L 710 810 L 710 800 L 700 800 L 700 810 z M 710 800 L 720 800 L 720 790 L 710 790 L 710 800 z M 720 790 L 730 790 L 730 780 L 720 780 L 720 790 z M 730 780 L 740 780 L 740 770 L 730 770 L 730 780 z M 740 770 L 750 770 L 750 760 L 740 760 L 740 770 z M 750 760 L 760 760 L 760 750 L 750 750 L 750 760 z M 760 750 L 770 750 L 770 740 L 760 740 L 760 750 z M 770 740 L 780 740 L 780 730 L 770 730 L 770 740 z M 780 730 L 790 730 L 790 720 L 780 720 L 780 730 z M 790 720 L 800 720 L 800 710 L 790 710 L 790 720 z M 800 710 L 810 710 L 810 700 L 800 700 L 800 710 z M 810 700 L 820 700 L 820 690 L 810 690 L 810 700 z M 820 690 L 830 690 L 830 680 L 820 680 L 820 690 z M 830 680 L 840 680 L 840 670 L 830 670 L 830 680 z M 830 690 L 830 700 L 840 700 L 840 690 L 830 690 z M 830 700 L 820 700 L 820 710 L 830 710 L 830 700 z M 820 710 L 810 710 L 810 720 L 820 720 L 820 710 z M 820 720 L 820 730 L 830 730 L 830 720 L 820 720 z M 820 730 L 810 730 L 810 740 L 820 740 L 820 730 z M 810 740 L 800 740 L 800 750 L 810 750 L 810 740 z M 810 750 L 810 760 L 820 760 L 820 750 L 810 750 z M 810 760 L 800 760 L 800 770 L 810 770 L 810 760 z M 800 770 L 790 770 L 790 780 L 800 780 L 800 770 z M 800 780 L 800 790 L 810 790 L 810 780 L 800 780 z M 800 790 L 790 790 L 790 800 L 800 800 L 800 790 z M 790 800 L 780 800 L 780 810 L 790 810 L 790 800 z M 780 800 L 780 790 L 770 790 L 770 800 L 780 800 z M 770 800 L 760 800 L 760 810 L 770 810 L 770 800 z M 760 810 L 750 810 L 750 820 L 760 820 L 760 810 z M 750 810 L 750 800 L 740 800 L 740 810 L 750 810 z M 740 810 L 730 810 L 730 820 L 740 820 L 740 810 z M 730 820 L 720 820 L 720 830 L 730 830 L 730 820 z M 720 820 L 720 810 L 710 810 L 710 820 L 720 820 z M 710 820 L 700 820 L 700 830 L 710 830 L 710 820 z M 700 830 L 690 830 L 690 840 L 700 840 L 700 830 z M 720 810 L 730 810 L 730 800 L 720 800 L 720 810 z M 730 800 L 740 800 L 740 790 L 730 790 L 730 800 z M 740 790 L 750 790 L 750 780 L 740 780 L 740 790 z M 750 780 L 760 780 L 760 770 L 750 770 L 750 780 z M 760 770 L 770 770 L 770 760 L 760 760 L 760 770 z M 770 760 L 780 760 L 780 750 L 770 750 L 770 760 z M 780 750 L 790 750 L 790 740 L 780 740 L 780 750 z M 790 740 L 800 740 L 800 730 L 790 730 L 790 740 z M 800 730 L 810 730 L 810 720 L 800 720 L 800 730 z M 790 750 L 790 760 L 800 760 L 800 750 L 790 750 z M 790 760 L 780 760 L 780 770 L 790 770 L 790 760 z M 780 770 L 770 770 L 770 780 L 780 780 L 780 770 z M 780 780 L 780 790 L 790 790 L 790 780 L 780 780 z M 770 780 L 760 780 L 760 790 L 770 790 L 770 780 z M 760 790 L 750 790 L 750 800 L 760 800 L 760 790 z M 860 420 L 860 410 L 850 410 L 850 420 L 860 420 z "
       transform="translate(0,52.362183)"
       id="rect25992" />
    <path
       style="display:inline;opacity:1;fill:#000000;fill-opacity:1;stroke:none;stroke-width:128;stroke-linecap:round;stroke-linejoin:miter;stroke-miterlimit:4;stroke-dasharray:none;stroke-dashoffset:0.85000002;stroke-opacity:1"
       d="M 749.32483,427.36221 A 374.32483,374.32483 0 0 1 375,801.68704 374.32483,374.32483 0 0 1 0.6751709,427.36221 374.32483,374.32483 0 0 1 375,53.037384 374.32483,374.32483 0 0 1 749.32483,427.36221 Z"
       id="circle4708" />
  </g>
</svg>
