<?xml version="1.0" encoding="UTF-8" standalone="no"?>
<!-- Created with Inkscape (http://www.inkscape.org/) -->

<svg
   xmlns:dc="http://purl.org/dc/elements/1.1/"
   xmlns:cc="http://creativecommons.org/ns#"
   xmlns:rdf="http://www.w3.org/1999/02/22-rdf-syntax-ns#"
   xmlns:svg="http://www.w3.org/2000/svg"
   xmlns="http://www.w3.org/2000/svg"
   xmlns:sodipodi="http://sodipodi.sourceforge.net/DTD/sodipodi-0.dtd"
   xmlns:inkscape="http://www.inkscape.org/namespaces/inkscape"
   width="1000"
   height="1000"
   id="svg3308"
   version="1.1"
   inkscape:version="0.48.2 r9819"
   sodipodi:docname="New document 2">
  <defs
     id="defs3310" />
  <sodipodi:namedview
     id="base"
     pagecolor="#ffffff"
     bordercolor="#666666"
     borderopacity="1.0"
     inkscape:pageopacity="0.0"
     inkscape:pageshadow="2"
     inkscape:zoom="0.35"
     inkscape:cx="473.57143"
     inkscape:cy="520"
     inkscape:document-units="px"
     inkscape:current-layer="layer1"
     showgrid="false"
     inkscape:window-width="893"
     inkscape:window-height="659"
     inkscape:window-x="60"
     inkscape:window-y="20"
     inkscape:window-maximized="0" />
  <metadata
     id="metadata3313">
    <rdf:RDF>
      <cc:Work
         rdf:about="">
        <dc:format>image/svg+xml</dc:format>
        <dc:type
           rdf:resource="http://purl.org/dc/dcmitype/StillImage" />
        <dc:title></dc:title>
      </cc:Work>
    </rdf:RDF>
  </metadata>
  <g
     inkscape:label="Layer 1"
     inkscape:groupmode="layer"
     id="layer1"
     transform="translate(0,-52.362183)">
    <g
       style="display:inline"
       id="g6730"
       transform="matrix(41.666667,0,0,41.666667,-8519.0011,-26414.482)">
      <rect
         y="635.08258"
         x="204.45602"
         height="24"
         width="24"
         id="rect6664"
         style="fill:none;stroke:none" />
      <path
         style="fill:#000000;fill-opacity:1;stroke:none;display:inline"
         d="m 77.96875,1046.7812 c -1.190922,0.01 -2.138039,0.4516 -2.71875,1.25 -0.66367,0.9126 -0.81791,2.2292 -0.40625,3.75 0.15591,0.5778 0.21784,0.8891 0.21875,1.0626 9.1e-4,0.1734 -0.0401,0.2437 -0.1875,0.4687 -0.0989,0.1512 -0.19842,0.2519 -0.25,0.2813 -0.0516,0.029 -0.04345,0.02 -0.09375,0 -0.79311,-0.3116 -1.9506,-0.3975 -3.15625,-0.3438 -1.20565,0.054 -2.4665,0.2491 -3.40625,0.625 -2.27002,0.9079 -3.57054,1.5231 -4.25,2.1562 -0.33973,0.3166 -0.52939,0.6541 -0.53125,1.0313 -0.002,0.3772 0.16134,0.7546 0.40625,1.1563 0.79809,1.3086 2.86553,1.1305 3.71875,-0.25 0.15875,-0.2569 0.2848,-0.3867 0.53125,-0.5313 0.24645,-0.1446 0.63843,-0.2658 1.28125,-0.4687 0.78148,-0.2469 1.46301,-0.4187 1.90625,-0.4688 0.0633,-0.01 0.0721,0 0.125,0 -0.0336,0.025 -0.05535,0.034 -0.09375,0.062 -0.21392,0.1561 -0.48529,0.3441 -0.78125,0.5313 -1.03687,0.6554 -1.78661,1.2931 -2.25,1.9374 -0.46339,0.6444 -0.63203,1.3181 -0.46875,1.9688 0.0157,0.063 0.005,0.1058 0,0.125 -0.005,0.019 -0.008,0.041 -0.0625,0.094 -0.10833,0.1061 -0.40024,0.2781 -0.875,0.5312 -0.60292,0.3213 -1.11677,0.4825 -1.5,0.5312 -0.38323,0.049 -0.59971,-0.013 -0.71875,-0.1562 -0.24579,-0.2962 -0.59501,-0.4204 -0.9375,-0.3125 -0.34249,0.1079 -0.66297,0.3903 -0.96875,0.8125 -1.15173,1.5899 -1.22771,3.4543 -0.15625,4.7812 0.59974,0.7428 1.69056,0.9701 2.625,0.8438 0.46722,-0.063 0.88016,-0.217 1.21875,-0.4688 0.33859,-0.2517 0.59375,-0.6197 0.59375,-1.0624 0,-0.2123 -0.082,-0.4369 -0.25,-0.5938 -0.16797,-0.1569 -0.40278,-0.2741 -0.71875,-0.4062 l -0.0625,-0.031 c 0.27833,-0.054 0.68821,-0.2258 1.15625,-0.4375 0.46804,-0.2117 0.98955,-0.4734 1.46875,-0.75 0.46658,-0.2693 0.91455,-0.4929 1.25,-0.6562 0.16772,-0.082 0.30891,-0.1497 0.40625,-0.1876 0.0292,-0.011 0.0428,0.01 0.0625,0 0.0488,0.043 0.112,0.1097 0.1875,0.1876 0.151,0.1556 0.34653,0.3715 0.53125,0.5937 0.83765,1.008 1.89433,1.8801 3.25,2.75 0.25986,0.1668 0.49159,0.3486 0.65625,0.5 0.0823,0.076 0.15099,0.1401 0.1875,0.1875 0.01825,0.024 0.02801,0.058 0.03125,0.062 0.01617,0.1537 0.09371,0.2804 0.1875,0.375 0.10627,0.1072 0.25139,0.1932 0.40625,0.25 0.0285,0.011 0.06475,-0.01 0.09375,0 0.33941,0.1016 0.69144,0.1067 1.09375,-0.031 0.43677,-0.1498 0.90864,-0.4325 1.46875,-0.8437 1.06511,-0.7818 1.86149,-1.8656 2.21875,-2.875 0.17863,-0.5047 0.25264,-1.0055 0.1875,-1.4375 -0.0651,-0.432 -0.29672,-0.8222 -0.6875,-1.0312 -0.35881,-0.1922 -0.80094,-0.1127 -1.25,0.1562 -0.44906,0.2689 -0.97101,0.7311 -1.625,1.4375 l -0.84375,0.9063 -0.28125,-0.4376 c -0.24679,-0.3947 -0.68479,-1.1053 -0.96875,-1.5937 l -0.4375,-0.7187 0.40625,-0.3126 c 0.33443,-0.272 0.77086,-0.7624 1.03125,-1.125 l 0.3125,-0.4374 0.53125,0.2812 c 0.46417,0.2418 1.36348,0.4577 2.15625,0.5312 l 0,-0.031 c 0.0246,0.01 0.23905,0.073 0.53125,0.125 0.30853,0.055 0.65018,0.1149 0.96875,0 0.27134,-0.098 0.46403,-0.3097 0.625,-0.5 0.13736,-0.1624 0.22256,-0.272 0.25,-0.3125 0.005,-0.01 0.03125,-0.062 0.03125,-0.062 0.53615,-0.5569 0.82757,-1.1401 0.78125,-1.6875 -0.0481,-0.5679 -0.47145,-1.0383 -1.15625,-1.2813 -0.35721,-0.1267 -0.69037,0.046 -1,0.25 -0.30963,0.2038 -0.60316,0.4847 -0.78125,0.7188 -0.0923,0.1214 -0.18954,0.1379 -0.40625,0.062 -0.21671,-0.075 -0.50385,-0.2828 -0.8125,-0.6875 -0.35733,-0.4688 -0.34602,-1.1573 -0.4375,-2.1562 -0.0312,-0.3386 -0.03985,-0.6883 -0.03125,-0.9376 0.004,-0.1246 -0.0113,-0.211 0,-0.2812 0.0034,-0.021 -0.0063,-0.046 0,-0.062 0.0152,-0.017 0.02752,0 0.03125,0 0.0436,-0.018 0.10923,-0.043 0.1875,-0.062 0.15654,-0.039 0.39053,-0.08 0.59375,-0.094 0.89879,-0.06 1.61332,-0.4116 2.125,-1.0312 0.51168,-0.6196 0.79683,-1.4694 0.875,-2.5625 0.0743,-1.0379 -0.10759,-1.9018 -0.59375,-2.5313 -0.48616,-0.6294 -1.2607,-1.0018 -2.21875,-1.0937 -0.179411,-0.017 -0.361118,-0.032 -0.53125,-0.031 z"
         transform="translate(144.59943,-409.31057)"
         id="path5457"
         inkscape:connector-curvature="0" />
    </g>
  </g>
</svg>
