<?xml version="1.0" encoding="UTF-8" standalone="no"?>
<!-- Created with Inkscape (http://www.inkscape.org/) -->

<svg
   xmlns:dc="http://purl.org/dc/elements/1.1/"
   xmlns:cc="http://creativecommons.org/ns#"
   xmlns:rdf="http://www.w3.org/1999/02/22-rdf-syntax-ns#"
   xmlns:svg="http://www.w3.org/2000/svg"
   xmlns="http://www.w3.org/2000/svg"
   xmlns:sodipodi="http://sodipodi.sourceforge.net/DTD/sodipodi-0.dtd"
   xmlns:inkscape="http://www.inkscape.org/namespaces/inkscape"
   width="1000"
   height="1000"
   id="svg3288"
   version="1.1"
   inkscape:version="0.48.2 r9819"
   sodipodi:docname="interpolation_ease.svg">
  <defs
     id="defs3290" />
  <sodipodi:namedview
     id="base"
     pagecolor="#ffffff"
     bordercolor="#666666"
     borderopacity="1.0"
     inkscape:pageopacity="0.0"
     inkscape:pageshadow="2"
     inkscape:zoom="0.38582248"
     inkscape:cx="118.29454"
     inkscape:cy="397.26909"
     inkscape:document-units="px"
     inkscape:current-layer="g7123"
     showgrid="false"
     showguides="false"
     inkscape:window-width="1402"
     inkscape:window-height="856"
     inkscape:window-x="133"
     inkscape:window-y="120"
     inkscape:window-maximized="0" />
  <metadata
     id="metadata3293">
    <rdf:RDF>
      <cc:Work
         rdf:about="">
        <dc:format>image/svg+xml</dc:format>
        <dc:type
           rdf:resource="http://purl.org/dc/dcmitype/StillImage" />
        <dc:title />
      </cc:Work>
    </rdf:RDF>
  </metadata>
  <g
     inkscape:label="Layer 1"
     inkscape:groupmode="layer"
     id="layer1"
     transform="translate(0,-52.362183)">
    <g
       style="display:inline"
       id="g7123"
       transform="matrix(41.666667,0,0,41.666667,-3546.0943,-30849.806)"
       inkscape:export-filename="/Users/chyu/Desktop/fis_interpolations.png"
       inkscape:export-xdpi="300"
       inkscape:export-ydpi="300">
      <rect
         style="fill:none;stroke:none"
         id="rect7066"
         width="24"
         height="24"
         x="85.106262"
         y="741.65204" />
      <g
         transform="matrix(0.39742774,0,0,0.39742774,-495.21919,399.4234)"
         id="g9695"
         style="fill:#555753;stroke:#2e3436;stroke-width:1.92232525;stroke-opacity:1">
        <g
           style="stroke:#2e3436;stroke-width:3.68406153;stroke-opacity:1"
           transform="matrix(0.52179509,0,0,0.52179509,1397.5424,702.87015)"
           id="g9370">
          <path
             style="fill:#000000;fill-opacity:1;stroke:none"
             d="M 499.84375,60.71875 C 372.56213,60.71875 262.40366,162.12739 184.75,317.1875 107.09634,472.24761 60,683.97313 60,917.53125 a 21.937135,21.937135 0 0 0 21.78125,21.75 l 418.0625,0 c 127.28162,0 237.72134,-101.40864 315.375,-256.46875 C 892.87241,527.75239 940,316.02687 940,82.46875 a 21.937135,21.937135 0 0 0 -22.0625,-21.75 l -418.09375,0 z m 0,43.8125 0.0937,0 0,790.9375 c -0.0311,2e-5 -0.0626,0 -0.0937,0 l -394.90625,0 C 107.89956,676.83767 152.60498,478.93829 223.8125,336.75 297.46479,189.67993 396.22754,104.53125 499.84375,104.53125 z"
             transform="matrix(0.11196935,0,0,0.11196935,121.9692,305.14003)"
             id="path6564"
             inkscape:connector-curvature="0" />
        </g>
        <g
           id="g9374"
           transform="matrix(0.52179509,0,0,0.52179509,1397.5424,702.87015)"
           style="stroke:#2e3436;stroke-width:3.68406153;stroke-opacity:1" />
      </g>
      <rect
         y="742.85205"
         x="86.306259"
         height="21.6"
         width="21.6"
         id="rect3076"
         style="fill:none;stroke:none" />
      <rect
         style="fill:none;stroke:none"
         id="rect3078"
         width="19.200001"
         height="19.200001"
         x="87.506264"
         y="744.052" />
    </g>
  </g>
</svg>
