<?xml version="1.0" encoding="UTF-8" standalone="no"?>
<!-- Created with Inkscape (http://www.inkscape.org/) -->

<svg
   xmlns:dc="http://purl.org/dc/elements/1.1/"
   xmlns:cc="http://creativecommons.org/ns#"
   xmlns:rdf="http://www.w3.org/1999/02/22-rdf-syntax-ns#"
   xmlns:svg="http://www.w3.org/2000/svg"
   xmlns="http://www.w3.org/2000/svg"
   xmlns:sodipodi="http://sodipodi.sourceforge.net/DTD/sodipodi-0.dtd"
   xmlns:inkscape="http://www.inkscape.org/namespaces/inkscape"
   width="1000"
   height="1000"
   id="svg3288"
   version="1.1"
   inkscape:version="0.48.2 r9819"
   sodipodi:docname="interpolation_static.svg">
  <defs
     id="defs3290" />
  <sodipodi:namedview
     id="base"
     pagecolor="#ffffff"
     bordercolor="#666666"
     borderopacity="1.0"
     inkscape:pageopacity="0.0"
     inkscape:pageshadow="2"
     inkscape:zoom="0.29516132"
     inkscape:cx="-115.44059"
     inkscape:cy="519.17188"
     inkscape:document-units="px"
     inkscape:current-layer="g7150"
     showgrid="false"
     showguides="false"
     inkscape:window-width="1218"
     inkscape:window-height="755"
     inkscape:window-x="58"
     inkscape:window-y="20"
     inkscape:window-maximized="0" />
  <metadata
     id="metadata3293">
    <rdf:RDF>
      <cc:Work
         rdf:about="">
        <dc:format>image/svg+xml</dc:format>
        <dc:type
           rdf:resource="http://purl.org/dc/dcmitype/StillImage" />
        <dc:title />
      </cc:Work>
    </rdf:RDF>
  </metadata>
  <g
     inkscape:label="Layer 1"
     inkscape:groupmode="layer"
     id="layer1"
     transform="translate(0,-52.362183)">
    <g
       style="display:inline"
       id="g7150"
       transform="matrix(41.666667,0,0,41.666667,-7403.5384,-30828.831)"
       inkscape:export-filename="/Users/chyu/Desktop/fis_interpolations.png"
       inkscape:export-xdpi="300"
       inkscape:export-ydpi="300">
      <rect
         style="fill:none;stroke:none"
         id="rect7074"
         width="21.6"
         height="21.6"
         x="178.88492"
         y="742.34863" />
      <path
         inkscape:connector-curvature="0"
         style="fill:#000000;fill-opacity:1;stroke:none;display:inline"
         d="m 188.14906,741.15232 c -0.36361,0.0142 -0.75351,0.075 -1.13305,0.18374 -1.25407,0.3598 -2.00211,1.32502 -2.11299,2.44984 -0.11088,1.12482 0.38772,2.38078 1.4699,3.42978 0.24732,0.23985 0.44056,0.51223 0.58184,0.70433 0.0707,0.096 0.12756,0.16188 0.15311,0.21436 -0.0325,0.0187 -0.0688,0.009 -0.12249,0.0306 -0.14165,0.0572 -0.34576,0.12038 -0.55121,0.15311 -1.80264,0.27967 -3.76288,1.64286 -4.89969,3.36854 -0.59859,0.90897 -0.98487,2.411 -1.16368,4.31785 -0.0638,0.6836 -0.11719,1.04049 -0.0612,1.34741 0.0559,0.30692 0.2559,0.50079 0.48997,0.73495 0.59469,0.59312 1.48601,0.71984 2.32735,0.33686 0.99111,-0.45119 1.27119,-1.84371 0.70433,-2.93981 -0.12936,-0.24997 -0.14752,-0.61142 -0.0613,-1.01056 0.0862,-0.39915 0.27467,-0.82769 0.55122,-1.13306 0.15164,-0.16743 0.54005,-0.4309 0.88807,-0.61246 0.16401,-0.0856 0.31311,-0.14481 0.42872,-0.18374 -0.002,0.0233 0.003,0.035 0,0.0612 -0.0197,0.18364 -0.072,0.43748 -0.12249,0.70433 -0.10643,0.56388 -0.18374,1.35131 -0.18374,1.80676 4.5e-4,0.43853 -0.21357,1.10928 -0.64309,1.95987 -0.45492,0.90094 -0.72598,1.66458 -0.7962,2.35798 -0.0703,0.69339 0.0816,1.31416 0.3981,1.92925 l 0.30623,0.58184 -0.36747,0.0612 c -1.8437,0.27664 -2.63963,0.519 -3.1848,1.04119 -0.22875,0.21924 -0.39628,0.40055 -0.48997,0.61246 -0.0937,0.21191 -0.0861,0.47869 0.0306,0.6737 0.11671,0.19502 0.29992,0.29564 0.55121,0.3981 0.2513,0.10247 0.59161,0.17955 0.97994,0.24499 l 0.45934,0.0918 -0.0306,-0.0918 c 1.18622,0.15357 2.73034,0.21923 4.31785,0.0612 0.48086,-0.0482 0.85919,-0.11037 1.16368,-0.21436 0.30448,-0.10399 0.54823,-0.26532 0.6737,-0.52059 0.12547,-0.25526 0.13603,-0.57378 0.0613,-0.91869 -0.0748,-0.34491 -0.22125,-0.75193 -0.42872,-1.25554 -0.57186,-1.38892 -0.56166,-2.71861 -0.1225,-3.27667 0.0892,-0.11276 0.19622,-0.20114 0.30623,-0.27561 0.11002,-0.0745 0.2185,-0.12249 0.21437,-0.12249 -0.007,0 0.0623,0.0183 0.15311,0.0918 0.0907,0.0736 0.21491,0.1809 0.33685,0.33685 0.2439,0.31193 0.50224,0.77736 0.76558,1.28617 0.52669,1.01762 1.00905,2.27631 1.13305,3.15418 0.0456,0.32266 0.0941,0.64265 0.15312,0.88806 0.0295,0.12271 0.0614,0.21827 0.0918,0.30623 0.0305,0.088 0.0485,0.14528 0.15311,0.24499 0.0657,0.0631 0.098,0.0722 0.15312,0.0918 0.0552,0.0197 0.11524,0.0461 0.18374,0.0612 0.13699,0.0302 0.31854,0.0674 0.52059,0.0918 0.4041,0.0491 0.9281,0.0635 1.50053,0.0918 1.14486,0.057 2.4735,0.0746 3.36853,0 0.8094,-0.0675 1.21399,-0.067 1.50053,-0.18373 0.14328,-0.0583 0.26068,-0.20068 0.30623,-0.33686 0.0456,-0.13617 0.0306,-0.23624 0.0306,-0.36747 0,-0.35908 -0.16336,-0.69153 -0.42873,-0.97994 -0.26536,-0.28842 -0.63271,-0.55635 -1.04118,-0.76558 -0.81693,-0.41845 -1.85143,-0.65301 -2.75607,-0.52059 -0.11823,0.0173 -0.17693,0.0333 -0.21437,0.0306 -0.0374,-0.003 -0.0328,-0.002 -0.0306,0 0.005,0.005 -0.069,-0.17097 -0.12249,-0.5206 -0.20298,-1.32153 -0.65752,-2.80765 -1.34742,-4.31785 l -0.64308,-1.37803 0,-0.0306 0.15312,-1.71489 0.12249,-1.31679 0.52059,0.48997 c 0.6,0.58406 1.00466,1.10874 1.22492,1.56178 0.22026,0.45303 0.26217,0.81958 0.15312,1.13305 -0.14716,0.42267 -0.14624,0.91219 -0.0306,1.37804 0.11557,0.46584 0.34541,0.92767 0.67371,1.22492 0.35337,0.31889 0.81472,0.43776 1.28617,0.3981 0.47145,-0.0397 0.93851,-0.24378 1.25554,-0.61246 l 0.0306,0 c 0.19046,-0.22526 0.30311,-0.42565 0.36747,-0.67371 0.0644,-0.24806 0.0699,-0.52087 0.0306,-0.88807 -0.14419,-1.34898 -1.02982,-3.74685 -1.80676,-4.93031 -1.26045,-1.91938 -2.86075,-2.99263 -5.0528,-3.36853 -0.41096,-0.0701 -0.74798,-0.17296 -0.94932,-0.24499 -0.0469,-0.0169 -0.0591,-0.0156 -0.0918,-0.0306 0.18001,-0.0274 0.33549,-0.0908 0.48997,-0.21436 0.18237,-0.14589 0.38175,-0.35946 0.55121,-0.58184 0.33893,-0.44476 0.64554,-0.97826 0.76558,-1.50053 0.33857,-1.47178 -0.19686,-2.84189 -1.1943,-3.70539 -0.49872,-0.43175 -1.12623,-0.74029 -1.80676,-0.88807 -0.34026,-0.0739 -0.67758,-0.1061 -1.04118,-0.0918 z"
         id="path5036" />
      <rect
         y="743.54865"
         x="180.08492"
         height="19.200001"
         width="19.200001"
         id="rect3123"
         style="fill:none;stroke:none" />
    </g>
  </g>
</svg>
