<?xml version="1.0" encoding="UTF-8" standalone="no"?>
<!-- Created with Inkscape (http://www.inkscape.org/) -->

<svg
   xmlns:dc="http://purl.org/dc/elements/1.1/"
   xmlns:cc="http://creativecommons.org/ns#"
   xmlns:rdf="http://www.w3.org/1999/02/22-rdf-syntax-ns#"
   xmlns:svg="http://www.w3.org/2000/svg"
   xmlns="http://www.w3.org/2000/svg"
   xmlns:sodipodi="http://sodipodi.sourceforge.net/DTD/sodipodi-0.dtd"
   xmlns:inkscape="http://www.inkscape.org/namespaces/inkscape"
   width="1000"
   height="1000"
   id="svg3888"
   version="1.1"
   inkscape:version="0.48.2 r9819"
   sodipodi:docname="layer_noisedistort.svg">
  <defs
     id="defs3890" />
  <sodipodi:namedview
     id="base"
     pagecolor="#ffffff"
     bordercolor="#666666"
     borderopacity="1.0"
     inkscape:pageopacity="0.0"
     inkscape:pageshadow="2"
     inkscape:zoom="0.065785766"
     inkscape:cx="291.93337"
     inkscape:cy="2147.4733"
     inkscape:document-units="px"
     inkscape:current-layer="g3582"
     showgrid="false"
     inkscape:window-width="1402"
     inkscape:window-height="856"
     inkscape:window-x="38"
     inkscape:window-y="0"
     inkscape:window-maximized="1" />
  <metadata
     id="metadata3893">
    <rdf:RDF>
      <cc:Work
         rdf:about="">
        <dc:format>image/svg+xml</dc:format>
        <dc:type
           rdf:resource="http://purl.org/dc/dcmitype/StillImage" />
        <dc:title></dc:title>
      </cc:Work>
    </rdf:RDF>
  </metadata>
  <g
     inkscape:label="Layer 1"
     inkscape:groupmode="layer"
     id="layer1"
     transform="translate(0,-52.362183)">
    <g
       style="display:inline"
       id="g3582"
       transform="matrix(40.887017,0,0,40.887017,2575.176,-58573.169)">
      <g
         transform="matrix(1.0190684,0,0,1.0190684,-62.727962,386.06189)"
         style="display:inline"
         id="g6588">
        <rect
           transform="scale(-1,1)"
           y="1028.1747"
           x="-23.749998"
           height="24"
           width="24"
           id="rect6551"
           style="fill:none;stroke:none" />
        <path
           style="fill:#000000;fill-opacity:1;stroke:none"
           d="m 11.75,1028.5497 c -1.67268,10.1638 -6.6875,9.8636 -6.6875,16.625 0,3.1833 2.9992153,6.625 6.6875,6.625 3.688285,0 6.6875,-3.4417 6.6875,-6.625 0,-6.7614 -5.01482,-6.4612 -6.6875,-16.625 z m -3.7282904,14.8125 c -0.1141518,0.9952 0.1580803,2.1989 0.8125,3.3438 0.6544197,1.1449 1.5533234,1.9995 2.4687504,2.4062 -1.4041532,0.3251 -2.9387473,-0.3229 -3.7187504,-1.6875 -0.780003,-1.3647 -0.5552215,-3.0176 0.4375,-4.0625 z"
           id="path9017"
           inkscape:connector-curvature="0"
           sodipodi:nodetypes="csssccsccc" />
      </g>
    </g>
  </g>
</svg>
