<?xml version="1.0" encoding="UTF-8" standalone="no"?>
<!-- Created with Inkscape (http://www.inkscape.org/) -->

<svg
   xmlns:dc="http://purl.org/dc/elements/1.1/"
   xmlns:cc="http://creativecommons.org/ns#"
   xmlns:rdf="http://www.w3.org/1999/02/22-rdf-syntax-ns#"
   xmlns:svg="http://www.w3.org/2000/svg"
   xmlns="http://www.w3.org/2000/svg"
   xmlns:sodipodi="http://sodipodi.sourceforge.net/DTD/sodipodi-0.dtd"
   xmlns:inkscape="http://www.inkscape.org/namespaces/inkscape"
   width="1000"
   height="1000"
   id="svg3888"
   version="1.1"
   inkscape:version="0.48.2 r9819"
   sodipodi:docname="layer_conincalgradient.svg">
  <defs
     id="defs3890" />
  <sodipodi:namedview
     id="base"
     pagecolor="#ffffff"
     bordercolor="#666666"
     borderopacity="1.0"
     inkscape:pageopacity="0.0"
     inkscape:pageshadow="2"
     inkscape:zoom="0.065785766"
     inkscape:cx="291.93337"
     inkscape:cy="1205.8015"
     inkscape:document-units="px"
     inkscape:current-layer="g3582"
     showgrid="false"
     inkscape:window-width="1402"
     inkscape:window-height="856"
     inkscape:window-x="38"
     inkscape:window-y="0"
     inkscape:window-maximized="1" />
  <metadata
     id="metadata3893">
    <rdf:RDF>
      <cc:Work
         rdf:about="">
        <dc:format>image/svg+xml</dc:format>
        <dc:type
           rdf:resource="http://purl.org/dc/dcmitype/StillImage" />
        <dc:title></dc:title>
      </cc:Work>
    </rdf:RDF>
  </metadata>
  <g
     inkscape:label="Layer 1"
     inkscape:groupmode="layer"
     id="layer1"
     transform="translate(0,-52.362183)">
    <g
       style="display:inline"
       id="g3582"
       transform="matrix(40.887017,0,0,40.887017,2575.176,-58573.169)">
      <g
         transform="matrix(1.0190684,0,0,1.0190684,-182.30004,265.87738)"
         style="display:inline"
         id="g6724">
        <rect
           style="fill:none;stroke:none"
           id="rect4866"
           width="24"
           height="24"
           x="117.08469"
           y="1146.1104" />
        <path
           style="fill:#000000;fill-rule:evenodd;stroke:none"
           d="m 130.21078,1150.0614 c -0.0753,0.332 -0.0623,0.6639 -0.0933,0.9958 l 0.0622,5.1038 c 0.307,0.4025 0.52905,0.8613 0.52905,1.4004 0,1.2987 -1.06639,2.3962 -2.36514,2.3962 -1.29876,0 -2.39627,-1.0889 -2.39627,-2.3962 0,-0.5485 0.25022,-1.001 0.56017,-1.4004 l -0.0311,-2.7697 -5.0415,4.419 10.79876,12.2615 8.77593,-7.749 z"
           id="path4870"
           inkscape:connector-curvature="0"
           sodipodi:nodetypes="cccssscccccc" />
        <path
           style="font-size:medium;font-style:normal;font-variant:normal;font-weight:normal;font-stretch:normal;text-indent:0;text-align:start;text-decoration:none;line-height:normal;letter-spacing:normal;word-spacing:normal;text-transform:none;direction:ltr;block-progression:tb;writing-mode:lr-tb;text-anchor:start;baseline-shift:baseline;color:#000000;fill:#000000;fill-opacity:1;stroke:none;stroke-width:2;marker:none;visibility:visible;display:inline;overflow:visible;enable-background:accumulate;font-family:Sans;-inkscape-font-specification:Sans"
           d="m 131.08214,1146.1714 c -0.91217,0.035 -1.81429,0.3473 -2.48962,1.0892 -0.77182,0.8478 -1.16758,2.1377 -1.15145,3.7967 l 0.0622,5.3838 c -0.33337,0.2532 -0.56017,0.6694 -0.56017,1.1203 0,0.7658 0.60353,1.3693 1.3693,1.3693 0.76576,0 1.40041,-0.6035 1.40041,-1.3693 0,-0.4501 -0.22782,-0.867 -0.56017,-1.1203 l -0.0622,-5.3838 c -0.0127,-1.316 0.287,-2.0248 0.65353,-2.4274 0.36654,-0.4027 0.91192,-0.5951 1.64938,-0.5602 0.73756,0.035 1.32473,0.3008 1.74274,0.778 0.418,0.4773 0.74039,1.2131 0.74688,2.5208 l 0,1.3693 1.6805,1.9294 -0.0311,-3.2987 c -0.008,-1.6674 -0.44011,-3.0068 -1.21369,-3.8901 -0.77359,-0.8832 -1.81803,-1.2576 -2.86307,-1.307 -0.13064,-0.01 -0.24314,0 -0.37345,0 z"
           id="path4872"
           inkscape:connector-curvature="0" />
        <path
           style="fill:#000000;stroke:none"
           d="m 121.54419,1155.1924 c -1.8623,0.3596 -3.5051,2.8178 -3.57996,4.5116 0.0624,2.0264 0.27627,3.8722 0.2548,5.9029 -4.18478,3.7748 5.38597,6.5635 3.42447,-0.026 -0.89555,-1.9034 -0.49181,-4.7502 -0.6853,-7.1311 -0.0106,-0.092 -0.0198,-0.1755 -0.0198,-0.2582 l -0.38735,-0.447 0.47674,-0.4171 2.25454,-1.9864 c -0.5704,-0.097 -1.15525,-0.1541 -1.73808,-0.149 z"
           id="path4874"
           inkscape:connector-curvature="0"
           sodipodi:nodetypes="ccccccccccc" />
      </g>
    </g>
  </g>
</svg>
