<?xml version="1.0" encoding="UTF-8" standalone="no"?>
<!-- Created with Inkscape (http://www.inkscape.org/) -->

<svg
   xmlns:dc="http://purl.org/dc/elements/1.1/"
   xmlns:cc="http://creativecommons.org/ns#"
   xmlns:rdf="http://www.w3.org/1999/02/22-rdf-syntax-ns#"
   xmlns:svg="http://www.w3.org/2000/svg"
   xmlns="http://www.w3.org/2000/svg"
   xmlns:sodipodi="http://sodipodi.sourceforge.net/DTD/sodipodi-0.dtd"
   xmlns:inkscape="http://www.inkscape.org/namespaces/inkscape"
   width="1000"
   height="1000"
   id="svg3888"
   version="1.1"
   inkscape:version="0.48.2 r9819"
   sodipodi:docname="layer_supersample.svg">
  <defs
     id="defs3890" />
  <sodipodi:namedview
     id="base"
     pagecolor="#ffffff"
     bordercolor="#666666"
     borderopacity="1.0"
     inkscape:pageopacity="0.0"
     inkscape:pageshadow="2"
     inkscape:zoom="0.13157153"
     inkscape:cx="322.33508"
     inkscape:cy="690.30548"
     inkscape:document-units="px"
     inkscape:current-layer="g3582"
     showgrid="false"
     inkscape:window-width="1402"
     inkscape:window-height="856"
     inkscape:window-x="38"
     inkscape:window-y="0"
     inkscape:window-maximized="1" />
  <metadata
     id="metadata3893">
    <rdf:RDF>
      <cc:Work
         rdf:about="">
        <dc:format>image/svg+xml</dc:format>
        <dc:type
           rdf:resource="http://purl.org/dc/dcmitype/StillImage" />
        <dc:title></dc:title>
      </cc:Work>
    </rdf:RDF>
  </metadata>
  <g
     inkscape:label="Layer 1"
     inkscape:groupmode="layer"
     id="layer1"
     transform="translate(0,-52.362183)">
    <g
       style="display:inline"
       id="g3582"
       transform="matrix(40.887017,0,0,40.887017,2575.176,-58573.169)">
      <g
         transform="matrix(1.0190684,0,0,1.0190684,-222.07249,185.88247)"
         style="display:inline"
         id="g6803">
        <rect
           y="1224.6075"
           x="156.11293"
           height="24"
           width="24"
           id="rect12564"
           style="fill:none;stroke:none" />
        <path
           sodipodi:nodetypes="sssssccs"
           inkscape:connector-curvature="0"
           id="path12521"
           d="m 175.23232,1234.9038 c 2.01014,-0.095 3.1261,0.5168 3.73468,1.2297 0.60858,0.7129 0.68578,1.6066 0.57557,1.9556 -0.15808,0.5006 -0.42246,0.9788 -1.0792,1.295 -0.65673,0.3163 -1.77765,0.4674 -3.66927,0.065 -1.88541,-0.4006 -3.21848,-1.1122 -4.04863,-1.7725 -1.15559,-0.8628 -0.82289,-1.4438 0.0981,-2.0079 0.8812,-0.3488 2.30373,-0.6663 4.38875,-0.7653 z"
           style="font-size:medium;font-style:normal;font-variant:normal;font-weight:normal;font-stretch:normal;text-indent:0;text-align:start;text-decoration:none;line-height:normal;letter-spacing:normal;word-spacing:normal;text-transform:none;direction:ltr;block-progression:tb;writing-mode:lr-tb;text-anchor:start;baseline-shift:baseline;color:#000000;fill:none;stroke:#000000;stroke-width:1;stroke-opacity:1;marker:none;visibility:visible;display:inline;overflow:visible;enable-background:accumulate;font-family:Sans;-inkscape-font-specification:Sans" />
        <path
           style="fill:#000000;stroke:none"
           d="m 168.28103,1234.6586 c 0.57919,0.3217 3.1154,-0.6402 5.11419,-4.1027 1.99878,-3.4625 1.01732,-4.8891 0.0306,-5.5936 -0.98668,-0.7044 -4.00992,-0.7161 -5.13112,3.3871 -1.12119,4.1031 -0.59287,5.9876 -0.0137,6.3092 z"
           id="path12549"
           inkscape:connector-curvature="0"
           sodipodi:nodetypes="zzzzz"
           inkscape:transform-center-x="-16.772018"
           inkscape:transform-center-y="-30.929003" />
        <path
           sodipodi:nodetypes="cssccccssc"
           inkscape:connector-curvature="0"
           id="path12551"
           d="m 160.19548,1227.0813 c 0.15354,-0.01 0.31778,10e-5 0.49708,0.033 0.7172,0.1301 1.71458,0.669 3.00868,2.106 1.28985,1.4324 1.95334,2.7911 2.23688,3.8132 0.42065,1.3392 -0.17208,1.7091 -1.26233,1.5632 -0.91791,-0.2358 -2.25787,-0.8101 -4.00285,-1.9556 l -0.0196,-0.02 c -1.66204,-1.0992 -2.19664,-2.2426 -2.26959,-3.1722 -0.0733,-0.9345 0.38593,-1.6989 0.68022,-1.9164 0.31661,-0.2341 0.6709,-0.4259 1.13153,-0.4513 z"
           style="font-size:medium;font-style:normal;font-variant:normal;font-weight:normal;font-stretch:normal;text-indent:0;text-align:start;text-decoration:none;line-height:normal;letter-spacing:normal;word-spacing:normal;text-transform:none;direction:ltr;block-progression:tb;writing-mode:lr-tb;text-anchor:start;baseline-shift:baseline;color:#000000;fill:none;stroke:#000000;stroke-width:1;stroke-opacity:1;marker:none;visibility:visible;display:inline;overflow:visible;enable-background:accumulate;font-family:Sans;-inkscape-font-specification:Sans" />
        <path
           sodipodi:nodetypes="ccsssssc"
           inkscape:connector-curvature="0"
           id="path12553"
           d="m 164.12638,1236.7417 c 1.44299,0.021 1.51305,0.6888 1.09882,1.6875 -0.50789,0.8001 -1.47159,1.8928 -3.10025,3.1984 -1.57017,1.2587 -2.82984,1.4159 -3.74122,1.1969 -0.91138,-0.219 -1.49955,-0.8956 -1.61553,-1.2427 -0.16635,-0.4979 -0.23423,-1.0325 0.11119,-1.6744 0.34542,-0.6419 1.16358,-1.4306 2.93019,-2.2173 1.76081,-0.7841 3.25711,-0.9945 4.3168,-0.9484 z"
           style="font-size:medium;font-style:normal;font-variant:normal;font-weight:normal;font-stretch:normal;text-indent:0;text-align:start;text-decoration:none;line-height:normal;letter-spacing:normal;word-spacing:normal;text-transform:none;direction:ltr;block-progression:tb;writing-mode:lr-tb;text-anchor:start;baseline-shift:baseline;color:#000000;fill:none;stroke:#000000;stroke-width:1;stroke-opacity:1;marker:none;visibility:visible;display:inline;overflow:visible;enable-background:accumulate;font-family:Sans;-inkscape-font-specification:Sans" />
        <path
           sodipodi:nodetypes="csssscc"
           inkscape:connector-curvature="0"
           id="path12555"
           d="m 169.03837,1239.0898 c 0.60402,0.7303 1.34804,1.9851 2.08645,3.9375 0.71189,1.8822 0.47032,3.1318 -0.0196,3.9309 -0.48995,0.799 -1.31496,1.1481 -1.68094,1.1511 -0.52495,0 -1.05948,-0.095 -1.5632,-0.6214 -0.50371,-0.5268 -0.99466,-1.5498 -1.19693,-3.473 0.14819,-3.1999 0.25173,-7.5969 2.37423,-4.9251 z"
           style="font-size:medium;font-style:normal;font-variant:normal;font-weight:normal;font-stretch:normal;text-indent:0;text-align:start;text-decoration:none;line-height:normal;letter-spacing:normal;word-spacing:normal;text-transform:none;direction:ltr;block-progression:tb;writing-mode:lr-tb;text-anchor:start;baseline-shift:baseline;color:#000000;fill:none;stroke:#000000;stroke-width:1;stroke-opacity:1;marker:none;visibility:visible;display:inline;overflow:visible;enable-background:accumulate;font-family:Sans;-inkscape-font-specification:Sans" />
      </g>
    </g>
  </g>
</svg>
