<?xml version="1.0" encoding="UTF-8" standalone="no"?>
<!-- Created with Inkscape (http://www.inkscape.org/) -->

<svg
   xmlns:dc="http://purl.org/dc/elements/1.1/"
   xmlns:cc="http://creativecommons.org/ns#"
   xmlns:rdf="http://www.w3.org/1999/02/22-rdf-syntax-ns#"
   xmlns:svg="http://www.w3.org/2000/svg"
   xmlns="http://www.w3.org/2000/svg"
   xmlns:sodipodi="http://sodipodi.sourceforge.net/DTD/sodipodi-0.dtd"
   xmlns:inkscape="http://www.inkscape.org/namespaces/inkscape"
   width="1000"
   height="1000"
   id="svg3888"
   version="1.1"
   inkscape:version="0.48.2 r9819"
   sodipodi:docname="layer_sperize.svg">
  <defs
     id="defs3890" />
  <sodipodi:namedview
     id="base"
     pagecolor="#ffffff"
     bordercolor="#666666"
     borderopacity="1.0"
     inkscape:pageopacity="0.0"
     inkscape:pageshadow="2"
     inkscape:zoom="0.065785766"
     inkscape:cx="291.93337"
     inkscape:cy="1205.8015"
     inkscape:document-units="px"
     inkscape:current-layer="g3582"
     showgrid="false"
     inkscape:window-width="1402"
     inkscape:window-height="856"
     inkscape:window-x="38"
     inkscape:window-y="0"
     inkscape:window-maximized="1" />
  <metadata
     id="metadata3893">
    <rdf:RDF>
      <cc:Work
         rdf:about="">
        <dc:format>image/svg+xml</dc:format>
        <dc:type
           rdf:resource="http://purl.org/dc/dcmitype/StillImage" />
        <dc:title></dc:title>
      </cc:Work>
    </rdf:RDF>
  </metadata>
  <g
     inkscape:label="Layer 1"
     inkscape:groupmode="layer"
     id="layer1"
     transform="translate(0,-52.362183)">
    <g
       style="display:inline"
       id="g3582"
       transform="matrix(40.887017,0,0,40.887017,2575.176,-58573.169)">
      <g
         transform="matrix(1.028744,0,0,1.028744,-103.13279,335.42548)"
         style="display:inline"
         id="g6628">
        <rect
           y="1067.6132"
           x="39.253956"
           height="23.999998"
           width="23.54855"
           id="rect5300"
           style="fill:none;stroke:none" />
        <path
           inkscape:connector-curvature="0"
           id="path5294"
           d="m 51.518077,1078.6301 c 0,0 4.573787,7.94 7.971456,6.7288 3.397671,-1.2112 3.52835,-5.383 1.045437,-8.6129 -2.482912,-3.2298 -6.011262,-5.1138 -8.102136,-2.5569 -2.090873,2.5569 -0.914757,4.441 -0.914757,4.441 z"
           style="fill:none;stroke:#000000;stroke-width:0.99481994" />
        <path
           inkscape:connector-curvature="0"
           id="path5292"
           d="m 55.495858,1078.7647 c 0,0 2.376794,-2.2878 0.660221,-5.1139 -1.716574,-2.8261 -8.318778,-5.9213 -12.676232,-2.4224 -4.357456,3.499 -5.545853,7.94 -3.433148,11.8427 2.112707,3.9027 4.489501,7.2671 10.035352,6.325 5.545851,-0.942 5.413807,-9.2857 5.413807,-9.2857 0,0 -3.433146,6.4597 -5.80994,4.9793 -2.376793,-1.4803 -2.904969,-7.1325 -1.980661,-8.4782 0.924309,-1.3458 3.697234,-3.0953 6.338116,-1.8841 2.640882,1.2112 1.452485,4.0373 1.452485,4.0373 z"
           style="fill:#000000;stroke:none" />
      </g>
    </g>
  </g>
</svg>
