<?xml version="1.0" encoding="UTF-8" standalone="no"?>
<!-- Created with Inkscape (http://www.inkscape.org/) -->

<svg
   xmlns:dc="http://purl.org/dc/elements/1.1/"
   xmlns:cc="http://creativecommons.org/ns#"
   xmlns:rdf="http://www.w3.org/1999/02/22-rdf-syntax-ns#"
   xmlns:svg="http://www.w3.org/2000/svg"
   xmlns="http://www.w3.org/2000/svg"
   xmlns:sodipodi="http://sodipodi.sourceforge.net/DTD/sodipodi-0.dtd"
   xmlns:inkscape="http://www.inkscape.org/namespaces/inkscape"
   width="1000"
   height="1000"
   id="svg3888"
   version="1.1"
   inkscape:version="0.48.2 r9819"
   sodipodi:docname="layer_advanceoutline.svg">
  <defs
     id="defs3890" />
  <sodipodi:namedview
     id="base"
     pagecolor="#ffffff"
     bordercolor="#666666"
     borderopacity="1.0"
     inkscape:pageopacity="0.0"
     inkscape:pageshadow="2"
     inkscape:zoom="0.065785766"
     inkscape:cx="291.93337"
     inkscape:cy="1205.8015"
     inkscape:document-units="px"
     inkscape:current-layer="g3582"
     showgrid="false"
     inkscape:window-width="1402"
     inkscape:window-height="856"
     inkscape:window-x="38"
     inkscape:window-y="0"
     inkscape:window-maximized="1" />
  <metadata
     id="metadata3893">
    <rdf:RDF>
      <cc:Work
         rdf:about="">
        <dc:format>image/svg+xml</dc:format>
        <dc:type
           rdf:resource="http://purl.org/dc/dcmitype/StillImage" />
        <dc:title></dc:title>
      </cc:Work>
    </rdf:RDF>
  </metadata>
  <g
     inkscape:label="Layer 1"
     inkscape:groupmode="layer"
     id="layer1"
     transform="translate(0,-52.362183)">
    <g
       style="display:inline"
       id="g3582"
       transform="matrix(40.887017,0,0,40.887017,2575.176,-58573.169)">
      <g
         transform="matrix(1.0189382,0,0,1.0189382,-142.51432,306.02012)"
         style="display:inline"
         id="g6683">
        <rect
           style="fill:none;stroke:none;display:inline"
           id="rect6939"
           width="23.991268"
           height="24"
           x="78.065193"
           y="1106.8617" />
        <path
           inkscape:connector-curvature="0"
           id="path6512"
           d="m 85.3125,1110.331 c -0.241556,0.01 -0.529876,0.01 -0.84375,0.031 -2.07431,0.1596 -2.490301,0.3344 -2.90625,1.2188 -0.283199,0.6021 -0.464298,0.7464 -1.0625,0.8437 -0.97106,0.158 -1.38211,0.5758 -2,2.0313 -0.422182,0.9944 -0.511641,1.3901 -0.40625,2.0937 0.136026,0.9081 0.756498,1.8438 1.1875,1.8438 0.138543,0 0.338048,0.1548 0.46875,0.3125 l 0,0.2187 c -0.130702,0.1577 -0.330207,0.3125 -0.46875,0.3125 -0.431002,0 -1.051474,0.9357 -1.1875,1.8438 -0.105391,0.7036 -0.01593,1.0992 0.40625,2.0937 0.61789,1.4555 1.02894,1.8732 2,2.0313 0.598202,0.097 0.779301,0.2416 1.0625,0.8437 0.415949,0.8843 0.83194,1.0591 2.90625,1.2188 0.313874,0.024 0.602194,0.026 0.84375,0.031 0.724659,0.015 1.179791,-0.05 1.78125,-0.25 1.414068,-0.4702 2.451027,-1.5261 2.625,-2.6875 0.0876,-0.5849 0.218832,-0.8943 0.34375,-0.875 0.124918,-0.019 0.256149,0.2901 0.34375,0.875 0.173973,1.1614 1.210932,2.2173 2.625,2.6875 0.601459,0.2 1.025341,0.2653 1.75,0.25 0.241556,-0.01 0.529876,-0.01 0.84375,-0.031 2.07431,-0.1597 2.490301,-0.3345 2.90625,-1.2188 0.283199,-0.6021 0.464298,-0.7464 1.0625,-0.8437 0.97106,-0.1581 1.38211,-0.5758 2,-2.0313 0.42218,-0.9945 0.51164,-1.3901 0.40625,-2.0937 -0.13603,-0.9081 -0.7565,-1.8438 -1.1875,-1.8438 -0.13854,0 -0.33805,-0.1548 -0.46875,-0.3125 l 0,-0.2187 c 0.1307,-0.1577 0.33021,-0.3125 0.46875,-0.3125 0.431,0 1.05147,-0.9357 1.1875,-1.8438 0.10539,-0.7036 0.0159,-1.0993 -0.40625,-2.0937 -0.61789,-1.4555 -1.02894,-1.8733 -2,-2.0313 -0.598202,-0.097 -0.779301,-0.2416 -1.0625,-0.8437 -0.415949,-0.8844 -0.83194,-1.0592 -2.90625,-1.2188 -0.313874,-0.024 -0.602194,-0.026 -0.84375,-0.031 -0.724659,-0.015 -1.148541,0.05 -1.75,0.25 -1.414068,0.4702 -2.451027,1.526 -2.625,2.6875 -0.0876,0.5848 -0.218832,0.8943 -0.34375,0.875 -0.124918,0.019 -0.256149,-0.2902 -0.34375,-0.875 -0.173973,-1.1615 -1.210932,-2.2173 -2.625,-2.6875 -0.601459,-0.2 -1.056591,-0.2653 -1.78125,-0.25 z m 1.59375,1.9687 c 0.226185,-3e-4 0.265097,0.1763 0.21875,1.1563 -0.03542,0.7492 -0.03418,1.2337 0.0625,1.5625 0.02412,0.082 0.05839,0.152 0.09375,0.2187 0.0354,0.067 0.07718,0.1006 0.125,0.1563 0.09565,0.1112 0.22253,0.2196 0.375,0.3125 l 0.5,0.3125 -0.71875,0.1875 c -0.902856,0.2285 -1.756217,0.479 -2.4375,0.7187 -0.341194,0.1198 -0.624187,0.233 -0.875,0.3438 -0.250398,0.1107 -0.456828,0.2186 -0.59375,0.3125 -0.329367,0.2257 -0.629261,0.4065 -0.65625,0.4062 -0.027,-3e-4 -0.21477,-0.2291 -0.4375,-0.5 -0.07131,-0.087 -0.137095,-0.1515 -0.21875,-0.2187 -0.244597,-0.2019 -0.552396,-0.3335 -0.9375,-0.4063 -0.400937,-0.076 -0.569987,-0.1462 -0.40625,-0.1562 0.257625,-0.015 0.285229,-0.1084 0.1875,-0.6875 -0.07323,-0.4341 -0.07428,-0.6278 0.03125,-0.5625 0.05461,0.034 0.110205,0.034 0.15625,0 0.03993,-0.029 0.06836,-0.098 0.09375,-0.1563 0.003,-0.01 -0.0027,-0.023 0,-0.031 0.02595,-0.07 0.06825,-0.1434 0.0625,-0.2188 -0.0058,-0.075 -0.04472,-0.1384 -0.09375,-0.1875 -0.174415,-0.1746 -0.06498,-0.5937 0.15625,-0.5937 0.07954,0 0.15625,0.095 0.15625,0.2187 0,0.1241 0.179429,0.2868 0.40625,0.3438 0.120117,0.03 0.244256,0.034 0.34375,0.031 0.198869,-0.01 0.311309,-0.072 0.3125,-0.1562 5.95e-4,-0.042 -0.01619,-0.077 -0.09375,-0.125 -0.06396,-0.04 -0.112856,-0.089 -0.125,-0.1563 -0.01771,-0.057 -8.54e-4,-0.1042 0.03125,-0.1562 0.02132,-0.035 0.03238,-0.046 0.0625,-0.062 0.09018,-0.048 0.241358,-0.024 0.46875,0.125 0.385439,0.2528 0.408591,0.2507 0.3125,0 -0.03187,-0.083 -0.04726,-0.1517 -0.03125,-0.1875 0.01599,-0.036 0.06343,-0.039 0.125,-0.031 0.240818,0.031 0.380517,0.012 0.46875,-0.062 0.08807,-0.075 0.125,-0.2056 0.125,-0.4375 0,-0.1044 -0.01508,-0.1749 -0.03125,-0.25 -0.01176,-0.068 -0.0047,-0.1066 -0.03125,-0.1562 -0.05309,-0.099 -0.150253,-0.1703 -0.28125,-0.2188 l -0.34375,-0.125 0.3125,-0.1875 c 0.268898,-0.144 0.405922,-0.1576 0.5625,0.031 0.0635,0.077 0.117067,0.1494 0.1875,0.1875 0.0058,0 0.02544,0 0.03125,0 0.06036,0.028 0.13404,0.031 0.1875,0.031 0.06225,-2e-4 0.117498,-0.024 0.15625,-0.062 0.03875,-0.038 0.0625,-0.08 0.0625,-0.1562 0,-0.067 0.03095,-0.1243 0.09375,-0.1563 0.06271,-0.032 0.157461,-0.038 0.25,-0.031 0.178179,0.013 0.3125,0.1295 0.3125,0.25 0,0.037 0.0096,0.069 0.03125,0.094 0.02175,0.024 0.04979,0.05 0.09375,0.062 0.08777,0.025 0.226684,0.017 0.40625,0 0.192525,-0.019 0.319515,-0.038 0.40625,-0.094 0.08658,-0.055 0.133216,-0.1463 0.125,-0.25 -0.0074,-0.093 0.01423,-0.1375 0.0625,-0.1875 0.03691,-0.038 0.08982,-0.094 0.15625,-0.094 z m 6.3125,0 c 0.1533,2e-4 0.231734,0.1174 0.21875,0.2813 -0.01643,0.2075 0.1462,0.3065 0.53125,0.3437 0.359132,0.035 0.53125,-0.01 0.53125,-0.1562 0,-0.1205 0.103071,-0.2366 0.28125,-0.25 0.185077,-0.014 0.34375,0.054 0.34375,0.1875 0,0.3037 0.371022,0.3063 0.625,0 0.156578,-0.1889 0.293602,-0.1754 0.5625,-0.031 l 0.3125,0.1875 -0.34375,0.125 c -0.261991,0.097 -0.34375,0.2656 -0.34375,0.625 0,0.4637 0.112114,0.562 0.59375,0.5 0.123143,-0.016 0.157498,0.052 0.09375,0.2188 -0.09609,0.2507 -0.07294,0.2528 0.3125,0 0.30319,-0.1989 0.445962,-0.2008 0.53125,-0.062 0.06421,0.104 0.01632,0.2444 -0.09375,0.3125 -0.310248,0.1919 0.08203,0.3707 0.5625,0.25 0.226821,-0.057 0.40625,-0.2197 0.40625,-0.3438 0,-0.1241 0.07671,-0.2187 0.15625,-0.2187 0.221229,0 0.330665,0.4191 0.15625,0.5937 -0.196108,0.1963 3.06e-4,0.7288 0.21875,0.5938 0.10553,-0.065 0.104482,0.1284 0.03125,0.5625 -0.09773,0.5791 -0.07013,0.6721 0.1875,0.6875 0.163737,0.01 -0.0054,0.08 -0.40625,0.1562 -0.513472,0.097 -0.870989,0.2781 -1.15625,0.625 -0.22273,0.2709 -0.410501,0.4997 -0.4375,0.5 -0.02699,3e-4 -0.326883,-0.1805 -0.65625,-0.4062 -0.547689,-0.3755 -2.069288,-0.9179 -3.875,-1.375 l -0.71875,-0.1875 0.5,-0.3125 c 0.609883,-0.3714 0.72708,-0.7515 0.65625,-2.25 -0.04635,-0.98 -0.0074,-1.1566 0.21875,-1.1563 z m -5.1875,2 c 0.06447,-0.01 0.09682,0 0.15625,0 0.890811,0.044 1.190904,1.0566 0.28125,1.3125 -0.178178,0.05 -0.48135,0.019 -0.6875,-0.062 -0.302597,-0.1203 -0.384823,-0.2609 -0.34375,-0.6875 0.04428,-0.46 0.153127,-0.5196 0.59375,-0.5625 z m 3.90625,0 c 0.05943,0 0.09178,-0.01 0.15625,0 0.440623,0.043 0.549475,0.1025 0.59375,0.5625 0.04107,0.4266 -0.04115,0.5672 -0.34375,0.6875 -0.20615,0.082 -0.509322,0.1126 -0.6875,0.062 -0.909654,-0.2559 -0.609561,-1.2685 0.28125,-1.3125 z m -9.78125,3.1875 c 0.151183,0 0.21875,0.1852 0.21875,0.4375 0,0.3937 -0.154768,0.5017 -0.375,0.2813 -0.20377,-0.204 -0.08671,-0.7188 0.15625,-0.7188 z m 15.78125,0 c 0.242965,0 0.36002,0.5148 0.15625,0.7188 -0.220232,0.2204 -0.375,0.1124 -0.375,-0.2813 0,-0.2523 0.06757,-0.4375 0.21875,-0.4375 z m -15.78125,1.8438 c 0.134109,-0.042 0.21875,0.1109 0.21875,0.4062 0,0.2523 -0.06757,0.4063 -0.21875,0.4063 -0.242965,0 -0.36002,-0.4835 -0.15625,-0.6875 0.05506,-0.055 0.111547,-0.111 0.15625,-0.125 z m 15.6875,0 c 0.02677,-0.013 0.06022,-0.011 0.09375,0 0.0447,0.014 0.101192,0.07 0.15625,0.125 0.20377,0.204 0.08671,0.6875 -0.15625,0.6875 -0.151183,0 -0.21875,-0.154 -0.21875,-0.4063 0,-0.2215 0.04469,-0.3671 0.125,-0.4062 z M 83,1119.6435 c 0.02699,-4e-4 0.326883,0.2117 0.65625,0.4375 0.547689,0.3754 2.100538,0.8866 3.90625,1.3437 l 0.71875,0.1875 -0.5,0.3125 c -0.609883,0.3713 -0.72708,0.7514 -0.65625,2.25 0.04635,0.9799 0.0074,1.1566 -0.21875,1.1563 -0.1533,-2e-4 -0.231734,-0.1174 -0.21875,-0.2813 0.01643,-0.2076 -0.1462,-0.3066 -0.53125,-0.3437 -0.359132,-0.035 -0.53125,0.01 -0.53125,0.1562 0,0.1205 -0.134321,0.2678 -0.3125,0.2813 -0.185077,0.014 -0.34375,-0.086 -0.34375,-0.2188 0,-0.3037 -0.371022,-0.3063 -0.625,0 -0.156578,0.1889 -0.293602,0.2065 -0.5625,0.062 l -0.3125,-0.1875 0.34375,-0.125 c 0.261991,-0.097 0.34375,-0.2968 0.34375,-0.6562 0,-0.4637 -0.112114,-0.562 -0.59375,-0.5 -0.123143,0.016 -0.157498,-0.052 -0.09375,-0.2188 0.09609,-0.2507 0.07294,-0.2528 -0.3125,0 -0.30319,0.1989 -0.445962,0.2008 -0.53125,0.062 -0.06421,-0.104 -0.01632,-0.2444 0.09375,-0.3125 0.310248,-0.192 -0.08203,-0.3395 -0.5625,-0.2187 -0.226821,0.057 -0.40625,0.2196 -0.40625,0.3437 0,0.1241 -0.07671,0.1875 -0.15625,0.1875 -0.221229,0 -0.330665,-0.4191 -0.15625,-0.5937 0.196108,-0.1964 -3.06e-4,-0.6976 -0.21875,-0.5625 -0.10553,0.065 -0.104482,-0.1598 -0.03125,-0.5938 0.09773,-0.5791 0.07013,-0.6721 -0.1875,-0.6875 -0.163737,-0.01 0.0054,-0.08 0.40625,-0.1562 0.513472,-0.097 0.870989,-0.2781 1.15625,-0.625 0.22273,-0.2709 0.410501,-0.4997 0.4375,-0.5 z m 14.09375,0 c 0.027,3e-4 0.21477,0.2291 0.4375,0.5 0.285261,0.3469 0.642778,0.5279 1.15625,0.625 0.400937,0.076 0.569987,0.1462 0.40625,0.1562 -0.257625,0.015 -0.285229,0.1084 -0.1875,0.6875 0.07323,0.434 0.07428,0.6591 -0.03125,0.5938 -0.218444,-0.1351 -0.414858,0.3661 -0.21875,0.5625 0.174415,0.1746 0.06498,0.5937 -0.15625,0.5937 -0.07954,0 -0.15625,-0.063 -0.15625,-0.1875 0,-0.1241 -0.179429,-0.2867 -0.40625,-0.3437 -0.480466,-0.1208 -0.872748,0.027 -0.5625,0.2187 0.110071,0.068 0.157957,0.2085 0.09375,0.3125 -0.08529,0.1383 -0.22806,0.1364 -0.53125,-0.062 -0.385439,-0.2528 -0.408591,-0.2507 -0.3125,0 0.06375,0.1663 0.02939,0.2347 -0.09375,0.2188 -0.481636,-0.062 -0.59375,0.036 -0.59375,0.5 0,0.3594 0.08176,0.5592 0.34375,0.6562 l 0.34375,0.125 -0.3125,0.1875 c -0.268898,0.144 -0.405922,0.1264 -0.5625,-0.062 -0.253978,-0.3063 -0.625,-0.3037 -0.625,0 0,0.1332 -0.158673,0.2327 -0.34375,0.2188 -0.178179,-0.013 -0.28125,-0.1608 -0.28125,-0.2813 0,-0.1493 -0.172118,-0.1909 -0.53125,-0.1562 -0.38505,0.037 -0.547681,0.1361 -0.53125,0.3437 0.01299,0.1639 -0.06545,0.2811 -0.21875,0.2813 -0.226185,3e-4 -0.265097,-0.1764 -0.21875,-1.1563 0.07083,-1.4986 -0.04637,-1.8787 -0.65625,-2.25 l -0.5,-0.3125 0.71875,-0.1875 c 1.805712,-0.4571 3.327311,-0.9683 3.875,-1.3437 0.329367,-0.2258 0.629261,-0.4379 0.65625,-0.4375 z m -8.96875,2.375 c 0.122221,-0.01 0.254661,0.01 0.34375,0.031 0.909654,0.2559 0.609561,1.2685 -0.28125,1.3125 -0.05943,0 -0.09178,0.01 -0.15625,0 -0.440623,-0.043 -0.549475,-0.1337 -0.59375,-0.5937 -0.04107,-0.4267 0.04115,-0.5673 0.34375,-0.6875 0.103075,-0.041 0.221529,-0.053 0.34375,-0.062 z m 3.875,0 c 0.122221,0.01 0.240675,0.022 0.34375,0.062 0.302597,0.1202 0.384823,0.2608 0.34375,0.6875 -0.04428,0.46 -0.153127,0.5508 -0.59375,0.5937 -0.06447,0.01 -0.09682,0 -0.15625,0 -0.890811,-0.044 -1.190904,-1.0566 -0.28125,-1.3125 0.08909,-0.025 0.221529,-0.04 0.34375,-0.031 z"
           style="fill:#000000" />
      </g>
    </g>
  </g>
</svg>
