<?xml version="1.0" encoding="UTF-8" standalone="no"?>
<!-- Created with Inkscape (http://www.inkscape.org/) -->

<svg
   xmlns:dc="http://purl.org/dc/elements/1.1/"
   xmlns:cc="http://creativecommons.org/ns#"
   xmlns:rdf="http://www.w3.org/1999/02/22-rdf-syntax-ns#"
   xmlns:svg="http://www.w3.org/2000/svg"
   xmlns="http://www.w3.org/2000/svg"
   xmlns:sodipodi="http://sodipodi.sourceforge.net/DTD/sodipodi-0.dtd"
   xmlns:inkscape="http://www.inkscape.org/namespaces/inkscape"
   width="1000"
   height="1000"
   id="svg3888"
   version="1.1"
   inkscape:version="0.48.2 r9819"
   sodipodi:docname="layer_advanceoutline.svg">
  <defs
     id="defs3890" />
  <sodipodi:namedview
     id="base"
     pagecolor="#ffffff"
     bordercolor="#666666"
     borderopacity="1.0"
     inkscape:pageopacity="0.0"
     inkscape:pageshadow="2"
     inkscape:zoom="0.36182171"
     inkscape:cx="-222.48526"
     inkscape:cy="440.82484"
     inkscape:document-units="px"
     inkscape:current-layer="g3582"
     showgrid="false"
     inkscape:window-width="1402"
     inkscape:window-height="856"
     inkscape:window-x="70"
     inkscape:window-y="0"
     inkscape:window-maximized="0" />
  <metadata
     id="metadata3893">
    <rdf:RDF>
      <cc:Work
         rdf:about="">
        <dc:format>image/svg+xml</dc:format>
        <dc:type
           rdf:resource="http://purl.org/dc/dcmitype/StillImage" />
        <dc:title />
      </cc:Work>
    </rdf:RDF>
  </metadata>
  <g
     inkscape:label="Layer 1"
     inkscape:groupmode="layer"
     id="layer1"
     transform="translate(0,-52.362183)">
    <g
       style="display:inline"
       id="g3582"
       transform="matrix(40.887017,0,0,40.887017,2575.176,-58573.169)">
      <g
         transform="matrix(1.0190683,0,0,1.0190683,-182.30002,305.87455)"
         style="display:inline"
         id="g6687">
        <rect
           y="1106.8617"
           x="117.08469"
           height="24"
           width="24"
           id="rect4306"
           style="fill:none;stroke:none" />
        <path
           sodipodi:nodetypes="cccccccccsccccccsscccscssccccc"
           inkscape:connector-curvature="0"
           id="path7664"
           d="m 123.1009,1108.9188 c 0.16577,-0.014 0.51008,0.044 0.69003,0.3 0.18994,0.2707 0.13987,0.5532 0.06,0.7501 l 0,0.03 0,0.03 -0.0299,0.03 0,0.03 c -1.50128,2.2893 -3.2651,6.6737 -3.27013,10.1404 -0.003,1.7343 0.42265,3.1943 1.41005,4.1101 0.55531,0.5151 1.42467,0.8006 2.3701,0.9601 0.94542,0.1594 1.97618,0.1718 2.85011,-0.03 3.67333,-0.8484 5.77505,-2.7667 9.15036,-6.5403 l 0,-0.03 0.0299,-0.03 c -0.0586,0.081 -0.0328,0.088 0.06,-0.03 0.39554,-0.5028 1.00724,-0.7453 1.59006,-0.75 0.62767,-0.01 1.25515,0.1972 1.80008,0.57 0.54267,0.3713 1.01836,0.9138 1.20004,1.5901 0.17821,0.6633 0.0314,1.4897 -0.45002,2.28 l 0,0.03 -0.06,0.09 c -3.37158,4.6032 -9.24544,6.8286 -11.46045,7.3803 -1.5161,0.3777 -3.43558,0.4412 -5.2202,0.09 -1.78463,-0.3512 -3.41116,-1.1044 -4.44018,-2.19 -2.02529,-2.1368 -2.62947,-5.2843 -2.13008,-8.4604 0.4979,-3.1664 2.08746,-6.5034 4.77019,-9.6304 7e-5,0 -0.002,-0.025 0,-0.03 9.6e-4,0 0.0281,0 0.0299,0 0.34031,-0.4366 0.58374,-0.6506 1.05004,-0.69 z"
           style="font-size:medium;font-style:normal;font-variant:normal;font-weight:normal;font-stretch:normal;text-indent:0;text-align:start;text-decoration:none;line-height:normal;letter-spacing:normal;word-spacing:normal;text-transform:none;direction:ltr;block-progression:tb;writing-mode:lr-tb;text-anchor:start;baseline-shift:baseline;color:#000000;fill:#000000;fill-opacity:1;fill-rule:nonzero;stroke:none;stroke-width:1;marker:none;visibility:visible;display:inline;overflow:visible;enable-background:accumulate;font-family:Sans;-inkscape-font-specification:Sans" />
        <path
           sodipodi:nodetypes="ccccccccccccc"
           inkscape:connector-curvature="0"
           id="path7666"
           d="m 129.67318,1107.5724 0,3.0347 -3.03478,0 0,2.5692 3.03478,0 0,3.0428 2.56914,0 0,-3.0428 3.03478,0 0,-2.5692 -3.03478,0 0,-3.0347 z"
           style="font-size:medium;font-style:normal;font-variant:normal;font-weight:normal;font-stretch:normal;text-indent:0;text-align:start;text-decoration:none;line-height:normal;letter-spacing:normal;word-spacing:normal;text-transform:none;direction:ltr;block-progression:tb;writing-mode:lr-tb;text-anchor:start;baseline-shift:baseline;color:#000000;fill:#000000;fill-opacity:1;stroke:none;stroke-width:10;marker:none;visibility:visible;display:inline;overflow:visible;enable-background:accumulate;font-family:Sans;-inkscape-font-specification:Sans" />
      </g>
    </g>
  </g>
</svg>
