<?xml version="1.0" encoding="UTF-8" standalone="no"?>
<!-- Created with Inkscape (http://www.inkscape.org/) -->

<svg
   xmlns:dc="http://purl.org/dc/elements/1.1/"
   xmlns:cc="http://creativecommons.org/ns#"
   xmlns:rdf="http://www.w3.org/1999/02/22-rdf-syntax-ns#"
   xmlns:svg="http://www.w3.org/2000/svg"
   xmlns="http://www.w3.org/2000/svg"
   xmlns:sodipodi="http://sodipodi.sourceforge.net/DTD/sodipodi-0.dtd"
   xmlns:inkscape="http://www.inkscape.org/namespaces/inkscape"
   width="1000"
   height="1000"
   id="svg3888"
   version="1.1"
   inkscape:version="0.48.2 r9819"
   sodipodi:docname="layer_star.svg">
  <defs
     id="defs3890" />
  <sodipodi:namedview
     id="base"
     pagecolor="#ffffff"
     bordercolor="#666666"
     borderopacity="1.0"
     inkscape:pageopacity="0.0"
     inkscape:pageshadow="2"
     inkscape:zoom="0.046517561"
     inkscape:cx="291.93337"
     inkscape:cy="-2957.9002"
     inkscape:document-units="px"
     inkscape:current-layer="g3582"
     showgrid="false"
     inkscape:window-width="1402"
     inkscape:window-height="856"
     inkscape:window-x="38"
     inkscape:window-y="0"
     inkscape:window-maximized="1" />
  <metadata
     id="metadata3893">
    <rdf:RDF>
      <cc:Work
         rdf:about="">
        <dc:format>image/svg+xml</dc:format>
        <dc:type
           rdf:resource="http://purl.org/dc/dcmitype/StillImage" />
        <dc:title></dc:title>
      </cc:Work>
    </rdf:RDF>
  </metadata>
  <g
     inkscape:label="Layer 1"
     inkscape:groupmode="layer"
     id="layer1"
     transform="translate(0,-52.362183)">
    <g
       style="display:inline"
       id="g3582"
       transform="matrix(40.887017,0,0,40.887017,2575.176,-58573.169)">
      <g
         transform="matrix(1.0180566,0,0,1.0180566,-62.970594,107.21986)"
         style="display:inline"
         id="g6864">
        <path
           style="fill:#000000;stroke:none;display:inline"
           d="m 12.01193,1303.1145 -4.53125,4.5313 2.96875,0 0,6.0937 -5.90625,0 0,-3.1562 -4.53125,4.5312 4.53125,4.5313 0,-2.9063 5.90625,0 0,5.8125 -3,0 4.5625,4.5625 4.5625,-4.5625 -3.125,0 0,-5.8125 6,0 0,2.9375 4.5625,-4.5625 -4.5625,-4.5625 0,3.1875 -6,0 0,-6.0937 3.09375,0 -4.53125,-4.5313 z"
           id="rect11889"
           inkscape:connector-curvature="0" />
        <rect
           y="1303.0952"
           x="-0.011922373"
           height="24"
           width="24"
           id="rect11872"
           style="fill:none;stroke:none;display:inline" />
      </g>
    </g>
  </g>
</svg>
