<?xml version="1.0" encoding="UTF-8" standalone="no"?>
<!-- Created with Inkscape (http://www.inkscape.org/) -->

<svg
   xmlns:dc="http://purl.org/dc/elements/1.1/"
   xmlns:cc="http://creativecommons.org/ns#"
   xmlns:rdf="http://www.w3.org/1999/02/22-rdf-syntax-ns#"
   xmlns:svg="http://www.w3.org/2000/svg"
   xmlns="http://www.w3.org/2000/svg"
   xmlns:sodipodi="http://sodipodi.sourceforge.net/DTD/sodipodi-0.dtd"
   xmlns:inkscape="http://www.inkscape.org/namespaces/inkscape"
   width="1000"
   height="1000"
   id="svg3888"
   version="1.1"
   inkscape:version="0.48.2 r9819"
   sodipodi:docname="layer_warp.svg">
  <defs
     id="defs3890" />
  <sodipodi:namedview
     id="base"
     pagecolor="#ffffff"
     bordercolor="#666666"
     borderopacity="1.0"
     inkscape:pageopacity="0.0"
     inkscape:pageshadow="2"
     inkscape:zoom="0.065785766"
     inkscape:cx="291.93337"
     inkscape:cy="1205.8015"
     inkscape:document-units="px"
     inkscape:current-layer="g3582"
     showgrid="false"
     inkscape:window-width="1402"
     inkscape:window-height="856"
     inkscape:window-x="38"
     inkscape:window-y="0"
     inkscape:window-maximized="1" />
  <metadata
     id="metadata3893">
    <rdf:RDF>
      <cc:Work
         rdf:about="">
        <dc:format>image/svg+xml</dc:format>
        <dc:type
           rdf:resource="http://purl.org/dc/dcmitype/StillImage" />
        <dc:title></dc:title>
      </cc:Work>
    </rdf:RDF>
  </metadata>
  <g
     inkscape:label="Layer 1"
     inkscape:groupmode="layer"
     id="layer1"
     transform="translate(0,-52.362183)">
    <g
       style="display:inline"
       id="g3582"
       transform="matrix(40.887017,0,0,40.887017,2575.176,-58573.169)">
      <g
         transform="matrix(1.0190684,0,0,1.0190684,-301.61735,385.90508)"
         style="display:inline"
         id="g6619">
        <rect
           y="1028.3668"
           x="234.16939"
           height="24"
           width="24"
           id="rect5104"
           style="fill:none;stroke:none" />
        <path
           inkscape:connector-curvature="0"
           id="path5095"
           d="m 246.71875,1032.6122 c -2.77782,0.021 -5.76931,1.3192 -7.9375,4.875 -1.01343,1.662 -0.87463,3.5571 -0.0625,5.3125 1.36978,2.3215 3.87293,3.875 6.78125,3.875 4.38246,0 7.90625,-3.4925 7.90625,-7.875 0,-1.7757 -0.58503,-3.4057 -1.5625,-4.7187 -0.0131,-0.01 -0.018,-0.023 -0.0312,-0.031 -0.16322,-0.1065 -0.3408,-0.2119 -0.53125,-0.3125 -1.30222,-0.6879 -2.89581,-1.1373 -4.5625,-1.125 z m 9.34375,10.4063 c -1.14273,2.8316 -3.37263,5.1376 -6.1875,6.3125 2.48632,1.5777 5.45496,4.1947 6.9375,2.1562 2.20085,-3.0626 0.76854,-5.664 -0.75,-8.4687 z"
           style="fill:#000000;stroke:none" />
        <path
           transform="matrix(0.17980453,0,0,0.17980453,272.16941,906.56196)"
           d="m -118.02784,780.4564 c -24.87273,16.69429 -58.56945,10.06435 -75.26374,-14.80837 -16.69428,-24.87273 -10.06435,-58.56945 14.80838,-75.26373 24.87272,-16.69429 58.56944,-10.06436 75.26373,14.80837 12.936295,19.27371 12.173945,44.6429 -1.89632,63.10506"
           sodipodi:ry="54.239826"
           sodipodi:rx="54.239826"
           sodipodi:cy="735.42035"
           sodipodi:cx="-148.25552"
           style="fill:none;stroke:#000000;stroke-width:8.34239292;stroke-linecap:round;stroke-linejoin:round;stroke-miterlimit:4;stroke-dasharray:8.43622662, 16.87245323;stroke-dashoffset:0"
           sodipodi:type="arc"
           sodipodi:start="0.97966976"
           sodipodi:end="6.9343943"
           sodipodi:open="true"
           id="path3079" />
      </g>
    </g>
  </g>
</svg>
