<?xml version="1.0" encoding="UTF-8" standalone="no"?>
<!-- Created with Inkscape (http://www.inkscape.org/) -->

<svg
   xmlns:dc="http://purl.org/dc/elements/1.1/"
   xmlns:cc="http://creativecommons.org/ns#"
   xmlns:rdf="http://www.w3.org/1999/02/22-rdf-syntax-ns#"
   xmlns:svg="http://www.w3.org/2000/svg"
   xmlns="http://www.w3.org/2000/svg"
   xmlns:sodipodi="http://sodipodi.sourceforge.net/DTD/sodipodi-0.dtd"
   xmlns:inkscape="http://www.inkscape.org/namespaces/inkscape"
   width="1000"
   height="1000"
   id="svg3888"
   version="1.1"
   inkscape:version="0.48.2 r9819"
   sodipodi:docname="layer_stretch.svg">
  <defs
     id="defs3890" />
  <sodipodi:namedview
     id="base"
     pagecolor="#ffffff"
     bordercolor="#666666"
     borderopacity="1.0"
     inkscape:pageopacity="0.0"
     inkscape:pageshadow="2"
     inkscape:zoom="0.065785766"
     inkscape:cx="291.93337"
     inkscape:cy="1205.8015"
     inkscape:document-units="px"
     inkscape:current-layer="g3582"
     showgrid="false"
     inkscape:window-width="1402"
     inkscape:window-height="856"
     inkscape:window-x="38"
     inkscape:window-y="0"
     inkscape:window-maximized="1" />
  <metadata
     id="metadata3893">
    <rdf:RDF>
      <cc:Work
         rdf:about="">
        <dc:format>image/svg+xml</dc:format>
        <dc:type
           rdf:resource="http://purl.org/dc/dcmitype/StillImage" />
        <dc:title></dc:title>
      </cc:Work>
    </rdf:RDF>
  </metadata>
  <g
     inkscape:label="Layer 1"
     inkscape:groupmode="layer"
     id="layer1"
     transform="translate(0,-52.362183)">
    <g
       style="display:inline"
       id="g3582"
       transform="matrix(40.887017,0,0,40.887017,2575.176,-58573.169)">
      <g
         transform="matrix(1.0048467,0,0,1.0048467,-219.85228,400.6642)"
         style="display:inline"
         id="g6611">
        <rect
           y="1028.3645"
           x="156.11292"
           height="24"
           width="24"
           id="rect4852"
           style="fill:none;stroke:none" />
        <path
           inkscape:connector-curvature="0"
           id="path4844"
           d="m 162.71876,1030.2372 c -0.27861,0 -0.56043,-2e-4 -0.84375,0.031 -0.75553,0.084 -1.51144,0.312 -2.28125,0.6875 -1.52039,0.7415 -2.50374,1.6965 -2.90625,2.8437 -0.40251,1.1472 -0.24405,2.3835 0.21875,3.6563 0.92561,2.5454 3.11236,5.2781 5.375,7.9062 2.32413,2.6995 5.10723,4.2038 7.5625,4.8438 2.45527,0.6399 4.5718,0.5143 5.75,-0.25 0.37136,-0.241 0.5757,-0.6365 0.6875,-1.0625 0.1118,-0.4261 0.15257,-0.9083 0.125,-1.4375 -0.0147,-0.283 -0.0498,-0.599 -0.0937,-0.9063 4.16529,-2.1866 6.8953,-12.4422 -0.40625,-12.3437 -0.53261,0.01 -1.8947,1.7355 0,3.0312 1.09109,0.7462 0.28075,2.7684 -1.125,3.9688 -0.6092,-1.5965 -1.2763,-3.0345 -1.81255,-3.8438 -0.78476,-1.1844 -2.57335,-3.4688 -4.9375,-5.1562 -1.55147,-1.1074 -3.36224,-1.9432 -5.3125,-1.9688 z m 3.84375,2.2188 c 0.30751,0.1823 0.61249,0.3528 0.90625,0.5625 2.2043,1.5733 3.92776,3.8068 4.65625,4.9062 0.46847,0.707 1.18298,2.1967 1.8125,3.8438 -1.40832,0.7041 -3.79465,0.7016 -5.75,-1.8125 -1.85565,-2.386 -2.499,-4.9102 -1.625,-7.5 z"
           style="font-size:medium;font-style:normal;font-variant:normal;font-weight:normal;font-stretch:normal;text-indent:0;text-align:start;text-decoration:none;line-height:normal;letter-spacing:normal;word-spacing:normal;text-transform:none;direction:ltr;block-progression:tb;writing-mode:lr-tb;text-anchor:start;baseline-shift:baseline;color:#000000;fill:#000000;fill-opacity:1;stroke:none;stroke-width:0.88647288;marker:none;visibility:visible;display:inline;overflow:visible;enable-background:accumulate;font-family:Sans;-inkscape-font-specification:Sans" />
      </g>
    </g>
  </g>
</svg>
