<?xml version="1.0" encoding="UTF-8" standalone="no"?>
<!-- Created with Inkscape (http://www.inkscape.org/) -->

<svg
   xmlns:dc="http://purl.org/dc/elements/1.1/"
   xmlns:cc="http://creativecommons.org/ns#"
   xmlns:rdf="http://www.w3.org/1999/02/22-rdf-syntax-ns#"
   xmlns:svg="http://www.w3.org/2000/svg"
   xmlns="http://www.w3.org/2000/svg"
   xmlns:sodipodi="http://sodipodi.sourceforge.net/DTD/sodipodi-0.dtd"
   xmlns:inkscape="http://www.inkscape.org/namespaces/inkscape"
   width="1000"
   height="1000"
   id="svg3888"
   version="1.1"
   inkscape:version="0.48.2 r9819"
   sodipodi:docname="layer_curvewarp.svg">
  <defs
     id="defs3890" />
  <sodipodi:namedview
     id="base"
     pagecolor="#ffffff"
     bordercolor="#666666"
     borderopacity="1.0"
     inkscape:pageopacity="0.0"
     inkscape:pageshadow="2"
     inkscape:zoom="0.065785766"
     inkscape:cx="291.93337"
     inkscape:cy="1205.8015"
     inkscape:document-units="px"
     inkscape:current-layer="g3582"
     showgrid="false"
     inkscape:window-width="1402"
     inkscape:window-height="856"
     inkscape:window-x="38"
     inkscape:window-y="0"
     inkscape:window-maximized="1" />
  <metadata
     id="metadata3893">
    <rdf:RDF>
      <cc:Work
         rdf:about="">
        <dc:format>image/svg+xml</dc:format>
        <dc:type
           rdf:resource="http://purl.org/dc/dcmitype/StillImage" />
        <dc:title></dc:title>
      </cc:Work>
    </rdf:RDF>
  </metadata>
  <g
     inkscape:label="Layer 1"
     inkscape:groupmode="layer"
     id="layer1"
     transform="translate(0,-52.362183)">
    <g
       style="display:inline"
       id="g3582"
       transform="matrix(40.887017,0,0,40.887017,2575.176,-58573.169)">
      <g
         transform="matrix(1.0190677,0,0,1.0190677,-182.29995,385.86918)"
         style="display:inline"
         id="g6604">
        <rect
           y="1028.3645"
           x="117.08469"
           height="24"
           width="24"
           id="rect8755"
           style="fill:none;stroke:none" />
        <path
           transform="matrix(0.3093896,0,0,0.23034846,164.54375,853.33924)"
           d="m -131.14265,806.61224 c 0,17.63467 -4.59506,31.93039 -10.26334,31.93039 -5.66829,0 -10.26334,-14.29572 -10.26334,-31.93039 0,-17.63466 4.59505,-31.93038 10.26334,-31.93038 5.66828,0 10.26334,14.29572 10.26334,31.93038 z"
           sodipodi:ry="31.930384"
           sodipodi:rx="10.263338"
           sodipodi:cy="806.61224"
           sodipodi:cx="-141.40599"
           id="path8741"
           style="fill:none;stroke:#000000;stroke-width:3.20651293"
           sodipodi:type="arc" />
        <path
           style="font-size:medium;font-style:normal;font-variant:normal;font-weight:normal;font-stretch:normal;text-indent:0;text-align:start;text-decoration:none;line-height:normal;letter-spacing:normal;word-spacing:normal;text-transform:none;direction:ltr;block-progression:tb;writing-mode:lr-tb;text-anchor:start;baseline-shift:baseline;color:#000000;fill:#000000;fill-opacity:1;stroke:none;stroke-width:1.5;marker:none;visibility:visible;display:inline;overflow:visible;enable-background:accumulate;font-family:Sans;-inkscape-font-specification:Sans"
           d="m 120.1875,1028.625 -0.21875,0.6562 0.375,0.5626 0.21875,0.062 1.46875,0.2813 0.65625,-0.1875 0.21875,-0.6562 -0.375,-0.5626 -0.21875,-0.062 -1.46875,-0.2813 z m 4.40625,0.8438 -0.21875,0.625 0.40625,0.5624 0.1875,0.094 1.5,0.2812 0.65625,-0.2187 0.21875,-0.625 -0.40625,-0.5625 -0.1875,-0.094 -1.5,-0.2812 z m 4.4375,0.8124 -0.21875,0.6563 0.375,0.5625 0.21875,0.062 1.46875,0.2813 0.65625,-0.1876 0.21875,-0.6562 -0.375,-0.5625 -0.21875,-0.062 -1.46875,-0.2812 z m 4.40625,0.8438 -0.21875,0.6562 0.40625,0.5626 0.1875,0.062 1.5,0.2813 0.65625,-0.1875 0.21875,-0.6562 -0.40625,-0.5626 -0.21875,-0.062 -1.46875,-0.2813 z m 4.4375,0.8438 -0.21875,0.6562 0.375,0.5625 0.21875,0.062 1.46875,0.2812 0.65625,-0.1874 0.21875,-0.6563 -0.375,-0.5625 -0.21875,-0.062 -1.46875,-0.2813 z"
           id="path8743"
           inkscape:connector-curvature="0" />
        <path
           style="font-size:medium;font-style:normal;font-variant:normal;font-weight:normal;font-stretch:normal;text-indent:0;text-align:start;text-decoration:none;line-height:normal;letter-spacing:normal;word-spacing:normal;text-transform:none;direction:ltr;block-progression:tb;writing-mode:lr-tb;text-anchor:start;baseline-shift:baseline;color:#000000;fill:#000000;fill-opacity:1;stroke:none;stroke-width:1.5;marker:none;visibility:visible;display:inline;overflow:visible;enable-background:accumulate;font-family:Sans;-inkscape-font-specification:Sans"
           d="m 117.4375,1047.5449 -0.3125,0.5937 0.3125,0.625 0.1875,0.094 1.40625,0.4688 0.6875,-0.094 0.3125,-0.5938 -0.3125,-0.625 -0.1875,-0.094 -1.4375,-0.5 z m 4.25,1.4375 -0.3125,0.625 0.3125,0.5938 0.1875,0.094 1.4375,0.5 0.65625,-0.094 0.3125,-0.625 -0.3125,-0.5938 -0.1875,-0.094 -1.40625,-0.5 z m 4.25,1.4688 -0.3125,0.5937 0.3125,0.625 0.1875,0.094 1.4375,0.5 0.65625,-0.125 0.34375,-0.5937 -0.3125,-0.625 -0.21875,-0.094 -1.40625,-0.4688 z"
           id="path8745"
           inkscape:connector-curvature="0"
           sodipodi:nodetypes="ccccccccccccccccccccccccccccccccc" />
        <path
           sodipodi:type="arc"
           style="fill:#000000;fill-opacity:1;stroke:none"
           id="path8747"
           sodipodi:cx="-141.40599"
           sodipodi:cy="806.61224"
           sodipodi:rx="10.263338"
           sodipodi:ry="31.930384"
           d="m -131.14265,806.61224 c 0,17.63467 -4.59506,31.93039 -10.26334,31.93039 -5.66829,0 -10.26334,-14.29572 -10.26334,-31.93039 0,-17.63466 4.59505,-31.93038 10.26334,-31.93038 5.66828,0 10.26334,14.29572 10.26334,31.93038 z"
           transform="matrix(0.57009855,0,0.13871058,-0.25738258,102.47558,1249.6604)" />
      </g>
    </g>
  </g>
</svg>
