<?xml version="1.0" encoding="UTF-8" standalone="no"?>
<!-- Created with Inkscape (http://www.inkscape.org/) -->

<svg
   xmlns:dc="http://purl.org/dc/elements/1.1/"
   xmlns:cc="http://creativecommons.org/ns#"
   xmlns:rdf="http://www.w3.org/1999/02/22-rdf-syntax-ns#"
   xmlns:svg="http://www.w3.org/2000/svg"
   xmlns="http://www.w3.org/2000/svg"
   xmlns:sodipodi="http://sodipodi.sourceforge.net/DTD/sodipodi-0.dtd"
   xmlns:inkscape="http://www.inkscape.org/namespaces/inkscape"
   width="1000"
   height="1000"
   id="svg3278"
   version="1.1"
   inkscape:version="0.48.2 r9819"
   sodipodi:docname="panel_layer.svg">
  <defs
     id="defs3280" />
  <sodipodi:namedview
     id="base"
     pagecolor="#ffffff"
     bordercolor="#666666"
     borderopacity="1.0"
     inkscape:pageopacity="0.0"
     inkscape:pageshadow="2"
     inkscape:zoom="0.28337563"
     inkscape:cx="-294.38015"
     inkscape:cy="491.42857"
     inkscape:document-units="px"
     inkscape:current-layer="layer1"
     showgrid="false"
     inkscape:window-width="1402"
     inkscape:window-height="856"
     inkscape:window-x="38"
     inkscape:window-y="0"
     inkscape:window-maximized="1" />
  <metadata
     id="metadata3283">
    <rdf:RDF>
      <cc:Work
         rdf:about="">
        <dc:format>image/svg+xml</dc:format>
        <dc:type
           rdf:resource="http://purl.org/dc/dcmitype/StillImage" />
        <dc:title></dc:title>
      </cc:Work>
    </rdf:RDF>
  </metadata>
  <g
     inkscape:label="Layer 1"
     inkscape:groupmode="layer"
     id="layer1"
     transform="translate(0,-52.362183)">
    <g
       style="display:inline"
       id="g4614"
       transform="matrix(41.547373,0,0,41.547373,-6665.6171,-33605.14)"
       inkscape:export-filename="/Users/chyu/Desktop/panels.png"
       inkscape:export-xdpi="300"
       inkscape:export-ydpi="300">
      <rect
         y="810.13385"
         x="160.4686"
         height="24"
         width="24"
         id="rect4612"
         style="fill:none;stroke:none" />
      <g
         transform="matrix(0.20968218,0,0,0.20968218,77.631972,647.66306)"
         id="g4592">
        <path
           style="fill:none;stroke:#000000;stroke-width:9.5382452"
           d="m 414.10454,785.4696 76.36591,0 c 5.8668,0 10.58988,5.15331 10.58988,11.55451 l 0,70.09691 c 0,6.4012 -4.72308,11.55451 -10.58988,11.55451 l -76.36591,0 c -5.86681,0 -10.5899,-5.15331 -10.5899,-11.55451 l 0,-70.09691 c 0,-6.4012 4.72309,-11.55451 10.5899,-11.55451 z"
           id="rect4546"
           inkscape:connector-curvature="0" />
        <g
           id="g4582"
           transform="translate(1.2952101e-5,0.05661858)">
          <g
             transform="translate(0,8.6657781)"
             id="g4568">
            <path
               style="fill:#000000;fill-rule:evenodd;stroke:none"
               d="m 134.96875,6.78125 c 0.18677,0.4403175 0.3125,0.9304114 0.3125,1.4375 0,0.4376379 -0.10884,0.8600557 -0.25,1.25 l 2.15625,0 0,-2.6875 z"
               transform="matrix(4.7691225,0,0,4.7691225,-163.91524,766.11536)"
               id="rect4548"
               inkscape:connector-curvature="0"
               sodipodi:nodetypes="cscccc" />
            <path
               style="font-size:medium;font-style:normal;font-variant:normal;font-weight:normal;font-stretch:normal;text-indent:0;text-align:start;text-decoration:none;line-height:normal;letter-spacing:normal;word-spacing:normal;text-transform:none;direction:ltr;block-progression:tb;writing-mode:lr-tb;text-anchor:start;baseline-shift:baseline;color:#000000;fill:#000000;fill-opacity:1;fill-rule:nonzero;stroke:none;stroke-width:4.7691226;marker:none;visibility:visible;display:inline;overflow:visible;enable-background:accumulate;font-family:Sans;-inkscape-font-specification:Sans"
               d="m 463.625,792.5 c 7.09606,0 12.78125,5.71645 12.78125,12.8125 0,7.09606 -5.68519,12.78125 -12.78125,12.78125 -7.09604,0 -12.8125,-5.68519 -12.8125,-12.78125 0,-7.09605 5.71646,-12.8125 12.8125,-12.8125 z"
               id="path4554"
               inkscape:connector-curvature="0"
               sodipodi:nodetypes="sssss" />
            <path
               id="path15323"
               transform="matrix(4.7691225,0,0,4.7691225,-163.91524,766.11536)"
               d="m 121.21875,6.78125 0,2.6875 6.90625,0 c -0.14116,-0.3899443 -0.21875,-0.8123621 -0.21875,-1.25 0,-0.5070886 0.0945,-0.9971825 0.28125,-1.4375 z"
               style="fill:#000000;fill-rule:evenodd;stroke:none"
               inkscape:connector-curvature="0"
               sodipodi:nodetypes="cccscc" />
          </g>
          <g
             transform="translate(0,5.99878)"
             id="g4564" />
          <g
             id="g4847"
             transform="translate(0,46.003751)">
            <path
               style="fill:#000000;fill-rule:evenodd;stroke:none"
               d="m 130.40625,14.625 c 0.18677,0.440318 0.28125,0.930411 0.28125,1.4375 0,0.448103 -0.0711,0.852221 -0.21875,1.25 l 6.71875,0 0,-2.6875 z"
               transform="matrix(4.7691225,0,0,4.7691225,-163.91524,728.77739)"
               id="path4849"
               inkscape:connector-curvature="0"
               sodipodi:nodetypes="cscccc" />
            <path
               style="font-size:medium;font-style:normal;font-variant:normal;font-weight:normal;font-stretch:normal;text-indent:0;text-align:start;text-decoration:none;line-height:normal;letter-spacing:normal;word-spacing:normal;text-transform:none;direction:ltr;block-progression:tb;writing-mode:lr-tb;text-anchor:start;baseline-shift:baseline;color:#000000;fill:#000000;fill-opacity:1;fill-rule:nonzero;stroke:none;stroke-width:4.7691226;marker:none;visibility:visible;display:inline;overflow:visible;enable-background:accumulate;font-family:Sans;-inkscape-font-specification:Sans"
               d="m 441.84375,792.5 c 7.09606,0 12.78125,5.71645 12.78125,12.8125 0,7.09606 -5.68519,12.78125 -12.78125,12.78125 -7.09604,0 -12.8125,-5.68519 -12.8125,-12.78125 0,-7.09605 5.71646,-12.8125 12.8125,-12.8125 z"
               id="path4851"
               inkscape:connector-curvature="0"
               sodipodi:nodetypes="sssss" />
            <path
               id="path15321"
               transform="matrix(4.7691225,0,0,4.7691225,-163.91524,728.77739)"
               d="m 121.21875,14.625 0,2.6875 2.34375,0 c -0.14767,-0.397779 -0.21875,-0.801897 -0.21875,-1.25 0,-0.507089 0.0945,-0.997182 0.28125,-1.4375 z"
               style="fill:#000000;fill-rule:evenodd;stroke:none"
               inkscape:connector-curvature="0"
               sodipodi:nodetypes="cccscc" />
          </g>
        </g>
      </g>
    </g>
  </g>
</svg>
