<?xml version="1.0" encoding="UTF-8" standalone="no"?>
<!-- Created with Inkscape (http://www.inkscape.org/) -->

<svg
   xmlns:dc="http://purl.org/dc/elements/1.1/"
   xmlns:cc="http://creativecommons.org/ns#"
   xmlns:rdf="http://www.w3.org/1999/02/22-rdf-syntax-ns#"
   xmlns:svg="http://www.w3.org/2000/svg"
   xmlns="http://www.w3.org/2000/svg"
   xmlns:sodipodi="http://sodipodi.sourceforge.net/DTD/sodipodi-0.dtd"
   xmlns:inkscape="http://www.inkscape.org/namespaces/inkscape"
   width="1000"
   height="1000"
   id="svg3278"
   version="1.1"
   inkscape:version="0.48.2 r9819"
   sodipodi:docname="panel_parameter.svg">
  <defs
     id="defs3280" />
  <sodipodi:namedview
     id="base"
     pagecolor="#ffffff"
     bordercolor="#666666"
     borderopacity="1.0"
     inkscape:pageopacity="0.0"
     inkscape:pageshadow="2"
     inkscape:zoom="0.28337563"
     inkscape:cx="-328.43453"
     inkscape:cy="491.42857"
     inkscape:document-units="px"
     inkscape:current-layer="layer1"
     showgrid="false"
     inkscape:window-width="1402"
     inkscape:window-height="856"
     inkscape:window-x="38"
     inkscape:window-y="0"
     inkscape:window-maximized="1" />
  <metadata
     id="metadata3283">
    <rdf:RDF>
      <cc:Work
         rdf:about="">
        <dc:format>image/svg+xml</dc:format>
        <dc:type
           rdf:resource="http://purl.org/dc/dcmitype/StillImage" />
        <dc:title></dc:title>
      </cc:Work>
    </rdf:RDF>
  </metadata>
  <g
     inkscape:label="Layer 1"
     inkscape:groupmode="layer"
     id="layer1"
     transform="translate(0,-52.362183)">
    <g
       style="display:inline"
       id="g8486"
       transform="matrix(41.547373,0,0,41.547373,-23288.093,-11333.436)"
       inkscape:export-filename="/Users/chyu/Desktop/panels.png"
       inkscape:export-xdpi="300"
       inkscape:export-ydpi="300">
      <g
         id="g8493"
         transform="translate(-5.8244629,-0.3774305)">
        <g
           transform="matrix(1.0420658,0,0,1.0420658,25.0571,-682.52639)"
           id="g3835"
           style="fill:#555753;display:inline" />
        <g
           id="g6493"
           transform="translate(-3.1577835,-0.62744515)">
          <rect
             y="275.0831"
             x="569.50128"
             height="24"
             width="24"
             id="rect8106"
             style="fill:none;stroke:none;display:inline" />
          <g
             transform="matrix(1.0420658,0,0,1.0420658,25.193263,-682.54943)"
             id="g6486"
             style="fill:#555753;display:inline">
            <path
               inkscape:connector-curvature="0"
               style="font-size:medium;font-style:normal;font-variant:normal;font-weight:normal;font-stretch:normal;text-indent:0;text-align:start;text-decoration:none;line-height:normal;letter-spacing:normal;word-spacing:normal;text-transform:none;direction:ltr;block-progression:tb;writing-mode:lr-tb;text-anchor:start;baseline-shift:baseline;color:#000000;fill:#000000;fill-opacity:1;stroke:none;stroke-width:1.85651338;marker:none;visibility:visible;display:inline;overflow:visible;enable-background:accumulate;font-family:Sans;-inkscape-font-specification:Sans"
               d="m 99.537005,435.60752 0,-15.54502 1.156255,0 -2.093755,-3.3125 -2.09375,3.3125 1.125,0 0,15.54502 z"
               transform="matrix(0.9596323,0,0,0.9596323,430.54688,519.9088)"
               id="path3484"
               sodipodi:nodetypes="cccccccc" />
            <path
               style="font-size:medium;font-style:normal;font-variant:normal;font-weight:normal;font-stretch:normal;text-indent:0;text-align:start;text-decoration:none;line-height:normal;letter-spacing:normal;word-spacing:normal;text-transform:none;direction:ltr;block-progression:tb;writing-mode:lr-tb;text-anchor:start;baseline-shift:baseline;color:#000000;fill:#000000;fill-opacity:1;stroke:none;stroke-width:3.71302676;marker:none;visibility:visible;display:inline;overflow:visible;enable-background:accumulate;font-family:Sans;-inkscape-font-specification:Sans"
               d="m 544.67093,919.73432 c -2.15389,-0.0279 -3.93449,1.96805 -4.5456,3.42193 -0.61111,1.45388 -0.87,3.02083 -1.15757,4.5 -0.28756,1.47917 -0.59771,2.86644 -0.98733,3.65625 -0.38962,0.78981 -0.44443,0.82757 -0.8852,0.84375 -1.7631,0.0647 -2.57033,-0.71244 -3.8472,-1.96875 -0.63844,-0.62815 -1.29649,-1.34981 -2.213,-2 -0.9165,-0.65019 -2.21438,-1.22515 -3.67697,-1.15625 -2.46688,0.11621 -3.78581,1.1703 -4.79169,2.21891 l 0.008,4.40764 1.43043,0.061 c 0,0 0.30246,-0.77413 0.91925,-1.5625 0.61678,-0.78837 1.58829,-1.36569 2.60471,-1.40625 0.36525,-0.0146 0.56569,0.0517 1.02138,0.375 0.4557,0.32328 1.03435,0.90306 1.73635,1.59375 1.40399,1.38137 3.64225,3.24752 6.97944,3.125 2.10937,-0.0774 3.68016,-1.55712 4.39194,-3 0.71179,-1.44288 1.00133,-3.02711 1.29375,-4.53125 0.29243,-1.50414 0.57851,-2.92086 0.95329,-3.8125 0.37478,-0.89164 0.53264,-0.96552 0.78306,-1 z"
               id="path3446-8"
               inkscape:connector-curvature="0"
               sodipodi:nodetypes="cssscssscccsccscssscc" />
            <path
               id="path6478"
               transform="matrix(0.9596323,0,0,0.9596323,430.54688,519.9088)"
               d="m 97.5625,436.52499 0,1.9375 18.9375,0 0,1 3.21875,-2.03125 -3.21875,-2.03125 0,1.125 z"
               style="font-size:medium;font-style:normal;font-variant:normal;font-weight:normal;font-stretch:normal;text-indent:0;text-align:start;text-decoration:none;line-height:normal;letter-spacing:normal;word-spacing:normal;text-transform:none;direction:ltr;block-progression:tb;writing-mode:lr-tb;text-anchor:start;baseline-shift:baseline;color:#000000;fill:#000000;fill-opacity:1;stroke:none;stroke-width:1.85651338;marker:none;visibility:visible;display:inline;overflow:visible;enable-background:accumulate;font-family:Sans;-inkscape-font-specification:Sans"
               inkscape:connector-curvature="0"
               sodipodi:nodetypes="cccccccc" />
          </g>
        </g>
      </g>
    </g>
  </g>
</svg>
