<?xml version="1.0" encoding="UTF-8" standalone="no"?>
<!-- Created with Inkscape (http://www.inkscape.org/) -->

<svg
   xmlns:dc="http://purl.org/dc/elements/1.1/"
   xmlns:cc="http://creativecommons.org/ns#"
   xmlns:rdf="http://www.w3.org/1999/02/22-rdf-syntax-ns#"
   xmlns:svg="http://www.w3.org/2000/svg"
   xmlns="http://www.w3.org/2000/svg"
   xmlns:sodipodi="http://sodipodi.sourceforge.net/DTD/sodipodi-0.dtd"
   xmlns:inkscape="http://www.inkscape.org/namespaces/inkscape"
   width="1000"
   height="1000"
   id="svg3278"
   version="1.1"
   inkscape:version="0.48.2 r9819"
   sodipodi:docname="panel_nevigator.svg">
  <defs
     id="defs3280" />
  <sodipodi:namedview
     id="base"
     pagecolor="#ffffff"
     bordercolor="#666666"
     borderopacity="1.0"
     inkscape:pageopacity="0.0"
     inkscape:pageshadow="2"
     inkscape:zoom="0.28337563"
     inkscape:cx="-328.43453"
     inkscape:cy="491.42857"
     inkscape:document-units="px"
     inkscape:current-layer="layer1"
     showgrid="false"
     inkscape:window-width="1402"
     inkscape:window-height="856"
     inkscape:window-x="38"
     inkscape:window-y="0"
     inkscape:window-maximized="1" />
  <metadata
     id="metadata3283">
    <rdf:RDF>
      <cc:Work
         rdf:about="">
        <dc:format>image/svg+xml</dc:format>
        <dc:type
           rdf:resource="http://purl.org/dc/dcmitype/StillImage" />
        <dc:title></dc:title>
      </cc:Work>
    </rdf:RDF>
  </metadata>
  <g
     inkscape:label="Layer 1"
     inkscape:groupmode="layer"
     id="layer1"
     transform="translate(0,-52.362183)">
    <g
       style="display:inline"
       transform="matrix(41.547373,0,0,41.547373,-22671.893,-14755.481)"
       id="g3791"
       inkscape:export-filename="/Users/chyu/Desktop/panels.png"
       inkscape:export-xdpi="300"
       inkscape:export-ydpi="300">
      <rect
         style="fill:none;stroke:none;display:inline"
         id="rect3793"
         width="24"
         height="24"
         x="545.72223"
         y="356.44312"
         ry="0" />
      <g
         id="g3816"
         transform="translate(-12.653207,0.21010476)">
        <path
           inkscape:connector-curvature="0"
           style="fill:#000000;stroke:none"
           d="M 21.15625,-1.5625 9.625,-1.53125 9.625,2 18.34375,2 c -0.2428,4.73338 -1.26017,8.97419 -2.78125,12 -1.518519,3.02071 -4.09086,4.643606 -5.9375,5 l 0,2.75 c 8.231315,-0.409685 10.482627,-8.111424 11.0625,-11.8125 0.59702,-3.81052 0.49459,-7.92444 0.46875,-11.5 z M 8.125,-1.5 C 2.0755405,-1.1083387 -2.7270011,3.8698496 -2.71875,9.96875 -2.7109951,16.123606 -0.088134,21.401644 8.125,21.75 l 0,-2.71875 c -4.4088108,-0.379737 -7.84375,-4.011993 -7.84375,-8.5 0,-4.481896 3.4434072,-8.1125867 7.84375,-8.5 l 0,-3.53125 z"
           transform="translate(561.09419,358.2968)"
           id="path3803" />
        <path
           style="font-size:medium;font-style:normal;font-variant:normal;font-weight:normal;font-stretch:normal;text-indent:0;text-align:start;text-decoration:none;line-height:normal;letter-spacing:normal;word-spacing:normal;text-transform:none;direction:ltr;block-progression:tb;writing-mode:lr-tb;text-anchor:start;baseline-shift:baseline;color:#000000;fill:none;stroke:none;stroke-width:1;marker:none;visibility:visible;display:inline;overflow:visible;enable-background:accumulate;font-family:Sans;-inkscape-font-specification:Sans"
           d="m 569.89936,360.29072 0.0886,0 9.45767,0 c -0.2428,4.73338 -1.2667,8.98782 -2.78778,12.01363 -1.73545,3.45224 -4.83415,5.06763 -6.66989,5.06763 -4.76889,0 -8.60508,-3.80099 -8.60508,-8.54463 0,-4.71344 3.78987,-8.48867 8.51646,-8.53663 z"
           id="path3795"
           inkscape:connector-curvature="0"
           sodipodi:nodetypes="cccssscc"
           inkscape:transform-center-x="-0.917042"
           inkscape:transform-center-y="0.60471455" />
        <path
           style="fill:#000000;fill-rule:evenodd;stroke:none"
           d="m 573.55827,362.98699 c -0.13636,0.0603 -0.29512,0.13624 -0.40395,0.25134 l -1.9814,2.16506 c -0.67801,-0.2891 -1.43519,-0.39245 -2.19161,-0.1652 -0.88368,0.2655 -1.55317,0.90151 -1.93848,1.66615 l -1.30259,0.0615 c -0.87471,0.028 -1.55429,0.71785 -1.52609,1.58559 0.0282,0.86773 0.76361,1.52989 1.63831,1.50187 l 1.31472,-0.0218 c 0.75412,1.20857 2.26148,1.79149 3.69292,1.36143 1.70486,-0.51222 2.66501,-2.29223 2.14872,-3.9835 -0.0484,-0.15878 -0.11516,-0.31913 -0.18541,-0.4645 l 2.03357,-2.1373 c 0.43529,-0.4606 0.40395,-1.19738 -0.0603,-1.62917 -0.34822,-0.32387 -0.82922,-0.37211 -1.2383,-0.19151 z"
           id="path3799"
           inkscape:connector-curvature="0"
           inkscape:transform-center-y="-1.2042044"
           sodipodi:nodetypes="cccsccsccssccscc"
           inkscape:transform-center-x="0.32999614" />
        <path
           sodipodi:type="arc"
           style="fill:#eeeeec;stroke:none"
           id="path3801"
           sodipodi:cx="591.97955"
           sodipodi:cy="357.76077"
           sodipodi:rx="1.1866921"
           sodipodi:ry="0.73341602"
           d="m 593.16625,357.76077 c 0,0.40506 -0.5313,0.73342 -1.1867,0.73342 -0.65539,0 -1.18669,-0.32836 -1.18669,-0.73342 0,-0.40505 0.5313,-0.73341 1.18669,-0.73341 0.6554,0 1.1867,0.32836 1.1867,0.73341 z"
           transform="matrix(1.3338219,-0.00180719,0.00290082,2.1410007,-220.65229,-396.66468)" />
      </g>
    </g>
  </g>
</svg>
