<?xml version="1.0" encoding="UTF-8" standalone="no"?>
<!-- Created with Inkscape (http://www.inkscape.org/) -->

<svg
   xmlns:dc="http://purl.org/dc/elements/1.1/"
   xmlns:cc="http://creativecommons.org/ns#"
   xmlns:rdf="http://www.w3.org/1999/02/22-rdf-syntax-ns#"
   xmlns:svg="http://www.w3.org/2000/svg"
   xmlns="http://www.w3.org/2000/svg"
   xmlns:sodipodi="http://sodipodi.sourceforge.net/DTD/sodipodi-0.dtd"
   xmlns:inkscape="http://www.inkscape.org/namespaces/inkscape"
   width="1000"
   height="1000"
   id="svg3278"
   version="1.1"
   inkscape:version="0.48.2 r9819"
   sodipodi:docname="panel_graph.svg">
  <defs
     id="defs3280" />
  <sodipodi:namedview
     id="base"
     pagecolor="#ffffff"
     bordercolor="#666666"
     borderopacity="1.0"
     inkscape:pageopacity="0.0"
     inkscape:pageshadow="2"
     inkscape:zoom="0.28337563"
     inkscape:cx="-328.43453"
     inkscape:cy="491.42857"
     inkscape:document-units="px"
     inkscape:current-layer="layer1"
     showgrid="false"
     inkscape:window-width="1402"
     inkscape:window-height="856"
     inkscape:window-x="38"
     inkscape:window-y="0"
     inkscape:window-maximized="1" />
  <metadata
     id="metadata3283">
    <rdf:RDF>
      <cc:Work
         rdf:about="">
        <dc:format>image/svg+xml</dc:format>
        <dc:type
           rdf:resource="http://purl.org/dc/dcmitype/StillImage" />
        <dc:title></dc:title>
      </cc:Work>
    </rdf:RDF>
  </metadata>
  <g
     inkscape:label="Layer 1"
     inkscape:groupmode="layer"
     id="layer1"
     transform="translate(0,-52.362183)">
    <g
       style="display:inline"
       id="g5145"
       transform="matrix(41.547373,0,0,41.547373,7549.777,-24688.435)"
       inkscape:export-filename="/Users/chyu/Desktop/panels.png"
       inkscape:export-xdpi="300"
       inkscape:export-ydpi="300">
      <rect
         y="595.51849"
         x="-181.68045"
         height="24"
         width="24"
         id="rect5136"
         style="fill:none;stroke:none" />
      <g
         transform="matrix(0.20220365,0,0,0.20220365,-136.30099,495.28573)"
         id="g5138">
        <path
           style="font-size:medium;font-style:normal;font-variant:normal;font-weight:normal;font-stretch:normal;text-indent:0;text-align:start;text-decoration:none;line-height:normal;letter-spacing:normal;word-spacing:normal;text-transform:none;direction:ltr;block-progression:tb;writing-mode:lr-tb;text-anchor:start;baseline-shift:baseline;color:#000000;fill:#000000;fill-opacity:1;fill-rule:nonzero;stroke:none;stroke-width:9.89101791;marker:none;visibility:visible;display:inline;overflow:visible;enable-background:accumulate;font-family:Sans;-inkscape-font-specification:Sans"
           d="m 168.28125,0.0625 c -6.58875,0 -11.96875,5.3481301 -11.96875,11.9375 0,6.58937 5.37938,11.9375 11.96875,11.9375 6.58937,0 11.9375,-5.34875 11.9375,-11.9375 0,-6.5887599 -5.34874,-11.9375 -11.9375,-11.9375 z m 0,3.5 c 4.64965,0 8.40625,3.78785 8.40625,8.4375 0,4.64965 -3.75616,8.4375 -8.40625,8.4375 -4.65008,0 -8.4375,-3.78742 -8.4375,-8.4375 0,-4.65009 3.78785,-8.4375 8.4375,-8.4375 z"
           transform="matrix(4.9455091,0,0,4.9455091,-997.28714,495.69649)"
           id="path5680"
           inkscape:connector-curvature="0" />
        <g
           id="g5127"
           transform="matrix(0.80713802,-0.39274806,0.39274806,0.80713802,-249.83622,42.214496)">
          <path
             sodipodi:nodetypes="cccc"
             inkscape:connector-curvature="0"
             id="rect4300"
             d="m -165.0811,536.31763 44.78043,18.74139 -44.78043,18.74138 z"
             style="fill:#000000;fill-rule:evenodd;stroke:none" />
          <path
             style="fill:#000000;fill-rule:evenodd;stroke:none"
             d="m -165.0811,536.31763 0,37.48277 -44.78043,-18.74138 z"
             id="path5125"
             inkscape:connector-curvature="0"
             sodipodi:nodetypes="cccc" />
          <path
             transform="matrix(11.770224,0,0,11.770224,1764.1063,-5974.6464)"
             style="fill:#eeeeec;stroke:none"
             d="m -163.31553,554.76477 c 0,0.32503 -0.26349,0.58852 -0.58852,0.58852 -0.32504,0 -0.58853,-0.26349 -0.58853,-0.58852 0,-0.32503 0.26349,-0.58852 0.58853,-0.58852 0.32503,0 0.58852,0.26349 0.58852,0.58852 z"
             id="path4307"
             inkscape:connector-curvature="0" />
        </g>
      </g>
    </g>
  </g>
</svg>
