<?xml version="1.0" encoding="UTF-8" standalone="no"?>
<!-- Created with Inkscape (http://www.inkscape.org/) -->

<svg
   xmlns:dc="http://purl.org/dc/elements/1.1/"
   xmlns:cc="http://creativecommons.org/ns#"
   xmlns:rdf="http://www.w3.org/1999/02/22-rdf-syntax-ns#"
   xmlns:svg="http://www.w3.org/2000/svg"
   xmlns="http://www.w3.org/2000/svg"
   xmlns:sodipodi="http://sodipodi.sourceforge.net/DTD/sodipodi-0.dtd"
   xmlns:inkscape="http://www.inkscape.org/namespaces/inkscape"
   width="1000"
   height="1000"
   id="svg3278"
   version="1.1"
   inkscape:version="0.48.2 r9819"
   sodipodi:docname="panel_timetrack.svg">
  <defs
     id="defs3280" />
  <sodipodi:namedview
     id="base"
     pagecolor="#ffffff"
     bordercolor="#666666"
     borderopacity="1.0"
     inkscape:pageopacity="0.0"
     inkscape:pageshadow="2"
     inkscape:zoom="0.28337563"
     inkscape:cx="-328.43453"
     inkscape:cy="491.42857"
     inkscape:document-units="px"
     inkscape:current-layer="layer1"
     showgrid="false"
     inkscape:window-width="1402"
     inkscape:window-height="856"
     inkscape:window-x="38"
     inkscape:window-y="0"
     inkscape:window-maximized="1" />
  <metadata
     id="metadata3283">
    <rdf:RDF>
      <cc:Work
         rdf:about="">
        <dc:format>image/svg+xml</dc:format>
        <dc:type
           rdf:resource="http://purl.org/dc/dcmitype/StillImage" />
        <dc:title></dc:title>
      </cc:Work>
    </rdf:RDF>
  </metadata>
  <g
     inkscape:label="Layer 1"
     inkscape:groupmode="layer"
     id="layer1"
     transform="translate(0,-52.362183)">
    <g
       style="display:inline"
       id="g3378"
       transform="matrix(8.1752791,0,0,8.1348772,2069.2865,-4176.5379)">
      <rect
         style="fill:none;stroke:none;display:inline"
         id="rect5445"
         width="24"
         height="24"
         x="-326.34177"
         y="559.96704"
         transform="matrix(5.079597,0,0,5.1068329,1404.7744,-2339.6283)" />
      <g
         transform="translate(-218.56045,-21.916435)"
         id="g3357">
        <g
           transform="matrix(1.0441355,-0.00202442,0.0028173,1.0049224,226.85525,17.320249)"
           id="g3150"
           inkscape:transform-center-x="-8.7471"
           inkscape:transform-center-y="-0.076984698">
          <path
             style="fill:#eeeeec;fill-rule:evenodd;stroke:none"
             d="m 300,20.40625 -7.0625,0.03125 -6.09375,5.5 -0.875,0.78125 -1.125,1.03125 c -0.16597,0.150022 -0.34176,0.24607 -0.53125,0.34375 l 15.71875,-0.03125 c 0.63502,-0.0012 1.12877,-1.068304 1.125,-2.40625 l 0,-2.84375 C 301.15248,21.474554 300.63502,20.405025 300,20.40625 z"
             transform="matrix(4.8672289,0.00980505,-0.01371305,5.0822693,-1601.7772,497.01462)"
             id="path3152"
             inkscape:connector-curvature="0"
             sodipodi:nodetypes="cccccccccc" />
          <path
             inkscape:connector-curvature="0"
             style="font-size:medium;font-style:normal;font-variant:normal;font-weight:normal;font-stretch:normal;text-indent:0;text-align:start;text-decoration:none;line-height:normal;letter-spacing:normal;word-spacing:normal;text-transform:none;direction:ltr;block-progression:tb;writing-mode:lr-tb;text-anchor:start;baseline-shift:baseline;color:#000000;fill:#000000;fill-opacity:1;fill-rule:evenodd;stroke:none;stroke-width:3.73020053;marker:none;visibility:visible;display:inline;overflow:visible;enable-background:accumulate;font-family:Sans;-inkscape-font-specification:Sans"
             d="m 294.3125,20.40625 0.0312,7.65625 4.28125,0 0,-7.65625 -4.3125,0 z"
             transform="matrix(4.8672289,0.00980505,-0.01371305,5.0822693,-1601.7772,497.01462)"
             id="path3154" />
          <path
             inkscape:connector-curvature="0"
             style="font-size:medium;font-style:normal;font-variant:normal;font-weight:normal;font-stretch:normal;text-indent:0;text-align:start;text-decoration:none;line-height:normal;letter-spacing:normal;word-spacing:normal;text-transform:none;direction:ltr;block-progression:tb;writing-mode:lr-tb;text-anchor:start;baseline-shift:baseline;color:#000000;fill:#000000;fill-opacity:1;fill-rule:evenodd;stroke:none;stroke-width:3.73020053;marker:none;visibility:visible;display:inline;overflow:visible;enable-background:accumulate;font-family:Sans;-inkscape-font-specification:Sans"
             d="m 291.90625,21.375 -4.3125,3.875 0.0312,2.84375 4.3125,0 -0.0312,-6.71875 z"
             transform="matrix(4.8672289,0.00980505,-0.01371305,5.0822693,-1601.7772,497.01462)"
             id="path3156" />
          <path
             inkscape:connector-curvature="0"
             style="font-size:medium;font-style:normal;font-variant:normal;font-weight:normal;font-stretch:normal;text-indent:0;text-align:start;text-decoration:none;line-height:normal;letter-spacing:normal;word-spacing:normal;text-transform:none;direction:ltr;block-progression:tb;writing-mode:lr-tb;text-anchor:start;baseline-shift:baseline;color:#000000;fill:#000000;fill-opacity:1;fill-rule:evenodd;stroke:none;stroke-width:1;marker:none;visibility:visible;display:inline;overflow:visible;enable-background:accumulate;font-family:Sans;-inkscape-font-specification:Sans"
             d="m 300,20.40625 -7.0625,0.03125 -6.09375,5.5 -0.875,0.78125 -1.125,1.03125 c -0.16597,0.150022 -0.34176,0.24607 -0.53125,0.34375 l 15.71875,-0.03125 c 0.63502,-0.0012 1.12877,-1.068304 1.125,-2.40625 l 0,-2.84375 C 301.15248,21.474554 300.63502,20.405025 300,20.40625 z m 0,0.5 c 0.0365,-7e-5 0.20889,0.06129 0.375,0.40625 0.16611,0.344964 0.27955,0.89511 0.28125,1.5 l 0,2.84375 c 0.002,0.607094 -0.12093,1.156002 -0.28125,1.5 -0.16032,0.343998 -0.30606,0.406179 -0.34375,0.40625 l -14.25,0.03125 0.53125,-0.5 0.875,-0.78125 5.96875,-5.375 L 300,20.90625 z"
             transform="matrix(4.8672289,0.00980505,-0.01371305,5.0822693,-1601.7772,497.01462)"
             id="path3341" />
        </g>
        <g
           inkscape:transform-center-y="-6.1317542"
           transform="matrix(0.774596,-0.70363736,0.67119493,0.74490838,-252.15106,16.437216)"
           id="g3236"
           inkscape:transform-center-x="-6.7887245">
          <path
             inkscape:connector-curvature="0"
             style="fill:#eeeeec;fill-rule:evenodd;stroke:none"
             d="M 293.125,8.84375 C 292.94144,8.8452 292.80527,8.893545 292.6875,9 l -5.25,4.75 -0.84375,8.15625 -0.125,1.1875 -0.15625,1.5 c -0.022,0.213293 -0.0858,0.401701 -0.15625,0.59375 L 297.8125,14.65625 c 0.47109,-0.42582 0.11681,-1.570735 -0.78125,-2.5625 L 295.15625,10 C 294.4827,9.2561759 293.67569,8.8394105 293.125,8.84375 z"
             transform="matrix(3.6078801,3.4079885,-3.2670025,3.7703012,-1168.4048,-427.63167)"
             id="path3238" />
          <path
             inkscape:connector-curvature="0"
             style="font-size:medium;font-style:normal;font-variant:normal;font-weight:normal;font-stretch:normal;text-indent:0;text-align:start;text-decoration:none;line-height:normal;letter-spacing:normal;word-spacing:normal;text-transform:none;direction:ltr;block-progression:tb;writing-mode:lr-tb;text-anchor:start;baseline-shift:baseline;color:#000000;fill:#000000;fill-opacity:1;fill-rule:evenodd;stroke:none;stroke-width:3.73020053;marker:none;visibility:visible;display:inline;overflow:visible;enable-background:accumulate;font-family:Sans;-inkscape-font-specification:Sans"
             d="m 294.3125,20.40625 0.0312,7.65625 4.28125,0 0,-7.65625 -4.3125,0 z"
             transform="matrix(4.8672289,0.00980505,-0.01371305,5.0822693,-1601.7772,497.01462)"
             id="path3240" />
          <path
             inkscape:connector-curvature="0"
             style="font-size:medium;font-style:normal;font-variant:normal;font-weight:normal;font-stretch:normal;text-indent:0;text-align:start;text-decoration:none;line-height:normal;letter-spacing:normal;word-spacing:normal;text-transform:none;direction:ltr;block-progression:tb;writing-mode:lr-tb;text-anchor:start;baseline-shift:baseline;color:#000000;fill:#000000;fill-opacity:1;fill-rule:evenodd;stroke:none;stroke-width:3.73020053;marker:none;visibility:visible;display:inline;overflow:visible;enable-background:accumulate;font-family:Sans;-inkscape-font-specification:Sans"
             d="m 287.28125,15.125 -0.59375,5.75 1.9375,2.125 3.1875,-2.90625 -4.53125,-4.96875 z"
             transform="matrix(3.6078801,3.4079885,-3.2670025,3.7703012,-1168.4048,-427.63167)"
             id="path3242" />
          <path
             inkscape:connector-curvature="0"
             style="font-size:medium;font-style:normal;font-variant:normal;font-weight:normal;font-stretch:normal;text-indent:0;text-align:start;text-decoration:none;line-height:normal;letter-spacing:normal;word-spacing:normal;text-transform:none;direction:ltr;block-progression:tb;writing-mode:lr-tb;text-anchor:start;baseline-shift:baseline;color:#000000;fill:#000000;fill-opacity:1;fill-rule:evenodd;stroke:none;stroke-width:1;marker:none;visibility:visible;display:inline;overflow:visible;enable-background:accumulate;font-family:Sans;-inkscape-font-specification:Sans"
             d="M 293.125,8.84375 C 292.94144,8.8452 292.80527,8.893545 292.6875,9 l -5.25,4.75 -0.84375,8.15625 -0.125,1.1875 -0.15625,1.5 c -0.022,0.213293 -0.0858,0.401701 -0.15625,0.59375 L 297.8125,14.65625 c 0.47109,-0.42582 0.11681,-1.570735 -0.78125,-2.5625 L 295.15625,10 C 294.4827,9.2561759 293.67569,8.8394105 293.125,8.84375 z m 0,0.5 c 0.2946,-0.00232 1.05371,0.3345914 1.65625,1 l 1.875,2.09375 c 0.40673,0.449171 0.69934,0.911807 0.8125,1.28125 0.11316,0.369441 0.0239,0.540884 0,0.5625 l -10.5625,9.5625 0.0625,-0.6875 0.125,-1.1875 0.8125,-7.96875 5.125,-4.625 c 0.0314,-0.028385 -0.004,-0.030476 0.0937,-0.03125 z"
             transform="matrix(3.6078801,3.4079885,-3.2670025,3.7703012,-1168.4048,-427.63167)"
             id="path3339" />
        </g>
        <g
           inkscape:transform-center-x="-0.97562727"
           id="g3288"
           transform="matrix(0.1071385,-1.0437845,0.99477278,0.10222721,-608.71008,337.89062)"
           inkscape:transform-center-y="-8.7528599">
          <path
             inkscape:connector-curvature="0"
             style="fill:#eeeeec;fill-rule:evenodd;stroke:none"
             d="m -230.75,603.6875 c -6.78805,0 -12.25,8.69843 -12.25,19.46875 0,10.77032 5.46195,19.4375 12.25,19.4375 l 7.6875,0 5.96875,0 80.25,0 c 3.24311,0 5.84375,-5.48141 5.84375,-12.28125 l 0,-14.34375 c 0,-6.79984 -2.60064,-12.28125 -5.84375,-12.28125 l -80.25,0 -5.96875,0 -7.6875,0 z"
             id="path3290"
             transform="matrix(0.95303383,0,0,1,-11.412466,0)" />
          <path
             id="path3292"
             transform="matrix(4.8672289,0.00980505,-0.01371305,5.0822693,-1601.7772,497.01462)"
             d="m 294.3125,20.40625 0.0312,7.65625 4.28125,0 0,-7.65625 -4.3125,0 z"
             style="font-size:medium;font-style:normal;font-variant:normal;font-weight:normal;font-stretch:normal;text-indent:0;text-align:start;text-decoration:none;line-height:normal;letter-spacing:normal;word-spacing:normal;text-transform:none;direction:ltr;block-progression:tb;writing-mode:lr-tb;text-anchor:start;baseline-shift:baseline;color:#000000;fill:#000000;fill-opacity:1;fill-rule:evenodd;stroke:none;stroke-width:3.73020053;marker:none;visibility:visible;display:inline;overflow:visible;enable-background:accumulate;font-family:Sans;-inkscape-font-specification:Sans"
             inkscape:connector-curvature="0" />
          <path
             id="path3294"
             transform="matrix(4.8672289,0.00980505,-0.01371305,5.0822693,-1601.7772,497.01462)"
             d="m 287.59375,20.4375 0.0312,7.65625 4.3125,0 -0.0312,-7.65625 -4.3125,0 z"
             style="font-size:medium;font-style:normal;font-variant:normal;font-weight:normal;font-stretch:normal;text-indent:0;text-align:start;text-decoration:none;line-height:normal;letter-spacing:normal;word-spacing:normal;text-transform:none;direction:ltr;block-progression:tb;writing-mode:lr-tb;text-anchor:start;baseline-shift:baseline;color:#000000;fill:#000000;fill-opacity:1;fill-rule:evenodd;stroke:none;stroke-width:3.73020053;marker:none;visibility:visible;display:inline;overflow:visible;enable-background:accumulate;font-family:Sans;-inkscape-font-specification:Sans"
             inkscape:connector-curvature="0" />
          <path
             inkscape:connector-curvature="0"
             style="fill:#000000;fill-rule:evenodd;stroke:none"
             d="m -230.75,603.6875 c -6.78805,0 -12.25,8.69843 -12.25,19.46875 0,10.77032 5.46195,19.4375 12.25,19.4375 l 13.65625,0 0,-38.90625 -13.65625,0 z"
             transform="matrix(0.95303383,0,0,1,-11.412466,0)"
             id="path3296" />
          <path
             transform="matrix(0.43591483,5.0614489,-4.8476888,0.4596687,-240.16004,-591.66812)"
             inkscape:connector-curvature="0"
             style="font-size:medium;font-style:normal;font-variant:normal;font-weight:normal;font-stretch:normal;text-indent:0;text-align:start;text-decoration:none;line-height:normal;letter-spacing:normal;word-spacing:normal;text-transform:none;direction:ltr;block-progression:tb;writing-mode:lr-tb;text-anchor:start;baseline-shift:baseline;color:#000000;fill:#000000;fill-opacity:1;fill-rule:evenodd;stroke:none;stroke-width:5.0946784;marker:none;visibility:visible;display:inline;overflow:visible;enable-background:accumulate;font-family:Sans;-inkscape-font-specification:Sans"
             d="m 237.65625,0.03125 c -0.87994,0.09455592 -1.51942,0.43193784 -1.5625,0.90625 l -1.4375,15.65625 -0.0937,1.15625 -0.15625,1.5 c -0.12021,1.32369 1.51432,2.560203 3.625,2.75 2.11068,0.189797 3.87979,-0.73881 4,-2.0625 l 0.15625,-1.5 0.0937,-1.15625 1.4375,-15.65625 c 0.0574,-0.63241621 -0.97993,-1.22392195 -2.3125,-1.34375 l -2.8125,-0.25 c -0.33314,-0.02995701 -0.64419,-0.0315186401 -0.9375,0 z m 0.0312,0.5 c 0.258,-0.02684 0.57368,-0.0270956 0.875,0 l 2.78125,0.25 c 0.60265,0.0541912 1.13786,0.21160479 1.46875,0.40625 0.33089,0.1946452 0.40955,0.3698985 0.40625,0.40625 l -1.4375,15.65625 -0.0937,1.15625 -0.15625,1.5 c -0.0409,0.450429 -0.34396,0.869962 -0.96875,1.1875 -0.62479,0.317538 -1.52905,0.49356 -2.5,0.40625 -0.97095,-0.08731 -1.81589,-0.419529 -2.375,-0.84375 -0.55911,-0.424219 -0.79084,-0.894085 -0.75,-1.34375 l 0.125,-1.5 0.0937,-1.1875 L 236.59375,1 c 0.003,-0.0363515 0.0769,-0.21128467 0.4375,-0.34375 0.1803,-0.0662327 0.39825,-0.09816 0.65625,-0.125 z"
             id="path3298" />
        </g>
        <path
           inkscape:connector-curvature="0"
           id="path3162"
           d="m -13.24575,650.32119 c -3.281553,0.30592 -6.18978,-2.1328 -6.495699,-5.44704 -0.305919,-3.31423 2.106314,-6.24895 5.387868,-6.55486 3.281563,-0.30592 6.1897904,2.1328 6.4957095,5.44703 0.3059187,3.31423 -2.1063147,6.24896 -5.3878785,6.55487 z"
           style="fill:#eeeeec;fill-opacity:1;stroke:none" />
        <path
           style="fill:#eeeeec;fill-opacity:1;stroke:none"
           d="m -13.24575,650.32119 c -3.281553,0.30592 -6.18978,-2.1328 -6.495699,-5.44704 -0.305919,-3.31423 2.106314,-6.24895 5.387868,-6.55486 3.281563,-0.30592 6.1897904,2.1328 6.4957095,5.44703 0.3059187,3.31423 -2.1063147,6.24896 -5.3878785,6.55487 z"
           id="path3196"
           inkscape:connector-curvature="0"
           inkscape:transform-center-x="0.001425548"
           inkscape:transform-center-y="0.081399187" />
      </g>
    </g>
  </g>
</svg>
