<?xml version="1.0" encoding="UTF-8" standalone="no"?>
<!-- Created with Inkscape (http://www.inkscape.org/) -->

<svg
   xmlns:dc="http://purl.org/dc/elements/1.1/"
   xmlns:cc="http://creativecommons.org/ns#"
   xmlns:rdf="http://www.w3.org/1999/02/22-rdf-syntax-ns#"
   xmlns:svg="http://www.w3.org/2000/svg"
   xmlns="http://www.w3.org/2000/svg"
   xmlns:sodipodi="http://sodipodi.sourceforge.net/DTD/sodipodi-0.dtd"
   xmlns:inkscape="http://www.inkscape.org/namespaces/inkscape"
   width="1000"
   height="1000"
   id="svg3446"
   version="1.1"
   inkscape:version="0.48.2 r9819"
   sodipodi:docname="toolbox_sketch.svg">
  <defs
     id="defs3448" />
  <sodipodi:namedview
     id="base"
     pagecolor="#ffffff"
     bordercolor="#666666"
     borderopacity="1.0"
     inkscape:pageopacity="0.0"
     inkscape:pageshadow="2"
     inkscape:zoom="0.24748737"
     inkscape:cx="391.67828"
     inkscape:cy="358.37559"
     inkscape:document-units="px"
     inkscape:current-layer="layer1"
     showgrid="false"
     inkscape:window-width="987"
     inkscape:window-height="754"
     inkscape:window-x="58"
     inkscape:window-y="20"
     inkscape:window-maximized="0"
     showguides="true"
     inkscape:guide-bbox="true" />
  <metadata
     id="metadata3451">
    <rdf:RDF>
      <cc:Work
         rdf:about="">
        <dc:format>image/svg+xml</dc:format>
        <dc:type
           rdf:resource="http://purl.org/dc/dcmitype/StillImage" />
        <dc:title></dc:title>
      </cc:Work>
    </rdf:RDF>
  </metadata>
  <g
     inkscape:label="Layer 1"
     inkscape:groupmode="layer"
     id="layer1"
     transform="translate(0,-52.362183)">
    <g
       style="display:inline"
       id="g15181"
       transform="matrix(41.476304,0,0,41.476304,7475.4175,-27403.963)"
       inkscape:export-filename="/Users/chyu/Desktop/tools-0.png"
       inkscape:export-xdpi="74.745888"
       inkscape:export-ydpi="74.745888">
      <rect
         y="661.98126"
         x="-180.22838"
         height="24.1"
         width="24.1"
         id="rect15179"
         style="fill:none;stroke:none" />
      <g
         id="g15174">
        <path
           style="fill:#000000;fill-rule:evenodd;stroke:none"
           d="m 102.6875,547.28125 c -0.0756,0.33332 -0.0625,0.66663 -0.0937,0.99995 l 0.0625,5.125 c 0.30827,0.40422 0.53125,0.86497 0.53125,1.40625 0,1.30417 -1.07083,2.40625 -2.375,2.40625 -1.30417,0 -2.40625,-1.09344 -2.40625,-2.40625 0,-0.55072 0.25126,-1.00518 0.5625,-1.40625 l -0.03125,-2.78125 -5.0625,4.4375 10.84375,12.3125 8.8125,-7.78125 z"
           transform="translate(-269.7351,118.66755)"
           id="rect15117"
           inkscape:connector-curvature="0"
           sodipodi:nodetypes="cccssscccccc" />
        <path
           style="font-size:medium;font-style:normal;font-variant:normal;font-weight:normal;font-stretch:normal;text-indent:0;text-align:start;text-decoration:none;line-height:normal;letter-spacing:normal;word-spacing:normal;text-transform:none;direction:ltr;block-progression:tb;writing-mode:lr-tb;text-anchor:start;baseline-shift:baseline;color:#000000;fill:#000000;fill-opacity:1;stroke:none;stroke-width:2;marker:none;visibility:visible;display:inline;overflow:visible;enable-background:accumulate;font-family:Sans;-inkscape-font-specification:Sans"
           d="m 103.5625,543.375 c -0.91598,0.0349 -1.82185,0.34879 -2.5,1.09375 -0.77503,0.85137 -1.17244,2.14658 -1.15625,3.8125 l 0.0625,5.40625 c -0.33476,0.25429 -0.5625,0.67218 -0.5625,1.125 0,0.76896 0.60604,1.375 1.375,1.375 0.76896,0 1.40625,-0.60604 1.40625,-1.375 0,-0.452 -0.22877,-0.87064 -0.5625,-1.125 l -0.0625,-5.40625 c -0.0128,-1.32145 0.28819,-2.03317 0.65625,-2.4375 0.36807,-0.40432 0.91572,-0.59754 1.65625,-0.5625 0.74064,0.035 1.33025,0.302 1.75,0.78125 0.41975,0.47926 0.74348,1.21811 0.75,2.53125 l 0,1.375 1.6875,1.9375 -0.0312,-3.3125 c -0.008,-1.67437 -0.44195,-3.01931 -1.21875,-3.90625 -0.77681,-0.88693 -1.8256,-1.26284 -2.875,-1.3125 -0.13118,-0.006 -0.24415,-0.005 -0.375,0 z"
           transform="translate(-269.7351,118.66755)"
           id="rect15119"
           inkscape:connector-curvature="0" />
        <path
           style="fill:#000000;stroke:none"
           d="m -175.7503,671.1012 c -1.87006,0.36104 -3.5197,2.82946 -3.59487,4.53038 0.0627,2.0348 0.27742,3.88826 0.25586,5.9275 -4.20222,3.79051 5.40841,6.59078 3.43874,-0.0258 -0.89928,-1.91133 -0.49386,-4.77008 -0.68816,-7.16084 -0.0106,-0.092 -0.0199,-0.17625 -0.0199,-0.25931 l -0.38896,-0.4488 0.47872,-0.41887 2.26394,-1.99467 c -0.57278,-0.0978 -1.16007,-0.15477 -1.74533,-0.1496 z"
           id="path15122"
           inkscape:connector-curvature="0"
           sodipodi:nodetypes="ccccccccccc" />
      </g>
    </g>
  </g>
</svg>
