<?xml version="1.0" encoding="UTF-8" standalone="no"?>
<!-- Created with Inkscape (http://www.inkscape.org/) -->

<svg
   xmlns:dc="http://purl.org/dc/elements/1.1/"
   xmlns:cc="http://creativecommons.org/ns#"
   xmlns:rdf="http://www.w3.org/1999/02/22-rdf-syntax-ns#"
   xmlns:svg="http://www.w3.org/2000/svg"
   xmlns="http://www.w3.org/2000/svg"
   xmlns:sodipodi="http://sodipodi.sourceforge.net/DTD/sodipodi-0.dtd"
   xmlns:inkscape="http://www.inkscape.org/namespaces/inkscape"
   width="1000"
   height="1000"
   id="svg3446"
   version="1.1"
   inkscape:version="0.48.2 r9819"
   sodipodi:docname="New document 2">
  <defs
     id="defs3448" />
  <sodipodi:namedview
     id="base"
     pagecolor="#ffffff"
     bordercolor="#666666"
     borderopacity="1.0"
     inkscape:pageopacity="0.0"
     inkscape:pageshadow="2"
     inkscape:zoom="0.24748737"
     inkscape:cx="16.428571"
     inkscape:cy="520"
     inkscape:document-units="px"
     inkscape:current-layer="layer1"
     showgrid="false"
     inkscape:window-width="987"
     inkscape:window-height="754"
     inkscape:window-x="58"
     inkscape:window-y="20"
     inkscape:window-maximized="0" />
  <metadata
     id="metadata3451">
    <rdf:RDF>
      <cc:Work
         rdf:about="">
        <dc:format>image/svg+xml</dc:format>
        <dc:type
           rdf:resource="http://purl.org/dc/dcmitype/StillImage" />
        <dc:title></dc:title>
      </cc:Work>
    </rdf:RDF>
  </metadata>
  <g
     inkscape:label="Layer 1"
     inkscape:groupmode="layer"
     id="layer1"
     transform="translate(0,-52.362183)">
    <g
       transform="matrix(29.450377,29.450377,-29.450377,29.450377,26843.403,-8768.2287)"
       id="g24619"
       style="display:inline"
       inkscape:export-filename="/Users/chyu/Desktop/tools-0.png"
       inkscape:export-xdpi="74.745888"
       inkscape:export-ydpi="74.745888">
      <g
         id="g24623"
         style="fill:#2e3436"
         transform="matrix(0.70710678,-0.70710678,0.70710678,0.70710678,-512.79679,-27.015006)">
        <g
           id="g24675"
           transform="matrix(0.70710678,0.70710678,-0.70710678,0.70710678,343.4996,381.70459)">
          <g
             id="g24727">
            <rect
               style="fill:none;stroke:none;display:inline"
               id="rect24621"
               width="24"
               height="24"
               x="-644.508"
               y="211.78841"
               transform="matrix(0.70710678,-0.70710678,0.70710678,0.70710678,0,0)" />
            <g
               transform="matrix(0.95034159,0.54867998,-0.54867998,0.95034159,266.20491,177.55891)"
               id="g24722">
              <g
                 transform="matrix(-0.13728008,-0.09612455,0.09967776,-0.1423546,-340.87553,653.41647)"
                 id="g24688"
                 style="fill:#2e3436">
                <path
                   inkscape:connector-curvature="0"
                   style="fill:#000000;fill-rule:evenodd;stroke:none"
                   d="m 213.3125,98.625 c -1.82706,1.4e-5 -2.53125,0.8125 -2.53125,0.8125 l -0.625,13.96875 6.34375,0 -0.625,-13.96875 c 0,0 -0.73542,-0.812498 -2.5625,-0.8125 z"
                   transform="matrix(-1.0361611,5.6668861,-5.8763608,-0.99922482,613.44675,-465.02312)"
                   id="path24690" />
                <path
                   style="fill:#000000;fill-rule:evenodd;stroke:none"
                   d="m -276.40558,611.43531 c -2.21311,12.10373 -4.42621,24.20746 -6.63932,36.31119 -4.17846,4.2749 -10.70252,3.82226 -16.13326,3.04845 -11.56998,-1.64857 -23.23332,-9.32013 -27.75407,-19.5474 -4.03019,-9.11747 -11.8378,-25.53627 -4.06512,-42.12413 3.24706,-6.92963 7.35835,-12.02519 11.79456,-15.71969 3.10455,-2.58548 6.15802,-0.92394 5.83553,2.84937 -2.35171,9.4067 2.51441,24.96571 10.68262,26.68724 8.16822,1.72154 15.29064,-1.57997 21.66743,3.61079 3.21586,2.61774 4.34336,2.45679 4.61163,4.88418 z"
                   id="path24694"
                   inkscape:connector-curvature="0"
                   sodipodi:nodetypes="ccssssczsc" />
              </g>
            </g>
          </g>
        </g>
      </g>
    </g>
  </g>
</svg>
