<?xml version="1.0" encoding="UTF-8" standalone="no"?>
<!-- Created with Inkscape (http://www.inkscape.org/) -->

<svg
   xmlns:dc="http://purl.org/dc/elements/1.1/"
   xmlns:cc="http://creativecommons.org/ns#"
   xmlns:rdf="http://www.w3.org/1999/02/22-rdf-syntax-ns#"
   xmlns:svg="http://www.w3.org/2000/svg"
   xmlns="http://www.w3.org/2000/svg"
   xmlns:sodipodi="http://sodipodi.sourceforge.net/DTD/sodipodi-0.dtd"
   xmlns:inkscape="http://www.inkscape.org/namespaces/inkscape"
   width="1000"
   height="1000"
   id="svg3446"
   version="1.1"
   inkscape:version="0.48.2 r9819"
   sodipodi:docname="toolbox_scale.svg">
  <defs
     id="defs3448" />
  <sodipodi:namedview
     id="base"
     pagecolor="#ffffff"
     bordercolor="#666666"
     borderopacity="1.0"
     inkscape:pageopacity="0.0"
     inkscape:pageshadow="2"
     inkscape:zoom="0.0875"
     inkscape:cx="335.2343"
     inkscape:cy="839.91562"
     inkscape:document-units="px"
     inkscape:current-layer="layer1"
     showgrid="false"
     inkscape:window-width="987"
     inkscape:window-height="754"
     inkscape:window-x="58"
     inkscape:window-y="20"
     inkscape:window-maximized="0"
     showguides="true"
     inkscape:guide-bbox="true" />
  <metadata
     id="metadata3451">
    <rdf:RDF>
      <cc:Work
         rdf:about="">
        <dc:format>image/svg+xml</dc:format>
        <dc:type
           rdf:resource="http://purl.org/dc/dcmitype/StillImage" />
        <dc:title></dc:title>
      </cc:Work>
    </rdf:RDF>
  </metadata>
  <g
     inkscape:label="Layer 1"
     inkscape:groupmode="layer"
     id="layer1"
     transform="translate(0,-52.362183)">
    <g
       style="display:inline"
       id="g14259"
       transform="matrix(41.649122,0,0,41.649122,8255.9287,-25059.283)"
       inkscape:export-filename="/Users/chyu/Desktop/tools-0.png"
       inkscape:export-xdpi="74.745888"
       inkscape:export-ydpi="74.745888">
      <rect
         y="602.93842"
         x="-198.2207"
         height="24"
         width="24"
         id="rect14257"
         style="fill:none;stroke:none" />
      <path
         inkscape:connector-curvature="0"
         id="rect14229"
         d="m -186.2207,611.1884 c -2.07417,0 -3.75,1.67584 -3.75,3.75 0,2.07416 1.67583,3.71875 3.75,3.71875 2.07416,0 3.71875,-1.64459 3.71875,-3.71875 0,-2.07416 -1.64459,-3.75 -3.71875,-3.75 z"
         style="fill:#000000;fill-rule:evenodd;stroke:none"
         sodipodi:nodetypes="sssss" />
      <path
         style="fill:#000000;fill-rule:evenodd;stroke:none"
         d="m -183.62695,620.03215 c -0.78249,0.40278 -1.6571,0.625 -2.59375,0.625 -0.83806,0 -1.65595,-0.17312 -2.375,-0.5 l 0,1.8125 -2.6875,0 5.0625,4.96875 5.03125,-4.96875 -2.4375,0 z"
         id="path15444"
         inkscape:connector-curvature="0"
         sodipodi:nodetypes="csccccccc" />
      <path
         inkscape:connector-curvature="0"
         id="path15446"
         d="m -179.18945,609.8759 0,2.46875 -1.9375,0 c 0.39281,0.7754 0.625,1.66857 0.625,2.59375 0,0.83919 -0.20421,1.62327 -0.53125,2.34375 l 1.84375,0 0,2.6875 4.96875,-5.03125 z"
         style="fill:#000000;fill-rule:evenodd;stroke:none"
         sodipodi:nodetypes="cccsccccc" />
      <path
         style="fill:#000000;fill-rule:evenodd;stroke:none"
         d="m -186.25195,602.9384 -5.03125,4.9375 2.4375,0 0,1.9375 c 0.7818,-0.40107 1.68948,-0.625 2.625,-0.625 0.83919,0 1.62394,0.20421 2.34375,0.53125 l 0,-1.84375 2.6875,0 z"
         id="path15448"
         inkscape:connector-curvature="0"
         sodipodi:nodetypes="ccccscccc" />
      <path
         inkscape:connector-curvature="0"
         id="path15450"
         d="m -193.2832,609.8759 -4.9375,5.0625 4.9375,5.03125 0,-2.4375 1.9375,0 c -0.40107,-0.7826 -0.625,-1.65823 -0.625,-2.59375 0,-0.83919 0.2042,-1.65519 0.53125,-2.375 l -1.84375,0 z"
         style="fill:#000000;fill-rule:evenodd;stroke:none"
         sodipodi:nodetypes="cccccsccc" />
    </g>
  </g>
</svg>
