<?xml version="1.0" encoding="UTF-8" standalone="no"?>
<!-- Created with Inkscape (http://www.inkscape.org/) -->

<svg
   xmlns:dc="http://purl.org/dc/elements/1.1/"
   xmlns:cc="http://creativecommons.org/ns#"
   xmlns:rdf="http://www.w3.org/1999/02/22-rdf-syntax-ns#"
   xmlns:svg="http://www.w3.org/2000/svg"
   xmlns="http://www.w3.org/2000/svg"
   xmlns:sodipodi="http://sodipodi.sourceforge.net/DTD/sodipodi-0.dtd"
   xmlns:inkscape="http://www.inkscape.org/namespaces/inkscape"
   width="1000"
   height="1000"
   id="svg3446"
   version="1.1"
   inkscape:version="0.48.2 r9819"
   sodipodi:docname="toolbox_width.svg">
  <defs
     id="defs3448" />
  <sodipodi:namedview
     id="base"
     pagecolor="#ffffff"
     bordercolor="#666666"
     borderopacity="1.0"
     inkscape:pageopacity="0.0"
     inkscape:pageshadow="2"
     inkscape:zoom="0.175"
     inkscape:cx="391.67828"
     inkscape:cy="358.37559"
     inkscape:document-units="px"
     inkscape:current-layer="layer1"
     showgrid="false"
     inkscape:window-width="987"
     inkscape:window-height="754"
     inkscape:window-x="58"
     inkscape:window-y="20"
     inkscape:window-maximized="0"
     showguides="true"
     inkscape:guide-bbox="true" />
  <metadata
     id="metadata3451">
    <rdf:RDF>
      <cc:Work
         rdf:about="">
        <dc:format>image/svg+xml</dc:format>
        <dc:type
           rdf:resource="http://purl.org/dc/dcmitype/StillImage" />
        <dc:title></dc:title>
      </cc:Work>
    </rdf:RDF>
  </metadata>
  <g
     inkscape:label="Layer 1"
     inkscape:groupmode="layer"
     id="layer1"
     transform="translate(0,-52.362183)">
    <g
       style="display:inline"
       id="g24815"
       transform="matrix(33.097137,33.097137,-29.450377,29.450377,27890.471,-7707.408)"
       inkscape:export-filename="/Users/chyu/Desktop/tools-0.png"
       inkscape:export-xdpi="74.745888"
       inkscape:export-ydpi="74.745888">
      <g
         id="g24817"
         transform="translate(5.2868997e-6,-0.30645888)">
        <rect
           style="fill:none;stroke:none;display:inline"
           id="rect24819"
           width="24"
           height="24"
           x="-301.2251"
           y="593.70966"
           transform="matrix(0.62919524,-0.70710678,0.62919524,0.70710678,-488.13899,-27.248489)" />
        <g
           transform="matrix(-0.11358513,-0.11358513,0.11778377,-0.11778377,-390.39135,647.77322)"
           id="g24821">
          <g
             transform="matrix(0.70710678,-0.68190054,0.73324476,0.70710678,-522.82722,-0.06897377)"
             id="g24823">
            <path
               style="font-size:medium;font-style:normal;font-variant:normal;font-weight:normal;font-stretch:normal;text-indent:0;text-align:start;text-decoration:none;line-height:normal;letter-spacing:normal;word-spacing:normal;text-transform:none;direction:ltr;block-progression:tb;writing-mode:lr-tb;text-anchor:start;baseline-shift:baseline;color:#000000;fill:#000000;fill-opacity:1;stroke:none;stroke-width:2;marker:none;visibility:visible;display:inline;overflow:visible;enable-background:accumulate;font-family:Sans;-inkscape-font-specification:Sans"
               d="m 253.1875,7.15625 0,9.6875 4.10366,0 c 0,0 1.92759,-0.0067 1.92759,-4.84375 0,-4.837003 -1.92759,-4.84375 -1.92759,-4.84375 z"
               id="path24825"
               inkscape:connector-curvature="0"
               transform="matrix(3.567451e-8,6.0034314,-5.5394155,-2.7803407e-8,-195.02693,-866.89116)"
               sodipodi:nodetypes="ccczcc" />
            <path
               id="path24827"
               d="m -273,524.15625 23,0 c -1.7827,-2.76767 -4.16867,-6.42211 -4.9375,-7.71875 -2.91526,-4.9166 -3.33772,-5.625 -6.5625,-5.625 -3.22478,0 -3.64724,0.7084 -6.5625,5.625 -0.76883,1.29664 -3.1548,4.95108 -4.9375,7.71875 z"
               style="fill:#000000;fill-rule:evenodd;stroke:none"
               inkscape:connector-curvature="0" />
            <path
               transform="matrix(3.567451e-8,6.0034314,-5.5394155,-2.7803407e-8,-195.02693,-866.89116)"
               inkscape:connector-curvature="0"
               id="path24867"
               d="m 236.84375,7.15625 -4.75,2.53125 0,4.625 4.75,2.53125 15.34375,0 0,-9.6875 z m 1.6875,1.1875 1.0625,0.71875 -3.4375,2.96875 3.4375,2.90625 -1.0625,0.71875 -1.6875,-0.03125 -3.78125,-2 c 0.0496,-1.122033 0,-2.152886 0,-3.25 l 3.78125,-2 z"
               style="font-size:medium;font-style:normal;font-variant:normal;font-weight:normal;font-stretch:normal;text-indent:0;text-align:start;text-decoration:none;line-height:normal;letter-spacing:normal;word-spacing:normal;text-transform:none;direction:ltr;block-progression:tb;writing-mode:lr-tb;text-anchor:start;baseline-shift:baseline;color:#000000;fill:#000000;fill-opacity:1;stroke:none;stroke-width:2;marker:none;visibility:visible;display:inline;overflow:visible;enable-background:accumulate;font-family:Sans;-inkscape-font-specification:Sans"
               sodipodi:nodetypes="ccccccccccccccccc" />
          </g>
          <g
             id="g24829"
             transform="matrix(-0.70710678,0.68190054,0.73324476,0.70710678,-892.64392,356.56487)" />
        </g>
      </g>
    </g>
  </g>
</svg>
