<?xml version="1.0" encoding="UTF-8" standalone="no"?>
<!-- Created with Inkscape (http://www.inkscape.org/) -->

<svg
   xmlns:dc="http://purl.org/dc/elements/1.1/"
   xmlns:cc="http://creativecommons.org/ns#"
   xmlns:rdf="http://www.w3.org/1999/02/22-rdf-syntax-ns#"
   xmlns:svg="http://www.w3.org/2000/svg"
   xmlns="http://www.w3.org/2000/svg"
   xmlns:sodipodi="http://sodipodi.sourceforge.net/DTD/sodipodi-0.dtd"
   xmlns:inkscape="http://www.inkscape.org/namespaces/inkscape"
   width="1000"
   height="1000"
   id="svg3446"
   version="1.1"
   inkscape:version="0.48.2 r9819"
   sodipodi:docname="toolbox_brush.svg">
  <defs
     id="defs3448" />
  <sodipodi:namedview
     id="base"
     pagecolor="#ffffff"
     bordercolor="#666666"
     borderopacity="1.0"
     inkscape:pageopacity="0.0"
     inkscape:pageshadow="2"
     inkscape:zoom="0.24748737"
     inkscape:cx="16.428571"
     inkscape:cy="520"
     inkscape:document-units="px"
     inkscape:current-layer="layer1"
     showgrid="false"
     inkscape:window-width="987"
     inkscape:window-height="754"
     inkscape:window-x="58"
     inkscape:window-y="20"
     inkscape:window-maximized="0"
     showguides="true"
     inkscape:guide-bbox="true" />
  <metadata
     id="metadata3451">
    <rdf:RDF>
      <cc:Work
         rdf:about="">
        <dc:format>image/svg+xml</dc:format>
        <dc:type
           rdf:resource="http://purl.org/dc/dcmitype/StillImage" />
        <dc:title></dc:title>
      </cc:Work>
    </rdf:RDF>
  </metadata>
  <g
     inkscape:label="Layer 1"
     inkscape:groupmode="layer"
     id="layer1"
     transform="translate(0,-52.362183)">
    <g
       style="display:inline"
       id="g7039"
       transform="matrix(29.450377,29.450377,-29.450377,29.450377,1676.1794,-33269.181)"
       inkscape:export-filename="/Users/chyu/Desktop/tools-0.png"
       inkscape:export-xdpi="74.745888"
       inkscape:export-ydpi="74.745888">
      <rect
         style="fill:none;stroke:none"
         id="rect6989"
         width="24"
         height="24"
         x="-40.240196"
         y="800.05896"
         transform="matrix(0.70710678,-0.70710678,0.70710678,0.70710678,0,0)" />
      <g
         id="g7080">
        <path
           inkscape:connector-curvature="0"
           id="path6993"
           d="m 551.26421,593.61103 0,12.3125 c 0.008,1.22251 1.25057,4.12803 2.96875,4.46875 1.71818,-0.34072 2.96075,-3.24624 2.96875,-4.46875 l 0,-12.3125 -2,0 0,12.125 c -0.018,0.54027 -0.38735,1.88648 -0.96875,2.5 -0.5814,-0.61352 -0.95077,-1.95973 -0.96875,-2.5 l 0,-12.125 -2,0 z"
           style="font-size:medium;font-style:normal;font-variant:normal;font-weight:normal;font-stretch:normal;text-indent:0;text-align:start;text-decoration:none;line-height:normal;letter-spacing:normal;word-spacing:normal;text-transform:none;direction:ltr;block-progression:tb;writing-mode:lr-tb;text-anchor:start;baseline-shift:baseline;color:#000000;fill:#000000;fill-opacity:1;stroke:none;stroke-width:2;marker:none;visibility:visible;display:inline;overflow:visible;enable-background:accumulate;font-family:Sans;-inkscape-font-specification:Sans" />
        <path
           style="fill:#000000;fill-opacity:1;stroke:none"
           d="m 156.21875,68.125 c -0.99845,0.0065 -2.00496,0.411213 -2.78125,1.1875 l -4.75,4.75 5.4375,5.4375 4.78125,-4.75 c 1.55257,-1.552573 1.57485,-3.987647 0.0625,-5.5 -0.75618,-0.756176 -1.75155,-1.131518 -2.75,-1.125 z"
           transform="matrix(0.70710678,-0.70710678,0.70710678,0.70710678,392.85544,642.43212)"
           id="rect7022"
           inkscape:connector-curvature="0" />
        <path
           style="fill:#000000;stroke:none"
           d="m 547.28894,590.66107 13.86035,0 c 0.30885,0 0.55749,0.25763 0.55749,0.57764 l 0,1.78343 c 0,0.32001 -0.24864,0.57764 -0.55749,0.57764 l -13.86035,0 c -0.30885,0 -0.55749,-0.25763 -0.55749,-0.57764 l 0,-1.78343 c 0,-0.32001 0.24864,-0.57764 0.55749,-0.57764 z"
           id="rect7046"
           inkscape:connector-curvature="0" />
        <path
           inkscape:connector-curvature="0"
           id="rect7074"
           d="m 553.26421,601.57978 0,4.15625 c 0.018,0.54027 0.38735,1.88648 0.96875,2.5 0.5814,-0.61352 0.95077,-1.95973 0.96875,-2.5 l 0,-4.15625 -1.9375,0 z"
           style="fill:#000000;fill-opacity:1;stroke:none" />
      </g>
    </g>
  </g>
</svg>
