<?xml version="1.0" encoding="UTF-8" standalone="no"?>
<!-- Created with Inkscape (http://www.inkscape.org/) -->

<svg
   xmlns:dc="http://purl.org/dc/elements/1.1/"
   xmlns:cc="http://creativecommons.org/ns#"
   xmlns:rdf="http://www.w3.org/1999/02/22-rdf-syntax-ns#"
   xmlns:svg="http://www.w3.org/2000/svg"
   xmlns="http://www.w3.org/2000/svg"
   xmlns:sodipodi="http://sodipodi.sourceforge.net/DTD/sodipodi-0.dtd"
   xmlns:inkscape="http://www.inkscape.org/namespaces/inkscape"
   width="1000"
   height="1000"
   id="svg3288"
   version="1.1"
   inkscape:version="0.48.2 r9819">
  <defs
     id="defs3290" />
  <sodipodi:namedview
     id="base"
     pagecolor="#ffffff"
     bordercolor="#666666"
     borderopacity="1.0"
     inkscape:pageopacity="0.0"
     inkscape:pageshadow="2"
     inkscape:zoom="0.2215084"
     inkscape:cx="42.22341"
     inkscape:cy="535.91251"
     inkscape:document-units="px"
     inkscape:current-layer="layer1"
     showgrid="false"
     showguides="false"
     inkscape:window-width="1218"
     inkscape:window-height="755"
     inkscape:window-x="58"
     inkscape:window-y="20"
     inkscape:window-maximized="0" />
  <metadata
     id="metadata3293">
    <rdf:RDF>
      <cc:Work
         rdf:about="">
        <dc:format>image/svg+xml</dc:format>
        <dc:type
           rdf:resource="http://purl.org/dc/dcmitype/StillImage" />
        <dc:title></dc:title>
      </cc:Work>
    </rdf:RDF>
  </metadata>
  <g
     inkscape:label="Layer 1"
     inkscape:groupmode="layer"
     id="layer1"
     transform="translate(0,-52.362183)">
    <path
       style="fill:#000000;fill-opacity:1;stroke:none;display:inline"
       d="M 385.54418,238.97363 C 160.88988,324.17597 31.980783,533.50137 97.640779,706.62758 163.30208,879.75745 398.60138,950.95327 623.25578,865.75089 696.93294,837.80827 760.34007,796.36731 809.9329,747.36666 828.65556,690.98246 667.91329,637.68046 694.7697,555.23907 c 9.98083,-30.63913 30.24916,-74.57024 89.89712,-97.54126 82.5608,-27.334 160.9477,43.43844 126.49098,-59.60486 C 845.49782,224.96673 610.19858,153.77124 385.54418,238.97363 z m 108.9404,354.15907 c 44.4221,-16.84762 94.0823,5.50203 110.9296,49.92328 16.8473,44.4216 -5.5026,94.08169 -49.9247,110.9293 -44.4222,16.84725 -94.0825,-5.50205 -110.9298,-49.92365 -16.8472,-44.42123 5.5026,-94.08132 49.9249,-110.92893 z"
       id="path9991-8"
       inkscape:connector-curvature="0" />
  </g>
</svg>
