<?xml version="1.0" encoding="UTF-8" standalone="no"?>
<!-- Created with Inkscape (http://www.inkscape.org/) -->

<svg
   xmlns:dc="http://purl.org/dc/elements/1.1/"
   xmlns:cc="http://creativecommons.org/ns#"
   xmlns:rdf="http://www.w3.org/1999/02/22-rdf-syntax-ns#"
   xmlns:svg="http://www.w3.org/2000/svg"
   xmlns="http://www.w3.org/2000/svg"
   xmlns:sodipodi="http://sodipodi.sourceforge.net/DTD/sodipodi-0.dtd"
   xmlns:inkscape="http://www.inkscape.org/namespaces/inkscape"
   width="1000"
   height="1000"
   id="svg3288"
   version="1.1"
   inkscape:version="0.48.2 r9819">
  <defs
     id="defs3290" />
  <sodipodi:namedview
     id="base"
     pagecolor="#ffffff"
     bordercolor="#666666"
     borderopacity="1.0"
     inkscape:pageopacity="0.0"
     inkscape:pageshadow="2"
     inkscape:zoom="0.15663009"
     inkscape:cx="42.22341"
     inkscape:cy="535.91251"
     inkscape:document-units="px"
     inkscape:current-layer="layer1"
     showgrid="false"
     showguides="false"
     inkscape:window-width="1218"
     inkscape:window-height="755"
     inkscape:window-x="58"
     inkscape:window-y="20"
     inkscape:window-maximized="0" />
  <metadata
     id="metadata3293">
    <rdf:RDF>
      <cc:Work
         rdf:about="">
        <dc:format>image/svg+xml</dc:format>
        <dc:type
           rdf:resource="http://purl.org/dc/dcmitype/StillImage" />
        <dc:title></dc:title>
      </cc:Work>
    </rdf:RDF>
  </metadata>
  <g
     inkscape:label="Layer 1"
     inkscape:groupmode="layer"
     id="layer1"
     transform="translate(0,-52.362183)">
    <g
       id="g6514"
       transform="matrix(38.796424,0,0,38.796424,6802.4683,-22238.167)">
      <path
         id="path6506"
         transform="matrix(0.93442818,0,0,0.93442818,-230.35637,138.75538)"
         d="m 77.03125,469.8125 0,3.96875 c 2.114697,1.40556 3.46875,3.81168 3.46875,6.5625 0,4.36946 -3.444128,7.84375 -7.8125,7.84375 -4.368436,0 -7.90625,-3.4753 -7.90625,-7.84375 0,-2.74797 1.384722,-5.15664 3.5,-6.5625 l 0,-3.9375 c -4.094344,1.72253 -6.96875,5.79497 -6.96875,10.5 0,6.26041 5.114604,11.375 11.375,11.375 6.260353,0 11.34375,-5.11552 11.34375,-11.375 0,-4.71928 -2.887528,-8.81741 -7,-10.53125 z"
         style="font-size:medium;font-style:normal;font-variant:normal;font-weight:normal;font-stretch:normal;text-indent:0;text-align:start;text-decoration:none;line-height:normal;letter-spacing:normal;word-spacing:normal;text-transform:none;direction:ltr;block-progression:tb;writing-mode:lr-tb;text-anchor:start;baseline-shift:baseline;color:#000000;fill:#000000;fill-opacity:1;fill-rule:nonzero;stroke:none;stroke-width:0.46721408;marker:none;visibility:visible;display:inline;overflow:visible;enable-background:accumulate;font-family:Sans;-inkscape-font-specification:Sans"
         inkscape:connector-curvature="0" />
      <path
         sodipodi:nodetypes="ccccccsccccccc"
         inkscape:connector-curvature="0"
         id="path6510"
         d="m -162.68755,576.65625 c 0.01,-10e-4 0.0212,10e-4 0.0312,0 0.9642,-0.10313 1.85291,0.63363 1.84375,1.5 l 0,8.96875 c -0.0119,0.0182 0.009,0.0595 0,0.0937 -0.006,0.0251 -0.0339,0.0331 -0.0312,0.0625 0.0782,0.84654 -0.64352,1.65625 -1.59375,1.65625 -0.939,0 -1.68289,-0.79471 -1.625,-1.625 0,-2e-5 8.8e-4,-0.0193 0,-0.0312 -0.002,-0.0239 10e-6,-0.0625 0,-0.0625 -1e-5,-4e-5 -0.0312,-0.0625 -0.0312,-0.0625 l 0,-9 c -0.009,-0.72926 0.60313,-1.38787 1.40625,-1.5 z"
         style="font-size:medium;font-style:normal;font-variant:normal;font-weight:normal;font-stretch:normal;text-indent:0;text-align:start;text-decoration:none;line-height:normal;letter-spacing:normal;word-spacing:normal;text-transform:none;direction:ltr;block-progression:tb;writing-mode:lr-tb;text-anchor:start;baseline-shift:baseline;color:#000000;fill:#000000;fill-opacity:1;fill-rule:nonzero;stroke:none;stroke-width:0.46721408;marker:none;visibility:visible;display:inline;overflow:visible;enable-background:accumulate;font-family:Sans;-inkscape-font-specification:Sans" />
    </g>
  </g>
</svg>
