<?xml version="1.0" encoding="UTF-8" standalone="no"?>
<!-- Created with Inkscape (http://www.inkscape.org/) -->

<svg
   xmlns:dc="http://purl.org/dc/elements/1.1/"
   xmlns:cc="http://creativecommons.org/ns#"
   xmlns:rdf="http://www.w3.org/1999/02/22-rdf-syntax-ns#"
   xmlns:svg="http://www.w3.org/2000/svg"
   xmlns="http://www.w3.org/2000/svg"
   xmlns:sodipodi="http://sodipodi.sourceforge.net/DTD/sodipodi-0.dtd"
   xmlns:inkscape="http://www.inkscape.org/namespaces/inkscape"
   width="1000"
   height="1000"
   id="svg3288"
   version="1.1"
   inkscape:version="0.48.2 r9819">
  <defs
     id="defs3290" />
  <sodipodi:namedview
     id="base"
     pagecolor="#ffffff"
     bordercolor="#666666"
     borderopacity="1.0"
     inkscape:pageopacity="0.0"
     inkscape:pageshadow="2"
     inkscape:zoom="0.2215084"
     inkscape:cx="42.22341"
     inkscape:cy="535.91251"
     inkscape:document-units="px"
     inkscape:current-layer="layer1"
     showgrid="false"
     showguides="false"
     inkscape:window-width="1218"
     inkscape:window-height="755"
     inkscape:window-x="58"
     inkscape:window-y="20"
     inkscape:window-maximized="0" />
  <metadata
     id="metadata3293">
    <rdf:RDF>
      <cc:Work
         rdf:about="">
        <dc:format>image/svg+xml</dc:format>
        <dc:type
           rdf:resource="http://purl.org/dc/dcmitype/StillImage" />
        <dc:title></dc:title>
      </cc:Work>
    </rdf:RDF>
  </metadata>
  <g
     inkscape:label="Layer 1"
     inkscape:groupmode="layer"
     id="layer1"
     transform="translate(0,-52.362183)">
    <g
       transform="matrix(36.229362,0,0,36.252471,-20844.721,-12558.367)"
       id="g6495"
       style="display:inline">
      <path
         sodipodi:nodetypes="ccccccc"
         inkscape:connector-curvature="0"
         style="fill:#000000;stroke:none"
         mask="none"
         clip-path="none"
         d="m -46.34375,582.84375 0,19.5625 16.21875,0 0,-8.90625 7.78125,0 0,-10.65625 z"
         transform="translate(623.49141,-230.98016)"
         id="path6497" />
      <g
         id="g6500"
         transform="matrix(1,0,0,0.92587745,27.917889,31.377246)"
         clip-path="none"
         mask="none" />
      <path
         style="fill:#2e3436;fill-rule:evenodd;stroke:none"
         d="m 594.22289,363.49318 6.94008,0 -6.94008,7.94449 z"
         id="path6502"
         inkscape:connector-curvature="0"
         sodipodi:nodetypes="cccc" />
      <path
         id="path4582"
         transform="translate(623.49141,-230.98016)"
         d="m -34.339412,583.92466 c 0.827682,0 1.477251,0.6895 1.477251,1.51718 0,0.82768 -0.649569,1.47725 -1.477251,1.47725 -0.827682,0 -1.517177,-0.64957 -1.517177,-1.47725 0,-0.82768 0.689495,-1.51718 1.517177,-1.51718 z"
         clip-path="none"
         mask="none"
         style="fill:#eeeeec;stroke:none"
         inkscape:connector-curvature="0"
         sodipodi:nodetypes="sssss" />
      <path
         sodipodi:nodetypes="ccccc"
         inkscape:connector-curvature="0"
         style="fill:#eeeeec;stroke:none"
         mask="none"
         clip-path="none"
         d="m -29.21875,584.25 3.9375,0 0,2.34375 -3.9375,0 z"
         transform="translate(623.49141,-230.98016)"
         id="path4584" />
      <path
         sodipodi:nodetypes="ccccc"
         inkscape:connector-curvature="0"
         style="fill:#eeeeec;stroke:none"
         mask="none"
         clip-path="none"
         d="m -43.40625,584.25 3.90625,0 0,2.34375 -3.90625,0 z"
         transform="translate(623.49141,-230.98016)"
         id="path4586" />
      <path
         id="path12653"
         transform="translate(623.49141,-230.98016)"
         d="m -43.40625,584.25 3.90625,0 0,2.34375 -3.90625,0 z m 9.066838,-0.32534 c 0.827682,0 1.477251,0.6895 1.477251,1.51718 0,0.82768 -0.649569,1.47725 -1.477251,1.47725 -0.827682,0 -1.517177,-0.64957 -1.517177,-1.47725 0,-0.82768 0.689495,-1.51718 1.517177,-1.51718 z m 5.120662,0.32534 3.9375,0 0,2.34375 -3.9375,0 z"
         clip-path="none"
         mask="none"
         style="fill:#eeeeec;stroke:none"
         inkscape:connector-curvature="0"
         sodipodi:nodetypes="cccccsssssccccc" />
      <path
         sodipodi:nodetypes="ccccc"
         inkscape:connector-curvature="0"
         style="fill:#eeeeec;stroke:none"
         mask="none"
         clip-path="none"
         d="m -43.40625,584.25 3.90625,0 0,2.34375 -3.90625,0 z"
         transform="translate(623.49141,-230.98016)"
         id="path12655" />
      <path
         sodipodi:nodetypes="sssss"
         inkscape:connector-curvature="0"
         style="fill:#eeeeec;stroke:none"
         mask="none"
         clip-path="none"
         d="m -34.339412,583.92466 c 0.827682,0 1.477251,0.6895 1.477251,1.51718 0,0.82768 -0.649569,1.47725 -1.477251,1.47725 -0.827682,0 -1.517177,-0.64957 -1.517177,-1.47725 0,-0.82768 0.689495,-1.51718 1.517177,-1.51718 z"
         transform="translate(623.49141,-230.98016)"
         id="path12657" />
      <path
         sodipodi:nodetypes="ccccc"
         inkscape:connector-curvature="0"
         style="fill:#eeeeec;stroke:none"
         mask="none"
         clip-path="none"
         d="m -29.21875,584.25 3.9375,0 0,2.34375 -3.9375,0 z"
         transform="translate(623.49141,-230.98016)"
         id="path12659" />
    </g>
  </g>
</svg>
