<?xml version="1.0" encoding="UTF-8" standalone="no"?>
<!-- Created with Inkscape (http://www.inkscape.org/) -->

<svg
   xmlns:dc="http://purl.org/dc/elements/1.1/"
   xmlns:cc="http://creativecommons.org/ns#"
   xmlns:rdf="http://www.w3.org/1999/02/22-rdf-syntax-ns#"
   xmlns:svg="http://www.w3.org/2000/svg"
   xmlns="http://www.w3.org/2000/svg"
   xmlns:sodipodi="http://sodipodi.sourceforge.net/DTD/sodipodi-0.dtd"
   xmlns:inkscape="http://www.inkscape.org/namespaces/inkscape"
   width="1000"
   height="1000"
   id="svg3288"
   version="1.1"
   inkscape:version="0.48.2 r9819">
  <defs
     id="defs3290" />
  <sodipodi:namedview
     id="base"
     pagecolor="#ffffff"
     bordercolor="#666666"
     borderopacity="1.0"
     inkscape:pageopacity="0.0"
     inkscape:pageshadow="2"
     inkscape:zoom="0.2215084"
     inkscape:cx="42.22341"
     inkscape:cy="535.91251"
     inkscape:document-units="px"
     inkscape:current-layer="layer1"
     showgrid="false"
     showguides="false"
     inkscape:window-width="1218"
     inkscape:window-height="755"
     inkscape:window-x="58"
     inkscape:window-y="20"
     inkscape:window-maximized="0" />
  <metadata
     id="metadata3293">
    <rdf:RDF>
      <cc:Work
         rdf:about="">
        <dc:format>image/svg+xml</dc:format>
        <dc:type
           rdf:resource="http://purl.org/dc/dcmitype/StillImage" />
        <dc:title></dc:title>
      </cc:Work>
    </rdf:RDF>
  </metadata>
  <g
     inkscape:label="Layer 1"
     inkscape:groupmode="layer"
     id="layer1"
     transform="translate(0,-52.362183)">
    <path
       style="font-size:medium;font-style:normal;font-variant:normal;font-weight:normal;font-stretch:normal;text-indent:0;text-align:start;text-decoration:none;line-height:normal;letter-spacing:normal;word-spacing:normal;text-transform:none;direction:ltr;block-progression:tb;writing-mode:lr-tb;text-anchor:start;baseline-shift:baseline;color:#000000;fill:#000000;fill-opacity:1;stroke:none;stroke-width:1.5;marker:none;visibility:visible;display:inline;overflow:visible;enable-background:accumulate;font-family:Sans;-inkscape-font-specification:Sans"
       d="m 500.08977,157.31592 a 63.351562,63.448169 0 0 0 -7.7841,0.47177 63.351562,63.448169 0 0 0 -48.6261,32.85549 L 73.777772,852.23366 a 63.351562,63.448169 0 0 0 54.287398,95.1629 l 742.06124,0 a 63.351562,63.448169 0 1 0 0,-126.8725 l -633.45294,0 317.8385,-567.57354 a 63.351562,63.448169 0 0 0 -54.4222,-95.6346 z m 290.67804,93.81491 c -73.88981,0 -134.79154,60.78867 -134.79154,134.79147 0,74.00296 60.90173,134.82526 134.79154,134.82526 73.8903,0 134.82528,-60.8223 134.82528,-134.82526 0,-74.0028 -60.93498,-134.79147 -134.82528,-134.79147 z m 0,72.48417 c 34.7653,0 62.3075,27.4891 62.3075,62.3073 0,34.8184 -27.5422,62.34106 -62.3075,62.34106 -34.7649,0 -62.3073,-27.52266 -62.3073,-62.34106 0,-34.8182 27.5424,-62.3073 62.3073,-62.3073 z m -321.64634,131.92716 -27.1942,47.5815 c 98.3631,66.9946 162.6236,174.6441 173.3083,293.4412 l 54.3884,0 c -10.5658,-138.7708 -85.0289,-264.0993 -200.5025,-341.0227 z"
       id="path3180"
       inkscape:connector-curvature="0" />
  </g>
</svg>
